<?xml version="1.0" encoding="utf-8" standalone="no"?>
<!DOCTYPE svg PUBLIC "-//W3C//DTD SVG 1.1//EN"
  "http://www.w3.org/Graphics/SVG/1.1/DTD/svg11.dtd">
<svg xmlns:xlink="http://www.w3.org/1999/xlink" width="324pt" height="216pt" viewBox="0 0 324 216" xmlns="http://www.w3.org/2000/svg" version="1.1">
 <metadata>
  <rdf:RDF xmlns:dc="http://purl.org/dc/elements/1.1/" xmlns:cc="http://creativecommons.org/ns#" xmlns:rdf="http://www.w3.org/1999/02/22-rdf-syntax-ns#">
   <cc:Work>
    <dc:type rdf:resource="http://purl.org/dc/dcmitype/StillImage"/>
    <dc:date>2024-04-26T18:06:17.411291</dc:date>
    <dc:format>image/svg+xml</dc:format>
    <dc:creator>
     <cc:Agent>
      <dc:title>Matplotlib v3.7.2, https://matplotlib.org/</dc:title>
     </cc:Agent>
    </dc:creator>
   </cc:Work>
  </rdf:RDF>
 </metadata>
 <defs>
  <style type="text/css">*{stroke-linejoin: round; stroke-linecap: butt}</style>
 </defs>
 <g id="figure_1">
  <g id="patch_1">
   <path d="M 0 216 
L 324 216 
L 324 0 
L 0 0 
z
" style="fill: #ffffff"/>
  </g>
  <g id="axes_1">
   <g id="patch_2">
    <path d="M 41.09024 188.242416 
L 320.99976 188.242416 
L 320.99976 3.00024 
L 41.09024 3.00024 
z
" style="fill: #ffffff"/>
   </g>
   <g id="matplotlib.axis_1">
    <g id="xtick_1">
     <g id="line2d_1">
      <defs>
       <path id="mfcbcd8bee3" d="M 0 0 
L 0 -3.5 
" style="stroke: #000000; stroke-width: 0.8"/>
      </defs>
      <g>
       <use xlink:href="#mfcbcd8bee3" x="53.8134" y="188.242416" style="stroke: #000000; stroke-width: 0.8"/>
      </g>
     </g>
     <g id="text_1">
      <!-- 0 -->
      <g transform="translate(51.4384 198.338979) scale(0.095 -0.095)">
       <defs>
        <path id="TimesNewRomanPSMT-30" d="M 231 2094 
Q 231 2819 450 3342 
Q 669 3866 1031 4122 
Q 1313 4325 1613 4325 
Q 2100 4325 2488 3828 
Q 2972 3213 2972 2159 
Q 2972 1422 2759 906 
Q 2547 391 2217 158 
Q 1888 -75 1581 -75 
Q 975 -75 572 641 
Q 231 1244 231 2094 
z
M 844 2016 
Q 844 1141 1059 588 
Q 1238 122 1591 122 
Q 1759 122 1940 273 
Q 2122 425 2216 781 
Q 2359 1319 2359 2297 
Q 2359 3022 2209 3506 
Q 2097 3866 1919 4016 
Q 1791 4119 1609 4119 
Q 1397 4119 1231 3928 
Q 1006 3669 925 3112 
Q 844 2556 844 2016 
z
" transform="scale(0.015625)"/>
       </defs>
       <use xlink:href="#TimesNewRomanPSMT-30"/>
      </g>
     </g>
    </g>
    <g id="xtick_2">
     <g id="line2d_2">
      <g>
       <use xlink:href="#mfcbcd8bee3" x="109.131487" y="188.242416" style="stroke: #000000; stroke-width: 0.8"/>
      </g>
     </g>
     <g id="text_2">
      <!-- 20 -->
      <g transform="translate(104.381487 198.338979) scale(0.095 -0.095)">
       <defs>
        <path id="TimesNewRomanPSMT-32" d="M 2934 816 
L 2638 0 
L 138 0 
L 138 116 
Q 1241 1122 1691 1759 
Q 2141 2397 2141 2925 
Q 2141 3328 1894 3587 
Q 1647 3847 1303 3847 
Q 991 3847 742 3664 
Q 494 3481 375 3128 
L 259 3128 
Q 338 3706 661 4015 
Q 984 4325 1469 4325 
Q 1984 4325 2329 3994 
Q 2675 3663 2675 3213 
Q 2675 2891 2525 2569 
Q 2294 2063 1775 1497 
Q 997 647 803 472 
L 1909 472 
Q 2247 472 2383 497 
Q 2519 522 2628 598 
Q 2738 675 2819 816 
L 2934 816 
z
" transform="scale(0.015625)"/>
       </defs>
       <use xlink:href="#TimesNewRomanPSMT-32"/>
       <use xlink:href="#TimesNewRomanPSMT-30" x="50"/>
      </g>
     </g>
    </g>
    <g id="xtick_3">
     <g id="line2d_3">
      <g>
       <use xlink:href="#mfcbcd8bee3" x="164.449574" y="188.242416" style="stroke: #000000; stroke-width: 0.8"/>
      </g>
     </g>
     <g id="text_3">
      <!-- 40 -->
      <g transform="translate(159.699574 198.338979) scale(0.095 -0.095)">
       <defs>
        <path id="TimesNewRomanPSMT-34" d="M 2978 1563 
L 2978 1119 
L 2409 1119 
L 2409 0 
L 1894 0 
L 1894 1119 
L 100 1119 
L 100 1519 
L 2066 4325 
L 2409 4325 
L 2409 1563 
L 2978 1563 
z
M 1894 1563 
L 1894 3666 
L 406 1563 
L 1894 1563 
z
" transform="scale(0.015625)"/>
       </defs>
       <use xlink:href="#TimesNewRomanPSMT-34"/>
       <use xlink:href="#TimesNewRomanPSMT-30" x="50"/>
      </g>
     </g>
    </g>
    <g id="xtick_4">
     <g id="line2d_4">
      <g>
       <use xlink:href="#mfcbcd8bee3" x="219.767661" y="188.242416" style="stroke: #000000; stroke-width: 0.8"/>
      </g>
     </g>
     <g id="text_4">
      <!-- 60 -->
      <g transform="translate(215.017661 198.338979) scale(0.095 -0.095)">
       <defs>
        <path id="TimesNewRomanPSMT-36" d="M 2869 4325 
L 2869 4209 
Q 2456 4169 2195 4045 
Q 1934 3922 1679 3669 
Q 1425 3416 1258 3105 
Q 1091 2794 978 2366 
Q 1428 2675 1881 2675 
Q 2316 2675 2634 2325 
Q 2953 1975 2953 1425 
Q 2953 894 2631 456 
Q 2244 -75 1606 -75 
Q 1172 -75 869 213 
Q 275 772 275 1663 
Q 275 2231 503 2743 
Q 731 3256 1154 3653 
Q 1578 4050 1965 4187 
Q 2353 4325 2688 4325 
L 2869 4325 
z
M 925 2138 
Q 869 1716 869 1456 
Q 869 1156 980 804 
Q 1091 453 1309 247 
Q 1469 100 1697 100 
Q 1969 100 2183 356 
Q 2397 613 2397 1088 
Q 2397 1622 2184 2012 
Q 1972 2403 1581 2403 
Q 1463 2403 1327 2353 
Q 1191 2303 925 2138 
z
" transform="scale(0.015625)"/>
       </defs>
       <use xlink:href="#TimesNewRomanPSMT-36"/>
       <use xlink:href="#TimesNewRomanPSMT-30" x="50"/>
      </g>
     </g>
    </g>
    <g id="xtick_5">
     <g id="line2d_5">
      <g>
       <use xlink:href="#mfcbcd8bee3" x="275.085748" y="188.242416" style="stroke: #000000; stroke-width: 0.8"/>
      </g>
     </g>
     <g id="text_5">
      <!-- 80 -->
      <g transform="translate(270.335748 198.338979) scale(0.095 -0.095)">
       <defs>
        <path id="TimesNewRomanPSMT-38" d="M 1228 2134 
Q 725 2547 579 2797 
Q 434 3047 434 3316 
Q 434 3728 753 4026 
Q 1072 4325 1600 4325 
Q 2113 4325 2425 4047 
Q 2738 3769 2738 3413 
Q 2738 3175 2569 2928 
Q 2400 2681 1866 2347 
Q 2416 1922 2594 1678 
Q 2831 1359 2831 1006 
Q 2831 559 2490 242 
Q 2150 -75 1597 -75 
Q 994 -75 656 303 
Q 388 606 388 966 
Q 388 1247 577 1523 
Q 766 1800 1228 2134 
z
M 1719 2469 
Q 2094 2806 2194 3001 
Q 2294 3197 2294 3444 
Q 2294 3772 2109 3958 
Q 1925 4144 1606 4144 
Q 1288 4144 1088 3959 
Q 888 3775 888 3528 
Q 888 3366 970 3203 
Q 1053 3041 1206 2894 
L 1719 2469 
z
M 1375 2016 
Q 1116 1797 991 1539 
Q 866 1281 866 981 
Q 866 578 1086 336 
Q 1306 94 1647 94 
Q 1984 94 2187 284 
Q 2391 475 2391 747 
Q 2391 972 2272 1150 
Q 2050 1481 1375 2016 
z
" transform="scale(0.015625)"/>
       </defs>
       <use xlink:href="#TimesNewRomanPSMT-38"/>
       <use xlink:href="#TimesNewRomanPSMT-30" x="50"/>
      </g>
     </g>
    </g>
    <g id="xtick_6">
     <g id="line2d_6">
      <defs>
       <path id="m2c7b340cc9" d="M 0 0 
L 0 -2 
" style="stroke: #000000; stroke-width: 0.6"/>
      </defs>
      <g>
       <use xlink:href="#m2c7b340cc9" x="67.642922" y="188.242416" style="stroke: #000000; stroke-width: 0.6"/>
      </g>
     </g>
    </g>
    <g id="xtick_7">
     <g id="line2d_7">
      <g>
       <use xlink:href="#m2c7b340cc9" x="81.472443" y="188.242416" style="stroke: #000000; stroke-width: 0.6"/>
      </g>
     </g>
    </g>
    <g id="xtick_8">
     <g id="line2d_8">
      <g>
       <use xlink:href="#m2c7b340cc9" x="95.301965" y="188.242416" style="stroke: #000000; stroke-width: 0.6"/>
      </g>
     </g>
    </g>
    <g id="xtick_9">
     <g id="line2d_9">
      <g>
       <use xlink:href="#m2c7b340cc9" x="122.961009" y="188.242416" style="stroke: #000000; stroke-width: 0.6"/>
      </g>
     </g>
    </g>
    <g id="xtick_10">
     <g id="line2d_10">
      <g>
       <use xlink:href="#m2c7b340cc9" x="136.79053" y="188.242416" style="stroke: #000000; stroke-width: 0.6"/>
      </g>
     </g>
    </g>
    <g id="xtick_11">
     <g id="line2d_11">
      <g>
       <use xlink:href="#m2c7b340cc9" x="150.620052" y="188.242416" style="stroke: #000000; stroke-width: 0.6"/>
      </g>
     </g>
    </g>
    <g id="xtick_12">
     <g id="line2d_12">
      <g>
       <use xlink:href="#m2c7b340cc9" x="178.279096" y="188.242416" style="stroke: #000000; stroke-width: 0.6"/>
      </g>
     </g>
    </g>
    <g id="xtick_13">
     <g id="line2d_13">
      <g>
       <use xlink:href="#m2c7b340cc9" x="192.108617" y="188.242416" style="stroke: #000000; stroke-width: 0.6"/>
      </g>
     </g>
    </g>
    <g id="xtick_14">
     <g id="line2d_14">
      <g>
       <use xlink:href="#m2c7b340cc9" x="205.938139" y="188.242416" style="stroke: #000000; stroke-width: 0.6"/>
      </g>
     </g>
    </g>
    <g id="xtick_15">
     <g id="line2d_15">
      <g>
       <use xlink:href="#m2c7b340cc9" x="233.597183" y="188.242416" style="stroke: #000000; stroke-width: 0.6"/>
      </g>
     </g>
    </g>
    <g id="xtick_16">
     <g id="line2d_16">
      <g>
       <use xlink:href="#m2c7b340cc9" x="247.426704" y="188.242416" style="stroke: #000000; stroke-width: 0.6"/>
      </g>
     </g>
    </g>
    <g id="xtick_17">
     <g id="line2d_17">
      <g>
       <use xlink:href="#m2c7b340cc9" x="261.256226" y="188.242416" style="stroke: #000000; stroke-width: 0.6"/>
      </g>
     </g>
    </g>
    <g id="xtick_18">
     <g id="line2d_18">
      <g>
       <use xlink:href="#m2c7b340cc9" x="288.91527" y="188.242416" style="stroke: #000000; stroke-width: 0.6"/>
      </g>
     </g>
    </g>
    <g id="xtick_19">
     <g id="line2d_19">
      <g>
       <use xlink:href="#m2c7b340cc9" x="302.744791" y="188.242416" style="stroke: #000000; stroke-width: 0.6"/>
      </g>
     </g>
    </g>
    <g id="xtick_20">
     <g id="line2d_20">
      <g>
       <use xlink:href="#m2c7b340cc9" x="316.574313" y="188.242416" style="stroke: #000000; stroke-width: 0.6"/>
      </g>
     </g>
    </g>
    <g id="text_6">
     <!-- 时间 / d -->
     <g transform="translate(165.475391 210.967651) scale(0.095 -0.095)">
      <defs>
       <path id="SimSun-65f6" d="M 4500 3600 
Q 4500 4575 4475 5225 
L 5100 4900 
L 4850 4725 
L 4850 3600 
L 5225 3600 
L 5550 3925 
L 6025 3450 
L 4850 3450 
L 4850 100 
Q 4850 -375 4300 -575 
Q 4275 -200 3475 -25 
L 3475 100 
Q 4150 0 4325 25 
Q 4500 50 4500 325 
L 4500 3450 
L 3200 3450 
Q 2875 3450 2600 3375 
L 2375 3600 
L 4500 3600 
z
M 2875 2825 
Q 3525 2375 3637 2200 
Q 3750 2025 3750 1925 
Q 3750 1800 3637 1637 
Q 3525 1475 3475 1475 
Q 3400 1475 3325 1775 
Q 3200 2225 2800 2750 
L 2875 2825 
z
M 925 4150 
L 925 2650 
L 1950 2650 
L 1950 4150 
L 925 4150 
z
M 925 2500 
L 925 900 
L 1950 900 
L 1950 2500 
L 925 2500 
z
M 2300 2000 
Q 2300 800 2325 450 
L 1950 250 
L 1950 750 
L 925 750 
L 925 225 
L 550 25 
Q 575 825 575 2425 
Q 575 4025 550 4500 
L 950 4300 
L 1900 4300 
L 2100 4550 
L 2500 4225 
L 2300 4050 
L 2300 2000 
z
" transform="scale(0.015625)"/>
       <path id="SimSun-95f4" d="M 2150 525 
Q 2175 1325 2175 2112 
Q 2175 2900 2150 3675 
L 2525 3450 
L 3750 3450 
L 4000 3700 
L 4325 3375 
L 4125 3200 
Q 4125 1550 4150 775 
L 3800 575 
L 3800 975 
L 2500 975 
L 2500 700 
L 2150 525 
z
M 2500 3300 
L 2500 2325 
L 3800 2325 
L 3800 3300 
L 2500 3300 
z
M 2500 2175 
L 2500 1125 
L 3800 1125 
L 3800 2175 
L 2500 2175 
z
M 1275 5200 
Q 1850 4825 1950 4675 
Q 2050 4525 2050 4425 
Q 2050 4275 1950 4137 
Q 1850 4000 1825 4000 
Q 1750 4000 1675 4275 
Q 1550 4650 1200 5125 
L 1275 5200 
z
M 1125 425 
Q 1125 25 1150 -375 
L 750 -525 
Q 775 -150 775 1950 
Q 775 4050 750 4425 
L 1350 4125 
L 1125 3975 
L 1125 425 
z
M 4225 125 
Q 5025 0 5125 37 
Q 5225 75 5225 250 
L 5225 4450 
L 3225 4450 
Q 2900 4450 2625 4375 
L 2400 4600 
L 5175 4600 
L 5425 4850 
L 5775 4500 
L 5575 4350 
L 5575 225 
Q 5575 -100 5462 -250 
Q 5350 -400 5000 -550 
Q 4800 -125 4225 25 
L 4225 125 
z
" transform="scale(0.015625)"/>
       <path id="TimesNewRomanPSMT-20" transform="scale(0.015625)"/>
       <path id="TimesNewRomanPSMT-2f" d="M 1794 4444 
L 259 -88 
L 9 -88 
L 1544 4444 
L 1794 4444 
z
" transform="scale(0.015625)"/>
       <path id="TimesNewRomanPSMT-64" d="M 2222 322 
Q 2013 103 1813 7 
Q 1613 -88 1381 -88 
Q 913 -88 563 304 
Q 213 697 213 1313 
Q 213 1928 600 2439 
Q 988 2950 1597 2950 
Q 1975 2950 2222 2709 
L 2222 3238 
Q 2222 3728 2198 3840 
Q 2175 3953 2125 3993 
Q 2075 4034 2000 4034 
Q 1919 4034 1784 3984 
L 1744 4094 
L 2597 4444 
L 2738 4444 
L 2738 1134 
Q 2738 631 2761 520 
Q 2784 409 2836 365 
Q 2888 322 2956 322 
Q 3041 322 3181 375 
L 3216 266 
L 2366 -88 
L 2222 -88 
L 2222 322 
z
M 2222 541 
L 2222 2016 
Q 2203 2228 2109 2403 
Q 2016 2578 1861 2667 
Q 1706 2756 1559 2756 
Q 1284 2756 1069 2509 
Q 784 2184 784 1559 
Q 784 928 1059 592 
Q 1334 256 1672 256 
Q 1956 256 2222 541 
z
" transform="scale(0.015625)"/>
      </defs>
      <use xlink:href="#SimSun-65f6"/>
      <use xlink:href="#SimSun-95f4" x="100"/>
      <use xlink:href="#TimesNewRomanPSMT-20" x="200"/>
      <use xlink:href="#TimesNewRomanPSMT-2f" x="225"/>
      <use xlink:href="#TimesNewRomanPSMT-20" x="252.783203"/>
      <use xlink:href="#TimesNewRomanPSMT-64" x="277.783203"/>
     </g>
    </g>
   </g>
   <g id="matplotlib.axis_2">
    <g id="ytick_1">
     <g id="line2d_21">
      <defs>
       <path id="m450b120f2b" d="M 0 0 
L 3.5 0 
" style="stroke: #000000; stroke-width: 0.8"/>
      </defs>
      <g>
       <use xlink:href="#m450b120f2b" x="41.09024" y="166.305593" style="stroke: #000000; stroke-width: 0.8"/>
      </g>
     </g>
     <g id="text_7">
      <!-- $\mathdefault{10^{-11}}$ -->
      <g transform="translate(17.07024 170.514538) scale(0.095 -0.095)">
       <defs>
        <path id="TimesNewRomanPSMT-31" d="M 750 3822 
L 1781 4325 
L 1884 4325 
L 1884 747 
Q 1884 391 1914 303 
Q 1944 216 2037 169 
Q 2131 122 2419 116 
L 2419 0 
L 825 0 
L 825 116 
Q 1125 122 1212 167 
Q 1300 213 1334 289 
Q 1369 366 1369 747 
L 1369 3034 
Q 1369 3497 1338 3628 
Q 1316 3728 1258 3775 
Q 1200 3822 1119 3822 
Q 1003 3822 797 3725 
L 750 3822 
z
" transform="scale(0.015625)"/>
        <path id="TimesNewRomanPSMT-2212" d="M 3484 2000 
L 116 2000 
L 116 2256 
L 3484 2256 
L 3484 2000 
z
" transform="scale(0.015625)"/>
       </defs>
       <use xlink:href="#TimesNewRomanPSMT-31" transform="translate(0 0.582813)"/>
       <use xlink:href="#TimesNewRomanPSMT-30" transform="translate(50 0.582813)"/>
       <use xlink:href="#TimesNewRomanPSMT-2212" transform="translate(101.502813 60.695312) scale(0.7)"/>
       <use xlink:href="#TimesNewRomanPSMT-31" transform="translate(140.980352 60.695312) scale(0.7)"/>
       <use xlink:href="#TimesNewRomanPSMT-31" transform="translate(175.980352 60.695312) scale(0.7)"/>
      </g>
     </g>
    </g>
    <g id="ytick_2">
     <g id="line2d_22">
      <g>
       <use xlink:href="#m450b120f2b" x="41.09024" y="139.786944" style="stroke: #000000; stroke-width: 0.8"/>
      </g>
     </g>
     <g id="text_8">
      <!-- $\mathdefault{10^{-8}}$ -->
      <g transform="translate(20.39524 143.995889) scale(0.095 -0.095)">
       <use xlink:href="#TimesNewRomanPSMT-31" transform="translate(0 0.582813)"/>
       <use xlink:href="#TimesNewRomanPSMT-30" transform="translate(50 0.582813)"/>
       <use xlink:href="#TimesNewRomanPSMT-2212" transform="translate(101.502813 60.695312) scale(0.7)"/>
       <use xlink:href="#TimesNewRomanPSMT-38" transform="translate(140.980352 60.695312) scale(0.7)"/>
      </g>
     </g>
    </g>
    <g id="ytick_3">
     <g id="line2d_23">
      <g>
       <use xlink:href="#m450b120f2b" x="41.09024" y="113.268295" style="stroke: #000000; stroke-width: 0.8"/>
      </g>
     </g>
     <g id="text_9">
      <!-- $\mathdefault{10^{-5}}$ -->
      <g transform="translate(20.39524 117.429741) scale(0.095 -0.095)">
       <defs>
        <path id="TimesNewRomanPSMT-35" d="M 2778 4238 
L 2534 3706 
L 1259 3706 
L 981 3138 
Q 1809 3016 2294 2522 
Q 2709 2097 2709 1522 
Q 2709 1188 2573 903 
Q 2438 619 2231 419 
Q 2025 219 1772 97 
Q 1413 -75 1034 -75 
Q 653 -75 479 54 
Q 306 184 306 341 
Q 306 428 378 495 
Q 450 563 559 563 
Q 641 563 702 538 
Q 763 513 909 409 
Q 1144 247 1384 247 
Q 1750 247 2026 523 
Q 2303 800 2303 1197 
Q 2303 1581 2056 1914 
Q 1809 2247 1375 2428 
Q 1034 2569 447 2591 
L 1259 4238 
L 2778 4238 
z
" transform="scale(0.015625)"/>
       </defs>
       <use xlink:href="#TimesNewRomanPSMT-31" transform="translate(0 0.534375)"/>
       <use xlink:href="#TimesNewRomanPSMT-30" transform="translate(50 0.534375)"/>
       <use xlink:href="#TimesNewRomanPSMT-2212" transform="translate(101.502813 60.646875) scale(0.7)"/>
       <use xlink:href="#TimesNewRomanPSMT-35" transform="translate(140.980352 60.646875) scale(0.7)"/>
      </g>
     </g>
    </g>
    <g id="ytick_4">
     <g id="line2d_24">
      <g>
       <use xlink:href="#m450b120f2b" x="41.09024" y="86.749646" style="stroke: #000000; stroke-width: 0.8"/>
      </g>
     </g>
     <g id="text_10">
      <!-- $\mathdefault{10^{-2}}$ -->
      <g transform="translate(20.39524 90.958592) scale(0.095 -0.095)">
       <use xlink:href="#TimesNewRomanPSMT-31" transform="translate(0 0.582813)"/>
       <use xlink:href="#TimesNewRomanPSMT-30" transform="translate(50 0.582813)"/>
       <use xlink:href="#TimesNewRomanPSMT-2212" transform="translate(101.502813 60.695312) scale(0.7)"/>
       <use xlink:href="#TimesNewRomanPSMT-32" transform="translate(140.980352 60.695312) scale(0.7)"/>
      </g>
     </g>
    </g>
    <g id="ytick_5">
     <g id="line2d_25">
      <g>
       <use xlink:href="#m450b120f2b" x="41.09024" y="60.230998" style="stroke: #000000; stroke-width: 0.8"/>
      </g>
     </g>
     <g id="text_11">
      <!-- $\mathdefault{10^{1}}$ -->
      <g transform="translate(24.19524 64.439943) scale(0.095 -0.095)">
       <use xlink:href="#TimesNewRomanPSMT-31" transform="translate(0 0.582813)"/>
       <use xlink:href="#TimesNewRomanPSMT-30" transform="translate(50 0.582813)"/>
       <use xlink:href="#TimesNewRomanPSMT-31" transform="translate(101.502813 60.695312) scale(0.7)"/>
      </g>
     </g>
    </g>
    <g id="ytick_6">
     <g id="line2d_26">
      <g>
       <use xlink:href="#m450b120f2b" x="41.09024" y="33.712349" style="stroke: #000000; stroke-width: 0.8"/>
      </g>
     </g>
     <g id="text_12">
      <!-- $\mathdefault{10^{4}}$ -->
      <g transform="translate(24.19524 37.921294) scale(0.095 -0.095)">
       <use xlink:href="#TimesNewRomanPSMT-31" transform="translate(0 0.582813)"/>
       <use xlink:href="#TimesNewRomanPSMT-30" transform="translate(50 0.582813)"/>
       <use xlink:href="#TimesNewRomanPSMT-34" transform="translate(101.502813 60.695312) scale(0.7)"/>
      </g>
     </g>
    </g>
    <g id="ytick_7">
     <g id="line2d_27">
      <g>
       <use xlink:href="#m450b120f2b" x="41.09024" y="7.1937" style="stroke: #000000; stroke-width: 0.8"/>
      </g>
     </g>
     <g id="text_13">
      <!-- $\mathdefault{10^{7}}$ -->
      <g transform="translate(24.19524 11.355145) scale(0.095 -0.095)">
       <defs>
        <path id="TimesNewRomanPSMT-37" d="M 644 4238 
L 2916 4238 
L 2916 4119 
L 1503 -88 
L 1153 -88 
L 2419 3728 
L 1253 3728 
Q 900 3728 750 3644 
Q 488 3500 328 3200 
L 238 3234 
L 644 4238 
z
" transform="scale(0.015625)"/>
       </defs>
       <use xlink:href="#TimesNewRomanPSMT-31" transform="translate(0 0.534375)"/>
       <use xlink:href="#TimesNewRomanPSMT-30" transform="translate(50 0.534375)"/>
       <use xlink:href="#TimesNewRomanPSMT-37" transform="translate(101.502813 60.646875) scale(0.7)"/>
      </g>
     </g>
    </g>
    <g id="text_14">
     <!-- 氚浓度$\;/\;\mathrm{(Bq/m^{2})}$ -->
     <g transform="translate(10.98024 128.776328) rotate(-90) scale(0.095 -0.095)">
      <defs>
       <path id="SimSun-6c1a" d="M 1925 2375 
L 1700 2175 
Q 1700 1475 1600 962 
Q 1500 450 1175 62 
Q 850 -325 375 -625 
L 325 -550 
Q 675 -250 887 62 
Q 1100 375 1200 762 
Q 1300 1150 1325 1737 
Q 1350 2325 1350 2650 
L 1925 2375 
z
M 2400 -500 
Q 2425 -75 2425 425 
L 2425 1800 
Q 2425 2225 2400 2450 
L 3000 2175 
L 2750 2000 
L 2750 525 
Q 2750 -50 2775 -350 
L 2400 -500 
z
M 3525 -575 
Q 3550 -100 3550 475 
L 3550 1825 
Q 3550 2425 3525 2650 
L 4125 2375 
L 3875 2200 
L 3875 525 
Q 3875 0 3900 -400 
L 3525 -575 
z
M 2050 4825 
Q 1925 4625 1825 4450 
L 5025 4450 
L 5375 4800 
L 5875 4300 
L 1775 4300 
Q 1525 3850 1150 3400 
Q 775 2950 350 2625 
L 275 2700 
Q 625 3025 1050 3700 
Q 1475 4375 1725 5250 
L 2275 4925 
L 2050 4825 
z
M 1600 3800 
L 4500 3800 
L 4800 4100 
L 5250 3650 
L 2475 3650 
Q 2050 3650 1825 3575 
L 1600 3800 
z
M 5650 -75 
L 5850 850 
L 5950 850 
Q 5925 525 5937 100 
Q 5950 -325 6050 -500 
Q 6100 -600 6000 -600 
Q 5900 -600 5575 -500 
Q 5250 -400 4912 150 
Q 4575 700 4525 1350 
Q 4475 2000 4500 2950 
L 1975 2950 
Q 1650 2950 1375 2875 
L 1150 3100 
L 4450 3100 
L 4675 3350 
L 5075 3025 
L 4825 2875 
Q 4750 1250 5025 675 
Q 5300 100 5650 -75 
z
" transform="scale(0.015625)"/>
       <path id="SimSun-6d53" d="M 4900 3200 
L 5250 3875 
L 3750 3875 
Q 3700 3725 3650 3575 
Q 3925 2450 4300 1925 
Q 5050 2600 5250 2975 
L 5650 2525 
Q 5275 2450 4962 2225 
Q 4650 2000 4375 1800 
Q 5075 750 6100 350 
L 6100 250 
Q 5650 275 5500 -25 
Q 3900 1250 3575 3375 
Q 3325 2800 3075 2375 
L 3375 2225 
L 3225 2075 
L 3225 100 
L 4175 600 
L 4225 500 
Q 3350 -100 3100 -500 
L 2775 -125 
Q 2900 -50 2875 425 
L 2875 2000 
Q 2200 1175 1475 625 
L 1425 700 
Q 2850 2150 3400 3875 
L 2575 3875 
Q 2600 3475 2475 3337 
Q 2350 3200 2187 3225 
Q 2025 3250 2025 3325 
Q 2025 3400 2150 3550 
Q 2375 3800 2475 4300 
L 2575 4300 
L 2575 4025 
L 3425 4025 
Q 3500 4325 3550 4637 
Q 3600 4950 3625 5225 
L 4175 4950 
L 3975 4800 
Q 3875 4375 3775 4025 
L 5200 4025 
L 5450 4300 
L 5900 3800 
Q 5500 3800 4975 3150 
L 4900 3200 
z
M 1975 3900 
Q 1350 1400 1287 1087 
Q 1225 775 1225 325 
Q 1225 -125 1225 -287 
Q 1225 -450 1125 -450 
Q 1050 -450 887 -375 
Q 725 -300 725 -100 
Q 725 75 775 250 
Q 850 500 850 675 
Q 850 825 750 925 
Q 650 1025 275 1125 
L 275 1225 
Q 725 1175 812 1200 
Q 900 1225 1037 1450 
Q 1175 1675 1875 3925 
L 1975 3900 
z
M 300 3500 
Q 1125 3150 1137 2900 
Q 1150 2650 1050 2537 
Q 950 2425 925 2425 
Q 850 2425 775 2675 
Q 650 3000 250 3425 
L 300 3500 
z
M 875 4950 
Q 1550 4650 1625 4525 
Q 1700 4400 1700 4300 
Q 1700 4175 1600 4025 
Q 1500 3875 1450 3875 
Q 1350 3875 1275 4125 
Q 1150 4525 825 4875 
L 875 4950 
z
" transform="scale(0.015625)"/>
       <path id="SimSun-5ea6" d="M 2550 2025 
Q 2575 2525 2575 3175 
L 1925 3175 
L 1625 3125 
L 1425 3325 
L 2575 3325 
Q 2575 3700 2550 4150 
L 3100 3875 
L 2900 3750 
L 2900 3325 
L 4300 3325 
Q 4300 3750 4275 4125 
L 4850 3875 
L 4625 3725 
L 4625 3325 
L 5100 3325 
L 5425 3650 
L 5900 3175 
L 4625 3175 
Q 4625 2450 4650 2225 
L 4300 2075 
L 4300 2300 
L 2900 2300 
L 2900 2175 
L 2550 2025 
z
M 4875 1500 
Q 4300 775 3900 425 
Q 4700 -75 6025 -125 
L 6025 -225 
Q 5625 -300 5550 -550 
Q 4375 -325 3675 225 
Q 2475 -450 1075 -625 
L 1050 -525 
Q 2375 -275 3450 450 
Q 2975 925 2575 1625 
L 2325 1625 
L 2100 1575 
L 1900 1775 
L 4525 1775 
L 4750 2000 
L 5125 1625 
L 4875 1500 
z
M 2700 1625 
Q 3175 975 3650 625 
Q 4150 1100 4500 1625 
L 2700 1625 
z
M 2900 3175 
L 2900 2450 
L 4300 2450 
L 4300 3175 
L 2900 3175 
z
M 975 4650 
L 1400 4400 
L 3375 4400 
Q 3350 4550 3262 4725 
Q 3175 4900 2900 5225 
L 2975 5275 
Q 3550 5025 3637 4887 
Q 3725 4750 3725 4725 
Q 3725 4575 3525 4400 
L 5150 4400 
L 5500 4750 
L 6000 4250 
L 1375 4250 
Q 1400 2750 1287 1912 
Q 1175 1075 925 475 
Q 675 -125 300 -625 
L 225 -575 
Q 725 300 862 1250 
Q 1000 2200 1012 3187 
Q 1025 4175 975 4650 
z
" transform="scale(0.015625)"/>
       <path id="STIXGeneral-Regular-2f" d="M 1837 4326 
L 378 -90 
L -58 -90 
L 1408 4326 
L 1837 4326 
z
" transform="scale(0.015625)"/>
       <path id="STIXGeneral-Regular-28" d="M 1946 -1030 
L 1869 -1133 
Q 1126 -710 716 32 
Q 307 774 307 1613 
Q 307 3386 1888 4326 
L 1946 4224 
Q 1293 3667 1075 3126 
Q 858 2586 858 1632 
Q 858 685 1082 96 
Q 1306 -493 1946 -1030 
z
" transform="scale(0.015625)"/>
       <path id="STIXGeneral-Regular-42" d="M 2701 2234 
L 2701 2227 
Q 3181 2150 3482 1875 
Q 3795 1594 3795 1139 
Q 3795 608 3379 304 
Q 2963 0 2266 0 
L 109 0 
L 109 122 
Q 486 134 604 246 
Q 723 358 723 723 
L 723 3520 
Q 723 3891 614 3990 
Q 506 4090 109 4115 
L 109 4237 
L 1901 4237 
Q 2726 4237 3152 3958 
Q 3578 3680 3578 3168 
Q 3578 2733 3315 2502 
Q 3130 2342 2701 2234 
z
M 1376 2342 
L 1965 2342 
Q 2925 2342 2925 3136 
Q 2925 3546 2640 3773 
Q 2355 4000 1792 4000 
L 1530 4000 
Q 1376 4000 1376 3795 
L 1376 2342 
z
M 1376 2086 
L 1376 525 
Q 1376 365 1462 301 
Q 1549 237 1773 237 
Q 2208 237 2413 285 
Q 2618 333 2816 512 
Q 3059 723 3059 1146 
Q 3059 1632 2758 1830 
Q 2688 1882 2617 1917 
Q 2547 1952 2492 1974 
Q 2438 1997 2348 2016 
Q 2259 2035 2211 2044 
Q 2163 2054 2041 2060 
Q 1920 2067 1862 2070 
Q 1805 2074 1635 2080 
Q 1466 2086 1376 2086 
z
" transform="scale(0.015625)"/>
       <path id="STIXGeneral-Regular-71" d="M 3123 -1389 
L 1613 -1389 
L 1613 -1280 
Q 1952 -1254 2067 -1158 
Q 2182 -1062 2182 -794 
L 2182 410 
Q 1747 -64 1178 -64 
Q 730 -64 442 320 
Q 154 704 154 1312 
Q 154 2003 560 2473 
Q 966 2944 1562 2944 
Q 1920 2944 2304 2720 
L 2650 2925 
L 2720 2925 
L 2720 -902 
Q 2720 -1107 2797 -1180 
Q 2874 -1254 3123 -1280 
L 3123 -1389 
z
M 2182 813 
L 2182 2131 
Q 2182 2758 1587 2758 
Q 1178 2758 941 2432 
Q 704 2106 704 1542 
Q 704 1210 803 925 
Q 902 640 1062 499 
Q 1254 326 1542 326 
Q 1882 326 2106 531 
Q 2182 602 2182 813 
z
" transform="scale(0.015625)"/>
       <path id="STIXGeneral-Regular-6d" d="M 4960 0 
L 3565 0 
L 3565 96 
Q 3834 122 3907 208 
Q 3981 294 3981 576 
L 3981 1894 
Q 3981 2278 3869 2444 
Q 3757 2611 3488 2611 
Q 3264 2611 3107 2521 
Q 2950 2432 2803 2221 
L 2803 608 
Q 2803 301 2896 201 
Q 2989 102 3264 96 
L 3264 0 
L 1830 0 
L 1830 96 
Q 2112 115 2189 188 
Q 2266 262 2266 550 
L 2266 1901 
Q 2266 2611 1850 2611 
Q 1670 2611 1468 2531 
Q 1267 2451 1171 2336 
Q 1088 2240 1088 2227 
L 1088 448 
Q 1088 243 1177 176 
Q 1267 109 1523 96 
L 1523 0 
L 102 0 
L 102 96 
Q 371 102 460 195 
Q 550 288 550 563 
L 550 2150 
Q 550 2387 499 2480 
Q 448 2573 326 2573 
Q 230 2573 122 2547 
L 122 2656 
Q 557 2778 1011 2944 
L 1062 2925 
L 1062 2451 
L 1075 2451 
Q 1363 2752 1584 2848 
Q 1805 2944 2054 2944 
Q 2560 2944 2733 2406 
Q 3232 2944 3776 2944 
Q 4518 2944 4518 1792 
L 4518 493 
Q 4518 282 4582 202 
Q 4646 122 4794 109 
L 4960 96 
L 4960 0 
z
" transform="scale(0.015625)"/>
       <path id="STIXGeneral-Regular-32" d="M 3034 877 
L 2688 0 
L 186 0 
L 186 77 
L 1325 1286 
Q 1773 1754 1965 2144 
Q 2157 2534 2157 2950 
Q 2157 3379 1920 3616 
Q 1683 3853 1267 3853 
Q 922 3853 720 3673 
Q 518 3494 326 3021 
L 192 3053 
Q 301 3648 630 3987 
Q 960 4326 1523 4326 
Q 2054 4326 2380 4006 
Q 2707 3686 2707 3200 
Q 2707 2477 1888 1613 
L 832 486 
L 2330 486 
Q 2541 486 2665 569 
Q 2790 653 2944 915 
L 3034 877 
z
" transform="scale(0.015625)"/>
       <path id="STIXGeneral-Regular-29" d="M 186 4224 
L 262 4326 
Q 992 3891 1408 3148 
Q 1824 2406 1824 1581 
Q 1824 -166 243 -1133 
L 186 -1030 
Q 845 -486 1059 54 
Q 1274 595 1274 1562 
Q 1274 2534 1059 3120 
Q 845 3706 186 4224 
z
" transform="scale(0.015625)"/>
      </defs>
      <use xlink:href="#SimSun-6c1a" transform="translate(0 0.684375)"/>
      <use xlink:href="#SimSun-6d53" transform="translate(100 0.684375)"/>
      <use xlink:href="#SimSun-5ea6" transform="translate(200 0.684375)"/>
      <use xlink:href="#STIXGeneral-Regular-2f" transform="translate(320.055711 0.684375)"/>
      <use xlink:href="#STIXGeneral-Regular-28" transform="translate(367.91141 0.684375)"/>
      <use xlink:href="#STIXGeneral-Regular-42" transform="translate(401.211397 0.684375)"/>
      <use xlink:href="#STIXGeneral-Regular-71" transform="translate(467.911394 0.684375)"/>
      <use xlink:href="#STIXGeneral-Regular-2f" transform="translate(517.911379 0.684375)"/>
      <use xlink:href="#STIXGeneral-Regular-6d" transform="translate(545.711367 0.684375)"/>
      <use xlink:href="#STIXGeneral-Regular-32" transform="translate(625.086355 36.684375) scale(0.7)"/>
      <use xlink:href="#STIXGeneral-Regular-29" transform="translate(664.586344 0.684375)"/>
     </g>
    </g>
   </g>
   <g id="line2d_28">
    <path d="M 53.8134 14.519747 
L 54.735368 69.17517 
L 55.081106 74.794504 
L 55.311598 75.975233 
L 55.54209 76.325067 
L 55.887828 76.430283 
L 57.27078 76.409285 
L 60.497669 76.10694 
L 64.070295 75.521906 
L 66.375216 75.189037 
L 70.408826 74.781561 
L 71.100302 75.133248 
L 72.713746 75.898483 
L 73.866207 76.430918 
L 74.788175 77.148058 
L 75.825389 78.243762 
L 75.940635 78.384304 
L 76.171127 79.512044 
L 78.360801 94.927238 
L 78.821785 97.54625 
L 79.398015 98.165488 
L 79.858999 98.41655 
L 80.319983 98.443842 
L 80.780967 98.241064 
L 81.241951 97.801876 
L 81.472443 97.491632 
L 82.048674 97.864872 
L 83.662118 99.154857 
L 84.699332 99.952862 
L 87.119498 101.269229 
L 88.617696 100.999352 
L 89.885403 100.6967 
L 91.037863 101.566131 
L 92.305569 102.797907 
L 92.766553 103.163589 
L 94.149505 103.675373 
L 95.301965 103.900575 
L 104.175908 103.174001 
L 113.510836 103.135485 
L 115.815756 103.322646 
L 117.313954 103.026554 
L 118.466414 102.819557 
L 119.15789 103.12563 
L 119.73412 103.614548 
L 120.195104 104.224509 
L 120.771334 105.185683 
L 121.347564 105.684446 
L 122.039041 105.976039 
L 122.269533 106.022797 
L 122.384779 105.369355 
L 122.961009 105.425477 
L 123.306747 105.519752 
L 125.496421 105.670403 
L 125.726913 105.73767 
L 126.879373 103.80998 
L 126.994619 105.049831 
L 127.686095 104.516484 
L 128.147079 104.445672 
L 128.492817 104.63124 
L 131.489214 98.690252 
L 132.18069 98.228888 
L 134.255118 97.152847 
L 135.868562 96.749334 
L 136.79053 96.610992 
L 137.251514 94.701143 
L 137.712499 93.707477 
L 138.288729 93.004788 
L 138.980205 92.556015 
L 139.556435 92.36978 
L 139.786927 92.428097 
L 140.824141 92.281506 
L 141.285125 92.466325 
L 141.630863 92.808975 
L 141.976601 93.461311 
L 142.322339 94.754022 
L 142.437585 94.660241 
L 142.783323 94.588348 
L 143.935783 94.744207 
L 145.433982 94.934334 
L 148.891362 93.478948 
L 150.735298 92.709887 
L 151.772512 92.61586 
L 153.962187 92.582937 
L 158.111043 93.088494 
L 159.954979 93.299535 
L 162.375146 93.816063 
L 164.56482 94.479411 
L 164.795312 94.524225 
L 165.14105 94.936358 
L 165.832526 96.192171 
L 166.639248 98.127692 
L 167.561216 100.484462 
L 167.906954 100.123583 
L 169.059414 98.734663 
L 169.981383 97.889819 
L 171.249089 98.230697 
L 171.710073 98.678839 
L 172.171057 99.419019 
L 172.632041 100.644457 
L 172.747287 101.078961 
L 173.093025 100.899356 
L 174.014993 100.545891 
L 175.513191 100.118764 
L 175.858929 100.385516 
L 177.472374 102.142386 
L 178.624834 103.320882 
L 181.505984 104.956894 
L 183.34992 106.815602 
L 184.156642 107.539148 
L 185.309103 107.744849 
L 187.037793 107.922826 
L 188.881729 107.819798 
L 189.688451 107.903304 
L 192.108617 108.843684 
L 192.684847 106.610205 
L 193.145832 105.860329 
L 193.606816 105.576291 
L 194.0678 105.567786 
L 194.64403 105.831142 
L 194.874522 106.008417 
L 196.833704 110.944039 
L 197.294688 112.960471 
L 197.755672 115.560587 
L 201.097807 117.694428 
L 203.402727 118.793554 
L 204.900925 118.64699 
L 206.283877 118.638155 
L 209.049782 119.352806 
L 210.086996 120.19016 
L 211.930932 121.738919 
L 214.58159 121.650106 
L 215.273066 122.131269 
L 216.886511 123.541846 
L 217.117003 123.870384 
L 218.730447 127.459869 
L 219.652415 130.000696 
L 219.882907 130.42656 
L 220.113399 130.003879 
L 220.804875 128.520587 
L 221.496351 127.600525 
L 222.303073 126.927518 
L 222.533565 126.785519 
L 222.879303 125.310999 
L 223.225041 124.82462 
L 223.570779 124.748454 
L 223.916517 124.903011 
L 224.377501 125.370187 
L 224.953732 126.341144 
L 225.760454 127.887808 
L 226.797668 128.36316 
L 228.411112 128.946117 
L 228.872096 128.794931 
L 229.217834 128.884502 
L 229.678818 129.274191 
L 230.139802 130.00273 
L 230.600786 131.220818 
L 230.831278 132.143221 
L 230.946524 132.097154 
L 231.292262 132.215648 
L 232.444722 133.071073 
L 234.288659 134.453753 
L 235.902103 135.382165 
L 236.593579 135.754639 
L 238.322269 135.16616 
L 239.820467 135.130888 
L 242.125388 135.30932 
L 242.93211 136.098947 
L 244.430308 137.864765 
L 244.776046 138.266727 
L 245.006538 138.25578 
L 247.887688 137.112943 
L 250.423101 137.459817 
L 253.073759 136.80061 
L 253.419497 136.940223 
L 254.110973 137.582587 
L 254.917695 138.665289 
L 255.493925 139.767729 
L 255.954909 140.602704 
L 256.185401 140.391011 
L 256.876878 139.594554 
L 257.453108 139.242682 
L 258.144584 139.079216 
L 258.951306 139.110442 
L 261.486718 139.838186 
L 262.29344 140.512898 
L 266.903281 144.621282 
L 267.594757 144.835379 
L 269.553939 145.400056 
L 270.014923 142.38166 
L 270.360661 141.482094 
L 270.706399 141.185709 
L 271.052137 141.232817 
L 271.397875 141.526131 
L 271.858859 142.249809 
L 272.319843 143.392388 
L 272.665582 144.676796 
L 274.16378 148.159276 
L 274.624764 149.974493 
L 274.970502 152.0494 
L 275.085748 153.042634 
L 275.89247 152.891184 
L 276.929684 152.94738 
L 278.19739 153.25473 
L 279.810834 154.291017 
L 280.617557 154.79279 
L 281.309033 152.818849 
L 281.885263 151.806845 
L 282.691985 150.887888 
L 283.383461 150.318387 
L 283.613953 150.73657 
L 284.420675 153.28384 
L 285.342643 156.901115 
L 286.034119 160.557122 
L 286.264611 161.561386 
L 286.495103 161.568141 
L 287.993301 160.555867 
L 289.030516 160.297264 
L 289.376254 160.497652 
L 291.565928 162.612692 
L 291.911666 162.875093 
L 295.714784 164.551085 
L 297.558721 165.204849 
L 299.517903 167.554399 
L 300.324625 168.553513 
L 301.016101 169.007587 
L 302.053315 169.72866 
L 302.629545 170.136739 
L 303.205775 170.579008 
L 303.782005 170.969375 
L 304.588728 171.606318 
L 305.164958 172.047301 
L 305.856434 172.828714 
L 307.12414 175.847899 
L 308.161354 179.288172 
L 308.2766 179.822317 
L 308.2766 179.822317 
" clip-path="url(#pfb975c8f05)" style="fill: none; stroke: #1f77b4; stroke-width: 1.5; stroke-linecap: square"/>
   </g>
   <g id="line2d_29">
    <path d="M 53.8134 15.782646 
L 53.928646 17.960897 
L 54.620122 44.087255 
L 54.850614 44.345358 
L 56.464058 44.492862 
L 59.575701 44.636812 
L 69.371612 44.965128 
L 70.524072 45.345 
L 72.368008 46.211392 
L 73.981453 46.9002 
L 74.903421 47.615108 
L 75.940635 48.707901 
L 76.401619 50.481325 
L 78.130309 58.354412 
L 78.821785 61.416946 
L 79.513261 62.477411 
L 80.089491 62.985431 
L 80.550475 63.137978 
L 81.011459 63.058516 
L 81.702936 62.829374 
L 83.201134 63.587588 
L 86.889006 65.623676 
L 87.34999 65.746592 
L 88.848188 65.892197 
L 90.115895 66.009505 
L 91.268355 66.646937 
L 93.919013 68.294063 
L 95.186719 68.692556 
L 96.223933 68.80691 
L 104.752138 69.68618 
L 111.666899 71.022153 
L 115.585264 72.153702 
L 118.00543 73.114057 
L 118.927398 73.748506 
L 119.964612 74.738836 
L 120.31035 75.223559 
L 122.039041 79.117942 
L 123.767731 82.996243 
L 125.035437 85.13819 
L 125.842159 86.157895 
L 127.109865 86.72238 
L 128.262325 86.992921 
L 137.021022 88.242816 
L 137.827745 88.47922 
L 138.980205 89.071754 
L 140.132665 89.643457 
L 141.169879 89.911689 
L 141.746109 90.298179 
L 142.207093 90.933887 
L 142.437585 91.17992 
L 143.013815 91.213276 
L 146.125458 91.654105 
L 149.006608 91.403243 
L 151.196282 91.191572 
L 154.192679 91.510768 
L 158.226289 92.305938 
L 160.531209 92.749201 
L 164.219082 93.693948 
L 165.14105 94.010976 
L 165.832526 94.888221 
L 166.754494 96.414452 
L 167.676462 98.021139 
L 168.137446 98.073041 
L 168.944168 97.866295 
L 170.211875 97.450641 
L 171.249089 97.88034 
L 171.825319 98.442549 
L 172.286303 99.177464 
L 172.977779 100.46577 
L 173.899747 100.238096 
L 175.628437 100.012191 
L 176.204667 100.491911 
L 178.970572 103.043411 
L 181.736476 104.675153 
L 184.50238 106.83267 
L 186.807301 107.352556 
L 189.803697 107.465081 
L 192.108617 108.384157 
L 192.339109 107.870034 
L 192.800093 106.586783 
L 193.261078 105.985805 
L 193.722062 105.776503 
L 194.183046 105.812165 
L 194.759276 106.108962 
L 194.989768 106.398323 
L 196.718458 110.762864 
L 197.294688 112.959239 
L 197.870918 115.309286 
L 203.633219 117.652884 
L 206.399123 117.709175 
L 209.280274 118.48158 
L 211.008964 119.655552 
L 212.046178 120.309612 
L 215.15782 120.937883 
L 217.001757 122.179119 
L 217.462741 122.78728 
L 219.998153 126.327088 
L 220.459137 126.00878 
L 221.381105 125.418215 
L 222.418319 125.036045 
L 222.533565 125.006649 
L 222.994549 123.889523 
L 223.340287 123.640276 
L 223.686025 123.665798 
L 224.147009 123.961104 
L 224.723239 124.655701 
L 225.29947 125.718377 
L 225.645208 126.376177 
L 226.221438 126.83565 
L 228.295866 128.117413 
L 229.33308 128.018099 
L 229.794064 128.355324 
L 230.255048 129.008926 
L 230.716032 130.143854 
L 230.946524 130.593122 
L 231.292262 130.736292 
L 232.559968 131.793604 
L 234.173413 133.110273 
L 236.247841 134.312397 
L 236.593579 134.489112 
L 237.400301 134.293448 
L 238.322269 134.21839 
L 239.705221 134.35744 
L 242.240634 134.891188 
L 243.277848 135.890573 
L 245.006538 137.628943 
L 245.698014 137.453108 
L 247.54195 136.985837 
L 248.233426 137.074381 
L 250.423101 137.404617 
L 253.304251 137.063969 
L 253.765235 137.347737 
L 254.571957 138.123053 
L 255.378679 139.234884 
L 256.070155 140.232749 
L 256.415893 139.953326 
L 257.10737 139.401599 
L 257.798846 139.152426 
L 258.605568 139.111803 
L 259.297044 139.259831 
L 261.832456 140.135241 
L 263.791638 141.619052 
L 265.520329 142.844276 
L 267.249019 143.899781 
L 269.553939 144.565872 
L 269.669185 144.325141 
L 270.245415 142.043308 
L 270.591153 141.515708 
L 270.936891 141.395343 
L 271.282629 141.543326 
L 271.743613 142.06724 
L 272.204597 142.952382 
L 273.472304 145.822025 
L 274.048534 147.093264 
L 274.624764 148.984459 
L 274.970502 150.770784 
L 275.200994 151.696902 
L 276.007716 151.619099 
L 277.160176 151.727622 
L 278.312636 152.035137 
L 280.617557 153.541363 
L 280.963295 152.731581 
L 281.654771 151.273151 
L 282.461493 150.125373 
L 283.383461 149.144913 
L 283.613953 149.507031 
L 284.305429 151.613004 
L 285.457889 155.802181 
L 286.379857 159.105476 
L 286.725595 159.059436 
L 288.108547 158.639392 
L 289.145762 158.569805 
L 289.837238 159.015917 
L 292.142158 160.579572 
L 297.212983 162.352935 
L 297.673967 162.545883 
L 300.670363 164.201872 
L 308.046108 166.55517 
L 308.2766 166.61359 
L 308.2766 166.61359 
" clip-path="url(#pfb975c8f05)" style="fill: none; stroke: #ff7f0e; stroke-width: 1.5; stroke-linecap: square"/>
   </g>
   <g id="line2d_30">
    <path d="M 53.8134 16.539902 
L 54.043892 11.584386 
L 54.274384 11.420339 
L 56.464058 11.797208 
L 62.572097 12.730402 
L 68.334398 13.776954 
L 69.602104 14.246161 
L 73.17473 15.791631 
L 74.096699 16.178018 
L 75.018667 16.807832 
L 76.055881 17.813791 
L 76.747357 18.853126 
L 77.554079 20.521525 
L 78.591293 23.276026 
L 79.398015 25.413099 
L 80.089491 26.738722 
L 80.665721 27.472855 
L 81.241951 27.858483 
L 84.584086 28.964358 
L 87.92622 30.356696 
L 89.539664 30.769339 
L 90.807371 31.084569 
L 91.959831 31.614998 
L 94.495243 32.940403 
L 95.993441 33.362251 
L 102.331972 34.846895 
L 108.670503 36.385097 
L 112.012637 37.44338 
L 115.12428 38.663028 
L 117.890184 39.970435 
L 118.812152 40.666442 
L 119.849366 41.727312 
L 121.117072 43.381232 
L 122.615271 45.717025 
L 124.113469 48.077618 
L 125.265929 49.437842 
L 126.418389 50.438154 
L 127.686095 51.278667 
L 128.953801 51.859889 
L 131.143476 52.616687 
L 134.831348 53.775508 
L 137.482007 54.786387 
L 138.403975 55.426298 
L 139.441189 56.414081 
L 140.478403 57.415466 
L 141.515617 58.100195 
L 142.437585 58.445318 
L 156.036615 62.443209 
L 162.029408 64.802623 
L 165.025804 66.142659 
L 165.947772 66.863924 
L 166.984986 67.981638 
L 169.750891 71.599354 
L 170.903351 72.980079 
L 171.940565 73.869308 
L 172.977779 74.462921 
L 175.628437 75.651821 
L 179.201064 77.231177 
L 183.695658 79.442817 
L 185.770087 80.448692 
L 188.766483 81.584556 
L 192.915339 83.210786 
L 193.952554 83.948649 
L 195.22026 85.182014 
L 196.257474 85.992766 
L 197.294688 86.505043 
L 212.046178 91.805207 
L 214.351098 92.689284 
L 216.656018 93.604463 
L 218.960939 94.53587 
L 223.455533 96.088886 
L 224.377501 96.829612 
L 225.29947 97.869508 
L 228.872096 102.269616 
L 229.90931 103.105754 
L 230.946524 103.652212 
L 233.481937 104.919168 
L 235.556365 105.953605 
L 239.013745 107.585013 
L 241.664404 108.957985 
L 244.315062 110.318447 
L 247.772442 112.181407 
L 249.385887 112.802027 
L 251.229823 113.25791 
L 258.83606 114.935115 
L 261.832456 115.597259 
L 265.059345 116.375321 
L 267.710003 117.235616 
L 269.669185 118.122917 
L 270.475907 118.735252 
L 271.282629 119.641176 
L 272.204597 121.058046 
L 273.01132 122.324309 
L 273.818042 123.183506 
L 274.624764 123.697891 
L 275.777224 124.080992 
L 280.848049 125.67733 
L 288.569532 129.1625 
L 299.633149 132.08727 
L 304.127743 133.253569 
L 308.2766 134.153376 
L 308.2766 134.153376 
" clip-path="url(#pfb975c8f05)" style="fill: none; stroke: #2ca02c; stroke-width: 1.5; stroke-linecap: square"/>
   </g>
   <g id="patch_3">
    <path d="M 41.09024 188.242416 
L 41.09024 3.00024 
" style="fill: none; stroke: #000000; stroke-width: 0.8; stroke-linejoin: miter; stroke-linecap: square"/>
   </g>
   <g id="patch_4">
    <path d="M 320.99976 188.242416 
L 320.99976 3.00024 
" style="fill: none; stroke: #000000; stroke-width: 0.8; stroke-linejoin: miter; stroke-linecap: square"/>
   </g>
   <g id="patch_5">
    <path d="M 41.09024 188.242416 
L 320.99976 188.242416 
" style="fill: none; stroke: #000000; stroke-width: 0.8; stroke-linejoin: miter; stroke-linecap: square"/>
   </g>
   <g id="patch_6">
    <path d="M 41.09024 3.00024 
L 320.99976 3.00024 
" style="fill: none; stroke: #000000; stroke-width: 0.8; stroke-linejoin: miter; stroke-linecap: square"/>
   </g>
   <g id="legend_1">
    <g id="patch_7">
     <path d="M 271.447649 42.897881 
L 315.46031 42.897881 
Q 317.04301 42.897881 317.04301 41.315181 
L 317.04301 8.53969 
Q 317.04301 6.95699 315.46031 6.95699 
L 271.447649 6.95699 
Q 269.864949 6.95699 269.864949 8.53969 
L 269.864949 41.315181 
Q 269.864949 42.897881 271.447649 42.897881 
z
" style="fill: #ffffff; opacity: 0.8; stroke: #cccccc; stroke-linejoin: miter"/>
    </g>
    <g id="line2d_31">
     <path d="M 273.030349 12.892115 
L 280.943849 12.892115 
L 288.857349 12.892115 
" style="fill: none; stroke: #1f77b4; stroke-width: 1.5; stroke-linecap: square"/>
    </g>
    <g id="text_15">
     <!-- Soil 1 -->
     <g transform="translate(295.188149 15.66184) scale(0.079135 -0.079135)">
      <defs>
       <path id="TimesNewRomanPSMT-53" d="M 2934 4334 
L 2934 2869 
L 2819 2869 
Q 2763 3291 2617 3541 
Q 2472 3791 2203 3937 
Q 1934 4084 1647 4084 
Q 1322 4084 1109 3886 
Q 897 3688 897 3434 
Q 897 3241 1031 3081 
Q 1225 2847 1953 2456 
Q 2547 2138 2764 1967 
Q 2981 1797 3098 1565 
Q 3216 1334 3216 1081 
Q 3216 600 2842 251 
Q 2469 -97 1881 -97 
Q 1697 -97 1534 -69 
Q 1438 -53 1133 45 
Q 828 144 747 144 
Q 669 144 623 97 
Q 578 50 556 -97 
L 441 -97 
L 441 1356 
L 556 1356 
Q 638 900 775 673 
Q 913 447 1195 297 
Q 1478 147 1816 147 
Q 2206 147 2432 353 
Q 2659 559 2659 841 
Q 2659 997 2573 1156 
Q 2488 1316 2306 1453 
Q 2184 1547 1640 1851 
Q 1097 2156 867 2337 
Q 638 2519 519 2737 
Q 400 2956 400 3219 
Q 400 3675 750 4004 
Q 1100 4334 1641 4334 
Q 1978 4334 2356 4169 
Q 2531 4091 2603 4091 
Q 2684 4091 2736 4139 
Q 2788 4188 2819 4334 
L 2934 4334 
z
" transform="scale(0.015625)"/>
       <path id="TimesNewRomanPSMT-6f" d="M 1600 2947 
Q 2250 2947 2644 2453 
Q 2978 2031 2978 1484 
Q 2978 1100 2793 706 
Q 2609 313 2286 112 
Q 1963 -88 1566 -88 
Q 919 -88 538 428 
Q 216 863 216 1403 
Q 216 1797 411 2186 
Q 606 2575 925 2761 
Q 1244 2947 1600 2947 
z
M 1503 2744 
Q 1338 2744 1170 2645 
Q 1003 2547 900 2300 
Q 797 2053 797 1666 
Q 797 1041 1045 587 
Q 1294 134 1700 134 
Q 2003 134 2200 384 
Q 2397 634 2397 1244 
Q 2397 2006 2069 2444 
Q 1847 2744 1503 2744 
z
" transform="scale(0.015625)"/>
       <path id="TimesNewRomanPSMT-69" d="M 928 4444 
Q 1059 4444 1151 4351 
Q 1244 4259 1244 4128 
Q 1244 3997 1151 3903 
Q 1059 3809 928 3809 
Q 797 3809 703 3903 
Q 609 3997 609 4128 
Q 609 4259 701 4351 
Q 794 4444 928 4444 
z
M 1188 2947 
L 1188 647 
Q 1188 378 1227 289 
Q 1266 200 1342 156 
Q 1419 113 1622 113 
L 1622 0 
L 231 0 
L 231 113 
Q 441 113 512 153 
Q 584 194 626 287 
Q 669 381 669 647 
L 669 1750 
Q 669 2216 641 2353 
Q 619 2453 572 2492 
Q 525 2531 444 2531 
Q 356 2531 231 2484 
L 188 2597 
L 1050 2947 
L 1188 2947 
z
" transform="scale(0.015625)"/>
       <path id="TimesNewRomanPSMT-6c" d="M 1184 4444 
L 1184 647 
Q 1184 378 1223 290 
Q 1263 203 1344 158 
Q 1425 113 1647 113 
L 1647 0 
L 244 0 
L 244 113 
Q 441 113 512 153 
Q 584 194 625 287 
Q 666 381 666 647 
L 666 3247 
Q 666 3731 644 3842 
Q 622 3953 573 3993 
Q 525 4034 450 4034 
Q 369 4034 244 3984 
L 191 4094 
L 1044 4444 
L 1184 4444 
z
" transform="scale(0.015625)"/>
      </defs>
      <use xlink:href="#TimesNewRomanPSMT-53"/>
      <use xlink:href="#TimesNewRomanPSMT-6f" x="55.615234"/>
      <use xlink:href="#TimesNewRomanPSMT-69" x="105.615234"/>
      <use xlink:href="#TimesNewRomanPSMT-6c" x="133.398438"/>
      <use xlink:href="#TimesNewRomanPSMT-20" x="161.181641"/>
      <use xlink:href="#TimesNewRomanPSMT-31" x="186.181641"/>
     </g>
    </g>
    <g id="line2d_32">
     <path d="M 273.030349 24.081062 
L 280.943849 24.081062 
L 288.857349 24.081062 
" style="fill: none; stroke: #ff7f0e; stroke-width: 1.5; stroke-linecap: square"/>
    </g>
    <g id="text_16">
     <!-- Soil 2 -->
     <g transform="translate(295.188149 26.850787) scale(0.079135 -0.079135)">
      <use xlink:href="#TimesNewRomanPSMT-53"/>
      <use xlink:href="#TimesNewRomanPSMT-6f" x="55.615234"/>
      <use xlink:href="#TimesNewRomanPSMT-69" x="105.615234"/>
      <use xlink:href="#TimesNewRomanPSMT-6c" x="133.398438"/>
      <use xlink:href="#TimesNewRomanPSMT-20" x="161.181641"/>
      <use xlink:href="#TimesNewRomanPSMT-32" x="186.181641"/>
     </g>
    </g>
    <g id="line2d_33">
     <path d="M 273.030349 35.270009 
L 280.943849 35.270009 
L 288.857349 35.270009 
" style="fill: none; stroke: #2ca02c; stroke-width: 1.5; stroke-linecap: square"/>
    </g>
    <g id="text_17">
     <!-- Soil 3 -->
     <g transform="translate(295.188149 38.039734) scale(0.079135 -0.079135)">
      <defs>
       <path id="TimesNewRomanPSMT-33" d="M 325 3431 
Q 506 3859 782 4092 
Q 1059 4325 1472 4325 
Q 1981 4325 2253 3994 
Q 2459 3747 2459 3466 
Q 2459 3003 1878 2509 
Q 2269 2356 2469 2072 
Q 2669 1788 2669 1403 
Q 2669 853 2319 450 
Q 1863 -75 997 -75 
Q 569 -75 414 31 
Q 259 138 259 259 
Q 259 350 332 419 
Q 406 488 509 488 
Q 588 488 669 463 
Q 722 447 909 348 
Q 1097 250 1169 231 
Q 1284 197 1416 197 
Q 1734 197 1970 444 
Q 2206 691 2206 1028 
Q 2206 1275 2097 1509 
Q 2016 1684 1919 1775 
Q 1784 1900 1550 2001 
Q 1316 2103 1072 2103 
L 972 2103 
L 972 2197 
Q 1219 2228 1467 2375 
Q 1716 2522 1828 2728 
Q 1941 2934 1941 3181 
Q 1941 3503 1739 3701 
Q 1538 3900 1238 3900 
Q 753 3900 428 3381 
L 325 3431 
z
" transform="scale(0.015625)"/>
      </defs>
      <use xlink:href="#TimesNewRomanPSMT-53"/>
      <use xlink:href="#TimesNewRomanPSMT-6f" x="55.615234"/>
      <use xlink:href="#TimesNewRomanPSMT-69" x="105.615234"/>
      <use xlink:href="#TimesNewRomanPSMT-6c" x="133.398438"/>
      <use xlink:href="#TimesNewRomanPSMT-20" x="161.181641"/>
      <use xlink:href="#TimesNewRomanPSMT-33" x="186.181641"/>
     </g>
    </g>
   </g>
  </g>
 </g>
 <defs>
  <clipPath id="pfb975c8f05">
   <rect x="41.09024" y="3.00024" width="279.90952" height="185.242176"/>
  </clipPath>
 </defs>
</svg>
