<?xml version="1.0" encoding="utf-8" standalone="no"?>
<!DOCTYPE svg PUBLIC "-//W3C//DTD SVG 1.1//EN"
  "http://www.w3.org/Graphics/SVG/1.1/DTD/svg11.dtd">
<svg xmlns:xlink="http://www.w3.org/1999/xlink" width="324pt" height="216pt" viewBox="0 0 324 216" xmlns="http://www.w3.org/2000/svg" version="1.1">
 <metadata>
  <rdf:RDF xmlns:dc="http://purl.org/dc/elements/1.1/" xmlns:cc="http://creativecommons.org/ns#" xmlns:rdf="http://www.w3.org/1999/02/22-rdf-syntax-ns#">
   <cc:Work>
    <dc:type rdf:resource="http://purl.org/dc/dcmitype/StillImage"/>
    <dc:date>2024-04-26T18:06:09.358342</dc:date>
    <dc:format>image/svg+xml</dc:format>
    <dc:creator>
     <cc:Agent>
      <dc:title>Matplotlib v3.7.2, https://matplotlib.org/</dc:title>
     </cc:Agent>
    </dc:creator>
   </cc:Work>
  </rdf:RDF>
 </metadata>
 <defs>
  <style type="text/css">*{stroke-linejoin: round; stroke-linecap: butt}</style>
 </defs>
 <g id="figure_1">
  <g id="patch_1">
   <path d="M 0 216 
L 324 216 
L 324 0 
L 0 0 
z
" style="fill: #ffffff"/>
  </g>
  <g id="axes_1">
   <g id="patch_2">
    <path d="M 37.76524 188.242416 
L 320.99976 188.242416 
L 320.99976 3.00024 
L 37.76524 3.00024 
z
" style="fill: #ffffff"/>
   </g>
   <g id="matplotlib.axis_1">
    <g id="xtick_1">
     <g id="line2d_1">
      <defs>
       <path id="mcc4639aa42" d="M 0 0 
L 0 -3.5 
" style="stroke: #000000; stroke-width: 0.8"/>
      </defs>
      <g>
       <use xlink:href="#mcc4639aa42" x="50.639536" y="188.242416" style="stroke: #000000; stroke-width: 0.8"/>
      </g>
     </g>
     <g id="text_1">
      <!-- 0 -->
      <g transform="translate(48.264536 198.338979) scale(0.095 -0.095)">
       <defs>
        <path id="TimesNewRomanPSMT-30" d="M 231 2094 
Q 231 2819 450 3342 
Q 669 3866 1031 4122 
Q 1313 4325 1613 4325 
Q 2100 4325 2488 3828 
Q 2972 3213 2972 2159 
Q 2972 1422 2759 906 
Q 2547 391 2217 158 
Q 1888 -75 1581 -75 
Q 975 -75 572 641 
Q 231 1244 231 2094 
z
M 844 2016 
Q 844 1141 1059 588 
Q 1238 122 1591 122 
Q 1759 122 1940 273 
Q 2122 425 2216 781 
Q 2359 1319 2359 2297 
Q 2359 3022 2209 3506 
Q 2097 3866 1919 4016 
Q 1791 4119 1609 4119 
Q 1397 4119 1231 3928 
Q 1006 3669 925 3112 
Q 844 2556 844 2016 
z
" transform="scale(0.015625)"/>
       </defs>
       <use xlink:href="#TimesNewRomanPSMT-30"/>
      </g>
     </g>
    </g>
    <g id="xtick_2">
     <g id="line2d_2">
      <g>
       <use xlink:href="#mcc4639aa42" x="106.614738" y="188.242416" style="stroke: #000000; stroke-width: 0.8"/>
      </g>
     </g>
     <g id="text_2">
      <!-- 20 -->
      <g transform="translate(101.864738 198.338979) scale(0.095 -0.095)">
       <defs>
        <path id="TimesNewRomanPSMT-32" d="M 2934 816 
L 2638 0 
L 138 0 
L 138 116 
Q 1241 1122 1691 1759 
Q 2141 2397 2141 2925 
Q 2141 3328 1894 3587 
Q 1647 3847 1303 3847 
Q 991 3847 742 3664 
Q 494 3481 375 3128 
L 259 3128 
Q 338 3706 661 4015 
Q 984 4325 1469 4325 
Q 1984 4325 2329 3994 
Q 2675 3663 2675 3213 
Q 2675 2891 2525 2569 
Q 2294 2063 1775 1497 
Q 997 647 803 472 
L 1909 472 
Q 2247 472 2383 497 
Q 2519 522 2628 598 
Q 2738 675 2819 816 
L 2934 816 
z
" transform="scale(0.015625)"/>
       </defs>
       <use xlink:href="#TimesNewRomanPSMT-32"/>
       <use xlink:href="#TimesNewRomanPSMT-30" x="50"/>
      </g>
     </g>
    </g>
    <g id="xtick_3">
     <g id="line2d_3">
      <g>
       <use xlink:href="#mcc4639aa42" x="162.58994" y="188.242416" style="stroke: #000000; stroke-width: 0.8"/>
      </g>
     </g>
     <g id="text_3">
      <!-- 40 -->
      <g transform="translate(157.83994 198.338979) scale(0.095 -0.095)">
       <defs>
        <path id="TimesNewRomanPSMT-34" d="M 2978 1563 
L 2978 1119 
L 2409 1119 
L 2409 0 
L 1894 0 
L 1894 1119 
L 100 1119 
L 100 1519 
L 2066 4325 
L 2409 4325 
L 2409 1563 
L 2978 1563 
z
M 1894 1563 
L 1894 3666 
L 406 1563 
L 1894 1563 
z
" transform="scale(0.015625)"/>
       </defs>
       <use xlink:href="#TimesNewRomanPSMT-34"/>
       <use xlink:href="#TimesNewRomanPSMT-30" x="50"/>
      </g>
     </g>
    </g>
    <g id="xtick_4">
     <g id="line2d_4">
      <g>
       <use xlink:href="#mcc4639aa42" x="218.565141" y="188.242416" style="stroke: #000000; stroke-width: 0.8"/>
      </g>
     </g>
     <g id="text_4">
      <!-- 60 -->
      <g transform="translate(213.815141 198.338979) scale(0.095 -0.095)">
       <defs>
        <path id="TimesNewRomanPSMT-36" d="M 2869 4325 
L 2869 4209 
Q 2456 4169 2195 4045 
Q 1934 3922 1679 3669 
Q 1425 3416 1258 3105 
Q 1091 2794 978 2366 
Q 1428 2675 1881 2675 
Q 2316 2675 2634 2325 
Q 2953 1975 2953 1425 
Q 2953 894 2631 456 
Q 2244 -75 1606 -75 
Q 1172 -75 869 213 
Q 275 772 275 1663 
Q 275 2231 503 2743 
Q 731 3256 1154 3653 
Q 1578 4050 1965 4187 
Q 2353 4325 2688 4325 
L 2869 4325 
z
M 925 2138 
Q 869 1716 869 1456 
Q 869 1156 980 804 
Q 1091 453 1309 247 
Q 1469 100 1697 100 
Q 1969 100 2183 356 
Q 2397 613 2397 1088 
Q 2397 1622 2184 2012 
Q 1972 2403 1581 2403 
Q 1463 2403 1327 2353 
Q 1191 2303 925 2138 
z
" transform="scale(0.015625)"/>
       </defs>
       <use xlink:href="#TimesNewRomanPSMT-36"/>
       <use xlink:href="#TimesNewRomanPSMT-30" x="50"/>
      </g>
     </g>
    </g>
    <g id="xtick_5">
     <g id="line2d_5">
      <g>
       <use xlink:href="#mcc4639aa42" x="274.540343" y="188.242416" style="stroke: #000000; stroke-width: 0.8"/>
      </g>
     </g>
     <g id="text_5">
      <!-- 80 -->
      <g transform="translate(269.790343 198.338979) scale(0.095 -0.095)">
       <defs>
        <path id="TimesNewRomanPSMT-38" d="M 1228 2134 
Q 725 2547 579 2797 
Q 434 3047 434 3316 
Q 434 3728 753 4026 
Q 1072 4325 1600 4325 
Q 2113 4325 2425 4047 
Q 2738 3769 2738 3413 
Q 2738 3175 2569 2928 
Q 2400 2681 1866 2347 
Q 2416 1922 2594 1678 
Q 2831 1359 2831 1006 
Q 2831 559 2490 242 
Q 2150 -75 1597 -75 
Q 994 -75 656 303 
Q 388 606 388 966 
Q 388 1247 577 1523 
Q 766 1800 1228 2134 
z
M 1719 2469 
Q 2094 2806 2194 3001 
Q 2294 3197 2294 3444 
Q 2294 3772 2109 3958 
Q 1925 4144 1606 4144 
Q 1288 4144 1088 3959 
Q 888 3775 888 3528 
Q 888 3366 970 3203 
Q 1053 3041 1206 2894 
L 1719 2469 
z
M 1375 2016 
Q 1116 1797 991 1539 
Q 866 1281 866 981 
Q 866 578 1086 336 
Q 1306 94 1647 94 
Q 1984 94 2187 284 
Q 2391 475 2391 747 
Q 2391 972 2272 1150 
Q 2050 1481 1375 2016 
z
" transform="scale(0.015625)"/>
       </defs>
       <use xlink:href="#TimesNewRomanPSMT-38"/>
       <use xlink:href="#TimesNewRomanPSMT-30" x="50"/>
      </g>
     </g>
    </g>
    <g id="xtick_6">
     <g id="line2d_6">
      <defs>
       <path id="m64b0133645" d="M 0 0 
L 0 -2 
" style="stroke: #000000; stroke-width: 0.6"/>
      </defs>
      <g>
       <use xlink:href="#m64b0133645" x="64.633337" y="188.242416" style="stroke: #000000; stroke-width: 0.6"/>
      </g>
     </g>
    </g>
    <g id="xtick_7">
     <g id="line2d_7">
      <g>
       <use xlink:href="#m64b0133645" x="78.627137" y="188.242416" style="stroke: #000000; stroke-width: 0.6"/>
      </g>
     </g>
    </g>
    <g id="xtick_8">
     <g id="line2d_8">
      <g>
       <use xlink:href="#m64b0133645" x="92.620938" y="188.242416" style="stroke: #000000; stroke-width: 0.6"/>
      </g>
     </g>
    </g>
    <g id="xtick_9">
     <g id="line2d_9">
      <g>
       <use xlink:href="#m64b0133645" x="120.608538" y="188.242416" style="stroke: #000000; stroke-width: 0.6"/>
      </g>
     </g>
    </g>
    <g id="xtick_10">
     <g id="line2d_10">
      <g>
       <use xlink:href="#m64b0133645" x="134.602339" y="188.242416" style="stroke: #000000; stroke-width: 0.6"/>
      </g>
     </g>
    </g>
    <g id="xtick_11">
     <g id="line2d_11">
      <g>
       <use xlink:href="#m64b0133645" x="148.596139" y="188.242416" style="stroke: #000000; stroke-width: 0.6"/>
      </g>
     </g>
    </g>
    <g id="xtick_12">
     <g id="line2d_12">
      <g>
       <use xlink:href="#m64b0133645" x="176.58374" y="188.242416" style="stroke: #000000; stroke-width: 0.6"/>
      </g>
     </g>
    </g>
    <g id="xtick_13">
     <g id="line2d_13">
      <g>
       <use xlink:href="#m64b0133645" x="190.57754" y="188.242416" style="stroke: #000000; stroke-width: 0.6"/>
      </g>
     </g>
    </g>
    <g id="xtick_14">
     <g id="line2d_14">
      <g>
       <use xlink:href="#m64b0133645" x="204.571341" y="188.242416" style="stroke: #000000; stroke-width: 0.6"/>
      </g>
     </g>
    </g>
    <g id="xtick_15">
     <g id="line2d_15">
      <g>
       <use xlink:href="#m64b0133645" x="232.558942" y="188.242416" style="stroke: #000000; stroke-width: 0.6"/>
      </g>
     </g>
    </g>
    <g id="xtick_16">
     <g id="line2d_16">
      <g>
       <use xlink:href="#m64b0133645" x="246.552742" y="188.242416" style="stroke: #000000; stroke-width: 0.6"/>
      </g>
     </g>
    </g>
    <g id="xtick_17">
     <g id="line2d_17">
      <g>
       <use xlink:href="#m64b0133645" x="260.546542" y="188.242416" style="stroke: #000000; stroke-width: 0.6"/>
      </g>
     </g>
    </g>
    <g id="xtick_18">
     <g id="line2d_18">
      <g>
       <use xlink:href="#m64b0133645" x="288.534143" y="188.242416" style="stroke: #000000; stroke-width: 0.6"/>
      </g>
     </g>
    </g>
    <g id="xtick_19">
     <g id="line2d_19">
      <g>
       <use xlink:href="#m64b0133645" x="302.527943" y="188.242416" style="stroke: #000000; stroke-width: 0.6"/>
      </g>
     </g>
    </g>
    <g id="xtick_20">
     <g id="line2d_20">
      <g>
       <use xlink:href="#m64b0133645" x="316.521744" y="188.242416" style="stroke: #000000; stroke-width: 0.6"/>
      </g>
     </g>
    </g>
    <g id="text_6">
     <!-- 时间 / d -->
     <g transform="translate(163.812891 210.967651) scale(0.095 -0.095)">
      <defs>
       <path id="SimSun-65f6" d="M 4500 3600 
Q 4500 4575 4475 5225 
L 5100 4900 
L 4850 4725 
L 4850 3600 
L 5225 3600 
L 5550 3925 
L 6025 3450 
L 4850 3450 
L 4850 100 
Q 4850 -375 4300 -575 
Q 4275 -200 3475 -25 
L 3475 100 
Q 4150 0 4325 25 
Q 4500 50 4500 325 
L 4500 3450 
L 3200 3450 
Q 2875 3450 2600 3375 
L 2375 3600 
L 4500 3600 
z
M 2875 2825 
Q 3525 2375 3637 2200 
Q 3750 2025 3750 1925 
Q 3750 1800 3637 1637 
Q 3525 1475 3475 1475 
Q 3400 1475 3325 1775 
Q 3200 2225 2800 2750 
L 2875 2825 
z
M 925 4150 
L 925 2650 
L 1950 2650 
L 1950 4150 
L 925 4150 
z
M 925 2500 
L 925 900 
L 1950 900 
L 1950 2500 
L 925 2500 
z
M 2300 2000 
Q 2300 800 2325 450 
L 1950 250 
L 1950 750 
L 925 750 
L 925 225 
L 550 25 
Q 575 825 575 2425 
Q 575 4025 550 4500 
L 950 4300 
L 1900 4300 
L 2100 4550 
L 2500 4225 
L 2300 4050 
L 2300 2000 
z
" transform="scale(0.015625)"/>
       <path id="SimSun-95f4" d="M 2150 525 
Q 2175 1325 2175 2112 
Q 2175 2900 2150 3675 
L 2525 3450 
L 3750 3450 
L 4000 3700 
L 4325 3375 
L 4125 3200 
Q 4125 1550 4150 775 
L 3800 575 
L 3800 975 
L 2500 975 
L 2500 700 
L 2150 525 
z
M 2500 3300 
L 2500 2325 
L 3800 2325 
L 3800 3300 
L 2500 3300 
z
M 2500 2175 
L 2500 1125 
L 3800 1125 
L 3800 2175 
L 2500 2175 
z
M 1275 5200 
Q 1850 4825 1950 4675 
Q 2050 4525 2050 4425 
Q 2050 4275 1950 4137 
Q 1850 4000 1825 4000 
Q 1750 4000 1675 4275 
Q 1550 4650 1200 5125 
L 1275 5200 
z
M 1125 425 
Q 1125 25 1150 -375 
L 750 -525 
Q 775 -150 775 1950 
Q 775 4050 750 4425 
L 1350 4125 
L 1125 3975 
L 1125 425 
z
M 4225 125 
Q 5025 0 5125 37 
Q 5225 75 5225 250 
L 5225 4450 
L 3225 4450 
Q 2900 4450 2625 4375 
L 2400 4600 
L 5175 4600 
L 5425 4850 
L 5775 4500 
L 5575 4350 
L 5575 225 
Q 5575 -100 5462 -250 
Q 5350 -400 5000 -550 
Q 4800 -125 4225 25 
L 4225 125 
z
" transform="scale(0.015625)"/>
       <path id="TimesNewRomanPSMT-20" transform="scale(0.015625)"/>
       <path id="TimesNewRomanPSMT-2f" d="M 1794 4444 
L 259 -88 
L 9 -88 
L 1544 4444 
L 1794 4444 
z
" transform="scale(0.015625)"/>
       <path id="TimesNewRomanPSMT-64" d="M 2222 322 
Q 2013 103 1813 7 
Q 1613 -88 1381 -88 
Q 913 -88 563 304 
Q 213 697 213 1313 
Q 213 1928 600 2439 
Q 988 2950 1597 2950 
Q 1975 2950 2222 2709 
L 2222 3238 
Q 2222 3728 2198 3840 
Q 2175 3953 2125 3993 
Q 2075 4034 2000 4034 
Q 1919 4034 1784 3984 
L 1744 4094 
L 2597 4444 
L 2738 4444 
L 2738 1134 
Q 2738 631 2761 520 
Q 2784 409 2836 365 
Q 2888 322 2956 322 
Q 3041 322 3181 375 
L 3216 266 
L 2366 -88 
L 2222 -88 
L 2222 322 
z
M 2222 541 
L 2222 2016 
Q 2203 2228 2109 2403 
Q 2016 2578 1861 2667 
Q 1706 2756 1559 2756 
Q 1284 2756 1069 2509 
Q 784 2184 784 1559 
Q 784 928 1059 592 
Q 1334 256 1672 256 
Q 1956 256 2222 541 
z
" transform="scale(0.015625)"/>
      </defs>
      <use xlink:href="#SimSun-65f6"/>
      <use xlink:href="#SimSun-95f4" x="100"/>
      <use xlink:href="#TimesNewRomanPSMT-20" x="200"/>
      <use xlink:href="#TimesNewRomanPSMT-2f" x="225"/>
      <use xlink:href="#TimesNewRomanPSMT-20" x="252.783203"/>
      <use xlink:href="#TimesNewRomanPSMT-64" x="277.783203"/>
     </g>
    </g>
   </g>
   <g id="matplotlib.axis_2">
    <g id="ytick_1">
     <g id="line2d_21">
      <defs>
       <path id="m6ac1835bfb" d="M 0 0 
L 3.5 0 
" style="stroke: #000000; stroke-width: 0.8"/>
      </defs>
      <g>
       <use xlink:href="#m6ac1835bfb" x="37.76524" y="173.448592" style="stroke: #000000; stroke-width: 0.8"/>
      </g>
     </g>
     <g id="text_7">
      <!-- $\mathdefault{10^{-7}}$ -->
      <g transform="translate(17.07024 177.610037) scale(0.095 -0.095)">
       <defs>
        <path id="TimesNewRomanPSMT-31" d="M 750 3822 
L 1781 4325 
L 1884 4325 
L 1884 747 
Q 1884 391 1914 303 
Q 1944 216 2037 169 
Q 2131 122 2419 116 
L 2419 0 
L 825 0 
L 825 116 
Q 1125 122 1212 167 
Q 1300 213 1334 289 
Q 1369 366 1369 747 
L 1369 3034 
Q 1369 3497 1338 3628 
Q 1316 3728 1258 3775 
Q 1200 3822 1119 3822 
Q 1003 3822 797 3725 
L 750 3822 
z
" transform="scale(0.015625)"/>
        <path id="TimesNewRomanPSMT-2212" d="M 3484 2000 
L 116 2000 
L 116 2256 
L 3484 2256 
L 3484 2000 
z
" transform="scale(0.015625)"/>
        <path id="TimesNewRomanPSMT-37" d="M 644 4238 
L 2916 4238 
L 2916 4119 
L 1503 -88 
L 1153 -88 
L 2419 3728 
L 1253 3728 
Q 900 3728 750 3644 
Q 488 3500 328 3200 
L 238 3234 
L 644 4238 
z
" transform="scale(0.015625)"/>
       </defs>
       <use xlink:href="#TimesNewRomanPSMT-31" transform="translate(0 0.534375)"/>
       <use xlink:href="#TimesNewRomanPSMT-30" transform="translate(50 0.534375)"/>
       <use xlink:href="#TimesNewRomanPSMT-2212" transform="translate(101.502813 60.646875) scale(0.7)"/>
       <use xlink:href="#TimesNewRomanPSMT-37" transform="translate(140.980352 60.646875) scale(0.7)"/>
      </g>
     </g>
    </g>
    <g id="ytick_2">
     <g id="line2d_22">
      <g>
       <use xlink:href="#m6ac1835bfb" x="37.76524" y="150.200971" style="stroke: #000000; stroke-width: 0.8"/>
      </g>
     </g>
     <g id="text_8">
      <!-- $\mathdefault{10^{-5}}$ -->
      <g transform="translate(17.07024 154.362417) scale(0.095 -0.095)">
       <defs>
        <path id="TimesNewRomanPSMT-35" d="M 2778 4238 
L 2534 3706 
L 1259 3706 
L 981 3138 
Q 1809 3016 2294 2522 
Q 2709 2097 2709 1522 
Q 2709 1188 2573 903 
Q 2438 619 2231 419 
Q 2025 219 1772 97 
Q 1413 -75 1034 -75 
Q 653 -75 479 54 
Q 306 184 306 341 
Q 306 428 378 495 
Q 450 563 559 563 
Q 641 563 702 538 
Q 763 513 909 409 
Q 1144 247 1384 247 
Q 1750 247 2026 523 
Q 2303 800 2303 1197 
Q 2303 1581 2056 1914 
Q 1809 2247 1375 2428 
Q 1034 2569 447 2591 
L 1259 4238 
L 2778 4238 
z
" transform="scale(0.015625)"/>
       </defs>
       <use xlink:href="#TimesNewRomanPSMT-31" transform="translate(0 0.534375)"/>
       <use xlink:href="#TimesNewRomanPSMT-30" transform="translate(50 0.534375)"/>
       <use xlink:href="#TimesNewRomanPSMT-2212" transform="translate(101.502813 60.646875) scale(0.7)"/>
       <use xlink:href="#TimesNewRomanPSMT-35" transform="translate(140.980352 60.646875) scale(0.7)"/>
      </g>
     </g>
    </g>
    <g id="ytick_3">
     <g id="line2d_23">
      <g>
       <use xlink:href="#m6ac1835bfb" x="37.76524" y="126.95335" style="stroke: #000000; stroke-width: 0.8"/>
      </g>
     </g>
     <g id="text_9">
      <!-- $\mathdefault{10^{-3}}$ -->
      <g transform="translate(17.07024 131.162296) scale(0.095 -0.095)">
       <defs>
        <path id="TimesNewRomanPSMT-33" d="M 325 3431 
Q 506 3859 782 4092 
Q 1059 4325 1472 4325 
Q 1981 4325 2253 3994 
Q 2459 3747 2459 3466 
Q 2459 3003 1878 2509 
Q 2269 2356 2469 2072 
Q 2669 1788 2669 1403 
Q 2669 853 2319 450 
Q 1863 -75 997 -75 
Q 569 -75 414 31 
Q 259 138 259 259 
Q 259 350 332 419 
Q 406 488 509 488 
Q 588 488 669 463 
Q 722 447 909 348 
Q 1097 250 1169 231 
Q 1284 197 1416 197 
Q 1734 197 1970 444 
Q 2206 691 2206 1028 
Q 2206 1275 2097 1509 
Q 2016 1684 1919 1775 
Q 1784 1900 1550 2001 
Q 1316 2103 1072 2103 
L 972 2103 
L 972 2197 
Q 1219 2228 1467 2375 
Q 1716 2522 1828 2728 
Q 1941 2934 1941 3181 
Q 1941 3503 1739 3701 
Q 1538 3900 1238 3900 
Q 753 3900 428 3381 
L 325 3431 
z
" transform="scale(0.015625)"/>
       </defs>
       <use xlink:href="#TimesNewRomanPSMT-31" transform="translate(0 0.582813)"/>
       <use xlink:href="#TimesNewRomanPSMT-30" transform="translate(50 0.582813)"/>
       <use xlink:href="#TimesNewRomanPSMT-2212" transform="translate(101.502813 60.695312) scale(0.7)"/>
       <use xlink:href="#TimesNewRomanPSMT-33" transform="translate(140.980352 60.695312) scale(0.7)"/>
      </g>
     </g>
    </g>
    <g id="ytick_4">
     <g id="line2d_24">
      <g>
       <use xlink:href="#m6ac1835bfb" x="37.76524" y="103.705729" style="stroke: #000000; stroke-width: 0.8"/>
      </g>
     </g>
     <g id="text_10">
      <!-- $\mathdefault{10^{-1}}$ -->
      <g transform="translate(17.07024 107.914675) scale(0.095 -0.095)">
       <use xlink:href="#TimesNewRomanPSMT-31" transform="translate(0 0.582813)"/>
       <use xlink:href="#TimesNewRomanPSMT-30" transform="translate(50 0.582813)"/>
       <use xlink:href="#TimesNewRomanPSMT-2212" transform="translate(101.502813 60.695312) scale(0.7)"/>
       <use xlink:href="#TimesNewRomanPSMT-31" transform="translate(140.980352 60.695312) scale(0.7)"/>
      </g>
     </g>
    </g>
    <g id="ytick_5">
     <g id="line2d_25">
      <g>
       <use xlink:href="#m6ac1835bfb" x="37.76524" y="80.458108" style="stroke: #000000; stroke-width: 0.8"/>
      </g>
     </g>
     <g id="text_11">
      <!-- $\mathdefault{10^{1}}$ -->
      <g transform="translate(20.87024 84.667054) scale(0.095 -0.095)">
       <use xlink:href="#TimesNewRomanPSMT-31" transform="translate(0 0.582813)"/>
       <use xlink:href="#TimesNewRomanPSMT-30" transform="translate(50 0.582813)"/>
       <use xlink:href="#TimesNewRomanPSMT-31" transform="translate(101.502813 60.695312) scale(0.7)"/>
      </g>
     </g>
    </g>
    <g id="ytick_6">
     <g id="line2d_26">
      <g>
       <use xlink:href="#m6ac1835bfb" x="37.76524" y="57.210487" style="stroke: #000000; stroke-width: 0.8"/>
      </g>
     </g>
     <g id="text_12">
      <!-- $\mathdefault{10^{3}}$ -->
      <g transform="translate(20.87024 61.419433) scale(0.095 -0.095)">
       <use xlink:href="#TimesNewRomanPSMT-31" transform="translate(0 0.582813)"/>
       <use xlink:href="#TimesNewRomanPSMT-30" transform="translate(50 0.582813)"/>
       <use xlink:href="#TimesNewRomanPSMT-33" transform="translate(101.502813 60.695312) scale(0.7)"/>
      </g>
     </g>
    </g>
    <g id="ytick_7">
     <g id="line2d_27">
      <g>
       <use xlink:href="#m6ac1835bfb" x="37.76524" y="33.962866" style="stroke: #000000; stroke-width: 0.8"/>
      </g>
     </g>
     <g id="text_13">
      <!-- $\mathdefault{10^{5}}$ -->
      <g transform="translate(20.87024 38.124312) scale(0.095 -0.095)">
       <use xlink:href="#TimesNewRomanPSMT-31" transform="translate(0 0.534375)"/>
       <use xlink:href="#TimesNewRomanPSMT-30" transform="translate(50 0.534375)"/>
       <use xlink:href="#TimesNewRomanPSMT-35" transform="translate(101.502813 60.646875) scale(0.7)"/>
      </g>
     </g>
    </g>
    <g id="ytick_8">
     <g id="line2d_28">
      <g>
       <use xlink:href="#m6ac1835bfb" x="37.76524" y="10.715245" style="stroke: #000000; stroke-width: 0.8"/>
      </g>
     </g>
     <g id="text_14">
      <!-- $\mathdefault{10^{7}}$ -->
      <g transform="translate(20.87024 14.876691) scale(0.095 -0.095)">
       <use xlink:href="#TimesNewRomanPSMT-31" transform="translate(0 0.534375)"/>
       <use xlink:href="#TimesNewRomanPSMT-30" transform="translate(50 0.534375)"/>
       <use xlink:href="#TimesNewRomanPSMT-37" transform="translate(101.502813 60.646875) scale(0.7)"/>
      </g>
     </g>
    </g>
    <g id="text_15">
     <!-- 氚浓度$\;/\;\mathrm{(Bq/m^{2})}$ -->
     <g transform="translate(10.98024 128.776328) rotate(-90) scale(0.095 -0.095)">
      <defs>
       <path id="SimSun-6c1a" d="M 1925 2375 
L 1700 2175 
Q 1700 1475 1600 962 
Q 1500 450 1175 62 
Q 850 -325 375 -625 
L 325 -550 
Q 675 -250 887 62 
Q 1100 375 1200 762 
Q 1300 1150 1325 1737 
Q 1350 2325 1350 2650 
L 1925 2375 
z
M 2400 -500 
Q 2425 -75 2425 425 
L 2425 1800 
Q 2425 2225 2400 2450 
L 3000 2175 
L 2750 2000 
L 2750 525 
Q 2750 -50 2775 -350 
L 2400 -500 
z
M 3525 -575 
Q 3550 -100 3550 475 
L 3550 1825 
Q 3550 2425 3525 2650 
L 4125 2375 
L 3875 2200 
L 3875 525 
Q 3875 0 3900 -400 
L 3525 -575 
z
M 2050 4825 
Q 1925 4625 1825 4450 
L 5025 4450 
L 5375 4800 
L 5875 4300 
L 1775 4300 
Q 1525 3850 1150 3400 
Q 775 2950 350 2625 
L 275 2700 
Q 625 3025 1050 3700 
Q 1475 4375 1725 5250 
L 2275 4925 
L 2050 4825 
z
M 1600 3800 
L 4500 3800 
L 4800 4100 
L 5250 3650 
L 2475 3650 
Q 2050 3650 1825 3575 
L 1600 3800 
z
M 5650 -75 
L 5850 850 
L 5950 850 
Q 5925 525 5937 100 
Q 5950 -325 6050 -500 
Q 6100 -600 6000 -600 
Q 5900 -600 5575 -500 
Q 5250 -400 4912 150 
Q 4575 700 4525 1350 
Q 4475 2000 4500 2950 
L 1975 2950 
Q 1650 2950 1375 2875 
L 1150 3100 
L 4450 3100 
L 4675 3350 
L 5075 3025 
L 4825 2875 
Q 4750 1250 5025 675 
Q 5300 100 5650 -75 
z
" transform="scale(0.015625)"/>
       <path id="SimSun-6d53" d="M 4900 3200 
L 5250 3875 
L 3750 3875 
Q 3700 3725 3650 3575 
Q 3925 2450 4300 1925 
Q 5050 2600 5250 2975 
L 5650 2525 
Q 5275 2450 4962 2225 
Q 4650 2000 4375 1800 
Q 5075 750 6100 350 
L 6100 250 
Q 5650 275 5500 -25 
Q 3900 1250 3575 3375 
Q 3325 2800 3075 2375 
L 3375 2225 
L 3225 2075 
L 3225 100 
L 4175 600 
L 4225 500 
Q 3350 -100 3100 -500 
L 2775 -125 
Q 2900 -50 2875 425 
L 2875 2000 
Q 2200 1175 1475 625 
L 1425 700 
Q 2850 2150 3400 3875 
L 2575 3875 
Q 2600 3475 2475 3337 
Q 2350 3200 2187 3225 
Q 2025 3250 2025 3325 
Q 2025 3400 2150 3550 
Q 2375 3800 2475 4300 
L 2575 4300 
L 2575 4025 
L 3425 4025 
Q 3500 4325 3550 4637 
Q 3600 4950 3625 5225 
L 4175 4950 
L 3975 4800 
Q 3875 4375 3775 4025 
L 5200 4025 
L 5450 4300 
L 5900 3800 
Q 5500 3800 4975 3150 
L 4900 3200 
z
M 1975 3900 
Q 1350 1400 1287 1087 
Q 1225 775 1225 325 
Q 1225 -125 1225 -287 
Q 1225 -450 1125 -450 
Q 1050 -450 887 -375 
Q 725 -300 725 -100 
Q 725 75 775 250 
Q 850 500 850 675 
Q 850 825 750 925 
Q 650 1025 275 1125 
L 275 1225 
Q 725 1175 812 1200 
Q 900 1225 1037 1450 
Q 1175 1675 1875 3925 
L 1975 3900 
z
M 300 3500 
Q 1125 3150 1137 2900 
Q 1150 2650 1050 2537 
Q 950 2425 925 2425 
Q 850 2425 775 2675 
Q 650 3000 250 3425 
L 300 3500 
z
M 875 4950 
Q 1550 4650 1625 4525 
Q 1700 4400 1700 4300 
Q 1700 4175 1600 4025 
Q 1500 3875 1450 3875 
Q 1350 3875 1275 4125 
Q 1150 4525 825 4875 
L 875 4950 
z
" transform="scale(0.015625)"/>
       <path id="SimSun-5ea6" d="M 2550 2025 
Q 2575 2525 2575 3175 
L 1925 3175 
L 1625 3125 
L 1425 3325 
L 2575 3325 
Q 2575 3700 2550 4150 
L 3100 3875 
L 2900 3750 
L 2900 3325 
L 4300 3325 
Q 4300 3750 4275 4125 
L 4850 3875 
L 4625 3725 
L 4625 3325 
L 5100 3325 
L 5425 3650 
L 5900 3175 
L 4625 3175 
Q 4625 2450 4650 2225 
L 4300 2075 
L 4300 2300 
L 2900 2300 
L 2900 2175 
L 2550 2025 
z
M 4875 1500 
Q 4300 775 3900 425 
Q 4700 -75 6025 -125 
L 6025 -225 
Q 5625 -300 5550 -550 
Q 4375 -325 3675 225 
Q 2475 -450 1075 -625 
L 1050 -525 
Q 2375 -275 3450 450 
Q 2975 925 2575 1625 
L 2325 1625 
L 2100 1575 
L 1900 1775 
L 4525 1775 
L 4750 2000 
L 5125 1625 
L 4875 1500 
z
M 2700 1625 
Q 3175 975 3650 625 
Q 4150 1100 4500 1625 
L 2700 1625 
z
M 2900 3175 
L 2900 2450 
L 4300 2450 
L 4300 3175 
L 2900 3175 
z
M 975 4650 
L 1400 4400 
L 3375 4400 
Q 3350 4550 3262 4725 
Q 3175 4900 2900 5225 
L 2975 5275 
Q 3550 5025 3637 4887 
Q 3725 4750 3725 4725 
Q 3725 4575 3525 4400 
L 5150 4400 
L 5500 4750 
L 6000 4250 
L 1375 4250 
Q 1400 2750 1287 1912 
Q 1175 1075 925 475 
Q 675 -125 300 -625 
L 225 -575 
Q 725 300 862 1250 
Q 1000 2200 1012 3187 
Q 1025 4175 975 4650 
z
" transform="scale(0.015625)"/>
       <path id="STIXGeneral-Regular-2f" d="M 1837 4326 
L 378 -90 
L -58 -90 
L 1408 4326 
L 1837 4326 
z
" transform="scale(0.015625)"/>
       <path id="STIXGeneral-Regular-28" d="M 1946 -1030 
L 1869 -1133 
Q 1126 -710 716 32 
Q 307 774 307 1613 
Q 307 3386 1888 4326 
L 1946 4224 
Q 1293 3667 1075 3126 
Q 858 2586 858 1632 
Q 858 685 1082 96 
Q 1306 -493 1946 -1030 
z
" transform="scale(0.015625)"/>
       <path id="STIXGeneral-Regular-42" d="M 2701 2234 
L 2701 2227 
Q 3181 2150 3482 1875 
Q 3795 1594 3795 1139 
Q 3795 608 3379 304 
Q 2963 0 2266 0 
L 109 0 
L 109 122 
Q 486 134 604 246 
Q 723 358 723 723 
L 723 3520 
Q 723 3891 614 3990 
Q 506 4090 109 4115 
L 109 4237 
L 1901 4237 
Q 2726 4237 3152 3958 
Q 3578 3680 3578 3168 
Q 3578 2733 3315 2502 
Q 3130 2342 2701 2234 
z
M 1376 2342 
L 1965 2342 
Q 2925 2342 2925 3136 
Q 2925 3546 2640 3773 
Q 2355 4000 1792 4000 
L 1530 4000 
Q 1376 4000 1376 3795 
L 1376 2342 
z
M 1376 2086 
L 1376 525 
Q 1376 365 1462 301 
Q 1549 237 1773 237 
Q 2208 237 2413 285 
Q 2618 333 2816 512 
Q 3059 723 3059 1146 
Q 3059 1632 2758 1830 
Q 2688 1882 2617 1917 
Q 2547 1952 2492 1974 
Q 2438 1997 2348 2016 
Q 2259 2035 2211 2044 
Q 2163 2054 2041 2060 
Q 1920 2067 1862 2070 
Q 1805 2074 1635 2080 
Q 1466 2086 1376 2086 
z
" transform="scale(0.015625)"/>
       <path id="STIXGeneral-Regular-71" d="M 3123 -1389 
L 1613 -1389 
L 1613 -1280 
Q 1952 -1254 2067 -1158 
Q 2182 -1062 2182 -794 
L 2182 410 
Q 1747 -64 1178 -64 
Q 730 -64 442 320 
Q 154 704 154 1312 
Q 154 2003 560 2473 
Q 966 2944 1562 2944 
Q 1920 2944 2304 2720 
L 2650 2925 
L 2720 2925 
L 2720 -902 
Q 2720 -1107 2797 -1180 
Q 2874 -1254 3123 -1280 
L 3123 -1389 
z
M 2182 813 
L 2182 2131 
Q 2182 2758 1587 2758 
Q 1178 2758 941 2432 
Q 704 2106 704 1542 
Q 704 1210 803 925 
Q 902 640 1062 499 
Q 1254 326 1542 326 
Q 1882 326 2106 531 
Q 2182 602 2182 813 
z
" transform="scale(0.015625)"/>
       <path id="STIXGeneral-Regular-6d" d="M 4960 0 
L 3565 0 
L 3565 96 
Q 3834 122 3907 208 
Q 3981 294 3981 576 
L 3981 1894 
Q 3981 2278 3869 2444 
Q 3757 2611 3488 2611 
Q 3264 2611 3107 2521 
Q 2950 2432 2803 2221 
L 2803 608 
Q 2803 301 2896 201 
Q 2989 102 3264 96 
L 3264 0 
L 1830 0 
L 1830 96 
Q 2112 115 2189 188 
Q 2266 262 2266 550 
L 2266 1901 
Q 2266 2611 1850 2611 
Q 1670 2611 1468 2531 
Q 1267 2451 1171 2336 
Q 1088 2240 1088 2227 
L 1088 448 
Q 1088 243 1177 176 
Q 1267 109 1523 96 
L 1523 0 
L 102 0 
L 102 96 
Q 371 102 460 195 
Q 550 288 550 563 
L 550 2150 
Q 550 2387 499 2480 
Q 448 2573 326 2573 
Q 230 2573 122 2547 
L 122 2656 
Q 557 2778 1011 2944 
L 1062 2925 
L 1062 2451 
L 1075 2451 
Q 1363 2752 1584 2848 
Q 1805 2944 2054 2944 
Q 2560 2944 2733 2406 
Q 3232 2944 3776 2944 
Q 4518 2944 4518 1792 
L 4518 493 
Q 4518 282 4582 202 
Q 4646 122 4794 109 
L 4960 96 
L 4960 0 
z
" transform="scale(0.015625)"/>
       <path id="STIXGeneral-Regular-32" d="M 3034 877 
L 2688 0 
L 186 0 
L 186 77 
L 1325 1286 
Q 1773 1754 1965 2144 
Q 2157 2534 2157 2950 
Q 2157 3379 1920 3616 
Q 1683 3853 1267 3853 
Q 922 3853 720 3673 
Q 518 3494 326 3021 
L 192 3053 
Q 301 3648 630 3987 
Q 960 4326 1523 4326 
Q 2054 4326 2380 4006 
Q 2707 3686 2707 3200 
Q 2707 2477 1888 1613 
L 832 486 
L 2330 486 
Q 2541 486 2665 569 
Q 2790 653 2944 915 
L 3034 877 
z
" transform="scale(0.015625)"/>
       <path id="STIXGeneral-Regular-29" d="M 186 4224 
L 262 4326 
Q 992 3891 1408 3148 
Q 1824 2406 1824 1581 
Q 1824 -166 243 -1133 
L 186 -1030 
Q 845 -486 1059 54 
Q 1274 595 1274 1562 
Q 1274 2534 1059 3120 
Q 845 3706 186 4224 
z
" transform="scale(0.015625)"/>
      </defs>
      <use xlink:href="#SimSun-6c1a" transform="translate(0 0.684375)"/>
      <use xlink:href="#SimSun-6d53" transform="translate(100 0.684375)"/>
      <use xlink:href="#SimSun-5ea6" transform="translate(200 0.684375)"/>
      <use xlink:href="#STIXGeneral-Regular-2f" transform="translate(320.055711 0.684375)"/>
      <use xlink:href="#STIXGeneral-Regular-28" transform="translate(367.91141 0.684375)"/>
      <use xlink:href="#STIXGeneral-Regular-42" transform="translate(401.211397 0.684375)"/>
      <use xlink:href="#STIXGeneral-Regular-71" transform="translate(467.911394 0.684375)"/>
      <use xlink:href="#STIXGeneral-Regular-2f" transform="translate(517.911379 0.684375)"/>
      <use xlink:href="#STIXGeneral-Regular-6d" transform="translate(545.711367 0.684375)"/>
      <use xlink:href="#STIXGeneral-Regular-32" transform="translate(625.086355 36.684375) scale(0.7)"/>
      <use xlink:href="#STIXGeneral-Regular-29" transform="translate(664.586344 0.684375)"/>
     </g>
    </g>
   </g>
   <g id="line2d_29">
    <path d="M 50.639536 53.073024 
L 50.756151 106.326301 
L 51.222611 112.226117 
L 51.339226 112.120284 
L 52.855221 107.219935 
L 53.671526 105.785349 
L 54.604446 104.629744 
L 55.653982 103.695789 
L 57.053362 102.783954 
L 59.269047 101.601459 
L 61.717962 100.551522 
L 64.166877 99.728984 
L 65.682872 99.189389 
L 69.297937 97.575206 
L 72.563157 96.725568 
L 75.944992 95.663267 
L 77.460987 95.572624 
L 82.475432 95.620607 
L 84.224657 95.64049 
L 86.556957 93.487144 
L 87.723107 92.497701 
L 89.239102 91.279218 
L 90.172022 90.697942 
L 92.620938 89.704202 
L 94.370163 88.126479 
L 96.469233 86.501163 
L 98.568303 85.018325 
L 100.317528 83.626698 
L 106.847968 79.324739 
L 108.947038 78.171644 
L 110.346418 77.314636 
L 112.328873 76.186643 
L 116.177168 74.641884 
L 117.926393 73.837812 
L 126.322674 72.848454 
L 128.305129 72.289724 
L 131.686964 71.685588 
L 137.051254 71.189209 
L 139.500169 71.252952 
L 141.482624 71.512784 
L 144.747844 72.208543 
L 148.829369 73.373565 
L 151.977974 74.584211 
L 155.593039 76.193018 
L 158.974874 77.943801 
L 161.190559 79.284132 
L 167.25454 83.419705 
L 171.569295 86.381136 
L 176.233895 89.63043 
L 180.31542 92.725056 
L 184.28033 96.053788 
L 194.54245 104.766188 
L 197.807671 107.227601 
L 201.655966 109.838253 
L 203.288576 110.862502 
L 211.568241 115.857361 
L 214.367001 117.341489 
L 216.582686 118.550777 
L 220.081136 120.598729 
L 230.226641 126.012872 
L 241.771527 132.11016 
L 242.354602 132.434064 
L 243.170907 132.845199 
L 243.987212 133.325983 
L 244.220442 133.416525 
L 244.686902 133.708857 
L 244.920132 133.799407 
L 245.269977 134.016 
L 245.736437 134.237121 
L 247.252432 135.119298 
L 247.602277 135.26292 
L 247.952122 135.51236 
L 248.068737 135.520813 
L 248.418582 135.775088 
L 248.535197 135.778889 
L 248.885042 136.038426 
L 249.001657 136.037172 
L 249.351502 136.302435 
L 249.468117 136.29609 
L 249.817962 136.566601 
L 249.934577 136.556286 
L 250.284422 136.826303 
L 250.401037 136.81612 
L 250.750882 137.085019 
L 250.867497 137.075862 
L 251.217342 137.343608 
L 251.333957 137.335581 
L 251.683802 137.602211 
L 251.800417 137.595295 
L 252.150262 137.860851 
L 252.266877 137.851464 
L 252.616722 138.100048 
L 252.733337 138.09574 
L 253.083182 138.334302 
L 253.899487 138.742081 
L 254.249332 138.940721 
L 255.298867 139.547655 
L 255.532097 139.62814 
L 256.231787 140.096321 
L 256.465017 140.169047 
L 257.397937 140.776222 
L 262.412382 143.697674 
L 262.528997 143.650413 
L 264.628067 145.04264 
L 264.744682 144.938759 
L 268.009903 146.704456 
L 277.572333 152.288156 
L 280.254478 153.906136 
L 280.371093 153.740085 
L 280.487708 154.651553 
L 280.720938 153.962744 
L 280.837553 154.812942 
L 281.070783 154.162016 
L 281.187398 155.117443 
L 281.420628 154.391864 
L 281.537243 155.262145 
L 281.770473 154.589632 
L 281.887088 155.584877 
L 282.120318 154.828301 
L 282.236933 155.711865 
L 282.470163 155.024106 
L 282.586778 156.053498 
L 282.820008 155.273326 
L 282.936623 156.163282 
L 283.169853 155.468452 
L 283.286468 156.514432 
L 283.519698 155.733146 
L 283.636313 156.601807 
L 283.869543 155.926333 
L 283.986158 156.968779 
L 284.219388 156.208468 
L 284.336003 157.045938 
L 284.569233 156.400342 
L 284.685848 157.423505 
L 284.919078 156.702052 
L 285.035693 157.496053 
L 285.268923 156.894284 
L 285.385538 157.878768 
L 285.618768 157.21786 
L 285.735383 157.953045 
L 285.968613 157.404521 
L 286.085228 158.349989 
L 286.318458 157.7351 
L 286.435073 157.605308 
L 286.551688 159.099997 
L 286.901533 158.113243 
L 287.018148 158.002474 
L 287.134763 159.633427 
L 287.484608 158.646217 
L 287.601223 158.513753 
L 287.717838 159.847247 
L 288.067683 159.060154 
L 288.184298 158.952044 
L 288.300913 160.353761 
L 288.650758 159.644244 
L 289.000603 159.444824 
L 289.117218 161.526182 
L 289.467063 160.874278 
L 289.816908 160.596543 
L 290.166753 160.586529 
L 290.633213 160.852162 
L 291.216288 161.48493 
L 291.566133 162.104232 
L 291.915978 163.313264 
L 292.149208 165.062007 
L 292.265823 166.829226 
L 292.382438 170.806208 
L 292.382905 217 
M 292.615123 217 
L 292.615668 162.999047 
L 292.848898 165.520539 
L 292.965513 168.871717 
L 292.965999 217 
M 293.198212 217 
L 293.198743 164.34639 
L 293.315358 166.608528 
L 293.431973 174.710916 
L 293.432401 217 
M 293.664667 217 
L 293.665203 163.846124 
L 293.781818 165.912908 
L 293.898433 172.492095 
L 293.898883 217 
M 294.131136 217 
L 294.131663 164.795258 
L 294.248278 168.328855 
L 294.24877 217 
M 294.481001 217 
L 294.481508 166.738961 
L 294.598123 177.69572 
L 294.59852 217 
M 294.830835 217 
L 294.831353 165.683282 
L 294.947968 170.007256 
L 294.948443 217 
M 295.297288 217 
L 295.297813 164.980726 
L 295.414428 167.586647 
L 295.531043 179.822317 
L 295.531419 217 
M 295.763788 217 
L 295.764273 168.939484 
L 295.764759 217 
M 296.11363 217 
L 296.114118 168.627599 
L 296.114607 217 
M 296.46349 217 
L 296.463963 170.15592 
L 296.464436 217 
M 296.813339 217 
L 296.813808 170.549819 
L 296.814277 217 
M 297.163202 217 
L 297.163653 172.319226 
L 297.164105 217 
M 297.513059 217 
L 297.513498 173.558441 
L 297.513937 217 
M 297.862904 217 
L 297.863343 173.557548 
L 297.863782 217 
M 298.21278 217 
L 298.213188 176.628373 
L 298.213596 217 
M 298.562601 217 
L 298.563033 174.17842 
L 298.563466 217 
M 299.26228 217 
L 299.262723 173.063397 
L 299.263167 217 
" clip-path="url(#p5df6eab3e0)" style="fill: none; stroke: #1f77b4; stroke-width: 1.5; stroke-linecap: square"/>
   </g>
   <g id="line2d_30">
    <path d="M 81.541539 217 
L 81.542512 120.266638 
L 81.892357 108.71477 
L 82.358817 102.34371 
L 82.941892 97.780459 
L 83.641582 94.204444 
L 84.457887 91.280262 
L 85.274192 89.163415 
L 86.323727 87.056007 
L 87.489877 85.204104 
L 88.422797 84.136332 
L 89.472332 83.266881 
L 90.521867 82.452363 
L 91.571403 81.214169 
L 95.303083 76.455777 
L 97.285538 74.116209 
L 100.200913 70.715925 
L 104.632283 66.132126 
L 107.431043 63.561149 
L 110.929493 60.367501 
L 112.445488 59.453503 
L 113.728253 58.54682 
L 116.293783 56.609481 
L 117.343318 56.243659 
L 122.824223 55.002525 
L 124.456833 54.32592 
L 126.322674 53.246023 
L 128.421744 52.102546 
L 132.153424 50.420174 
L 134.718954 49.473307 
L 137.051254 48.839242 
L 138.917094 48.522879 
L 141.016164 48.40589 
L 144.281384 48.453362 
L 147.546604 48.700165 
L 150.695209 49.216169 
L 154.077044 49.958573 
L 157.575494 50.970998 
L 160.490869 52.049933 
L 164.805625 53.895089 
L 170.169915 56.260392 
L 177.28343 59.353201 
L 181.831415 61.59214 
L 190.927385 66.385369 
L 207.603331 75.69562 
L 234.308167 90.869154 
L 286.551688 120.853361 
L 304.743629 131.666123 
L 308.125464 133.684572 
L 308.125464 133.684572 
" clip-path="url(#p5df6eab3e0)" style="fill: none; stroke: #ff7f0e; stroke-width: 1.5; stroke-linecap: square"/>
   </g>
   <g id="line2d_31">
    <path d="M 50.639536 48.321802 
L 50.872766 39.251703 
L 51.222611 34.761915 
L 51.689071 31.884481 
L 52.272146 29.759084 
L 52.971836 28.083381 
L 53.788141 26.71945 
L 54.721061 25.61165 
L 55.770597 24.710662 
L 57.286592 23.748537 
L 59.502277 22.59263 
L 61.951192 21.564486 
L 64.400107 20.763202 
L 65.682872 20.290936 
L 69.297937 18.676759 
L 72.563157 17.827115 
L 75.944992 16.764821 
L 77.460987 16.674184 
L 82.475432 16.720956 
L 93.670473 16.959899 
L 101.600293 17.338024 
L 108.014118 17.86465 
L 113.378408 18.522368 
L 118.392853 19.357221 
L 124.340218 20.60317 
L 128.888204 21.768377 
L 132.853114 23.01908 
L 136.584794 24.428738 
L 140.316474 26.080868 
L 144.281384 28.085565 
L 148.246294 30.336465 
L 152.327819 32.91235 
L 156.525959 35.828901 
L 160.957329 39.187141 
L 166.438235 43.634197 
L 171.336065 47.87309 
L 175.300975 51.599946 
L 179.265885 55.640209 
L 183.58064 60.377908 
L 187.895395 65.442109 
L 193.60953 72.552574 
L 198.973821 79.538813 
L 204.454726 87.085343 
L 210.285476 95.053736 
L 213.667311 99.308018 
L 216.232841 102.1967 
L 218.914986 104.892754 
L 221.480516 107.156475 
L 223.812816 108.93194 
L 228.943876 112.433779 
L 233.841707 115.505721 
L 244.803517 122.010404 
L 269.759128 136.35282 
L 276.289568 140.10189 
L 308.125464 158.744298 
L 308.125464 158.744298 
" clip-path="url(#p5df6eab3e0)" style="fill: none; stroke: #2ca02c; stroke-width: 1.5; stroke-linecap: square"/>
   </g>
   <g id="line2d_32">
    <path d="M 50.639536 13.740391 
L 57.053362 13.731734 
L 83.758197 13.567854 
L 99.501223 13.320648 
L 111.162723 12.916207 
L 142.532159 11.640081 
L 154.893349 11.465665 
L 177.51666 11.42034 
L 308.125464 11.454824 
L 308.125464 11.454824 
" clip-path="url(#p5df6eab3e0)" style="fill: none; stroke: #d62728; stroke-width: 1.5; stroke-linecap: square"/>
   </g>
   <g id="patch_3">
    <path d="M 37.76524 188.242416 
L 37.76524 3.00024 
" style="fill: none; stroke: #000000; stroke-width: 0.8; stroke-linejoin: miter; stroke-linecap: square"/>
   </g>
   <g id="patch_4">
    <path d="M 320.99976 188.242416 
L 320.99976 3.00024 
" style="fill: none; stroke: #000000; stroke-width: 0.8; stroke-linejoin: miter; stroke-linecap: square"/>
   </g>
   <g id="patch_5">
    <path d="M 37.76524 188.242416 
L 320.99976 188.242416 
" style="fill: none; stroke: #000000; stroke-width: 0.8; stroke-linejoin: miter; stroke-linecap: square"/>
   </g>
   <g id="patch_6">
    <path d="M 37.76524 3.00024 
L 320.99976 3.00024 
" style="fill: none; stroke: #000000; stroke-width: 0.8; stroke-linejoin: miter; stroke-linecap: square"/>
   </g>
   <g id="legend_1">
    <g id="patch_7">
     <path d="M 149.094815 184.285666 
L 209.670185 184.285666 
Q 211.252885 184.285666 211.252885 182.702966 
L 211.252885 138.708852 
Q 211.252885 137.126152 209.670185 137.126152 
L 149.094815 137.126152 
Q 147.512115 137.126152 147.512115 138.708852 
L 147.512115 182.702966 
Q 147.512115 184.285666 149.094815 184.285666 
z
" style="fill: #ffffff; opacity: 0.8; stroke: #cccccc; stroke-linejoin: miter"/>
    </g>
    <g id="line2d_33">
     <path d="M 150.677515 143.061277 
L 158.591015 143.061277 
L 166.504515 143.061277 
" style="fill: none; stroke: #1f77b4; stroke-width: 1.5; stroke-linecap: square"/>
    </g>
    <g id="text_16">
     <!-- Body HTO -->
     <g transform="translate(172.835315 145.831002) scale(0.079135 -0.079135)">
      <defs>
       <path id="TimesNewRomanPSMT-42" d="M 2956 2163 
Q 3397 2069 3616 1863 
Q 3919 1575 3919 1159 
Q 3919 844 3719 555 
Q 3519 266 3170 133 
Q 2822 0 2106 0 
L 106 0 
L 106 116 
L 266 116 
Q 531 116 647 284 
Q 719 394 719 750 
L 719 3488 
Q 719 3881 628 3984 
Q 506 4122 266 4122 
L 106 4122 
L 106 4238 
L 1938 4238 
Q 2450 4238 2759 4163 
Q 3228 4050 3475 3764 
Q 3722 3478 3722 3106 
Q 3722 2788 3528 2536 
Q 3334 2284 2956 2163 
z
M 1319 2331 
Q 1434 2309 1582 2298 
Q 1731 2288 1909 2288 
Q 2366 2288 2595 2386 
Q 2825 2484 2947 2687 
Q 3069 2891 3069 3131 
Q 3069 3503 2766 3765 
Q 2463 4028 1881 4028 
Q 1569 4028 1319 3959 
L 1319 2331 
z
M 1319 306 
Q 1681 222 2034 222 
Q 2600 222 2897 476 
Q 3194 731 3194 1106 
Q 3194 1353 3059 1581 
Q 2925 1809 2622 1940 
Q 2319 2072 1872 2072 
Q 1678 2072 1540 2065 
Q 1403 2059 1319 2044 
L 1319 306 
z
" transform="scale(0.015625)"/>
       <path id="TimesNewRomanPSMT-6f" d="M 1600 2947 
Q 2250 2947 2644 2453 
Q 2978 2031 2978 1484 
Q 2978 1100 2793 706 
Q 2609 313 2286 112 
Q 1963 -88 1566 -88 
Q 919 -88 538 428 
Q 216 863 216 1403 
Q 216 1797 411 2186 
Q 606 2575 925 2761 
Q 1244 2947 1600 2947 
z
M 1503 2744 
Q 1338 2744 1170 2645 
Q 1003 2547 900 2300 
Q 797 2053 797 1666 
Q 797 1041 1045 587 
Q 1294 134 1700 134 
Q 2003 134 2200 384 
Q 2397 634 2397 1244 
Q 2397 2006 2069 2444 
Q 1847 2744 1503 2744 
z
" transform="scale(0.015625)"/>
       <path id="TimesNewRomanPSMT-79" d="M 38 2863 
L 1372 2863 
L 1372 2747 
L 1306 2747 
Q 1166 2747 1095 2686 
Q 1025 2625 1025 2534 
Q 1025 2413 1128 2197 
L 1825 753 
L 2466 2334 
Q 2519 2463 2519 2588 
Q 2519 2644 2497 2672 
Q 2472 2706 2419 2726 
Q 2366 2747 2231 2747 
L 2231 2863 
L 3163 2863 
L 3163 2747 
Q 3047 2734 2984 2696 
Q 2922 2659 2847 2556 
Q 2819 2513 2741 2316 
L 1575 -541 
Q 1406 -956 1132 -1168 
Q 859 -1381 606 -1381 
Q 422 -1381 303 -1275 
Q 184 -1169 184 -1031 
Q 184 -900 270 -820 
Q 356 -741 506 -741 
Q 609 -741 788 -809 
Q 913 -856 944 -856 
Q 1038 -856 1148 -759 
Q 1259 -663 1372 -384 
L 1575 113 
L 547 2272 
Q 500 2369 397 2513 
Q 319 2622 269 2659 
Q 197 2709 38 2747 
L 38 2863 
z
" transform="scale(0.015625)"/>
       <path id="TimesNewRomanPSMT-48" d="M 1316 2272 
L 3284 2272 
L 3284 3484 
Q 3284 3809 3244 3913 
Q 3213 3991 3113 4047 
Q 2978 4122 2828 4122 
L 2678 4122 
L 2678 4238 
L 4491 4238 
L 4491 4122 
L 4341 4122 
Q 4191 4122 4056 4050 
Q 3956 4000 3920 3898 
Q 3884 3797 3884 3484 
L 3884 750 
Q 3884 428 3925 325 
Q 3956 247 4053 191 
Q 4191 116 4341 116 
L 4491 116 
L 4491 0 
L 2678 0 
L 2678 116 
L 2828 116 
Q 3088 116 3206 269 
Q 3284 369 3284 750 
L 3284 2041 
L 1316 2041 
L 1316 750 
Q 1316 428 1356 325 
Q 1388 247 1488 191 
Q 1622 116 1772 116 
L 1925 116 
L 1925 0 
L 109 0 
L 109 116 
L 259 116 
Q 522 116 641 269 
Q 716 369 716 750 
L 716 3484 
Q 716 3809 675 3913 
Q 644 3991 547 4047 
Q 409 4122 259 4122 
L 109 4122 
L 109 4238 
L 1925 4238 
L 1925 4122 
L 1772 4122 
Q 1622 4122 1488 4050 
Q 1391 4000 1353 3898 
Q 1316 3797 1316 3484 
L 1316 2272 
z
" transform="scale(0.015625)"/>
       <path id="TimesNewRomanPSMT-54" d="M 3703 4238 
L 3750 3244 
L 3631 3244 
Q 3597 3506 3538 3619 
Q 3441 3800 3280 3886 
Q 3119 3972 2856 3972 
L 2259 3972 
L 2259 734 
Q 2259 344 2344 247 
Q 2463 116 2709 116 
L 2856 116 
L 2856 0 
L 1059 0 
L 1059 116 
L 1209 116 
Q 1478 116 1591 278 
Q 1659 378 1659 734 
L 1659 3972 
L 1150 3972 
Q 853 3972 728 3928 
Q 566 3869 450 3700 
Q 334 3531 313 3244 
L 194 3244 
L 244 4238 
L 3703 4238 
z
" transform="scale(0.015625)"/>
       <path id="TimesNewRomanPSMT-4f" d="M 2341 4334 
Q 3166 4334 3770 3707 
Q 4375 3081 4375 2144 
Q 4375 1178 3765 540 
Q 3156 -97 2291 -97 
Q 1416 -97 820 525 
Q 225 1147 225 2134 
Q 225 3144 913 3781 
Q 1509 4334 2341 4334 
z
M 2281 4106 
Q 1713 4106 1369 3684 
Q 941 3159 941 2147 
Q 941 1109 1384 550 
Q 1725 125 2284 125 
Q 2881 125 3270 590 
Q 3659 1056 3659 2059 
Q 3659 3147 3231 3681 
Q 2888 4106 2281 4106 
z
" transform="scale(0.015625)"/>
      </defs>
      <use xlink:href="#TimesNewRomanPSMT-42"/>
      <use xlink:href="#TimesNewRomanPSMT-6f" x="66.699219"/>
      <use xlink:href="#TimesNewRomanPSMT-64" x="116.699219"/>
      <use xlink:href="#TimesNewRomanPSMT-79" x="166.699219"/>
      <use xlink:href="#TimesNewRomanPSMT-20" x="216.699219"/>
      <use xlink:href="#TimesNewRomanPSMT-48" x="241.699219"/>
      <use xlink:href="#TimesNewRomanPSMT-54" x="313.916016"/>
      <use xlink:href="#TimesNewRomanPSMT-4f" x="373.25"/>
     </g>
    </g>
    <g id="line2d_34">
     <path d="M 150.677515 154.265062 
L 158.591015 154.265062 
L 166.504515 154.265062 
" style="fill: none; stroke: #ff7f0e; stroke-width: 1.5; stroke-linecap: square"/>
    </g>
    <g id="text_17">
     <!-- Body OBT -->
     <g transform="translate(172.835315 157.034787) scale(0.079135 -0.079135)">
      <use xlink:href="#TimesNewRomanPSMT-42"/>
      <use xlink:href="#TimesNewRomanPSMT-6f" x="66.699219"/>
      <use xlink:href="#TimesNewRomanPSMT-64" x="116.699219"/>
      <use xlink:href="#TimesNewRomanPSMT-79" x="166.699219"/>
      <use xlink:href="#TimesNewRomanPSMT-20" x="216.699219"/>
      <use xlink:href="#TimesNewRomanPSMT-4f" x="241.699219"/>
      <use xlink:href="#TimesNewRomanPSMT-42" x="313.916016"/>
      <use xlink:href="#TimesNewRomanPSMT-54" x="380.615234"/>
     </g>
    </g>
    <g id="line2d_35">
     <path d="M 150.677515 165.468847 
L 158.591015 165.468847 
L 166.504515 165.468847 
" style="fill: none; stroke: #2ca02c; stroke-width: 1.5; stroke-linecap: square"/>
    </g>
    <g id="text_18">
     <!-- Root HTO -->
     <g transform="translate(172.835315 168.238572) scale(0.079135 -0.079135)">
      <defs>
       <path id="TimesNewRomanPSMT-52" d="M 4325 0 
L 3194 0 
L 1759 1981 
Q 1600 1975 1500 1975 
Q 1459 1975 1412 1976 
Q 1366 1978 1316 1981 
L 1316 750 
Q 1316 350 1403 253 
Q 1522 116 1759 116 
L 1925 116 
L 1925 0 
L 109 0 
L 109 116 
L 269 116 
Q 538 116 653 291 
Q 719 388 719 750 
L 719 3488 
Q 719 3888 631 3984 
Q 509 4122 269 4122 
L 109 4122 
L 109 4238 
L 1653 4238 
Q 2328 4238 2648 4139 
Q 2969 4041 3192 3777 
Q 3416 3513 3416 3147 
Q 3416 2756 3161 2468 
Q 2906 2181 2372 2063 
L 3247 847 
Q 3547 428 3762 290 
Q 3978 153 4325 116 
L 4325 0 
z
M 1316 2178 
Q 1375 2178 1419 2176 
Q 1463 2175 1491 2175 
Q 2097 2175 2405 2437 
Q 2713 2700 2713 3106 
Q 2713 3503 2464 3751 
Q 2216 4000 1806 4000 
Q 1625 4000 1316 3941 
L 1316 2178 
z
" transform="scale(0.015625)"/>
       <path id="TimesNewRomanPSMT-74" d="M 1031 3803 
L 1031 2863 
L 1700 2863 
L 1700 2644 
L 1031 2644 
L 1031 788 
Q 1031 509 1111 412 
Q 1191 316 1316 316 
Q 1419 316 1516 380 
Q 1613 444 1666 569 
L 1788 569 
Q 1678 263 1478 108 
Q 1278 -47 1066 -47 
Q 922 -47 784 33 
Q 647 113 581 261 
Q 516 409 516 719 
L 516 2644 
L 63 2644 
L 63 2747 
Q 234 2816 414 2980 
Q 594 3144 734 3369 
Q 806 3488 934 3803 
L 1031 3803 
z
" transform="scale(0.015625)"/>
      </defs>
      <use xlink:href="#TimesNewRomanPSMT-52"/>
      <use xlink:href="#TimesNewRomanPSMT-6f" x="66.699219"/>
      <use xlink:href="#TimesNewRomanPSMT-6f" x="116.699219"/>
      <use xlink:href="#TimesNewRomanPSMT-74" x="166.699219"/>
      <use xlink:href="#TimesNewRomanPSMT-20" x="194.482422"/>
      <use xlink:href="#TimesNewRomanPSMT-48" x="219.482422"/>
      <use xlink:href="#TimesNewRomanPSMT-54" x="291.699219"/>
      <use xlink:href="#TimesNewRomanPSMT-4f" x="351.033203"/>
     </g>
    </g>
    <g id="line2d_36">
     <path d="M 150.677515 176.657794 
L 158.591015 176.657794 
L 166.504515 176.657794 
" style="fill: none; stroke: #d62728; stroke-width: 1.5; stroke-linecap: square"/>
    </g>
    <g id="text_19">
     <!-- Root OBT -->
     <g transform="translate(172.835315 179.427519) scale(0.079135 -0.079135)">
      <use xlink:href="#TimesNewRomanPSMT-52"/>
      <use xlink:href="#TimesNewRomanPSMT-6f" x="66.699219"/>
      <use xlink:href="#TimesNewRomanPSMT-6f" x="116.699219"/>
      <use xlink:href="#TimesNewRomanPSMT-74" x="166.699219"/>
      <use xlink:href="#TimesNewRomanPSMT-20" x="194.482422"/>
      <use xlink:href="#TimesNewRomanPSMT-4f" x="219.482422"/>
      <use xlink:href="#TimesNewRomanPSMT-42" x="291.699219"/>
      <use xlink:href="#TimesNewRomanPSMT-54" x="358.398438"/>
     </g>
    </g>
   </g>
  </g>
 </g>
 <defs>
  <clipPath id="p5df6eab3e0">
   <rect x="37.76524" y="3.00024" width="283.23452" height="185.242176"/>
  </clipPath>
 </defs>
</svg>
