<?xml version="1.0" encoding="utf-8" standalone="no"?>
<!DOCTYPE svg PUBLIC "-//W3C//DTD SVG 1.1//EN"
  "http://www.w3.org/Graphics/SVG/1.1/DTD/svg11.dtd">
<svg xmlns:xlink="http://www.w3.org/1999/xlink" width="324pt" height="216pt" viewBox="0 0 324 216" xmlns="http://www.w3.org/2000/svg" version="1.1">
 <metadata>
  <rdf:RDF xmlns:dc="http://purl.org/dc/elements/1.1/" xmlns:cc="http://creativecommons.org/ns#" xmlns:rdf="http://www.w3.org/1999/02/22-rdf-syntax-ns#">
   <cc:Work>
    <dc:type rdf:resource="http://purl.org/dc/dcmitype/StillImage"/>
    <dc:date>2024-04-26T18:05:33.757004</dc:date>
    <dc:format>image/svg+xml</dc:format>
    <dc:creator>
     <cc:Agent>
      <dc:title>Matplotlib v3.7.2, https://matplotlib.org/</dc:title>
     </cc:Agent>
    </dc:creator>
   </cc:Work>
  </rdf:RDF>
 </metadata>
 <defs>
  <style type="text/css">*{stroke-linejoin: round; stroke-linecap: butt}</style>
 </defs>
 <g id="figure_1">
  <g id="patch_1">
   <path d="M 0 216 
L 324 216 
L 324 0 
L 0 0 
z
" style="fill: #ffffff"/>
  </g>
  <g id="axes_1">
   <g id="patch_2">
    <path d="M 41.09024 188.242416 
L 320.99976 188.242416 
L 320.99976 3.00024 
L 41.09024 3.00024 
z
" style="fill: #ffffff"/>
   </g>
   <g id="matplotlib.axis_1">
    <g id="xtick_1">
     <g id="line2d_1">
      <defs>
       <path id="mc94f564070" d="M 0 0 
L 0 -3.5 
" style="stroke: #000000; stroke-width: 0.8"/>
      </defs>
      <g>
       <use xlink:href="#mc94f564070" x="53.8134" y="188.242416" style="stroke: #000000; stroke-width: 0.8"/>
      </g>
     </g>
     <g id="text_1">
      <!-- 0 -->
      <g transform="translate(51.4384 198.338979) scale(0.095 -0.095)">
       <defs>
        <path id="TimesNewRomanPSMT-30" d="M 231 2094 
Q 231 2819 450 3342 
Q 669 3866 1031 4122 
Q 1313 4325 1613 4325 
Q 2100 4325 2488 3828 
Q 2972 3213 2972 2159 
Q 2972 1422 2759 906 
Q 2547 391 2217 158 
Q 1888 -75 1581 -75 
Q 975 -75 572 641 
Q 231 1244 231 2094 
z
M 844 2016 
Q 844 1141 1059 588 
Q 1238 122 1591 122 
Q 1759 122 1940 273 
Q 2122 425 2216 781 
Q 2359 1319 2359 2297 
Q 2359 3022 2209 3506 
Q 2097 3866 1919 4016 
Q 1791 4119 1609 4119 
Q 1397 4119 1231 3928 
Q 1006 3669 925 3112 
Q 844 2556 844 2016 
z
" transform="scale(0.015625)"/>
       </defs>
       <use xlink:href="#TimesNewRomanPSMT-30"/>
      </g>
     </g>
    </g>
    <g id="xtick_2">
     <g id="line2d_2">
      <g>
       <use xlink:href="#mc94f564070" x="109.131487" y="188.242416" style="stroke: #000000; stroke-width: 0.8"/>
      </g>
     </g>
     <g id="text_2">
      <!-- 20 -->
      <g transform="translate(104.381487 198.338979) scale(0.095 -0.095)">
       <defs>
        <path id="TimesNewRomanPSMT-32" d="M 2934 816 
L 2638 0 
L 138 0 
L 138 116 
Q 1241 1122 1691 1759 
Q 2141 2397 2141 2925 
Q 2141 3328 1894 3587 
Q 1647 3847 1303 3847 
Q 991 3847 742 3664 
Q 494 3481 375 3128 
L 259 3128 
Q 338 3706 661 4015 
Q 984 4325 1469 4325 
Q 1984 4325 2329 3994 
Q 2675 3663 2675 3213 
Q 2675 2891 2525 2569 
Q 2294 2063 1775 1497 
Q 997 647 803 472 
L 1909 472 
Q 2247 472 2383 497 
Q 2519 522 2628 598 
Q 2738 675 2819 816 
L 2934 816 
z
" transform="scale(0.015625)"/>
       </defs>
       <use xlink:href="#TimesNewRomanPSMT-32"/>
       <use xlink:href="#TimesNewRomanPSMT-30" x="50"/>
      </g>
     </g>
    </g>
    <g id="xtick_3">
     <g id="line2d_3">
      <g>
       <use xlink:href="#mc94f564070" x="164.449574" y="188.242416" style="stroke: #000000; stroke-width: 0.8"/>
      </g>
     </g>
     <g id="text_3">
      <!-- 40 -->
      <g transform="translate(159.699574 198.338979) scale(0.095 -0.095)">
       <defs>
        <path id="TimesNewRomanPSMT-34" d="M 2978 1563 
L 2978 1119 
L 2409 1119 
L 2409 0 
L 1894 0 
L 1894 1119 
L 100 1119 
L 100 1519 
L 2066 4325 
L 2409 4325 
L 2409 1563 
L 2978 1563 
z
M 1894 1563 
L 1894 3666 
L 406 1563 
L 1894 1563 
z
" transform="scale(0.015625)"/>
       </defs>
       <use xlink:href="#TimesNewRomanPSMT-34"/>
       <use xlink:href="#TimesNewRomanPSMT-30" x="50"/>
      </g>
     </g>
    </g>
    <g id="xtick_4">
     <g id="line2d_4">
      <g>
       <use xlink:href="#mc94f564070" x="219.767661" y="188.242416" style="stroke: #000000; stroke-width: 0.8"/>
      </g>
     </g>
     <g id="text_4">
      <!-- 60 -->
      <g transform="translate(215.017661 198.338979) scale(0.095 -0.095)">
       <defs>
        <path id="TimesNewRomanPSMT-36" d="M 2869 4325 
L 2869 4209 
Q 2456 4169 2195 4045 
Q 1934 3922 1679 3669 
Q 1425 3416 1258 3105 
Q 1091 2794 978 2366 
Q 1428 2675 1881 2675 
Q 2316 2675 2634 2325 
Q 2953 1975 2953 1425 
Q 2953 894 2631 456 
Q 2244 -75 1606 -75 
Q 1172 -75 869 213 
Q 275 772 275 1663 
Q 275 2231 503 2743 
Q 731 3256 1154 3653 
Q 1578 4050 1965 4187 
Q 2353 4325 2688 4325 
L 2869 4325 
z
M 925 2138 
Q 869 1716 869 1456 
Q 869 1156 980 804 
Q 1091 453 1309 247 
Q 1469 100 1697 100 
Q 1969 100 2183 356 
Q 2397 613 2397 1088 
Q 2397 1622 2184 2012 
Q 1972 2403 1581 2403 
Q 1463 2403 1327 2353 
Q 1191 2303 925 2138 
z
" transform="scale(0.015625)"/>
       </defs>
       <use xlink:href="#TimesNewRomanPSMT-36"/>
       <use xlink:href="#TimesNewRomanPSMT-30" x="50"/>
      </g>
     </g>
    </g>
    <g id="xtick_5">
     <g id="line2d_5">
      <g>
       <use xlink:href="#mc94f564070" x="275.085748" y="188.242416" style="stroke: #000000; stroke-width: 0.8"/>
      </g>
     </g>
     <g id="text_5">
      <!-- 80 -->
      <g transform="translate(270.335748 198.338979) scale(0.095 -0.095)">
       <defs>
        <path id="TimesNewRomanPSMT-38" d="M 1228 2134 
Q 725 2547 579 2797 
Q 434 3047 434 3316 
Q 434 3728 753 4026 
Q 1072 4325 1600 4325 
Q 2113 4325 2425 4047 
Q 2738 3769 2738 3413 
Q 2738 3175 2569 2928 
Q 2400 2681 1866 2347 
Q 2416 1922 2594 1678 
Q 2831 1359 2831 1006 
Q 2831 559 2490 242 
Q 2150 -75 1597 -75 
Q 994 -75 656 303 
Q 388 606 388 966 
Q 388 1247 577 1523 
Q 766 1800 1228 2134 
z
M 1719 2469 
Q 2094 2806 2194 3001 
Q 2294 3197 2294 3444 
Q 2294 3772 2109 3958 
Q 1925 4144 1606 4144 
Q 1288 4144 1088 3959 
Q 888 3775 888 3528 
Q 888 3366 970 3203 
Q 1053 3041 1206 2894 
L 1719 2469 
z
M 1375 2016 
Q 1116 1797 991 1539 
Q 866 1281 866 981 
Q 866 578 1086 336 
Q 1306 94 1647 94 
Q 1984 94 2187 284 
Q 2391 475 2391 747 
Q 2391 972 2272 1150 
Q 2050 1481 1375 2016 
z
" transform="scale(0.015625)"/>
       </defs>
       <use xlink:href="#TimesNewRomanPSMT-38"/>
       <use xlink:href="#TimesNewRomanPSMT-30" x="50"/>
      </g>
     </g>
    </g>
    <g id="xtick_6">
     <g id="line2d_6">
      <defs>
       <path id="ma138fb124e" d="M 0 0 
L 0 -2 
" style="stroke: #000000; stroke-width: 0.6"/>
      </defs>
      <g>
       <use xlink:href="#ma138fb124e" x="67.642922" y="188.242416" style="stroke: #000000; stroke-width: 0.6"/>
      </g>
     </g>
    </g>
    <g id="xtick_7">
     <g id="line2d_7">
      <g>
       <use xlink:href="#ma138fb124e" x="81.472443" y="188.242416" style="stroke: #000000; stroke-width: 0.6"/>
      </g>
     </g>
    </g>
    <g id="xtick_8">
     <g id="line2d_8">
      <g>
       <use xlink:href="#ma138fb124e" x="95.301965" y="188.242416" style="stroke: #000000; stroke-width: 0.6"/>
      </g>
     </g>
    </g>
    <g id="xtick_9">
     <g id="line2d_9">
      <g>
       <use xlink:href="#ma138fb124e" x="122.961009" y="188.242416" style="stroke: #000000; stroke-width: 0.6"/>
      </g>
     </g>
    </g>
    <g id="xtick_10">
     <g id="line2d_10">
      <g>
       <use xlink:href="#ma138fb124e" x="136.79053" y="188.242416" style="stroke: #000000; stroke-width: 0.6"/>
      </g>
     </g>
    </g>
    <g id="xtick_11">
     <g id="line2d_11">
      <g>
       <use xlink:href="#ma138fb124e" x="150.620052" y="188.242416" style="stroke: #000000; stroke-width: 0.6"/>
      </g>
     </g>
    </g>
    <g id="xtick_12">
     <g id="line2d_12">
      <g>
       <use xlink:href="#ma138fb124e" x="178.279096" y="188.242416" style="stroke: #000000; stroke-width: 0.6"/>
      </g>
     </g>
    </g>
    <g id="xtick_13">
     <g id="line2d_13">
      <g>
       <use xlink:href="#ma138fb124e" x="192.108617" y="188.242416" style="stroke: #000000; stroke-width: 0.6"/>
      </g>
     </g>
    </g>
    <g id="xtick_14">
     <g id="line2d_14">
      <g>
       <use xlink:href="#ma138fb124e" x="205.938139" y="188.242416" style="stroke: #000000; stroke-width: 0.6"/>
      </g>
     </g>
    </g>
    <g id="xtick_15">
     <g id="line2d_15">
      <g>
       <use xlink:href="#ma138fb124e" x="233.597183" y="188.242416" style="stroke: #000000; stroke-width: 0.6"/>
      </g>
     </g>
    </g>
    <g id="xtick_16">
     <g id="line2d_16">
      <g>
       <use xlink:href="#ma138fb124e" x="247.426704" y="188.242416" style="stroke: #000000; stroke-width: 0.6"/>
      </g>
     </g>
    </g>
    <g id="xtick_17">
     <g id="line2d_17">
      <g>
       <use xlink:href="#ma138fb124e" x="261.256226" y="188.242416" style="stroke: #000000; stroke-width: 0.6"/>
      </g>
     </g>
    </g>
    <g id="xtick_18">
     <g id="line2d_18">
      <g>
       <use xlink:href="#ma138fb124e" x="288.91527" y="188.242416" style="stroke: #000000; stroke-width: 0.6"/>
      </g>
     </g>
    </g>
    <g id="xtick_19">
     <g id="line2d_19">
      <g>
       <use xlink:href="#ma138fb124e" x="302.744791" y="188.242416" style="stroke: #000000; stroke-width: 0.6"/>
      </g>
     </g>
    </g>
    <g id="xtick_20">
     <g id="line2d_20">
      <g>
       <use xlink:href="#ma138fb124e" x="316.574313" y="188.242416" style="stroke: #000000; stroke-width: 0.6"/>
      </g>
     </g>
    </g>
    <g id="text_6">
     <!-- 时间 / d -->
     <g transform="translate(165.475391 210.967651) scale(0.095 -0.095)">
      <defs>
       <path id="SimSun-65f6" d="M 4500 3600 
Q 4500 4575 4475 5225 
L 5100 4900 
L 4850 4725 
L 4850 3600 
L 5225 3600 
L 5550 3925 
L 6025 3450 
L 4850 3450 
L 4850 100 
Q 4850 -375 4300 -575 
Q 4275 -200 3475 -25 
L 3475 100 
Q 4150 0 4325 25 
Q 4500 50 4500 325 
L 4500 3450 
L 3200 3450 
Q 2875 3450 2600 3375 
L 2375 3600 
L 4500 3600 
z
M 2875 2825 
Q 3525 2375 3637 2200 
Q 3750 2025 3750 1925 
Q 3750 1800 3637 1637 
Q 3525 1475 3475 1475 
Q 3400 1475 3325 1775 
Q 3200 2225 2800 2750 
L 2875 2825 
z
M 925 4150 
L 925 2650 
L 1950 2650 
L 1950 4150 
L 925 4150 
z
M 925 2500 
L 925 900 
L 1950 900 
L 1950 2500 
L 925 2500 
z
M 2300 2000 
Q 2300 800 2325 450 
L 1950 250 
L 1950 750 
L 925 750 
L 925 225 
L 550 25 
Q 575 825 575 2425 
Q 575 4025 550 4500 
L 950 4300 
L 1900 4300 
L 2100 4550 
L 2500 4225 
L 2300 4050 
L 2300 2000 
z
" transform="scale(0.015625)"/>
       <path id="SimSun-95f4" d="M 2150 525 
Q 2175 1325 2175 2112 
Q 2175 2900 2150 3675 
L 2525 3450 
L 3750 3450 
L 4000 3700 
L 4325 3375 
L 4125 3200 
Q 4125 1550 4150 775 
L 3800 575 
L 3800 975 
L 2500 975 
L 2500 700 
L 2150 525 
z
M 2500 3300 
L 2500 2325 
L 3800 2325 
L 3800 3300 
L 2500 3300 
z
M 2500 2175 
L 2500 1125 
L 3800 1125 
L 3800 2175 
L 2500 2175 
z
M 1275 5200 
Q 1850 4825 1950 4675 
Q 2050 4525 2050 4425 
Q 2050 4275 1950 4137 
Q 1850 4000 1825 4000 
Q 1750 4000 1675 4275 
Q 1550 4650 1200 5125 
L 1275 5200 
z
M 1125 425 
Q 1125 25 1150 -375 
L 750 -525 
Q 775 -150 775 1950 
Q 775 4050 750 4425 
L 1350 4125 
L 1125 3975 
L 1125 425 
z
M 4225 125 
Q 5025 0 5125 37 
Q 5225 75 5225 250 
L 5225 4450 
L 3225 4450 
Q 2900 4450 2625 4375 
L 2400 4600 
L 5175 4600 
L 5425 4850 
L 5775 4500 
L 5575 4350 
L 5575 225 
Q 5575 -100 5462 -250 
Q 5350 -400 5000 -550 
Q 4800 -125 4225 25 
L 4225 125 
z
" transform="scale(0.015625)"/>
       <path id="TimesNewRomanPSMT-20" transform="scale(0.015625)"/>
       <path id="TimesNewRomanPSMT-2f" d="M 1794 4444 
L 259 -88 
L 9 -88 
L 1544 4444 
L 1794 4444 
z
" transform="scale(0.015625)"/>
       <path id="TimesNewRomanPSMT-64" d="M 2222 322 
Q 2013 103 1813 7 
Q 1613 -88 1381 -88 
Q 913 -88 563 304 
Q 213 697 213 1313 
Q 213 1928 600 2439 
Q 988 2950 1597 2950 
Q 1975 2950 2222 2709 
L 2222 3238 
Q 2222 3728 2198 3840 
Q 2175 3953 2125 3993 
Q 2075 4034 2000 4034 
Q 1919 4034 1784 3984 
L 1744 4094 
L 2597 4444 
L 2738 4444 
L 2738 1134 
Q 2738 631 2761 520 
Q 2784 409 2836 365 
Q 2888 322 2956 322 
Q 3041 322 3181 375 
L 3216 266 
L 2366 -88 
L 2222 -88 
L 2222 322 
z
M 2222 541 
L 2222 2016 
Q 2203 2228 2109 2403 
Q 2016 2578 1861 2667 
Q 1706 2756 1559 2756 
Q 1284 2756 1069 2509 
Q 784 2184 784 1559 
Q 784 928 1059 592 
Q 1334 256 1672 256 
Q 1956 256 2222 541 
z
" transform="scale(0.015625)"/>
      </defs>
      <use xlink:href="#SimSun-65f6"/>
      <use xlink:href="#SimSun-95f4" x="100"/>
      <use xlink:href="#TimesNewRomanPSMT-20" x="200"/>
      <use xlink:href="#TimesNewRomanPSMT-2f" x="225"/>
      <use xlink:href="#TimesNewRomanPSMT-20" x="252.783203"/>
      <use xlink:href="#TimesNewRomanPSMT-64" x="277.783203"/>
     </g>
    </g>
   </g>
   <g id="matplotlib.axis_2">
    <g id="ytick_1">
     <g id="line2d_21">
      <defs>
       <path id="ma0ae6f1ba0" d="M 0 0 
L 3.5 0 
" style="stroke: #000000; stroke-width: 0.8"/>
      </defs>
      <g>
       <use xlink:href="#ma0ae6f1ba0" x="41.09024" y="166.595452" style="stroke: #000000; stroke-width: 0.8"/>
      </g>
     </g>
     <g id="text_7">
      <!-- $\mathdefault{10^{-11}}$ -->
      <g transform="translate(17.07024 170.804398) scale(0.095 -0.095)">
       <defs>
        <path id="TimesNewRomanPSMT-31" d="M 750 3822 
L 1781 4325 
L 1884 4325 
L 1884 747 
Q 1884 391 1914 303 
Q 1944 216 2037 169 
Q 2131 122 2419 116 
L 2419 0 
L 825 0 
L 825 116 
Q 1125 122 1212 167 
Q 1300 213 1334 289 
Q 1369 366 1369 747 
L 1369 3034 
Q 1369 3497 1338 3628 
Q 1316 3728 1258 3775 
Q 1200 3822 1119 3822 
Q 1003 3822 797 3725 
L 750 3822 
z
" transform="scale(0.015625)"/>
        <path id="TimesNewRomanPSMT-2212" d="M 3484 2000 
L 116 2000 
L 116 2256 
L 3484 2256 
L 3484 2000 
z
" transform="scale(0.015625)"/>
       </defs>
       <use xlink:href="#TimesNewRomanPSMT-31" transform="translate(0 0.582813)"/>
       <use xlink:href="#TimesNewRomanPSMT-30" transform="translate(50 0.582813)"/>
       <use xlink:href="#TimesNewRomanPSMT-2212" transform="translate(101.502813 60.695312) scale(0.7)"/>
       <use xlink:href="#TimesNewRomanPSMT-31" transform="translate(140.980352 60.695312) scale(0.7)"/>
       <use xlink:href="#TimesNewRomanPSMT-31" transform="translate(175.980352 60.695312) scale(0.7)"/>
      </g>
     </g>
    </g>
    <g id="ytick_2">
     <g id="line2d_22">
      <g>
       <use xlink:href="#ma0ae6f1ba0" x="41.09024" y="140.645483" style="stroke: #000000; stroke-width: 0.8"/>
      </g>
     </g>
     <g id="text_8">
      <!-- $\mathdefault{10^{-8}}$ -->
      <g transform="translate(20.39524 144.854428) scale(0.095 -0.095)">
       <use xlink:href="#TimesNewRomanPSMT-31" transform="translate(0 0.582813)"/>
       <use xlink:href="#TimesNewRomanPSMT-30" transform="translate(50 0.582813)"/>
       <use xlink:href="#TimesNewRomanPSMT-2212" transform="translate(101.502813 60.695312) scale(0.7)"/>
       <use xlink:href="#TimesNewRomanPSMT-38" transform="translate(140.980352 60.695312) scale(0.7)"/>
      </g>
     </g>
    </g>
    <g id="ytick_3">
     <g id="line2d_23">
      <g>
       <use xlink:href="#ma0ae6f1ba0" x="41.09024" y="114.695513" style="stroke: #000000; stroke-width: 0.8"/>
      </g>
     </g>
     <g id="text_9">
      <!-- $\mathdefault{10^{-5}}$ -->
      <g transform="translate(20.39524 118.856959) scale(0.095 -0.095)">
       <defs>
        <path id="TimesNewRomanPSMT-35" d="M 2778 4238 
L 2534 3706 
L 1259 3706 
L 981 3138 
Q 1809 3016 2294 2522 
Q 2709 2097 2709 1522 
Q 2709 1188 2573 903 
Q 2438 619 2231 419 
Q 2025 219 1772 97 
Q 1413 -75 1034 -75 
Q 653 -75 479 54 
Q 306 184 306 341 
Q 306 428 378 495 
Q 450 563 559 563 
Q 641 563 702 538 
Q 763 513 909 409 
Q 1144 247 1384 247 
Q 1750 247 2026 523 
Q 2303 800 2303 1197 
Q 2303 1581 2056 1914 
Q 1809 2247 1375 2428 
Q 1034 2569 447 2591 
L 1259 4238 
L 2778 4238 
z
" transform="scale(0.015625)"/>
       </defs>
       <use xlink:href="#TimesNewRomanPSMT-31" transform="translate(0 0.534375)"/>
       <use xlink:href="#TimesNewRomanPSMT-30" transform="translate(50 0.534375)"/>
       <use xlink:href="#TimesNewRomanPSMT-2212" transform="translate(101.502813 60.646875) scale(0.7)"/>
       <use xlink:href="#TimesNewRomanPSMT-35" transform="translate(140.980352 60.646875) scale(0.7)"/>
      </g>
     </g>
    </g>
    <g id="ytick_4">
     <g id="line2d_24">
      <g>
       <use xlink:href="#ma0ae6f1ba0" x="41.09024" y="88.745544" style="stroke: #000000; stroke-width: 0.8"/>
      </g>
     </g>
     <g id="text_10">
      <!-- $\mathdefault{10^{-2}}$ -->
      <g transform="translate(20.39524 92.954489) scale(0.095 -0.095)">
       <use xlink:href="#TimesNewRomanPSMT-31" transform="translate(0 0.582813)"/>
       <use xlink:href="#TimesNewRomanPSMT-30" transform="translate(50 0.582813)"/>
       <use xlink:href="#TimesNewRomanPSMT-2212" transform="translate(101.502813 60.695312) scale(0.7)"/>
       <use xlink:href="#TimesNewRomanPSMT-32" transform="translate(140.980352 60.695312) scale(0.7)"/>
      </g>
     </g>
    </g>
    <g id="ytick_5">
     <g id="line2d_25">
      <g>
       <use xlink:href="#ma0ae6f1ba0" x="41.09024" y="62.795575" style="stroke: #000000; stroke-width: 0.8"/>
      </g>
     </g>
     <g id="text_11">
      <!-- $\mathdefault{10^{1}}$ -->
      <g transform="translate(24.19524 67.00452) scale(0.095 -0.095)">
       <use xlink:href="#TimesNewRomanPSMT-31" transform="translate(0 0.582813)"/>
       <use xlink:href="#TimesNewRomanPSMT-30" transform="translate(50 0.582813)"/>
       <use xlink:href="#TimesNewRomanPSMT-31" transform="translate(101.502813 60.695312) scale(0.7)"/>
      </g>
     </g>
    </g>
    <g id="ytick_6">
     <g id="line2d_26">
      <g>
       <use xlink:href="#ma0ae6f1ba0" x="41.09024" y="36.845605" style="stroke: #000000; stroke-width: 0.8"/>
      </g>
     </g>
     <g id="text_12">
      <!-- $\mathdefault{10^{4}}$ -->
      <g transform="translate(24.19524 41.05455) scale(0.095 -0.095)">
       <use xlink:href="#TimesNewRomanPSMT-31" transform="translate(0 0.582813)"/>
       <use xlink:href="#TimesNewRomanPSMT-30" transform="translate(50 0.582813)"/>
       <use xlink:href="#TimesNewRomanPSMT-34" transform="translate(101.502813 60.695312) scale(0.7)"/>
      </g>
     </g>
    </g>
    <g id="ytick_7">
     <g id="line2d_27">
      <g>
       <use xlink:href="#ma0ae6f1ba0" x="41.09024" y="10.895636" style="stroke: #000000; stroke-width: 0.8"/>
      </g>
     </g>
     <g id="text_13">
      <!-- $\mathdefault{10^{7}}$ -->
      <g transform="translate(24.19524 15.057081) scale(0.095 -0.095)">
       <defs>
        <path id="TimesNewRomanPSMT-37" d="M 644 4238 
L 2916 4238 
L 2916 4119 
L 1503 -88 
L 1153 -88 
L 2419 3728 
L 1253 3728 
Q 900 3728 750 3644 
Q 488 3500 328 3200 
L 238 3234 
L 644 4238 
z
" transform="scale(0.015625)"/>
       </defs>
       <use xlink:href="#TimesNewRomanPSMT-31" transform="translate(0 0.534375)"/>
       <use xlink:href="#TimesNewRomanPSMT-30" transform="translate(50 0.534375)"/>
       <use xlink:href="#TimesNewRomanPSMT-37" transform="translate(101.502813 60.646875) scale(0.7)"/>
      </g>
     </g>
    </g>
    <g id="text_14">
     <!-- 氚浓度$\;/\;\mathrm{(Bq/m^{2})}$ -->
     <g transform="translate(10.98024 128.776328) rotate(-90) scale(0.095 -0.095)">
      <defs>
       <path id="SimSun-6c1a" d="M 1925 2375 
L 1700 2175 
Q 1700 1475 1600 962 
Q 1500 450 1175 62 
Q 850 -325 375 -625 
L 325 -550 
Q 675 -250 887 62 
Q 1100 375 1200 762 
Q 1300 1150 1325 1737 
Q 1350 2325 1350 2650 
L 1925 2375 
z
M 2400 -500 
Q 2425 -75 2425 425 
L 2425 1800 
Q 2425 2225 2400 2450 
L 3000 2175 
L 2750 2000 
L 2750 525 
Q 2750 -50 2775 -350 
L 2400 -500 
z
M 3525 -575 
Q 3550 -100 3550 475 
L 3550 1825 
Q 3550 2425 3525 2650 
L 4125 2375 
L 3875 2200 
L 3875 525 
Q 3875 0 3900 -400 
L 3525 -575 
z
M 2050 4825 
Q 1925 4625 1825 4450 
L 5025 4450 
L 5375 4800 
L 5875 4300 
L 1775 4300 
Q 1525 3850 1150 3400 
Q 775 2950 350 2625 
L 275 2700 
Q 625 3025 1050 3700 
Q 1475 4375 1725 5250 
L 2275 4925 
L 2050 4825 
z
M 1600 3800 
L 4500 3800 
L 4800 4100 
L 5250 3650 
L 2475 3650 
Q 2050 3650 1825 3575 
L 1600 3800 
z
M 5650 -75 
L 5850 850 
L 5950 850 
Q 5925 525 5937 100 
Q 5950 -325 6050 -500 
Q 6100 -600 6000 -600 
Q 5900 -600 5575 -500 
Q 5250 -400 4912 150 
Q 4575 700 4525 1350 
Q 4475 2000 4500 2950 
L 1975 2950 
Q 1650 2950 1375 2875 
L 1150 3100 
L 4450 3100 
L 4675 3350 
L 5075 3025 
L 4825 2875 
Q 4750 1250 5025 675 
Q 5300 100 5650 -75 
z
" transform="scale(0.015625)"/>
       <path id="SimSun-6d53" d="M 4900 3200 
L 5250 3875 
L 3750 3875 
Q 3700 3725 3650 3575 
Q 3925 2450 4300 1925 
Q 5050 2600 5250 2975 
L 5650 2525 
Q 5275 2450 4962 2225 
Q 4650 2000 4375 1800 
Q 5075 750 6100 350 
L 6100 250 
Q 5650 275 5500 -25 
Q 3900 1250 3575 3375 
Q 3325 2800 3075 2375 
L 3375 2225 
L 3225 2075 
L 3225 100 
L 4175 600 
L 4225 500 
Q 3350 -100 3100 -500 
L 2775 -125 
Q 2900 -50 2875 425 
L 2875 2000 
Q 2200 1175 1475 625 
L 1425 700 
Q 2850 2150 3400 3875 
L 2575 3875 
Q 2600 3475 2475 3337 
Q 2350 3200 2187 3225 
Q 2025 3250 2025 3325 
Q 2025 3400 2150 3550 
Q 2375 3800 2475 4300 
L 2575 4300 
L 2575 4025 
L 3425 4025 
Q 3500 4325 3550 4637 
Q 3600 4950 3625 5225 
L 4175 4950 
L 3975 4800 
Q 3875 4375 3775 4025 
L 5200 4025 
L 5450 4300 
L 5900 3800 
Q 5500 3800 4975 3150 
L 4900 3200 
z
M 1975 3900 
Q 1350 1400 1287 1087 
Q 1225 775 1225 325 
Q 1225 -125 1225 -287 
Q 1225 -450 1125 -450 
Q 1050 -450 887 -375 
Q 725 -300 725 -100 
Q 725 75 775 250 
Q 850 500 850 675 
Q 850 825 750 925 
Q 650 1025 275 1125 
L 275 1225 
Q 725 1175 812 1200 
Q 900 1225 1037 1450 
Q 1175 1675 1875 3925 
L 1975 3900 
z
M 300 3500 
Q 1125 3150 1137 2900 
Q 1150 2650 1050 2537 
Q 950 2425 925 2425 
Q 850 2425 775 2675 
Q 650 3000 250 3425 
L 300 3500 
z
M 875 4950 
Q 1550 4650 1625 4525 
Q 1700 4400 1700 4300 
Q 1700 4175 1600 4025 
Q 1500 3875 1450 3875 
Q 1350 3875 1275 4125 
Q 1150 4525 825 4875 
L 875 4950 
z
" transform="scale(0.015625)"/>
       <path id="SimSun-5ea6" d="M 2550 2025 
Q 2575 2525 2575 3175 
L 1925 3175 
L 1625 3125 
L 1425 3325 
L 2575 3325 
Q 2575 3700 2550 4150 
L 3100 3875 
L 2900 3750 
L 2900 3325 
L 4300 3325 
Q 4300 3750 4275 4125 
L 4850 3875 
L 4625 3725 
L 4625 3325 
L 5100 3325 
L 5425 3650 
L 5900 3175 
L 4625 3175 
Q 4625 2450 4650 2225 
L 4300 2075 
L 4300 2300 
L 2900 2300 
L 2900 2175 
L 2550 2025 
z
M 4875 1500 
Q 4300 775 3900 425 
Q 4700 -75 6025 -125 
L 6025 -225 
Q 5625 -300 5550 -550 
Q 4375 -325 3675 225 
Q 2475 -450 1075 -625 
L 1050 -525 
Q 2375 -275 3450 450 
Q 2975 925 2575 1625 
L 2325 1625 
L 2100 1575 
L 1900 1775 
L 4525 1775 
L 4750 2000 
L 5125 1625 
L 4875 1500 
z
M 2700 1625 
Q 3175 975 3650 625 
Q 4150 1100 4500 1625 
L 2700 1625 
z
M 2900 3175 
L 2900 2450 
L 4300 2450 
L 4300 3175 
L 2900 3175 
z
M 975 4650 
L 1400 4400 
L 3375 4400 
Q 3350 4550 3262 4725 
Q 3175 4900 2900 5225 
L 2975 5275 
Q 3550 5025 3637 4887 
Q 3725 4750 3725 4725 
Q 3725 4575 3525 4400 
L 5150 4400 
L 5500 4750 
L 6000 4250 
L 1375 4250 
Q 1400 2750 1287 1912 
Q 1175 1075 925 475 
Q 675 -125 300 -625 
L 225 -575 
Q 725 300 862 1250 
Q 1000 2200 1012 3187 
Q 1025 4175 975 4650 
z
" transform="scale(0.015625)"/>
       <path id="STIXGeneral-Regular-2f" d="M 1837 4326 
L 378 -90 
L -58 -90 
L 1408 4326 
L 1837 4326 
z
" transform="scale(0.015625)"/>
       <path id="STIXGeneral-Regular-28" d="M 1946 -1030 
L 1869 -1133 
Q 1126 -710 716 32 
Q 307 774 307 1613 
Q 307 3386 1888 4326 
L 1946 4224 
Q 1293 3667 1075 3126 
Q 858 2586 858 1632 
Q 858 685 1082 96 
Q 1306 -493 1946 -1030 
z
" transform="scale(0.015625)"/>
       <path id="STIXGeneral-Regular-42" d="M 2701 2234 
L 2701 2227 
Q 3181 2150 3482 1875 
Q 3795 1594 3795 1139 
Q 3795 608 3379 304 
Q 2963 0 2266 0 
L 109 0 
L 109 122 
Q 486 134 604 246 
Q 723 358 723 723 
L 723 3520 
Q 723 3891 614 3990 
Q 506 4090 109 4115 
L 109 4237 
L 1901 4237 
Q 2726 4237 3152 3958 
Q 3578 3680 3578 3168 
Q 3578 2733 3315 2502 
Q 3130 2342 2701 2234 
z
M 1376 2342 
L 1965 2342 
Q 2925 2342 2925 3136 
Q 2925 3546 2640 3773 
Q 2355 4000 1792 4000 
L 1530 4000 
Q 1376 4000 1376 3795 
L 1376 2342 
z
M 1376 2086 
L 1376 525 
Q 1376 365 1462 301 
Q 1549 237 1773 237 
Q 2208 237 2413 285 
Q 2618 333 2816 512 
Q 3059 723 3059 1146 
Q 3059 1632 2758 1830 
Q 2688 1882 2617 1917 
Q 2547 1952 2492 1974 
Q 2438 1997 2348 2016 
Q 2259 2035 2211 2044 
Q 2163 2054 2041 2060 
Q 1920 2067 1862 2070 
Q 1805 2074 1635 2080 
Q 1466 2086 1376 2086 
z
" transform="scale(0.015625)"/>
       <path id="STIXGeneral-Regular-71" d="M 3123 -1389 
L 1613 -1389 
L 1613 -1280 
Q 1952 -1254 2067 -1158 
Q 2182 -1062 2182 -794 
L 2182 410 
Q 1747 -64 1178 -64 
Q 730 -64 442 320 
Q 154 704 154 1312 
Q 154 2003 560 2473 
Q 966 2944 1562 2944 
Q 1920 2944 2304 2720 
L 2650 2925 
L 2720 2925 
L 2720 -902 
Q 2720 -1107 2797 -1180 
Q 2874 -1254 3123 -1280 
L 3123 -1389 
z
M 2182 813 
L 2182 2131 
Q 2182 2758 1587 2758 
Q 1178 2758 941 2432 
Q 704 2106 704 1542 
Q 704 1210 803 925 
Q 902 640 1062 499 
Q 1254 326 1542 326 
Q 1882 326 2106 531 
Q 2182 602 2182 813 
z
" transform="scale(0.015625)"/>
       <path id="STIXGeneral-Regular-6d" d="M 4960 0 
L 3565 0 
L 3565 96 
Q 3834 122 3907 208 
Q 3981 294 3981 576 
L 3981 1894 
Q 3981 2278 3869 2444 
Q 3757 2611 3488 2611 
Q 3264 2611 3107 2521 
Q 2950 2432 2803 2221 
L 2803 608 
Q 2803 301 2896 201 
Q 2989 102 3264 96 
L 3264 0 
L 1830 0 
L 1830 96 
Q 2112 115 2189 188 
Q 2266 262 2266 550 
L 2266 1901 
Q 2266 2611 1850 2611 
Q 1670 2611 1468 2531 
Q 1267 2451 1171 2336 
Q 1088 2240 1088 2227 
L 1088 448 
Q 1088 243 1177 176 
Q 1267 109 1523 96 
L 1523 0 
L 102 0 
L 102 96 
Q 371 102 460 195 
Q 550 288 550 563 
L 550 2150 
Q 550 2387 499 2480 
Q 448 2573 326 2573 
Q 230 2573 122 2547 
L 122 2656 
Q 557 2778 1011 2944 
L 1062 2925 
L 1062 2451 
L 1075 2451 
Q 1363 2752 1584 2848 
Q 1805 2944 2054 2944 
Q 2560 2944 2733 2406 
Q 3232 2944 3776 2944 
Q 4518 2944 4518 1792 
L 4518 493 
Q 4518 282 4582 202 
Q 4646 122 4794 109 
L 4960 96 
L 4960 0 
z
" transform="scale(0.015625)"/>
       <path id="STIXGeneral-Regular-32" d="M 3034 877 
L 2688 0 
L 186 0 
L 186 77 
L 1325 1286 
Q 1773 1754 1965 2144 
Q 2157 2534 2157 2950 
Q 2157 3379 1920 3616 
Q 1683 3853 1267 3853 
Q 922 3853 720 3673 
Q 518 3494 326 3021 
L 192 3053 
Q 301 3648 630 3987 
Q 960 4326 1523 4326 
Q 2054 4326 2380 4006 
Q 2707 3686 2707 3200 
Q 2707 2477 1888 1613 
L 832 486 
L 2330 486 
Q 2541 486 2665 569 
Q 2790 653 2944 915 
L 3034 877 
z
" transform="scale(0.015625)"/>
       <path id="STIXGeneral-Regular-29" d="M 186 4224 
L 262 4326 
Q 992 3891 1408 3148 
Q 1824 2406 1824 1581 
Q 1824 -166 243 -1133 
L 186 -1030 
Q 845 -486 1059 54 
Q 1274 595 1274 1562 
Q 1274 2534 1059 3120 
Q 845 3706 186 4224 
z
" transform="scale(0.015625)"/>
      </defs>
      <use xlink:href="#SimSun-6c1a" transform="translate(0 0.684375)"/>
      <use xlink:href="#SimSun-6d53" transform="translate(100 0.684375)"/>
      <use xlink:href="#SimSun-5ea6" transform="translate(200 0.684375)"/>
      <use xlink:href="#STIXGeneral-Regular-2f" transform="translate(320.055711 0.684375)"/>
      <use xlink:href="#STIXGeneral-Regular-28" transform="translate(367.91141 0.684375)"/>
      <use xlink:href="#STIXGeneral-Regular-42" transform="translate(401.211397 0.684375)"/>
      <use xlink:href="#STIXGeneral-Regular-71" transform="translate(467.911394 0.684375)"/>
      <use xlink:href="#STIXGeneral-Regular-2f" transform="translate(517.911379 0.684375)"/>
      <use xlink:href="#STIXGeneral-Regular-6d" transform="translate(545.711367 0.684375)"/>
      <use xlink:href="#STIXGeneral-Regular-32" transform="translate(625.086355 36.684375) scale(0.7)"/>
      <use xlink:href="#STIXGeneral-Regular-29" transform="translate(664.586344 0.684375)"/>
     </g>
    </g>
   </g>
   <g id="line2d_28">
    <path d="M 53.926235 217 
L 53.928646 35.313219 
L 54.274384 42.058494 
L 56.233566 84.540617 
L 56.464058 86.120514 
L 56.69455 86.509492 
L 57.040288 86.548787 
L 58.307995 86.181156 
L 59.690947 85.823409 
L 62.572097 85.923008 
L 65.338001 85.056433 
L 67.642922 85.043044 
L 67.98866 85.398171 
L 68.795382 86.655258 
L 69.602104 88.278981 
L 70.29358 90.153335 
L 70.639318 91.022507 
L 72.137516 93.366795 
L 73.405222 95.156308 
L 74.788175 96.268302 
L 75.825389 97.433075 
L 76.286373 98.062621 
L 76.747357 99.990036 
L 78.360801 108.399079 
L 78.821785 110.65281 
L 79.167523 110.999901 
L 79.628507 111.057686 
L 80.089491 110.890491 
L 80.550475 110.502242 
L 81.126705 109.697075 
L 81.587689 108.933717 
L 81.818182 108.977449 
L 82.509658 109.535667 
L 84.584086 111.332826 
L 87.465236 111.561753 
L 88.732942 111.178063 
L 89.885403 110.813999 
L 90.346387 111.920032 
L 91.614093 115.840376 
L 92.420815 119.030258 
L 92.536061 119.592072 
L 92.651307 119.540298 
L 93.227537 117.446254 
L 93.919013 115.481762 
L 94.956227 113.302692 
L 95.532457 112.406777 
L 98.298362 109.794659 
L 100.94902 104.865633 
L 102.216726 103.2706 
L 104.521646 100.477732 
L 106.365583 97.92171 
L 107.057059 97.328405 
L 108.324765 96.545217 
L 109.246733 96.032519 
L 111.897391 90.881517 
L 112.243129 90.699465 
L 112.819359 90.699939 
L 113.395589 90.884419 
L 113.97182 91.30492 
L 114.432804 91.901478 
L 114.778542 92.29051 
L 115.12428 91.611156 
L 116.161494 89.467303 
L 117.313954 87.614678 
L 117.544446 87.46449 
L 117.890184 87.847835 
L 119.042644 89.649774 
L 119.73412 91.114681 
L 120.425596 92.774 
L 120.771334 92.694414 
L 123.076255 91.626874 
L 124.228715 90.015091 
L 125.842159 87.575643 
L 127.916587 83.049831 
L 129.414786 79.867648 
L 131.258722 76.038642 
L 131.60446 75.775013 
L 132.75692 75.430931 
L 134.600856 75.055631 
L 136.329546 75.015813 
L 137.136268 75.15014 
L 139.556435 75.982325 
L 139.902173 75.628082 
L 141.746109 72.857993 
L 142.437585 71.857859 
L 142.898569 71.872037 
L 144.512013 72.335489 
L 145.318736 72.537811 
L 148.08464 71.883922 
L 150.504806 71.204944 
L 150.96579 71.189773 
L 153.385957 71.548625 
L 154.307925 71.945477 
L 156.728091 72.975811 
L 159.954979 73.793721 
L 162.144654 74.573346 
L 164.449574 75.830818 
L 164.795312 76.700558 
L 166.408756 82.08858 
L 167.44597 85.823663 
L 167.791708 85.735295 
L 169.750891 84.794772 
L 170.096629 84.577178 
L 171.940565 82.142756 
L 172.862533 81.25218 
L 173.438763 81.335736 
L 175.743683 81.988602 
L 180.238278 84.780336 
L 181.275492 85.407112 
L 182.888936 87.146567 
L 184.041396 88.350196 
L 185.078611 88.553391 
L 187.037793 88.779899 
L 188.766483 88.84234 
L 189.688451 89.035875 
L 192.223863 90.294772 
L 192.915339 91.342384 
L 194.528784 94.221743 
L 194.989768 95.024156 
L 195.335506 95.074866 
L 197.755672 94.956817 
L 198.562394 95.513949 
L 201.328299 97.414945 
L 203.402727 98.585107 
L 206.514369 98.928627 
L 208.934536 99.780307 
L 210.202242 101.273128 
L 211.585194 102.957385 
L 212.046178 102.810151 
L 214.120606 101.93851 
L 214.351098 101.942349 
L 214.927328 102.503857 
L 216.886511 104.856831 
L 217.808479 105.889948 
L 218.845693 107.208286 
L 219.652415 108.591834 
L 219.767661 108.835123 
L 219.882907 108.75784 
L 221.265859 106.340862 
L 221.957335 105.750392 
L 222.533565 105.420687 
L 222.764057 105.750076 
L 223.570779 107.732528 
L 224.838486 111.335713 
L 225.529962 113.358198 
L 226.106192 113.682709 
L 228.065374 114.499368 
L 228.411112 113.741843 
L 229.217834 111.928791 
L 230.139802 110.429826 
L 230.831278 109.513618 
L 231.06177 109.540736 
L 231.753246 110.104045 
L 233.481937 111.844083 
L 234.173413 112.482793 
L 235.902103 114.092785 
L 236.478333 114.606123 
L 237.054563 114.287208 
L 237.976531 113.889916 
L 239.128991 113.664614 
L 240.166205 113.787934 
L 242.010142 114.115735 
L 242.701618 114.899448 
L 244.315062 117.074136 
L 244.776046 117.651689 
L 245.121784 117.562426 
L 247.080966 116.755917 
L 247.772442 116.651423 
L 249.731625 116.73121 
L 253.073759 116.540868 
L 253.534743 117.132651 
L 254.456711 118.682461 
L 255.263433 120.451908 
L 255.839663 121.844636 
L 256.185401 121.388287 
L 256.876878 120.468488 
L 257.568354 119.91413 
L 258.490322 119.489376 
L 259.066552 119.564603 
L 261.486718 120.147049 
L 262.754424 121.375895 
L 267.249019 125.85353 
L 269.669185 127.226278 
L 270.245415 128.444407 
L 271.282629 131.135148 
L 272.089351 133.809311 
L 272.435089 134.859837 
L 272.665582 134.618498 
L 274.16378 132.433514 
L 275.31624 131.166837 
L 276.4687 130.691526 
L 277.851652 130.23483 
L 278.19739 130.466688 
L 280.732803 132.785085 
L 281.193787 132.728937 
L 282.000509 132.484676 
L 282.807231 132.239301 
L 283.498707 132.141203 
L 284.074937 133.340723 
L 285.803627 137.90005 
L 286.264611 139.177352 
L 286.495103 139.051418 
L 288.91527 136.944358 
L 289.261008 137.126992 
L 290.759206 138.595008 
L 292.257404 140.022825 
L 293.870848 141.104583 
L 294.10134 141.386917 
L 294.331832 141.461443 
L 294.562324 141.706326 
L 294.67757 141.705215 
L 294.908062 141.823739 
L 295.023308 141.796381 
L 295.2538 141.976048 
L 295.484292 141.917246 
L 295.714784 142.163053 
L 295.945276 142.131053 
L 296.175768 142.265534 
L 296.291014 142.233047 
L 296.521507 142.392157 
L 296.636753 142.364211 
L 296.867245 142.495637 
L 296.982491 142.462522 
L 297.212983 142.609743 
L 297.328229 142.630765 
L 297.558721 142.939291 
L 297.673967 142.998318 
L 297.904459 143.365626 
L 298.019705 143.424487 
L 298.250197 143.821514 
L 298.365443 143.878619 
L 298.595935 144.276991 
L 298.711181 144.323559 
L 298.941673 144.770808 
L 299.056919 144.820833 
L 299.287411 145.23368 
L 299.402657 145.259728 
L 299.633149 145.789681 
L 299.748395 145.840097 
L 299.978887 146.221449 
L 300.094133 146.453985 
L 300.209379 146.421416 
L 300.324625 146.638732 
L 300.439871 146.58333 
L 300.555117 146.784199 
L 300.670363 146.716069 
L 300.785609 146.930325 
L 300.900855 146.857926 
L 301.016101 147.07261 
L 301.131347 146.993761 
L 301.246593 147.219881 
L 301.361839 147.136731 
L 301.477085 147.367783 
L 301.592331 147.278813 
L 301.707577 147.50478 
L 301.822823 147.402051 
L 301.938069 147.687189 
L 302.053315 147.60373 
L 302.168561 147.827191 
L 302.283807 147.728966 
L 302.399053 147.993551 
L 302.514299 147.897508 
L 302.629545 148.150549 
L 302.744791 148.047654 
L 302.860037 148.328972 
L 302.975283 148.22655 
L 303.090529 148.483193 
L 303.205775 148.376259 
L 303.321021 148.639296 
L 303.436267 148.530995 
L 303.551513 148.79564 
L 303.666759 148.685312 
L 303.782005 148.955508 
L 303.897251 148.843997 
L 304.012497 149.117347 
L 304.127743 149.00423 
L 304.242989 149.282528 
L 304.358236 149.168183 
L 304.473482 149.450336 
L 304.588728 149.334586 
L 304.703974 149.621485 
L 304.81922 149.504539 
L 304.934466 149.795707 
L 305.049712 149.677519 
L 305.164958 149.973435 
L 305.280204 149.854147 
L 305.39545 150.154631 
L 305.510696 150.034266 
L 305.625942 150.406897 
L 305.741188 150.403142 
L 306.086926 151.32241 
L 306.202172 151.370975 
L 306.54791 152.394461 
L 306.778402 152.426648 
L 307.008894 153.64327 
L 307.239386 153.80629 
L 307.469878 154.932687 
L 307.585124 155.072126 
L 307.815616 155.946622 
L 307.930862 156.053496 
L 308.161354 157.55305 
L 308.2766 157.881498 
L 308.2766 157.881498 
" clip-path="url(#pca9cb73c22)" style="fill: none; stroke: #1f77b4; stroke-width: 1.5; stroke-linecap: square"/>
   </g>
   <g id="line2d_29">
    <path d="M 53.8134 18.064579 
L 54.735368 71.547944 
L 55.081106 77.046773 
L 55.311598 78.202182 
L 55.54209 78.544515 
L 55.887828 78.647475 
L 57.27078 78.626927 
L 60.497669 78.331065 
L 64.070295 77.758576 
L 66.375216 77.432846 
L 70.408826 77.034109 
L 71.100302 77.378253 
L 72.713746 78.127079 
L 73.981453 78.722787 
L 75.018667 79.562325 
L 75.940635 80.559592 
L 76.171127 81.663148 
L 78.360801 96.747771 
L 78.821785 99.31062 
L 79.398015 99.916578 
L 79.974245 100.189702 
L 80.435229 100.160704 
L 80.896213 99.905022 
L 81.357197 99.416443 
L 81.472443 99.257173 
L 82.048674 99.622409 
L 83.777364 100.984309 
L 84.699332 101.665623 
L 87.119498 102.953761 
L 88.617696 102.689672 
L 89.885403 102.39351 
L 91.037863 103.244296 
L 92.420815 104.572105 
L 92.766553 104.807498 
L 94.149505 105.308307 
L 95.301965 105.528679 
L 104.175908 104.817686 
L 113.510836 104.779996 
L 115.815756 104.963144 
L 117.313954 104.673402 
L 118.466414 104.470843 
L 119.15789 104.770352 
L 119.73412 105.248786 
L 120.195104 105.845667 
L 120.771334 106.786228 
L 121.347564 107.274296 
L 122.039041 107.559636 
L 122.269533 107.605391 
L 122.384779 106.965962 
L 122.961009 107.020881 
L 123.306747 107.113134 
L 125.496421 107.260554 
L 125.726913 107.326379 
L 126.879373 105.440027 
L 126.994619 106.65329 
L 127.686095 106.131381 
L 128.147079 106.062087 
L 128.492817 106.243675 
L 131.489214 100.430089 
L 132.18069 99.978619 
L 134.255118 98.925653 
L 135.868562 98.530794 
L 136.79053 98.395418 
L 137.251514 96.526524 
L 137.712499 95.554167 
L 138.288729 94.866548 
L 138.980205 94.427398 
L 139.556435 94.245156 
L 139.786927 94.302223 
L 140.824141 94.158775 
L 141.285125 94.339631 
L 141.630863 94.674933 
L 141.976601 95.31328 
L 142.322339 96.57827 
L 142.437585 96.4865 
L 142.783323 96.416149 
L 144.051029 96.589832 
L 145.433982 96.754715 
L 148.891362 95.330539 
L 150.850544 94.556652 
L 152.579234 94.445615 
L 154.077433 94.470401 
L 157.880551 94.935907 
L 159.954979 95.154973 
L 162.375146 95.660424 
L 164.56482 96.309547 
L 164.795312 96.353401 
L 165.14105 96.756696 
L 165.832526 97.985578 
L 166.639248 99.879593 
L 167.561216 102.185823 
L 167.906954 101.832683 
L 169.174661 100.359356 
L 169.981383 99.646821 
L 171.249089 99.980389 
L 171.710073 100.418921 
L 172.171057 101.143228 
L 172.632041 102.342387 
L 172.747287 102.767573 
L 173.093025 102.59182 
L 174.014993 102.245935 
L 175.513191 101.827967 
L 175.858929 102.088999 
L 177.58762 103.938401 
L 178.624834 104.961418 
L 181.505984 106.562346 
L 183.34992 108.381195 
L 184.156642 109.089225 
L 185.309103 109.290515 
L 187.037793 109.464675 
L 188.881729 109.363857 
L 189.688451 109.445572 
L 192.108617 110.365786 
L 192.684847 108.180202 
L 193.145832 107.446407 
L 193.606816 107.168461 
L 194.0678 107.160138 
L 194.64403 107.417846 
L 194.874522 107.59132 
L 196.833704 112.421099 
L 197.294688 114.394291 
L 197.755672 116.938648 
L 201.097807 119.02673 
L 203.402727 120.102286 
L 205.016171 119.950224 
L 206.283877 119.95022 
L 209.049782 120.649544 
L 210.086996 121.468942 
L 211.930932 122.984489 
L 214.58159 122.89758 
L 215.388312 123.457553 
L 217.001757 124.859687 
L 217.923725 126.755936 
L 219.191431 129.750682 
L 219.882907 131.485828 
L 220.113399 131.072211 
L 220.804875 129.620727 
L 221.496351 128.720396 
L 222.303073 128.061821 
L 222.533565 127.922867 
L 222.879303 126.479967 
L 223.225041 126.004018 
L 223.570779 125.929486 
L 223.916517 126.080729 
L 224.377501 126.537886 
L 224.953732 127.488021 
L 225.760454 129.001518 
L 226.797668 129.466676 
L 228.411112 130.037132 
L 228.872096 129.889188 
L 229.217834 129.976839 
L 229.678818 130.35817 
L 230.139802 131.071086 
L 230.600786 132.263053 
L 230.831278 133.165675 
L 230.946524 133.120597 
L 231.292262 133.23655 
L 232.444722 134.073631 
L 234.288659 135.42666 
L 235.902103 136.335162 
L 236.593579 136.699649 
L 238.322269 136.123789 
L 239.820467 136.089274 
L 242.125388 136.263879 
L 242.93211 137.036573 
L 244.430308 138.764524 
L 244.776046 139.157866 
L 245.121784 139.098138 
L 247.426704 138.014704 
L 247.887688 138.028825 
L 250.423101 138.36826 
L 253.073759 137.723189 
L 253.419497 137.859809 
L 254.110973 138.488398 
L 254.917695 139.547881 
L 255.609171 140.892521 
L 255.839663 141.398868 
L 255.954909 141.443749 
L 256.185401 141.236596 
L 256.876878 140.457219 
L 257.453108 140.112892 
L 258.144584 139.952932 
L 259.066552 140.010884 
L 261.601964 140.771618 
L 262.754424 141.776504 
L 265.981313 144.627585 
L 267.133773 145.470048 
L 269.553939 146.138225 
L 270.014923 143.184556 
L 270.360661 142.304281 
L 270.706399 142.014252 
L 271.052137 142.06035 
L 271.397875 142.347374 
L 271.858859 143.055533 
L 272.319843 144.173609 
L 272.665582 145.430474 
L 274.16378 148.838275 
L 274.624764 150.614565 
L 274.970502 152.644976 
L 275.085748 153.616911 
L 275.89247 153.468708 
L 276.929684 153.523699 
L 278.19739 153.824459 
L 279.810834 154.838524 
L 280.617557 155.329536 
L 281.309033 153.397925 
L 281.885263 152.407623 
L 282.691985 151.508373 
L 283.383461 150.951084 
L 283.613953 151.360299 
L 284.420675 153.852945 
L 285.342643 157.392649 
L 286.034119 160.970255 
L 286.264611 161.952982 
L 286.495103 161.959593 
L 287.993301 160.969027 
L 289.030516 160.715969 
L 289.376254 160.91206 
L 291.565928 162.981744 
L 291.911666 163.238518 
L 295.714784 164.878569 
L 297.558721 165.518313 
L 299.517903 167.817479 
L 300.324625 168.795167 
L 301.131347 169.331972 
L 301.707577 169.69038 
L 302.514299 170.280477 
L 303.321021 170.834223 
L 304.127743 171.434475 
L 304.703974 171.847764 
L 305.97168 173.225601 
L 306.54791 174.45802 
L 307.815616 178.037041 
L 308.2766 179.822317 
L 308.2766 179.822317 
" clip-path="url(#pca9cb73c22)" style="fill: none; stroke: #ff7f0e; stroke-width: 1.5; stroke-linecap: square"/>
   </g>
   <g id="line2d_30">
    <path d="M 53.8134 19.300396 
L 53.928646 21.431936 
L 54.620122 46.998027 
L 54.850614 47.250595 
L 56.464058 47.394936 
L 59.690947 47.538364 
L 69.371612 47.857074 
L 70.524072 48.2288 
L 72.368008 49.076613 
L 73.981453 49.75065 
L 74.903421 50.450226 
L 75.940635 51.519585 
L 76.401619 53.254979 
L 78.130309 60.959232 
L 78.821785 63.956091 
L 79.513261 64.993814 
L 80.089491 65.490941 
L 80.550475 65.640216 
L 81.011459 65.562458 
L 81.702936 65.33823 
L 83.31638 66.146347 
L 86.428022 67.845195 
L 87.34999 68.192889 
L 88.848188 68.335372 
L 90.115895 68.450164 
L 91.268355 69.073928 
L 93.919013 70.685731 
L 95.186719 71.075679 
L 96.223933 71.187581 
L 104.752138 72.047995 
L 111.666899 73.355319 
L 115.585264 74.462602 
L 118.00543 75.402363 
L 118.927398 76.023206 
L 119.964612 76.9923 
L 120.31035 77.466628 
L 122.039041 81.277498 
L 123.767731 85.072631 
L 125.035437 87.168644 
L 125.842159 88.166483 
L 127.109865 88.718863 
L 128.262325 88.983601 
L 137.021022 90.206694 
L 137.827745 90.438028 
L 138.980205 91.017855 
L 140.132665 91.577299 
L 141.169879 91.839778 
L 141.746109 92.21798 
L 142.207093 92.840056 
L 142.437585 93.080813 
L 143.013815 93.113453 
L 146.125458 93.544829 
L 149.006608 93.299346 
L 151.196282 93.092215 
L 154.192679 93.404566 
L 158.341535 94.19901 
L 160.531209 94.616441 
L 164.219082 95.540929 
L 165.14105 95.851158 
L 165.832526 96.709591 
L 166.754494 98.203092 
L 167.676462 99.775325 
L 168.137446 99.826113 
L 168.944168 99.623802 
L 170.211875 99.217061 
L 171.249089 99.637545 
L 171.825319 100.187698 
L 172.286303 100.906853 
L 172.977779 102.167532 
L 173.899747 101.94474 
L 175.628437 101.723679 
L 176.204667 102.193112 
L 178.970572 104.689897 
L 181.736476 106.286647 
L 184.50238 108.397897 
L 186.807301 108.906634 
L 189.803697 109.016746 
L 192.108617 109.916113 
L 192.339109 109.413015 
L 192.800093 108.157283 
L 193.261078 107.569193 
L 193.722062 107.364379 
L 194.183046 107.399277 
L 194.759276 107.689708 
L 194.989768 107.972865 
L 196.718458 112.24381 
L 197.294688 114.393085 
L 197.870918 116.692736 
L 203.633219 118.986077 
L 206.399123 119.041161 
L 209.280274 119.797002 
L 211.008964 120.945799 
L 212.046178 121.585832 
L 215.15782 122.200631 
L 217.001757 123.415249 
L 217.577987 124.174668 
L 219.998153 127.474267 
L 220.459137 127.162785 
L 221.381105 126.584884 
L 222.418319 126.21091 
L 222.533565 126.182144 
L 222.994549 125.088974 
L 223.340287 124.845072 
L 223.686025 124.870047 
L 224.147009 125.15902 
L 224.723239 125.838722 
L 225.29947 126.87861 
L 225.645208 127.522303 
L 226.221438 127.971923 
L 228.295866 129.226199 
L 229.33308 129.129015 
L 229.794064 129.459008 
L 230.255048 130.098595 
L 230.716032 131.209184 
L 230.946524 131.648818 
L 231.292262 131.788918 
L 232.559968 132.823556 
L 234.173413 134.11199 
L 236.247841 135.288335 
L 236.593579 135.46126 
L 237.400301 135.269793 
L 238.322269 135.196344 
L 239.705221 135.332412 
L 242.240634 135.854714 
L 243.277848 136.832668 
L 245.006538 138.533759 
L 245.698014 138.361694 
L 247.54195 137.904444 
L 248.233426 137.99109 
L 250.423101 138.314244 
L 253.304251 137.9809 
L 253.765235 138.258583 
L 254.571957 139.017273 
L 255.378679 140.105261 
L 256.070155 141.081728 
L 256.415893 140.808297 
L 257.10737 140.268401 
L 257.798846 140.024572 
L 258.605568 139.98482 
L 259.297044 140.129674 
L 261.832456 140.986311 
L 263.791638 142.438302 
L 265.520329 143.637252 
L 267.249019 144.670122 
L 269.553939 145.32193 
L 269.669185 145.08636 
L 270.245415 142.853461 
L 270.591153 142.337174 
L 270.936891 142.21939 
L 271.282629 142.3642 
L 271.743613 142.876879 
L 272.204597 143.743039 
L 273.472304 146.551145 
L 274.048534 147.795123 
L 274.624764 149.645762 
L 274.970502 151.39378 
L 275.200994 152.300038 
L 276.007716 152.223903 
L 277.160176 152.330099 
L 278.312636 152.63102 
L 280.617557 154.104945 
L 280.963295 153.312528 
L 281.654771 151.885374 
L 282.461493 150.762209 
L 283.383461 149.802775 
L 283.613953 150.157127 
L 284.305429 152.217939 
L 285.457889 156.317281 
L 286.379857 159.549738 
L 286.725595 159.504686 
L 288.108547 159.093649 
L 289.145762 159.025555 
L 289.837238 159.4621 
L 292.142158 160.992223 
L 297.212983 162.727557 
L 297.673967 162.916368 
L 300.670363 164.536845 
L 308.161354 166.868511 
L 308.2766 166.896845 
L 308.2766 166.896845 
" clip-path="url(#pca9cb73c22)" style="fill: none; stroke: #2ca02c; stroke-width: 1.5; stroke-linecap: square"/>
   </g>
   <g id="line2d_31">
    <path d="M 53.8134 20.041412 
L 54.043892 15.192166 
L 54.274384 15.031636 
L 56.464058 15.400423 
L 62.917835 16.368743 
L 68.449644 17.37053 
L 69.71735 17.849275 
L 72.944238 19.246903 
L 73.981453 19.626974 
L 74.903421 20.213576 
L 75.940635 21.156794 
L 76.632111 22.109448 
L 77.438833 23.677679 
L 78.360801 25.981993 
L 79.628507 29.208479 
L 80.319983 30.349108 
L 80.896213 30.932398 
L 81.357197 31.150842 
L 82.855396 31.51149 
L 84.46884 32.148384 
L 87.92622 33.561912 
L 89.539664 33.965706 
L 90.807371 34.274176 
L 91.959831 34.793231 
L 94.495243 36.090213 
L 95.993441 36.503015 
L 102.331972 37.955821 
L 108.670503 39.461038 
L 112.012637 40.496626 
L 115.239526 41.738615 
L 117.890184 42.96949 
L 118.927398 43.751807 
L 119.964612 44.821577 
L 121.232318 46.469281 
L 122.730517 48.78401 
L 124.113469 50.902818 
L 125.265929 52.233873 
L 126.418389 53.212734 
L 127.686095 54.035222 
L 129.069047 54.648848 
L 131.258722 55.376538 
L 134.946594 56.516958 
L 137.482007 57.467721 
L 138.519221 58.187836 
L 139.671681 59.30468 
L 140.708895 60.216267 
L 141.630863 60.765641 
L 142.668077 61.11276 
L 156.151861 65.002545 
L 162.2599 67.361299 
L 165.025804 68.580463 
L 165.947772 69.286261 
L 166.984986 70.380006 
L 169.750891 73.920142 
L 170.903351 75.271258 
L 171.940565 76.141418 
L 172.977779 76.722302 
L 175.628437 77.885706 
L 179.201064 79.431193 
L 183.695658 81.595406 
L 185.770087 82.57971 
L 188.766483 83.691216 
L 192.915339 85.282573 
L 193.952554 86.004612 
L 195.22026 87.211529 
L 196.257474 88.004895 
L 197.294688 88.506186 
L 212.046178 93.692691 
L 214.351098 94.557809 
L 216.656018 95.453363 
L 218.960939 96.364796 
L 223.455533 97.884508 
L 224.377501 98.609349 
L 225.29947 99.626946 
L 228.872096 103.932695 
L 229.90931 104.750902 
L 230.946524 105.285642 
L 233.481937 106.525429 
L 235.671611 107.587359 
L 238.898499 109.07116 
L 241.894896 110.582754 
L 244.315062 111.808923 
L 247.772442 113.631933 
L 249.501133 114.27388 
L 251.460315 114.731416 
L 258.029338 116.11382 
L 261.371472 116.884228 
L 264.598361 117.611523 
L 267.364265 118.449067 
L 269.323447 119.272595 
L 270.130169 119.75426 
L 270.936891 120.515454 
L 271.743613 121.573905 
L 273.58755 124.195683 
L 274.394272 124.787403 
L 275.200994 125.104655 
L 277.966898 125.836133 
L 279.695588 126.359734 
L 281.539525 127.158885 
L 288.108547 130.122378 
L 290.298222 130.644852 
L 294.447078 131.690753 
L 298.941673 132.920784 
L 304.703974 134.381227 
L 308.2766 135.132724 
L 308.2766 135.132724 
" clip-path="url(#pca9cb73c22)" style="fill: none; stroke: #d62728; stroke-width: 1.5; stroke-linecap: square"/>
   </g>
   <g id="line2d_32">
    <path d="M 53.8134 42.416655 
L 53.928646 82.045682 
L 54.38963 86.436097 
L 54.504876 86.35734 
L 56.11832 82.533523 
L 56.925042 81.518531 
L 57.847011 80.694142 
L 58.999471 79.96129 
L 60.843407 79.110838 
L 63.378819 78.173674 
L 66.25997 77.349847 
L 69.256366 76.519114 
L 71.791778 75.624681 
L 79.628507 74.058594 
L 82.855396 74.058136 
L 87.119498 74.007922 
L 89.07868 72.636522 
L 92.536061 70.530654 
L 95.647703 69.423751 
L 97.837378 68.016847 
L 105.674107 63.724656 
L 115.470018 59.433112 
L 119.273136 58.203264 
L 120.540842 57.851834 
L 126.187897 57.405697 
L 128.377571 57.16748 
L 129.184293 56.994299 
L 132.411182 56.431327 
L 137.597253 55.936967 
L 140.824141 55.911959 
L 143.474799 56.124033 
L 146.93218 56.679039 
L 151.426774 57.679606 
L 155.921369 59.048456 
L 159.493995 60.369763 
L 162.951376 61.86534 
L 168.713676 64.814485 
L 173.438763 67.261309 
L 178.855326 70.125891 
L 182.77369 72.416788 
L 189.688451 76.803046 
L 197.064196 81.501302 
L 200.175838 83.206592 
L 204.209449 85.205793 
L 212.968146 89.188205 
L 218.038971 91.25036 
L 221.842089 92.903427 
L 232.905707 97.326531 
L 245.121784 102.205178 
L 245.582768 102.42272 
L 246.043752 102.57917 
L 246.619982 102.815834 
L 248.579164 103.66722 
L 248.924903 103.771108 
L 249.270641 103.960329 
L 249.616379 104.05924 
L 249.962117 104.254463 
L 250.307855 104.348039 
L 250.653593 104.549343 
L 250.768839 104.541667 
L 251.114577 104.742603 
L 251.229823 104.735025 
L 251.575561 104.935129 
L 251.921299 105.024953 
L 252.267037 105.22378 
L 252.612775 105.314857 
L 252.958513 105.512473 
L 253.304251 105.596407 
L 253.649989 105.777664 
L 253.880481 105.864798 
L 255.032941 106.316071 
L 256.070155 106.767728 
L 256.300647 106.827622 
L 256.992124 107.176024 
L 257.222616 107.230144 
L 258.25983 107.732809 
L 265.520329 110.823365 
L 268.170987 111.895716 
L 279.004112 116.659942 
L 280.732803 117.452754 
L 280.848049 117.329185 
L 280.963295 118.007464 
L 281.193787 117.494879 
L 281.309033 118.127563 
L 281.539525 117.64317 
L 281.654771 118.354161 
L 281.885263 117.814214 
L 282.000509 118.461843 
L 282.231001 117.961385 
L 282.346247 118.702007 
L 282.576739 118.138993 
L 282.691985 118.796507 
L 282.922477 118.284703 
L 283.037723 119.050737 
L 283.268215 118.470163 
L 283.383461 119.132434 
L 283.613953 118.615369 
L 283.729199 119.393746 
L 283.959691 118.812343 
L 284.074937 119.458767 
L 284.305429 118.956106 
L 284.420675 119.731854 
L 284.651167 119.16606 
L 284.766413 119.789273 
L 284.996905 119.308845 
L 285.112151 120.070244 
L 285.342643 119.533366 
L 285.457889 120.124231 
L 285.688381 119.676418 
L 285.803627 120.409032 
L 286.034119 119.91721 
L 286.149365 120.464307 
L 286.379857 120.056117 
L 286.495103 120.759697 
L 286.840841 120.205534 
L 286.956087 121.317824 
L 287.301825 120.58352 
L 287.417071 120.50109 
L 287.532317 121.714782 
L 287.878055 120.980138 
L 287.993301 120.881564 
L 288.108547 121.873899 
L 288.454286 121.288174 
L 288.569532 121.207723 
L 288.684778 122.250826 
L 289.030516 121.722832 
L 289.376254 121.574431 
L 289.4915 123.123297 
L 289.952484 122.543122 
L 290.298222 122.410036 
L 290.759206 122.499254 
L 291.335436 122.876806 
L 291.79642 123.367776 
L 292.142158 124.073273 
L 292.37265 124.976108 
L 292.603142 127.069617 
L 292.718388 130.029133 
L 292.719555 217 
M 292.947636 217 
L 292.94888 124.219346 
L 293.179372 126.095743 
L 293.294618 128.58956 
L 293.295804 217 
M 293.52388 217 
L 293.52511 125.221987 
L 293.640356 126.905382 
L 293.755602 132.934866 
L 293.75673 217 
M 293.984859 217 
L 293.986094 124.849708 
L 294.10134 126.387729 
L 294.216586 131.283705 
L 294.217736 217 
M 294.445852 217 
L 294.447078 125.556017 
L 294.562324 128.185583 
L 294.563515 217 
M 294.791609 217 
L 294.792816 127.002446 
L 294.908062 135.156041 
L 294.909161 217 
M 295.137337 217 
L 295.138554 126.216849 
L 295.2538 129.434584 
L 295.254975 217 
M 295.598314 217 
L 295.599538 125.694035 
L 295.714784 127.63326 
L 295.83003 136.738573 
L 295.831108 217 
M 296.059337 217 
L 296.060522 128.639989 
L 296.061708 217 
M 296.405072 217 
L 296.406261 128.407897 
L 296.407449 217 
M 296.750825 217 
L 296.751999 129.545214 
L 296.753172 217 
M 297.096567 217 
L 297.097737 129.838338 
L 297.098906 217 
M 297.442323 217 
L 297.443475 131.155062 
L 297.444626 217 
M 297.788073 217 
L 297.789213 132.077238 
L 297.790352 217 
M 298.133811 217 
L 298.134951 132.076574 
L 298.13609 217 
M 298.47958 217 
L 298.480689 134.361763 
L 298.481798 217 
M 298.825294 217 
L 298.826427 132.538602 
L 298.82756 217 
M 299.516759 217 
L 299.517903 131.708845 
L 299.519047 217 
" clip-path="url(#pca9cb73c22)" style="fill: none; stroke: #9467bd; stroke-width: 1.5; stroke-linecap: square"/>
   </g>
   <g id="line2d_33">
    <path d="M 84.35193 217 
L 84.353594 92.419541 
L 84.699332 83.823088 
L 85.160316 79.081992 
L 85.736546 75.686198 
L 86.428022 73.025066 
L 87.234744 70.849003 
L 88.156712 69.07942 
L 89.309172 67.401329 
L 90.461633 66.105294 
L 91.498847 65.29167 
L 94.149505 63.470915 
L 98.6441 59.226344 
L 104.291154 54.370952 
L 108.440011 51.237213 
L 114.202312 47.45595 
L 116.161494 46.490042 
L 118.812152 45.008035 
L 119.964612 44.742498 
L 123.652485 44.208078 
L 126.072651 43.593207 
L 127.801341 42.915768 
L 131.143476 41.530266 
L 135.983808 39.973083 
L 138.749713 39.347403 
L 141.054633 39.030613 
L 143.590045 38.938574 
L 147.623656 39.026355 
L 150.504806 39.262062 
L 155.114647 39.927238 
L 159.033011 40.741068 
L 162.2599 41.620637 
L 167.100232 43.190274 
L 171.825319 44.752255 
L 179.662048 47.334711 
L 185.424349 49.515567 
L 193.722062 52.85001 
L 214.927328 61.802401 
L 286.610349 92.703298 
L 308.161354 102.352948 
L 308.2766 102.404648 
L 308.2766 102.404648 
" clip-path="url(#pca9cb73c22)" style="fill: none; stroke: #8c564b; stroke-width: 1.5; stroke-linecap: square"/>
   </g>
   <g id="line2d_34">
    <path d="M 53.8134 38.88098 
L 54.043892 32.131363 
L 54.38963 28.790236 
L 54.850614 26.648961 
L 55.426844 25.067323 
L 56.11832 23.82033 
L 56.925042 22.805345 
L 57.847011 21.980964 
L 58.999471 21.248118 
L 60.843407 20.397667 
L 63.378819 19.460504 
L 66.25997 18.636678 
L 69.256366 17.805937 
L 71.791778 16.911508 
L 79.628507 15.345428 
L 82.855396 15.344972 
L 97.952624 15.586756 
L 106.480829 15.94611 
L 113.280343 16.448774 
L 119.273136 17.118051 
L 125.611667 18.076738 
L 131.02823 19.096153 
L 135.522824 20.173193 
L 139.671681 21.390991 
L 143.935783 22.879293 
L 148.430378 24.685131 
L 152.924972 26.735536 
L 157.534813 29.084855 
L 162.2599 31.743782 
L 168.252692 35.392645 
L 173.554009 38.861728 
L 177.818112 41.919955 
L 182.082214 45.255952 
L 186.807301 49.247855 
L 191.417141 53.430221 
L 198.10141 59.813301 
L 203.172235 64.94988 
L 213.198638 75.222418 
L 216.31028 78.026847 
L 219.191431 80.307322 
L 221.957335 82.226622 
L 224.607993 83.798175 
L 229.563572 86.362469 
L 234.980135 88.929165 
L 247.426704 94.473126 
L 270.591153 104.48649 
L 277.505914 107.485963 
L 308.2766 121.053127 
L 308.2766 121.053127 
" clip-path="url(#pca9cb73c22)" style="fill: none; stroke: #e377c2; stroke-width: 1.5; stroke-linecap: square"/>
   </g>
   <g id="line2d_35">
    <path d="M 53.8134 13.146832 
L 62.456851 13.136394 
L 92.766553 12.965782 
L 108.440011 12.688989 
L 124.574453 12.141985 
L 143.013815 11.61381 
L 156.843337 11.454069 
L 184.617626 11.420765 
L 308.2766 11.446001 
L 308.2766 11.446001 
" clip-path="url(#pca9cb73c22)" style="fill: none; stroke: #7f7f7f; stroke-width: 1.5; stroke-linecap: square"/>
   </g>
   <g id="patch_3">
    <path d="M 41.09024 188.242416 
L 41.09024 3.00024 
" style="fill: none; stroke: #000000; stroke-width: 0.8; stroke-linejoin: miter; stroke-linecap: square"/>
   </g>
   <g id="patch_4">
    <path d="M 320.99976 188.242416 
L 320.99976 3.00024 
" style="fill: none; stroke: #000000; stroke-width: 0.8; stroke-linejoin: miter; stroke-linecap: square"/>
   </g>
   <g id="patch_5">
    <path d="M 41.09024 188.242416 
L 320.99976 188.242416 
" style="fill: none; stroke: #000000; stroke-width: 0.8; stroke-linejoin: miter; stroke-linecap: square"/>
   </g>
   <g id="patch_6">
    <path d="M 41.09024 3.00024 
L 320.99976 3.00024 
" style="fill: none; stroke: #000000; stroke-width: 0.8; stroke-linejoin: miter; stroke-linecap: square"/>
   </g>
   <g id="legend_1">
    <g id="patch_7">
     <path d="M 122.420185 184.285666 
L 239.669815 184.285666 
Q 241.252515 184.285666 241.252515 182.702966 
L 241.252515 138.708852 
Q 241.252515 137.126152 239.669815 137.126152 
L 122.420185 137.126152 
Q 120.837485 137.126152 120.837485 138.708852 
L 120.837485 182.702966 
Q 120.837485 184.285666 122.420185 184.285666 
z
" style="fill: #ffffff; opacity: 0.8; stroke: #cccccc; stroke-linejoin: miter"/>
    </g>
    <g id="line2d_36">
     <path d="M 124.002885 143.061277 
L 131.916385 143.061277 
L 139.829885 143.061277 
" style="fill: none; stroke: #1f77b4; stroke-width: 1.5; stroke-linecap: square"/>
    </g>
    <g id="text_15">
     <!-- Air -->
     <g transform="translate(146.160685 145.831002) scale(0.079135 -0.079135)">
      <defs>
       <path id="TimesNewRomanPSMT-41" d="M 2928 1419 
L 1288 1419 
L 1000 750 
Q 894 503 894 381 
Q 894 284 986 211 
Q 1078 138 1384 116 
L 1384 0 
L 50 0 
L 50 116 
Q 316 163 394 238 
Q 553 388 747 847 
L 2238 4334 
L 2347 4334 
L 3822 809 
Q 4000 384 4145 257 
Q 4291 131 4550 116 
L 4550 0 
L 2878 0 
L 2878 116 
Q 3131 128 3220 200 
Q 3309 272 3309 375 
Q 3309 513 3184 809 
L 2928 1419 
z
M 2841 1650 
L 2122 3363 
L 1384 1650 
L 2841 1650 
z
" transform="scale(0.015625)"/>
       <path id="TimesNewRomanPSMT-69" d="M 928 4444 
Q 1059 4444 1151 4351 
Q 1244 4259 1244 4128 
Q 1244 3997 1151 3903 
Q 1059 3809 928 3809 
Q 797 3809 703 3903 
Q 609 3997 609 4128 
Q 609 4259 701 4351 
Q 794 4444 928 4444 
z
M 1188 2947 
L 1188 647 
Q 1188 378 1227 289 
Q 1266 200 1342 156 
Q 1419 113 1622 113 
L 1622 0 
L 231 0 
L 231 113 
Q 441 113 512 153 
Q 584 194 626 287 
Q 669 381 669 647 
L 669 1750 
Q 669 2216 641 2353 
Q 619 2453 572 2492 
Q 525 2531 444 2531 
Q 356 2531 231 2484 
L 188 2597 
L 1050 2947 
L 1188 2947 
z
" transform="scale(0.015625)"/>
       <path id="TimesNewRomanPSMT-72" d="M 1038 2947 
L 1038 2303 
Q 1397 2947 1775 2947 
Q 1947 2947 2059 2842 
Q 2172 2738 2172 2600 
Q 2172 2478 2090 2393 
Q 2009 2309 1897 2309 
Q 1788 2309 1652 2417 
Q 1516 2525 1450 2525 
Q 1394 2525 1328 2463 
Q 1188 2334 1038 2041 
L 1038 669 
Q 1038 431 1097 309 
Q 1138 225 1241 169 
Q 1344 113 1538 113 
L 1538 0 
L 72 0 
L 72 113 
Q 291 113 397 181 
Q 475 231 506 341 
Q 522 394 522 644 
L 522 1753 
Q 522 2253 501 2348 
Q 481 2444 426 2487 
Q 372 2531 291 2531 
Q 194 2531 72 2484 
L 41 2597 
L 906 2947 
L 1038 2947 
z
" transform="scale(0.015625)"/>
      </defs>
      <use xlink:href="#TimesNewRomanPSMT-41"/>
      <use xlink:href="#TimesNewRomanPSMT-69" x="72.216797"/>
      <use xlink:href="#TimesNewRomanPSMT-72" x="100"/>
     </g>
    </g>
    <g id="line2d_37">
     <path d="M 124.002885 154.250224 
L 131.916385 154.250224 
L 139.829885 154.250224 
" style="fill: none; stroke: #ff7f0e; stroke-width: 1.5; stroke-linecap: square"/>
    </g>
    <g id="text_16">
     <!-- Soil 1 -->
     <g transform="translate(146.160685 157.019949) scale(0.079135 -0.079135)">
      <defs>
       <path id="TimesNewRomanPSMT-53" d="M 2934 4334 
L 2934 2869 
L 2819 2869 
Q 2763 3291 2617 3541 
Q 2472 3791 2203 3937 
Q 1934 4084 1647 4084 
Q 1322 4084 1109 3886 
Q 897 3688 897 3434 
Q 897 3241 1031 3081 
Q 1225 2847 1953 2456 
Q 2547 2138 2764 1967 
Q 2981 1797 3098 1565 
Q 3216 1334 3216 1081 
Q 3216 600 2842 251 
Q 2469 -97 1881 -97 
Q 1697 -97 1534 -69 
Q 1438 -53 1133 45 
Q 828 144 747 144 
Q 669 144 623 97 
Q 578 50 556 -97 
L 441 -97 
L 441 1356 
L 556 1356 
Q 638 900 775 673 
Q 913 447 1195 297 
Q 1478 147 1816 147 
Q 2206 147 2432 353 
Q 2659 559 2659 841 
Q 2659 997 2573 1156 
Q 2488 1316 2306 1453 
Q 2184 1547 1640 1851 
Q 1097 2156 867 2337 
Q 638 2519 519 2737 
Q 400 2956 400 3219 
Q 400 3675 750 4004 
Q 1100 4334 1641 4334 
Q 1978 4334 2356 4169 
Q 2531 4091 2603 4091 
Q 2684 4091 2736 4139 
Q 2788 4188 2819 4334 
L 2934 4334 
z
" transform="scale(0.015625)"/>
       <path id="TimesNewRomanPSMT-6f" d="M 1600 2947 
Q 2250 2947 2644 2453 
Q 2978 2031 2978 1484 
Q 2978 1100 2793 706 
Q 2609 313 2286 112 
Q 1963 -88 1566 -88 
Q 919 -88 538 428 
Q 216 863 216 1403 
Q 216 1797 411 2186 
Q 606 2575 925 2761 
Q 1244 2947 1600 2947 
z
M 1503 2744 
Q 1338 2744 1170 2645 
Q 1003 2547 900 2300 
Q 797 2053 797 1666 
Q 797 1041 1045 587 
Q 1294 134 1700 134 
Q 2003 134 2200 384 
Q 2397 634 2397 1244 
Q 2397 2006 2069 2444 
Q 1847 2744 1503 2744 
z
" transform="scale(0.015625)"/>
       <path id="TimesNewRomanPSMT-6c" d="M 1184 4444 
L 1184 647 
Q 1184 378 1223 290 
Q 1263 203 1344 158 
Q 1425 113 1647 113 
L 1647 0 
L 244 0 
L 244 113 
Q 441 113 512 153 
Q 584 194 625 287 
Q 666 381 666 647 
L 666 3247 
Q 666 3731 644 3842 
Q 622 3953 573 3993 
Q 525 4034 450 4034 
Q 369 4034 244 3984 
L 191 4094 
L 1044 4444 
L 1184 4444 
z
" transform="scale(0.015625)"/>
      </defs>
      <use xlink:href="#TimesNewRomanPSMT-53"/>
      <use xlink:href="#TimesNewRomanPSMT-6f" x="55.615234"/>
      <use xlink:href="#TimesNewRomanPSMT-69" x="105.615234"/>
      <use xlink:href="#TimesNewRomanPSMT-6c" x="133.398438"/>
      <use xlink:href="#TimesNewRomanPSMT-20" x="161.181641"/>
      <use xlink:href="#TimesNewRomanPSMT-31" x="186.181641"/>
     </g>
    </g>
    <g id="line2d_38">
     <path d="M 124.002885 165.439171 
L 131.916385 165.439171 
L 139.829885 165.439171 
" style="fill: none; stroke: #2ca02c; stroke-width: 1.5; stroke-linecap: square"/>
    </g>
    <g id="text_17">
     <!-- Soil 2 -->
     <g transform="translate(146.160685 168.208896) scale(0.079135 -0.079135)">
      <use xlink:href="#TimesNewRomanPSMT-53"/>
      <use xlink:href="#TimesNewRomanPSMT-6f" x="55.615234"/>
      <use xlink:href="#TimesNewRomanPSMT-69" x="105.615234"/>
      <use xlink:href="#TimesNewRomanPSMT-6c" x="133.398438"/>
      <use xlink:href="#TimesNewRomanPSMT-20" x="161.181641"/>
      <use xlink:href="#TimesNewRomanPSMT-32" x="186.181641"/>
     </g>
    </g>
    <g id="line2d_39">
     <path d="M 124.002885 176.628119 
L 131.916385 176.628119 
L 139.829885 176.628119 
" style="fill: none; stroke: #d62728; stroke-width: 1.5; stroke-linecap: square"/>
    </g>
    <g id="text_18">
     <!-- Soil 3 -->
     <g transform="translate(146.160685 179.397844) scale(0.079135 -0.079135)">
      <defs>
       <path id="TimesNewRomanPSMT-33" d="M 325 3431 
Q 506 3859 782 4092 
Q 1059 4325 1472 4325 
Q 1981 4325 2253 3994 
Q 2459 3747 2459 3466 
Q 2459 3003 1878 2509 
Q 2269 2356 2469 2072 
Q 2669 1788 2669 1403 
Q 2669 853 2319 450 
Q 1863 -75 997 -75 
Q 569 -75 414 31 
Q 259 138 259 259 
Q 259 350 332 419 
Q 406 488 509 488 
Q 588 488 669 463 
Q 722 447 909 348 
Q 1097 250 1169 231 
Q 1284 197 1416 197 
Q 1734 197 1970 444 
Q 2206 691 2206 1028 
Q 2206 1275 2097 1509 
Q 2016 1684 1919 1775 
Q 1784 1900 1550 2001 
Q 1316 2103 1072 2103 
L 972 2103 
L 972 2197 
Q 1219 2228 1467 2375 
Q 1716 2522 1828 2728 
Q 1941 2934 1941 3181 
Q 1941 3503 1739 3701 
Q 1538 3900 1238 3900 
Q 753 3900 428 3381 
L 325 3431 
z
" transform="scale(0.015625)"/>
      </defs>
      <use xlink:href="#TimesNewRomanPSMT-53"/>
      <use xlink:href="#TimesNewRomanPSMT-6f" x="55.615234"/>
      <use xlink:href="#TimesNewRomanPSMT-69" x="105.615234"/>
      <use xlink:href="#TimesNewRomanPSMT-6c" x="133.398438"/>
      <use xlink:href="#TimesNewRomanPSMT-20" x="161.181641"/>
      <use xlink:href="#TimesNewRomanPSMT-33" x="186.181641"/>
     </g>
    </g>
    <g id="line2d_40">
     <path d="M 180.677146 143.061277 
L 188.590646 143.061277 
L 196.504146 143.061277 
" style="fill: none; stroke: #9467bd; stroke-width: 1.5; stroke-linecap: square"/>
    </g>
    <g id="text_19">
     <!-- Body HTO -->
     <g transform="translate(202.834946 145.831002) scale(0.079135 -0.079135)">
      <defs>
       <path id="TimesNewRomanPSMT-42" d="M 2956 2163 
Q 3397 2069 3616 1863 
Q 3919 1575 3919 1159 
Q 3919 844 3719 555 
Q 3519 266 3170 133 
Q 2822 0 2106 0 
L 106 0 
L 106 116 
L 266 116 
Q 531 116 647 284 
Q 719 394 719 750 
L 719 3488 
Q 719 3881 628 3984 
Q 506 4122 266 4122 
L 106 4122 
L 106 4238 
L 1938 4238 
Q 2450 4238 2759 4163 
Q 3228 4050 3475 3764 
Q 3722 3478 3722 3106 
Q 3722 2788 3528 2536 
Q 3334 2284 2956 2163 
z
M 1319 2331 
Q 1434 2309 1582 2298 
Q 1731 2288 1909 2288 
Q 2366 2288 2595 2386 
Q 2825 2484 2947 2687 
Q 3069 2891 3069 3131 
Q 3069 3503 2766 3765 
Q 2463 4028 1881 4028 
Q 1569 4028 1319 3959 
L 1319 2331 
z
M 1319 306 
Q 1681 222 2034 222 
Q 2600 222 2897 476 
Q 3194 731 3194 1106 
Q 3194 1353 3059 1581 
Q 2925 1809 2622 1940 
Q 2319 2072 1872 2072 
Q 1678 2072 1540 2065 
Q 1403 2059 1319 2044 
L 1319 306 
z
" transform="scale(0.015625)"/>
       <path id="TimesNewRomanPSMT-79" d="M 38 2863 
L 1372 2863 
L 1372 2747 
L 1306 2747 
Q 1166 2747 1095 2686 
Q 1025 2625 1025 2534 
Q 1025 2413 1128 2197 
L 1825 753 
L 2466 2334 
Q 2519 2463 2519 2588 
Q 2519 2644 2497 2672 
Q 2472 2706 2419 2726 
Q 2366 2747 2231 2747 
L 2231 2863 
L 3163 2863 
L 3163 2747 
Q 3047 2734 2984 2696 
Q 2922 2659 2847 2556 
Q 2819 2513 2741 2316 
L 1575 -541 
Q 1406 -956 1132 -1168 
Q 859 -1381 606 -1381 
Q 422 -1381 303 -1275 
Q 184 -1169 184 -1031 
Q 184 -900 270 -820 
Q 356 -741 506 -741 
Q 609 -741 788 -809 
Q 913 -856 944 -856 
Q 1038 -856 1148 -759 
Q 1259 -663 1372 -384 
L 1575 113 
L 547 2272 
Q 500 2369 397 2513 
Q 319 2622 269 2659 
Q 197 2709 38 2747 
L 38 2863 
z
" transform="scale(0.015625)"/>
       <path id="TimesNewRomanPSMT-48" d="M 1316 2272 
L 3284 2272 
L 3284 3484 
Q 3284 3809 3244 3913 
Q 3213 3991 3113 4047 
Q 2978 4122 2828 4122 
L 2678 4122 
L 2678 4238 
L 4491 4238 
L 4491 4122 
L 4341 4122 
Q 4191 4122 4056 4050 
Q 3956 4000 3920 3898 
Q 3884 3797 3884 3484 
L 3884 750 
Q 3884 428 3925 325 
Q 3956 247 4053 191 
Q 4191 116 4341 116 
L 4491 116 
L 4491 0 
L 2678 0 
L 2678 116 
L 2828 116 
Q 3088 116 3206 269 
Q 3284 369 3284 750 
L 3284 2041 
L 1316 2041 
L 1316 750 
Q 1316 428 1356 325 
Q 1388 247 1488 191 
Q 1622 116 1772 116 
L 1925 116 
L 1925 0 
L 109 0 
L 109 116 
L 259 116 
Q 522 116 641 269 
Q 716 369 716 750 
L 716 3484 
Q 716 3809 675 3913 
Q 644 3991 547 4047 
Q 409 4122 259 4122 
L 109 4122 
L 109 4238 
L 1925 4238 
L 1925 4122 
L 1772 4122 
Q 1622 4122 1488 4050 
Q 1391 4000 1353 3898 
Q 1316 3797 1316 3484 
L 1316 2272 
z
" transform="scale(0.015625)"/>
       <path id="TimesNewRomanPSMT-54" d="M 3703 4238 
L 3750 3244 
L 3631 3244 
Q 3597 3506 3538 3619 
Q 3441 3800 3280 3886 
Q 3119 3972 2856 3972 
L 2259 3972 
L 2259 734 
Q 2259 344 2344 247 
Q 2463 116 2709 116 
L 2856 116 
L 2856 0 
L 1059 0 
L 1059 116 
L 1209 116 
Q 1478 116 1591 278 
Q 1659 378 1659 734 
L 1659 3972 
L 1150 3972 
Q 853 3972 728 3928 
Q 566 3869 450 3700 
Q 334 3531 313 3244 
L 194 3244 
L 244 4238 
L 3703 4238 
z
" transform="scale(0.015625)"/>
       <path id="TimesNewRomanPSMT-4f" d="M 2341 4334 
Q 3166 4334 3770 3707 
Q 4375 3081 4375 2144 
Q 4375 1178 3765 540 
Q 3156 -97 2291 -97 
Q 1416 -97 820 525 
Q 225 1147 225 2134 
Q 225 3144 913 3781 
Q 1509 4334 2341 4334 
z
M 2281 4106 
Q 1713 4106 1369 3684 
Q 941 3159 941 2147 
Q 941 1109 1384 550 
Q 1725 125 2284 125 
Q 2881 125 3270 590 
Q 3659 1056 3659 2059 
Q 3659 3147 3231 3681 
Q 2888 4106 2281 4106 
z
" transform="scale(0.015625)"/>
      </defs>
      <use xlink:href="#TimesNewRomanPSMT-42"/>
      <use xlink:href="#TimesNewRomanPSMT-6f" x="66.699219"/>
      <use xlink:href="#TimesNewRomanPSMT-64" x="116.699219"/>
      <use xlink:href="#TimesNewRomanPSMT-79" x="166.699219"/>
      <use xlink:href="#TimesNewRomanPSMT-20" x="216.699219"/>
      <use xlink:href="#TimesNewRomanPSMT-48" x="241.699219"/>
      <use xlink:href="#TimesNewRomanPSMT-54" x="313.916016"/>
      <use xlink:href="#TimesNewRomanPSMT-4f" x="373.25"/>
     </g>
    </g>
    <g id="line2d_41">
     <path d="M 180.677146 154.265062 
L 188.590646 154.265062 
L 196.504146 154.265062 
" style="fill: none; stroke: #8c564b; stroke-width: 1.5; stroke-linecap: square"/>
    </g>
    <g id="text_20">
     <!-- Body OBT -->
     <g transform="translate(202.834946 157.034787) scale(0.079135 -0.079135)">
      <use xlink:href="#TimesNewRomanPSMT-42"/>
      <use xlink:href="#TimesNewRomanPSMT-6f" x="66.699219"/>
      <use xlink:href="#TimesNewRomanPSMT-64" x="116.699219"/>
      <use xlink:href="#TimesNewRomanPSMT-79" x="166.699219"/>
      <use xlink:href="#TimesNewRomanPSMT-20" x="216.699219"/>
      <use xlink:href="#TimesNewRomanPSMT-4f" x="241.699219"/>
      <use xlink:href="#TimesNewRomanPSMT-42" x="313.916016"/>
      <use xlink:href="#TimesNewRomanPSMT-54" x="380.615234"/>
     </g>
    </g>
    <g id="line2d_42">
     <path d="M 180.677146 165.468847 
L 188.590646 165.468847 
L 196.504146 165.468847 
" style="fill: none; stroke: #e377c2; stroke-width: 1.5; stroke-linecap: square"/>
    </g>
    <g id="text_21">
     <!-- Root HTO -->
     <g transform="translate(202.834946 168.238572) scale(0.079135 -0.079135)">
      <defs>
       <path id="TimesNewRomanPSMT-52" d="M 4325 0 
L 3194 0 
L 1759 1981 
Q 1600 1975 1500 1975 
Q 1459 1975 1412 1976 
Q 1366 1978 1316 1981 
L 1316 750 
Q 1316 350 1403 253 
Q 1522 116 1759 116 
L 1925 116 
L 1925 0 
L 109 0 
L 109 116 
L 269 116 
Q 538 116 653 291 
Q 719 388 719 750 
L 719 3488 
Q 719 3888 631 3984 
Q 509 4122 269 4122 
L 109 4122 
L 109 4238 
L 1653 4238 
Q 2328 4238 2648 4139 
Q 2969 4041 3192 3777 
Q 3416 3513 3416 3147 
Q 3416 2756 3161 2468 
Q 2906 2181 2372 2063 
L 3247 847 
Q 3547 428 3762 290 
Q 3978 153 4325 116 
L 4325 0 
z
M 1316 2178 
Q 1375 2178 1419 2176 
Q 1463 2175 1491 2175 
Q 2097 2175 2405 2437 
Q 2713 2700 2713 3106 
Q 2713 3503 2464 3751 
Q 2216 4000 1806 4000 
Q 1625 4000 1316 3941 
L 1316 2178 
z
" transform="scale(0.015625)"/>
       <path id="TimesNewRomanPSMT-74" d="M 1031 3803 
L 1031 2863 
L 1700 2863 
L 1700 2644 
L 1031 2644 
L 1031 788 
Q 1031 509 1111 412 
Q 1191 316 1316 316 
Q 1419 316 1516 380 
Q 1613 444 1666 569 
L 1788 569 
Q 1678 263 1478 108 
Q 1278 -47 1066 -47 
Q 922 -47 784 33 
Q 647 113 581 261 
Q 516 409 516 719 
L 516 2644 
L 63 2644 
L 63 2747 
Q 234 2816 414 2980 
Q 594 3144 734 3369 
Q 806 3488 934 3803 
L 1031 3803 
z
" transform="scale(0.015625)"/>
      </defs>
      <use xlink:href="#TimesNewRomanPSMT-52"/>
      <use xlink:href="#TimesNewRomanPSMT-6f" x="66.699219"/>
      <use xlink:href="#TimesNewRomanPSMT-6f" x="116.699219"/>
      <use xlink:href="#TimesNewRomanPSMT-74" x="166.699219"/>
      <use xlink:href="#TimesNewRomanPSMT-20" x="194.482422"/>
      <use xlink:href="#TimesNewRomanPSMT-48" x="219.482422"/>
      <use xlink:href="#TimesNewRomanPSMT-54" x="291.699219"/>
      <use xlink:href="#TimesNewRomanPSMT-4f" x="351.033203"/>
     </g>
    </g>
    <g id="line2d_43">
     <path d="M 180.677146 176.657794 
L 188.590646 176.657794 
L 196.504146 176.657794 
" style="fill: none; stroke: #7f7f7f; stroke-width: 1.5; stroke-linecap: square"/>
    </g>
    <g id="text_22">
     <!-- Root OBT -->
     <g transform="translate(202.834946 179.427519) scale(0.079135 -0.079135)">
      <use xlink:href="#TimesNewRomanPSMT-52"/>
      <use xlink:href="#TimesNewRomanPSMT-6f" x="66.699219"/>
      <use xlink:href="#TimesNewRomanPSMT-6f" x="116.699219"/>
      <use xlink:href="#TimesNewRomanPSMT-74" x="166.699219"/>
      <use xlink:href="#TimesNewRomanPSMT-20" x="194.482422"/>
      <use xlink:href="#TimesNewRomanPSMT-4f" x="219.482422"/>
      <use xlink:href="#TimesNewRomanPSMT-42" x="291.699219"/>
      <use xlink:href="#TimesNewRomanPSMT-54" x="358.398438"/>
     </g>
    </g>
   </g>
  </g>
 </g>
 <defs>
  <clipPath id="pca9cb73c22">
   <rect x="41.09024" y="3.00024" width="279.90952" height="185.242176"/>
  </clipPath>
 </defs>
</svg>
