<?xml version="1.0" encoding="utf-8" standalone="no"?>
<!DOCTYPE svg PUBLIC "-//W3C//DTD SVG 1.1//EN"
  "http://www.w3.org/Graphics/SVG/1.1/DTD/svg11.dtd">
<svg xmlns:xlink="http://www.w3.org/1999/xlink" width="432pt" height="288pt" viewBox="0 0 432 288" xmlns="http://www.w3.org/2000/svg" version="1.1">
 <metadata>
  <rdf:RDF xmlns:dc="http://purl.org/dc/elements/1.1/" xmlns:cc="http://creativecommons.org/ns#" xmlns:rdf="http://www.w3.org/1999/02/22-rdf-syntax-ns#">
   <cc:Work>
    <dc:type rdf:resource="http://purl.org/dc/dcmitype/StillImage"/>
    <dc:date>2024-05-04T15:27:38.794289</dc:date>
    <dc:format>image/svg+xml</dc:format>
    <dc:creator>
     <cc:Agent>
      <dc:title>Matplotlib v3.7.2, https://matplotlib.org/</dc:title>
     </cc:Agent>
    </dc:creator>
   </cc:Work>
  </rdf:RDF>
 </metadata>
 <defs>
  <style type="text/css">*{stroke-linejoin: round; stroke-linecap: butt}</style>
 </defs>
 <g id="figure_1">
  <g id="patch_1">
   <path d="M 0 288 
L 432 288 
L 432 0 
L 0 0 
z
" style="fill: #ffffff"/>
  </g>
  <g id="axes_1">
   <g id="patch_2">
    <path d="M 32.44524 128.486136 
L 223.59726 128.486136 
L 223.59726 16.916115 
L 32.44524 16.916115 
z
" style="fill: #ffffff"/>
   </g>
   <g id="matplotlib.axis_1">
    <g id="xtick_1">
     <g id="line2d_1">
      <defs>
       <path id="mcac5afacc8" d="M 0 0 
L 0 -3.5 
" style="stroke: #000000; stroke-width: 0.8"/>
      </defs>
      <g>
       <use xlink:href="#mcac5afacc8" x="41.133968" y="128.486136" style="stroke: #000000; stroke-width: 0.8"/>
      </g>
     </g>
    </g>
    <g id="xtick_2">
     <g id="line2d_2">
      <g>
       <use xlink:href="#mcac5afacc8" x="90.783844" y="128.486136" style="stroke: #000000; stroke-width: 0.8"/>
      </g>
     </g>
    </g>
    <g id="xtick_3">
     <g id="line2d_3">
      <g>
       <use xlink:href="#mcac5afacc8" x="140.433719" y="128.486136" style="stroke: #000000; stroke-width: 0.8"/>
      </g>
     </g>
    </g>
    <g id="xtick_4">
     <g id="line2d_4">
      <g>
       <use xlink:href="#mcac5afacc8" x="190.083594" y="128.486136" style="stroke: #000000; stroke-width: 0.8"/>
      </g>
     </g>
    </g>
    <g id="xtick_5">
     <g id="line2d_5">
      <defs>
       <path id="m6b996ef9ec" d="M 0 0 
L 0 -2 
" style="stroke: #000000; stroke-width: 0.6"/>
      </defs>
      <g>
       <use xlink:href="#m6b996ef9ec" x="53.546437" y="128.486136" style="stroke: #000000; stroke-width: 0.6"/>
      </g>
     </g>
    </g>
    <g id="xtick_6">
     <g id="line2d_6">
      <g>
       <use xlink:href="#m6b996ef9ec" x="65.958906" y="128.486136" style="stroke: #000000; stroke-width: 0.6"/>
      </g>
     </g>
    </g>
    <g id="xtick_7">
     <g id="line2d_7">
      <g>
       <use xlink:href="#m6b996ef9ec" x="78.371375" y="128.486136" style="stroke: #000000; stroke-width: 0.6"/>
      </g>
     </g>
    </g>
    <g id="xtick_8">
     <g id="line2d_8">
      <g>
       <use xlink:href="#m6b996ef9ec" x="103.196312" y="128.486136" style="stroke: #000000; stroke-width: 0.6"/>
      </g>
     </g>
    </g>
    <g id="xtick_9">
     <g id="line2d_9">
      <g>
       <use xlink:href="#m6b996ef9ec" x="115.608781" y="128.486136" style="stroke: #000000; stroke-width: 0.6"/>
      </g>
     </g>
    </g>
    <g id="xtick_10">
     <g id="line2d_10">
      <g>
       <use xlink:href="#m6b996ef9ec" x="128.02125" y="128.486136" style="stroke: #000000; stroke-width: 0.6"/>
      </g>
     </g>
    </g>
    <g id="xtick_11">
     <g id="line2d_11">
      <g>
       <use xlink:href="#m6b996ef9ec" x="152.846188" y="128.486136" style="stroke: #000000; stroke-width: 0.6"/>
      </g>
     </g>
    </g>
    <g id="xtick_12">
     <g id="line2d_12">
      <g>
       <use xlink:href="#m6b996ef9ec" x="165.258656" y="128.486136" style="stroke: #000000; stroke-width: 0.6"/>
      </g>
     </g>
    </g>
    <g id="xtick_13">
     <g id="line2d_13">
      <g>
       <use xlink:href="#m6b996ef9ec" x="177.671125" y="128.486136" style="stroke: #000000; stroke-width: 0.6"/>
      </g>
     </g>
    </g>
    <g id="xtick_14">
     <g id="line2d_14">
      <g>
       <use xlink:href="#m6b996ef9ec" x="202.496063" y="128.486136" style="stroke: #000000; stroke-width: 0.6"/>
      </g>
     </g>
    </g>
    <g id="xtick_15">
     <g id="line2d_15">
      <g>
       <use xlink:href="#m6b996ef9ec" x="214.908532" y="128.486136" style="stroke: #000000; stroke-width: 0.6"/>
      </g>
     </g>
    </g>
   </g>
   <g id="matplotlib.axis_2">
    <g id="ytick_1">
     <g id="line2d_16">
      <defs>
       <path id="mb4932ecef5" d="M 0 0 
L 3.5 0 
" style="stroke: #000000; stroke-width: 0.8"/>
      </defs>
      <g>
       <use xlink:href="#mb4932ecef5" x="32.44524" y="123.414771" style="stroke: #000000; stroke-width: 0.8"/>
      </g>
     </g>
     <g id="text_1">
      <!-- $\mathdefault{0.0}$ -->
      <g transform="translate(17.07024 126.713052) scale(0.095 -0.095)">
       <defs>
        <path id="TimesNewRomanPSMT-30" d="M 231 2094 
Q 231 2819 450 3342 
Q 669 3866 1031 4122 
Q 1313 4325 1613 4325 
Q 2100 4325 2488 3828 
Q 2972 3213 2972 2159 
Q 2972 1422 2759 906 
Q 2547 391 2217 158 
Q 1888 -75 1581 -75 
Q 975 -75 572 641 
Q 231 1244 231 2094 
z
M 844 2016 
Q 844 1141 1059 588 
Q 1238 122 1591 122 
Q 1759 122 1940 273 
Q 2122 425 2216 781 
Q 2359 1319 2359 2297 
Q 2359 3022 2209 3506 
Q 2097 3866 1919 4016 
Q 1791 4119 1609 4119 
Q 1397 4119 1231 3928 
Q 1006 3669 925 3112 
Q 844 2556 844 2016 
z
" transform="scale(0.015625)"/>
        <path id="TimesNewRomanPSMT-2e" d="M 800 606 
Q 947 606 1047 504 
Q 1147 403 1147 259 
Q 1147 116 1045 14 
Q 944 -88 800 -88 
Q 656 -88 554 14 
Q 453 116 453 259 
Q 453 406 554 506 
Q 656 606 800 606 
z
" transform="scale(0.015625)"/>
       </defs>
       <use xlink:href="#TimesNewRomanPSMT-30" transform="translate(0 0.421875)"/>
       <use xlink:href="#TimesNewRomanPSMT-2e" transform="translate(50 0.421875)"/>
       <use xlink:href="#TimesNewRomanPSMT-30" transform="translate(75 0.421875)"/>
      </g>
     </g>
    </g>
    <g id="ytick_2">
     <g id="line2d_17">
      <g>
       <use xlink:href="#mb4932ecef5" x="32.44524" y="79.765425" style="stroke: #000000; stroke-width: 0.8"/>
      </g>
     </g>
     <g id="text_2">
      <!-- $\mathdefault{0.5}$ -->
      <g transform="translate(17.07024 83.063706) scale(0.095 -0.095)">
       <defs>
        <path id="TimesNewRomanPSMT-35" d="M 2778 4238 
L 2534 3706 
L 1259 3706 
L 981 3138 
Q 1809 3016 2294 2522 
Q 2709 2097 2709 1522 
Q 2709 1188 2573 903 
Q 2438 619 2231 419 
Q 2025 219 1772 97 
Q 1413 -75 1034 -75 
Q 653 -75 479 54 
Q 306 184 306 341 
Q 306 428 378 495 
Q 450 563 559 563 
Q 641 563 702 538 
Q 763 513 909 409 
Q 1144 247 1384 247 
Q 1750 247 2026 523 
Q 2303 800 2303 1197 
Q 2303 1581 2056 1914 
Q 1809 2247 1375 2428 
Q 1034 2569 447 2591 
L 1259 4238 
L 2778 4238 
z
" transform="scale(0.015625)"/>
       </defs>
       <use xlink:href="#TimesNewRomanPSMT-30" transform="translate(0 0.421875)"/>
       <use xlink:href="#TimesNewRomanPSMT-2e" transform="translate(50 0.421875)"/>
       <use xlink:href="#TimesNewRomanPSMT-35" transform="translate(75 0.421875)"/>
      </g>
     </g>
    </g>
    <g id="ytick_3">
     <g id="line2d_18">
      <g>
       <use xlink:href="#mb4932ecef5" x="32.44524" y="36.116078" style="stroke: #000000; stroke-width: 0.8"/>
      </g>
     </g>
     <g id="text_3">
      <!-- $\mathdefault{1.0}$ -->
      <g transform="translate(17.07024 39.41436) scale(0.095 -0.095)">
       <defs>
        <path id="TimesNewRomanPSMT-31" d="M 750 3822 
L 1781 4325 
L 1884 4325 
L 1884 747 
Q 1884 391 1914 303 
Q 1944 216 2037 169 
Q 2131 122 2419 116 
L 2419 0 
L 825 0 
L 825 116 
Q 1125 122 1212 167 
Q 1300 213 1334 289 
Q 1369 366 1369 747 
L 1369 3034 
Q 1369 3497 1338 3628 
Q 1316 3728 1258 3775 
Q 1200 3822 1119 3822 
Q 1003 3822 797 3725 
L 750 3822 
z
" transform="scale(0.015625)"/>
       </defs>
       <use xlink:href="#TimesNewRomanPSMT-31" transform="translate(0 0.421875)"/>
       <use xlink:href="#TimesNewRomanPSMT-2e" transform="translate(50 0.421875)"/>
       <use xlink:href="#TimesNewRomanPSMT-30" transform="translate(75 0.421875)"/>
      </g>
     </g>
    </g>
    <g id="ytick_4">
     <g id="line2d_19">
      <defs>
       <path id="md6401e08a4" d="M 0 0 
L 2 0 
" style="stroke: #000000; stroke-width: 0.6"/>
      </defs>
      <g>
       <use xlink:href="#md6401e08a4" x="32.44524" y="114.684902" style="stroke: #000000; stroke-width: 0.6"/>
      </g>
     </g>
    </g>
    <g id="ytick_5">
     <g id="line2d_20">
      <g>
       <use xlink:href="#md6401e08a4" x="32.44524" y="105.955033" style="stroke: #000000; stroke-width: 0.6"/>
      </g>
     </g>
    </g>
    <g id="ytick_6">
     <g id="line2d_21">
      <g>
       <use xlink:href="#md6401e08a4" x="32.44524" y="97.225163" style="stroke: #000000; stroke-width: 0.6"/>
      </g>
     </g>
    </g>
    <g id="ytick_7">
     <g id="line2d_22">
      <g>
       <use xlink:href="#md6401e08a4" x="32.44524" y="88.495294" style="stroke: #000000; stroke-width: 0.6"/>
      </g>
     </g>
    </g>
    <g id="ytick_8">
     <g id="line2d_23">
      <g>
       <use xlink:href="#md6401e08a4" x="32.44524" y="71.035556" style="stroke: #000000; stroke-width: 0.6"/>
      </g>
     </g>
    </g>
    <g id="ytick_9">
     <g id="line2d_24">
      <g>
       <use xlink:href="#md6401e08a4" x="32.44524" y="62.305686" style="stroke: #000000; stroke-width: 0.6"/>
      </g>
     </g>
    </g>
    <g id="ytick_10">
     <g id="line2d_25">
      <g>
       <use xlink:href="#md6401e08a4" x="32.44524" y="53.575817" style="stroke: #000000; stroke-width: 0.6"/>
      </g>
     </g>
    </g>
    <g id="ytick_11">
     <g id="line2d_26">
      <g>
       <use xlink:href="#md6401e08a4" x="32.44524" y="44.845948" style="stroke: #000000; stroke-width: 0.6"/>
      </g>
     </g>
    </g>
    <g id="ytick_12">
     <g id="line2d_27">
      <g>
       <use xlink:href="#md6401e08a4" x="32.44524" y="27.386209" style="stroke: #000000; stroke-width: 0.6"/>
      </g>
     </g>
    </g>
    <g id="ytick_13">
     <g id="line2d_28">
      <g>
       <use xlink:href="#md6401e08a4" x="32.44524" y="18.65634" style="stroke: #000000; stroke-width: 0.6"/>
      </g>
     </g>
    </g>
    <g id="text_4">
     <!-- Tritium / ($\rm{Bq/m^{2}}$) -->
     <g transform="translate(10.98024 106.616125) rotate(-90) scale(0.095 -0.095)">
      <defs>
       <path id="TimesNewRomanPSMT-54" d="M 3703 4238 
L 3750 3244 
L 3631 3244 
Q 3597 3506 3538 3619 
Q 3441 3800 3280 3886 
Q 3119 3972 2856 3972 
L 2259 3972 
L 2259 734 
Q 2259 344 2344 247 
Q 2463 116 2709 116 
L 2856 116 
L 2856 0 
L 1059 0 
L 1059 116 
L 1209 116 
Q 1478 116 1591 278 
Q 1659 378 1659 734 
L 1659 3972 
L 1150 3972 
Q 853 3972 728 3928 
Q 566 3869 450 3700 
Q 334 3531 313 3244 
L 194 3244 
L 244 4238 
L 3703 4238 
z
" transform="scale(0.015625)"/>
       <path id="TimesNewRomanPSMT-72" d="M 1038 2947 
L 1038 2303 
Q 1397 2947 1775 2947 
Q 1947 2947 2059 2842 
Q 2172 2738 2172 2600 
Q 2172 2478 2090 2393 
Q 2009 2309 1897 2309 
Q 1788 2309 1652 2417 
Q 1516 2525 1450 2525 
Q 1394 2525 1328 2463 
Q 1188 2334 1038 2041 
L 1038 669 
Q 1038 431 1097 309 
Q 1138 225 1241 169 
Q 1344 113 1538 113 
L 1538 0 
L 72 0 
L 72 113 
Q 291 113 397 181 
Q 475 231 506 341 
Q 522 394 522 644 
L 522 1753 
Q 522 2253 501 2348 
Q 481 2444 426 2487 
Q 372 2531 291 2531 
Q 194 2531 72 2484 
L 41 2597 
L 906 2947 
L 1038 2947 
z
" transform="scale(0.015625)"/>
       <path id="TimesNewRomanPSMT-69" d="M 928 4444 
Q 1059 4444 1151 4351 
Q 1244 4259 1244 4128 
Q 1244 3997 1151 3903 
Q 1059 3809 928 3809 
Q 797 3809 703 3903 
Q 609 3997 609 4128 
Q 609 4259 701 4351 
Q 794 4444 928 4444 
z
M 1188 2947 
L 1188 647 
Q 1188 378 1227 289 
Q 1266 200 1342 156 
Q 1419 113 1622 113 
L 1622 0 
L 231 0 
L 231 113 
Q 441 113 512 153 
Q 584 194 626 287 
Q 669 381 669 647 
L 669 1750 
Q 669 2216 641 2353 
Q 619 2453 572 2492 
Q 525 2531 444 2531 
Q 356 2531 231 2484 
L 188 2597 
L 1050 2947 
L 1188 2947 
z
" transform="scale(0.015625)"/>
       <path id="TimesNewRomanPSMT-74" d="M 1031 3803 
L 1031 2863 
L 1700 2863 
L 1700 2644 
L 1031 2644 
L 1031 788 
Q 1031 509 1111 412 
Q 1191 316 1316 316 
Q 1419 316 1516 380 
Q 1613 444 1666 569 
L 1788 569 
Q 1678 263 1478 108 
Q 1278 -47 1066 -47 
Q 922 -47 784 33 
Q 647 113 581 261 
Q 516 409 516 719 
L 516 2644 
L 63 2644 
L 63 2747 
Q 234 2816 414 2980 
Q 594 3144 734 3369 
Q 806 3488 934 3803 
L 1031 3803 
z
" transform="scale(0.015625)"/>
       <path id="TimesNewRomanPSMT-75" d="M 2709 2863 
L 2709 1128 
Q 2709 631 2732 520 
Q 2756 409 2807 365 
Q 2859 322 2928 322 
Q 3025 322 3147 375 
L 3191 266 
L 2334 -88 
L 2194 -88 
L 2194 519 
Q 1825 119 1631 15 
Q 1438 -88 1222 -88 
Q 981 -88 804 51 
Q 628 191 559 409 
Q 491 628 491 1028 
L 491 2306 
Q 491 2509 447 2587 
Q 403 2666 317 2708 
Q 231 2750 6 2747 
L 6 2863 
L 1009 2863 
L 1009 947 
Q 1009 547 1148 422 
Q 1288 297 1484 297 
Q 1619 297 1789 381 
Q 1959 466 2194 703 
L 2194 2325 
Q 2194 2569 2105 2655 
Q 2016 2741 1734 2747 
L 1734 2863 
L 2709 2863 
z
" transform="scale(0.015625)"/>
       <path id="TimesNewRomanPSMT-6d" d="M 1050 2338 
Q 1363 2650 1419 2697 
Q 1559 2816 1721 2881 
Q 1884 2947 2044 2947 
Q 2313 2947 2506 2790 
Q 2700 2634 2766 2338 
Q 3088 2713 3309 2830 
Q 3531 2947 3766 2947 
Q 3994 2947 4170 2830 
Q 4347 2713 4450 2447 
Q 4519 2266 4519 1878 
L 4519 647 
Q 4519 378 4559 278 
Q 4591 209 4675 161 
Q 4759 113 4950 113 
L 4950 0 
L 3538 0 
L 3538 113 
L 3597 113 
Q 3781 113 3884 184 
Q 3956 234 3988 344 
Q 4000 397 4000 647 
L 4000 1878 
Q 4000 2228 3916 2372 
Q 3794 2572 3525 2572 
Q 3359 2572 3192 2489 
Q 3025 2406 2788 2181 
L 2781 2147 
L 2788 2013 
L 2788 647 
Q 2788 353 2820 281 
Q 2853 209 2943 161 
Q 3034 113 3253 113 
L 3253 0 
L 1806 0 
L 1806 113 
Q 2044 113 2133 169 
Q 2222 225 2256 338 
Q 2272 391 2272 647 
L 2272 1878 
Q 2272 2228 2169 2381 
Q 2031 2581 1784 2581 
Q 1616 2581 1450 2491 
Q 1191 2353 1050 2181 
L 1050 647 
Q 1050 366 1089 281 
Q 1128 197 1204 155 
Q 1281 113 1516 113 
L 1516 0 
L 100 0 
L 100 113 
Q 297 113 375 155 
Q 453 197 493 289 
Q 534 381 534 647 
L 534 1741 
Q 534 2213 506 2350 
Q 484 2453 437 2492 
Q 391 2531 309 2531 
Q 222 2531 100 2484 
L 53 2597 
L 916 2947 
L 1050 2947 
L 1050 2338 
z
" transform="scale(0.015625)"/>
       <path id="TimesNewRomanPSMT-20" transform="scale(0.015625)"/>
       <path id="TimesNewRomanPSMT-2f" d="M 1794 4444 
L 259 -88 
L 9 -88 
L 1544 4444 
L 1794 4444 
z
" transform="scale(0.015625)"/>
       <path id="TimesNewRomanPSMT-28" d="M 1988 -1253 
L 1988 -1369 
Q 1516 -1131 1200 -813 
Q 750 -359 506 256 
Q 263 872 263 1534 
Q 263 2503 741 3301 
Q 1219 4100 1988 4444 
L 1988 4313 
Q 1603 4100 1356 3731 
Q 1109 3363 987 2797 
Q 866 2231 866 1616 
Q 866 947 969 400 
Q 1050 -31 1165 -292 
Q 1281 -553 1476 -793 
Q 1672 -1034 1988 -1253 
z
" transform="scale(0.015625)"/>
       <path id="STIXGeneral-Regular-42" d="M 2701 2234 
L 2701 2227 
Q 3181 2150 3482 1875 
Q 3795 1594 3795 1139 
Q 3795 608 3379 304 
Q 2963 0 2266 0 
L 109 0 
L 109 122 
Q 486 134 604 246 
Q 723 358 723 723 
L 723 3520 
Q 723 3891 614 3990 
Q 506 4090 109 4115 
L 109 4237 
L 1901 4237 
Q 2726 4237 3152 3958 
Q 3578 3680 3578 3168 
Q 3578 2733 3315 2502 
Q 3130 2342 2701 2234 
z
M 1376 2342 
L 1965 2342 
Q 2925 2342 2925 3136 
Q 2925 3546 2640 3773 
Q 2355 4000 1792 4000 
L 1530 4000 
Q 1376 4000 1376 3795 
L 1376 2342 
z
M 1376 2086 
L 1376 525 
Q 1376 365 1462 301 
Q 1549 237 1773 237 
Q 2208 237 2413 285 
Q 2618 333 2816 512 
Q 3059 723 3059 1146 
Q 3059 1632 2758 1830 
Q 2688 1882 2617 1917 
Q 2547 1952 2492 1974 
Q 2438 1997 2348 2016 
Q 2259 2035 2211 2044 
Q 2163 2054 2041 2060 
Q 1920 2067 1862 2070 
Q 1805 2074 1635 2080 
Q 1466 2086 1376 2086 
z
" transform="scale(0.015625)"/>
       <path id="STIXGeneral-Regular-71" d="M 3123 -1389 
L 1613 -1389 
L 1613 -1280 
Q 1952 -1254 2067 -1158 
Q 2182 -1062 2182 -794 
L 2182 410 
Q 1747 -64 1178 -64 
Q 730 -64 442 320 
Q 154 704 154 1312 
Q 154 2003 560 2473 
Q 966 2944 1562 2944 
Q 1920 2944 2304 2720 
L 2650 2925 
L 2720 2925 
L 2720 -902 
Q 2720 -1107 2797 -1180 
Q 2874 -1254 3123 -1280 
L 3123 -1389 
z
M 2182 813 
L 2182 2131 
Q 2182 2758 1587 2758 
Q 1178 2758 941 2432 
Q 704 2106 704 1542 
Q 704 1210 803 925 
Q 902 640 1062 499 
Q 1254 326 1542 326 
Q 1882 326 2106 531 
Q 2182 602 2182 813 
z
" transform="scale(0.015625)"/>
       <path id="STIXGeneral-Regular-2f" d="M 1837 4326 
L 378 -90 
L -58 -90 
L 1408 4326 
L 1837 4326 
z
" transform="scale(0.015625)"/>
       <path id="STIXGeneral-Regular-6d" d="M 4960 0 
L 3565 0 
L 3565 96 
Q 3834 122 3907 208 
Q 3981 294 3981 576 
L 3981 1894 
Q 3981 2278 3869 2444 
Q 3757 2611 3488 2611 
Q 3264 2611 3107 2521 
Q 2950 2432 2803 2221 
L 2803 608 
Q 2803 301 2896 201 
Q 2989 102 3264 96 
L 3264 0 
L 1830 0 
L 1830 96 
Q 2112 115 2189 188 
Q 2266 262 2266 550 
L 2266 1901 
Q 2266 2611 1850 2611 
Q 1670 2611 1468 2531 
Q 1267 2451 1171 2336 
Q 1088 2240 1088 2227 
L 1088 448 
Q 1088 243 1177 176 
Q 1267 109 1523 96 
L 1523 0 
L 102 0 
L 102 96 
Q 371 102 460 195 
Q 550 288 550 563 
L 550 2150 
Q 550 2387 499 2480 
Q 448 2573 326 2573 
Q 230 2573 122 2547 
L 122 2656 
Q 557 2778 1011 2944 
L 1062 2925 
L 1062 2451 
L 1075 2451 
Q 1363 2752 1584 2848 
Q 1805 2944 2054 2944 
Q 2560 2944 2733 2406 
Q 3232 2944 3776 2944 
Q 4518 2944 4518 1792 
L 4518 493 
Q 4518 282 4582 202 
Q 4646 122 4794 109 
L 4960 96 
L 4960 0 
z
" transform="scale(0.015625)"/>
       <path id="STIXGeneral-Regular-32" d="M 3034 877 
L 2688 0 
L 186 0 
L 186 77 
L 1325 1286 
Q 1773 1754 1965 2144 
Q 2157 2534 2157 2950 
Q 2157 3379 1920 3616 
Q 1683 3853 1267 3853 
Q 922 3853 720 3673 
Q 518 3494 326 3021 
L 192 3053 
Q 301 3648 630 3987 
Q 960 4326 1523 4326 
Q 2054 4326 2380 4006 
Q 2707 3686 2707 3200 
Q 2707 2477 1888 1613 
L 832 486 
L 2330 486 
Q 2541 486 2665 569 
Q 2790 653 2944 915 
L 3034 877 
z
" transform="scale(0.015625)"/>
       <path id="TimesNewRomanPSMT-29" d="M 144 4313 
L 144 4444 
Q 619 4209 934 3891 
Q 1381 3434 1625 2820 
Q 1869 2206 1869 1541 
Q 1869 572 1392 -226 
Q 916 -1025 144 -1369 
L 144 -1253 
Q 528 -1038 776 -670 
Q 1025 -303 1145 264 
Q 1266 831 1266 1447 
Q 1266 2113 1163 2663 
Q 1084 3094 967 3353 
Q 850 3613 656 3853 
Q 463 4094 144 4313 
z
" transform="scale(0.015625)"/>
      </defs>
      <use xlink:href="#TimesNewRomanPSMT-54" transform="translate(0 0.684375)"/>
      <use xlink:href="#TimesNewRomanPSMT-72" transform="translate(61.083984 0.684375)"/>
      <use xlink:href="#TimesNewRomanPSMT-69" transform="translate(94.384766 0.684375)"/>
      <use xlink:href="#TimesNewRomanPSMT-74" transform="translate(122.167969 0.684375)"/>
      <use xlink:href="#TimesNewRomanPSMT-69" transform="translate(149.951172 0.684375)"/>
      <use xlink:href="#TimesNewRomanPSMT-75" transform="translate(177.734375 0.684375)"/>
      <use xlink:href="#TimesNewRomanPSMT-6d" transform="translate(227.734375 0.684375)"/>
      <use xlink:href="#TimesNewRomanPSMT-20" transform="translate(305.517578 0.684375)"/>
      <use xlink:href="#TimesNewRomanPSMT-2f" transform="translate(330.517578 0.684375)"/>
      <use xlink:href="#TimesNewRomanPSMT-20" transform="translate(358.300781 0.684375)"/>
      <use xlink:href="#TimesNewRomanPSMT-28" transform="translate(383.300781 0.684375)"/>
      <use xlink:href="#STIXGeneral-Regular-42" transform="translate(416.601562 0.684375)"/>
      <use xlink:href="#STIXGeneral-Regular-71" transform="translate(483.301559 0.684375)"/>
      <use xlink:href="#STIXGeneral-Regular-2f" transform="translate(533.301544 0.684375)"/>
      <use xlink:href="#STIXGeneral-Regular-6d" transform="translate(561.101532 0.684375)"/>
      <use xlink:href="#STIXGeneral-Regular-32" transform="translate(640.47652 36.684375) scale(0.7)"/>
      <use xlink:href="#TimesNewRomanPSMT-29" transform="translate(679.976509 0.684375)"/>
     </g>
    </g>
    <g id="text_5">
     <!-- $\times\mathdefault{10^{9}}\mathdefault{}$ -->
     <g transform="translate(32.44524 13.916115) scale(0.095 -0.095)">
      <defs>
       <path id="STIXGeneral-Regular-d7" d="M 3821 141 
L 3526 -160 
L 2048 1312 
L 570 -160 
L 275 134 
L 1747 1613 
L 275 3091 
L 576 3386 
L 2048 1914 
L 3526 3386 
L 3821 3098 
L 2349 1613 
L 3821 141 
z
" transform="scale(0.015625)"/>
       <path id="TimesNewRomanPSMT-39" d="M 338 -88 
L 338 28 
Q 744 34 1094 217 
Q 1444 400 1770 856 
Q 2097 1313 2225 1859 
Q 1734 1544 1338 1544 
Q 891 1544 572 1889 
Q 253 2234 253 2806 
Q 253 3363 572 3797 
Q 956 4325 1575 4325 
Q 2097 4325 2469 3894 
Q 2925 3359 2925 2575 
Q 2925 1869 2578 1258 
Q 2231 647 1613 244 
Q 1109 -88 516 -88 
L 338 -88 
z
M 2275 2091 
Q 2331 2497 2331 2741 
Q 2331 3044 2228 3395 
Q 2125 3747 1936 3934 
Q 1747 4122 1506 4122 
Q 1228 4122 1018 3872 
Q 809 3622 809 3128 
Q 809 2469 1088 2097 
Q 1291 1828 1588 1828 
Q 1731 1828 1928 1897 
Q 2125 1966 2275 2091 
z
" transform="scale(0.015625)"/>
      </defs>
      <use xlink:href="#STIXGeneral-Regular-d7" transform="translate(0 0.582813)"/>
      <use xlink:href="#TimesNewRomanPSMT-31" transform="translate(63.999985 0.582813)"/>
      <use xlink:href="#TimesNewRomanPSMT-30" transform="translate(113.999985 0.582813)"/>
      <use xlink:href="#TimesNewRomanPSMT-39" transform="translate(165.502797 60.695312) scale(0.7)"/>
     </g>
    </g>
   </g>
   <g id="line2d_29">
    <path d="M 41.133968 123.414771 
L 41.961466 123.414752 
L 42.375215 110.126765 
L 42.788964 22.218502 
L 43.202713 21.98748 
L 66.786404 21.987499 
L 67.200153 35.275485 
L 67.613902 123.183748 
L 68.027651 123.414771 
L 214.908532 123.414771 
L 214.908532 123.414771 
" clip-path="url(#pc8fe6273fc)" style="fill: none; stroke: #1f77b4; stroke-width: 1.5; stroke-linecap: square"/>
   </g>
   <g id="line2d_30">
    <path d="M 41.133968 123.414771 
L 41.961466 123.414753 
L 42.375215 110.737427 
L 42.788964 27.51013 
L 43.202713 27.294007 
L 65.958906 27.294007 
L 66.786404 24.143887 
L 67.200153 35.835922 
L 67.613902 123.184249 
L 68.027651 123.414771 
L 214.908532 123.414771 
L 214.908532 123.414771 
" clip-path="url(#pc8fe6273fc)" style="fill: none; stroke: #ff7f0e; stroke-width: 1.5; stroke-linecap: square"/>
   </g>
   <g id="patch_3">
    <path d="M 32.44524 128.486136 
L 32.44524 16.916115 
" style="fill: none; stroke: #000000; stroke-width: 0.8; stroke-linejoin: miter; stroke-linecap: square"/>
   </g>
   <g id="patch_4">
    <path d="M 223.59726 128.486136 
L 223.59726 16.916115 
" style="fill: none; stroke: #000000; stroke-width: 0.8; stroke-linejoin: miter; stroke-linecap: square"/>
   </g>
   <g id="patch_5">
    <path d="M 32.44524 128.486136 
L 223.59726 128.486136 
" style="fill: none; stroke: #000000; stroke-width: 0.8; stroke-linejoin: miter; stroke-linecap: square"/>
   </g>
   <g id="patch_6">
    <path d="M 32.44524 16.916115 
L 223.59726 16.916115 
" style="fill: none; stroke: #000000; stroke-width: 0.8; stroke-linejoin: miter; stroke-linecap: square"/>
   </g>
   <g id="text_6">
    <!-- (a) 1 km -->
    <g transform="translate(108.711609 10.916115) scale(0.114 -0.114)">
     <defs>
      <path id="TimesNewRomanPSMT-61" d="M 1822 413 
Q 1381 72 1269 19 
Q 1100 -59 909 -59 
Q 613 -59 420 144 
Q 228 347 228 678 
Q 228 888 322 1041 
Q 450 1253 767 1440 
Q 1084 1628 1822 1897 
L 1822 2009 
Q 1822 2438 1686 2597 
Q 1550 2756 1291 2756 
Q 1094 2756 978 2650 
Q 859 2544 859 2406 
L 866 2225 
Q 866 2081 792 2003 
Q 719 1925 600 1925 
Q 484 1925 411 2006 
Q 338 2088 338 2228 
Q 338 2497 613 2722 
Q 888 2947 1384 2947 
Q 1766 2947 2009 2819 
Q 2194 2722 2281 2516 
Q 2338 2381 2338 1966 
L 2338 994 
Q 2338 584 2353 492 
Q 2369 400 2405 369 
Q 2441 338 2488 338 
Q 2538 338 2575 359 
Q 2641 400 2828 588 
L 2828 413 
Q 2478 -56 2159 -56 
Q 2006 -56 1915 50 
Q 1825 156 1822 413 
z
M 1822 616 
L 1822 1706 
Q 1350 1519 1213 1441 
Q 966 1303 859 1153 
Q 753 1003 753 825 
Q 753 600 887 451 
Q 1022 303 1197 303 
Q 1434 303 1822 616 
z
" transform="scale(0.015625)"/>
      <path id="TimesNewRomanPSMT-6b" d="M 1047 4444 
L 1047 1597 
L 1775 2259 
Q 2006 2472 2044 2528 
Q 2069 2566 2069 2603 
Q 2069 2666 2017 2711 
Q 1966 2756 1847 2763 
L 1847 2863 
L 3091 2863 
L 3091 2763 
Q 2834 2756 2664 2684 
Q 2494 2613 2291 2428 
L 1556 1750 
L 2291 822 
Q 2597 438 2703 334 
Q 2853 188 2966 144 
Q 3044 113 3238 113 
L 3238 0 
L 1847 0 
L 1847 113 
Q 1966 116 2008 148 
Q 2050 181 2050 241 
Q 2050 313 1925 472 
L 1047 1594 
L 1047 644 
Q 1047 366 1086 278 
Q 1125 191 1197 153 
Q 1269 116 1509 113 
L 1509 0 
L 53 0 
L 53 113 
Q 272 113 381 166 
Q 447 200 481 272 
Q 528 375 528 628 
L 528 3234 
Q 528 3731 506 3842 
Q 484 3953 434 3995 
Q 384 4038 303 4038 
Q 238 4038 106 3984 
L 53 4094 
L 903 4444 
L 1047 4444 
z
" transform="scale(0.015625)"/>
     </defs>
     <use xlink:href="#TimesNewRomanPSMT-28"/>
     <use xlink:href="#TimesNewRomanPSMT-61" x="33.300781"/>
     <use xlink:href="#TimesNewRomanPSMT-29" x="77.685547"/>
     <use xlink:href="#TimesNewRomanPSMT-20" x="110.986328"/>
     <use xlink:href="#TimesNewRomanPSMT-31" x="135.986328"/>
     <use xlink:href="#TimesNewRomanPSMT-20" x="185.986328"/>
     <use xlink:href="#TimesNewRomanPSMT-6b" x="210.986328"/>
     <use xlink:href="#TimesNewRomanPSMT-6d" x="260.986328"/>
    </g>
   </g>
   <g id="legend_1">
    <g id="patch_7">
     <path d="M 168.99411 45.718782 
L 218.05781 45.718782 
Q 219.64051 45.718782 219.64051 44.136082 
L 219.64051 22.455565 
Q 219.64051 20.872865 218.05781 20.872865 
L 168.99411 20.872865 
Q 167.41141 20.872865 167.41141 22.455565 
L 167.41141 44.136082 
Q 167.41141 45.718782 168.99411 45.718782 
z
" style="fill: #ffffff; opacity: 0.8; stroke: #cccccc; stroke-linejoin: miter"/>
    </g>
    <g id="line2d_31">
     <path d="M 170.57681 26.901963 
L 178.49031 26.901963 
L 186.40381 26.901963 
" style="fill: none; stroke: #1f77b4; stroke-width: 1.5; stroke-linecap: square"/>
    </g>
    <g id="text_7">
     <!-- 无修正 -->
     <g transform="translate(192.73461 29.671688) scale(0.079135 -0.079135)">
      <defs>
       <path id="SimSun-65e0" d="M 2825 2900 
Q 2900 3825 2925 4575 
L 1575 4575 
Q 1250 4575 975 4500 
L 750 4725 
L 4775 4725 
L 5150 5100 
L 5675 4575 
L 3300 4575 
Q 3275 4025 3200 2900 
L 5000 2900 
L 5425 3325 
L 6000 2750 
L 3750 2750 
L 3750 250 
Q 3775 -75 4175 -50 
L 5200 -50 
Q 5500 -25 5550 237 
Q 5600 500 5625 1200 
L 5750 1200 
Q 5725 75 6125 75 
Q 5925 -400 5250 -350 
L 3925 -350 
Q 3400 -350 3400 75 
L 3400 2750 
L 3175 2750 
Q 3000 1500 2400 712 
Q 1800 -75 325 -625 
L 300 -525 
Q 1550 75 2087 837 
Q 2625 1600 2800 2750 
L 1150 2750 
Q 825 2750 550 2675 
L 325 2900 
L 2825 2900 
z
" transform="scale(0.015625)"/>
       <path id="SimSun-4fee" d="M 1975 3900 
L 2475 3650 
L 2300 3475 
L 2300 550 
L 1975 400 
Q 2000 875 2000 1150 
L 2000 3325 
Q 2000 3475 1975 3900 
z
M 3700 4125 
Q 3975 3650 4375 3325 
Q 4875 3775 5150 4125 
L 3700 4125 
z
M 3675 5275 
L 4175 5000 
L 3950 4875 
Q 3800 4575 3625 4275 
L 5175 4275 
L 5375 4500 
L 5750 4125 
L 5525 4025 
Q 5125 3575 4600 3125 
Q 4900 2875 5350 2725 
Q 5800 2575 6150 2600 
L 6150 2525 
Q 5775 2425 5725 2200 
Q 4900 2450 4375 2950 
Q 3550 2375 2500 2050 
L 2450 2125 
Q 3550 2600 4175 3150 
Q 3800 3600 3550 4125 
Q 3100 3475 2650 3075 
L 2575 3125 
Q 3000 3650 3262 4200 
Q 3525 4750 3675 5275 
z
M 4550 2550 
L 4925 2150 
L 4600 2100 
Q 3650 1425 2700 1125 
L 2675 1200 
Q 3225 1450 3737 1825 
Q 4250 2200 4550 2550 
z
M 5100 1850 
L 5500 1425 
L 5250 1400 
Q 4700 1025 4112 737 
Q 3525 450 2650 200 
L 2625 300 
Q 3300 550 3975 950 
Q 4650 1350 5100 1850 
z
M 5700 1125 
L 6100 675 
L 5825 650 
Q 4825 50 3937 -225 
Q 3050 -500 2175 -625 
L 2150 -525 
Q 3300 -300 4275 175 
Q 5250 650 5700 1125 
z
M 1400 3650 
L 1675 3475 
L 1500 3350 
L 1500 -475 
L 1175 -650 
Q 1200 -75 1200 100 
L 1200 3250 
Q 850 2650 325 2075 
L 250 2150 
Q 750 2900 1062 3637 
Q 1375 4375 1600 5250 
L 2100 4950 
L 1875 4800 
Q 1550 3975 1400 3650 
z
" transform="scale(0.015625)"/>
       <path id="SimSun-6b63" d="M 1600 2725 
Q 1600 2900 1575 3325 
L 2200 3025 
L 1950 2850 
L 1950 25 
L 3200 25 
L 3200 4500 
L 1675 4500 
Q 1350 4500 1075 4425 
L 850 4650 
L 5075 4650 
L 5450 5025 
L 5975 4500 
L 3550 4500 
L 3550 2525 
L 4775 2525 
L 5125 2875 
L 5625 2375 
L 3550 2375 
L 3550 25 
L 5075 25 
L 5475 425 
L 6025 -125 
L 1200 -125 
Q 875 -125 600 -200 
L 375 25 
L 1600 25 
L 1600 2725 
z
" transform="scale(0.015625)"/>
      </defs>
      <use xlink:href="#SimSun-65e0"/>
      <use xlink:href="#SimSun-4fee" x="100"/>
      <use xlink:href="#SimSun-6b63" x="200"/>
     </g>
    </g>
    <g id="line2d_32">
     <path d="M 170.57681 38.09091 
L 178.49031 38.09091 
L 186.40381 38.09091 
" style="fill: none; stroke: #ff7f0e; stroke-width: 1.5; stroke-linecap: square"/>
    </g>
    <g id="text_8">
     <!-- 湿沉积 -->
     <g transform="translate(192.73461 40.860635) scale(0.079135 -0.079135)">
      <defs>
       <path id="SimSun-6e7f" d="M 2800 4575 
L 2800 3825 
L 5075 3825 
L 5075 4575 
L 2800 4575 
z
M 2800 3675 
L 2800 2900 
L 5075 2900 
L 5075 3675 
L 2800 3675 
z
M 2450 4950 
L 2825 4725 
L 5025 4725 
L 5175 4975 
L 5575 4700 
L 5400 4550 
Q 5400 2875 5425 2625 
L 5075 2500 
L 5075 2750 
L 2800 2750 
L 2800 2525 
L 2450 2375 
Q 2475 2575 2475 3637 
Q 2475 4700 2450 4950 
z
M 3150 2625 
L 3700 2400 
L 3500 2225 
L 3500 -175 
L 4200 -175 
Q 4200 2175 4175 2625 
L 4700 2350 
L 4525 2200 
L 4525 650 
Q 5275 1525 5550 2200 
L 6000 1800 
Q 5775 1750 5400 1325 
Q 5000 900 4525 475 
L 4525 -175 
L 5375 -175 
L 5700 150 
L 6125 -325 
L 2300 -325 
Q 1975 -325 1700 -400 
L 1475 -175 
L 3175 -175 
Q 3175 2225 3150 2625 
z
M 1875 2025 
L 1950 2075 
Q 2500 1625 2675 1337 
Q 2850 1050 2850 900 
Q 2850 750 2750 600 
Q 2650 450 2600 450 
Q 2550 450 2525 575 
Q 2450 825 2325 1187 
Q 2200 1550 1875 2025 
z
M 2150 4050 
Q 1300 1525 1237 1175 
Q 1175 825 1162 400 
Q 1150 -25 1150 -200 
Q 1150 -300 1075 -300 
Q 1000 -300 825 -212 
Q 650 -125 650 75 
Q 650 250 725 475 
Q 825 775 825 925 
Q 825 1075 712 1162 
Q 600 1250 250 1350 
L 250 1450 
Q 675 1400 787 1425 
Q 900 1450 1037 1650 
Q 1175 1850 2050 4075 
L 2150 4050 
z
M 350 3650 
Q 1200 3275 1212 3037 
Q 1225 2800 1125 2687 
Q 1025 2575 1000 2575 
Q 925 2575 850 2800 
Q 725 3125 300 3575 
L 350 3650 
z
M 800 5050 
Q 1500 4700 1550 4575 
Q 1600 4450 1600 4375 
Q 1600 4250 1525 4137 
Q 1450 4025 1400 4025 
Q 1300 4025 1250 4225 
Q 1125 4525 750 4975 
L 800 5050 
z
" transform="scale(0.015625)"/>
       <path id="SimSun-6c89" d="M 5050 3600 
L 5375 4350 
L 2700 4350 
Q 2725 3850 2612 3687 
Q 2500 3525 2350 3525 
Q 2300 3525 2200 3550 
Q 2100 3575 2100 3625 
Q 2100 3675 2200 3775 
Q 2350 3950 2437 4137 
Q 2525 4325 2600 4800 
L 2700 4800 
L 2700 4500 
L 5350 4500 
L 5625 4800 
L 6050 4375 
Q 5800 4275 5637 4150 
Q 5475 4025 5125 3550 
L 5050 3600 
z
M 2975 3275 
L 3325 3075 
L 4375 3075 
L 4625 3325 
L 4975 2975 
L 4750 2800 
L 4750 225 
Q 4750 -25 4950 0 
L 5450 0 
Q 5625 0 5650 275 
Q 5675 550 5700 1100 
L 5800 1100 
Q 5825 675 5875 412 
Q 5925 150 6150 50 
Q 6025 -225 5887 -262 
Q 5750 -300 5625 -300 
L 4900 -300 
Q 4425 -325 4425 150 
L 4425 2925 
L 3325 2925 
Q 3325 1750 3187 1112 
Q 3050 475 2600 62 
Q 2150 -350 1375 -625 
L 1350 -525 
Q 2025 -175 2437 262 
Q 2850 700 2925 1412 
Q 3000 2125 2975 3275 
z
M 2050 3825 
Q 1375 1425 1287 1112 
Q 1200 800 1212 350 
Q 1225 -100 1250 -275 
Q 1250 -375 1125 -375 
Q 1025 -375 875 -325 
Q 725 -275 725 -100 
Q 725 25 800 275 
Q 875 525 875 675 
Q 875 850 762 950 
Q 650 1050 275 1150 
L 275 1250 
Q 725 1200 837 1212 
Q 950 1225 1087 1437 
Q 1225 1650 1950 3850 
L 2050 3825 
z
M 300 3675 
Q 1175 3225 1175 2937 
Q 1175 2650 1037 2550 
Q 900 2450 800 2800 
Q 675 3125 250 3600 
L 300 3675 
z
M 875 5050 
Q 1575 4700 1637 4525 
Q 1700 4350 1700 4275 
Q 1700 4150 1612 4050 
Q 1525 3950 1475 3950 
Q 1400 3950 1325 4200 
Q 1200 4525 825 4975 
L 875 5050 
z
" transform="scale(0.015625)"/>
       <path id="SimSun-79ef" d="M 3125 1750 
Q 3150 2475 3150 3225 
Q 3150 3975 3125 4725 
L 3500 4525 
L 5225 4525 
L 5475 4775 
L 5850 4400 
L 5600 4250 
Q 5600 2300 5625 1975 
L 5275 1850 
L 5275 2175 
L 3475 2175 
L 3475 1875 
L 3125 1750 
z
M 3475 4375 
L 3475 2325 
L 5275 2325 
L 5275 4375 
L 3475 4375 
z
M 3825 1700 
L 4300 1300 
L 4075 1225 
Q 3125 -75 2200 -550 
L 2175 -450 
Q 2800 50 3225 625 
Q 3650 1200 3825 1700 
z
M 4700 1600 
Q 5725 650 5850 362 
Q 5975 75 5975 -75 
Q 5975 -225 5900 -337 
Q 5825 -450 5775 -450 
Q 5725 -450 5650 -250 
Q 5525 75 5350 450 
Q 5175 825 4650 1525 
L 4700 1600 
z
M 1875 2575 
Q 1875 225 1900 -400 
L 1525 -625 
Q 1550 125 1550 2350 
Q 1025 1275 300 625 
L 250 700 
Q 625 1200 962 1862 
Q 1300 2525 1500 3200 
L 1125 3200 
Q 800 3200 525 3125 
L 300 3350 
L 1550 3350 
L 1550 4475 
Q 900 4375 525 4350 
L 525 4450 
Q 1075 4550 1525 4712 
Q 1975 4875 2375 5150 
L 2725 4700 
Q 2425 4700 1875 4550 
L 1875 3350 
L 2250 3350 
L 2550 3650 
L 2975 3200 
L 1875 3200 
L 1875 2675 
Q 2475 2400 2612 2212 
Q 2750 2025 2750 1925 
Q 2750 1800 2662 1675 
Q 2575 1550 2550 1550 
Q 2450 1550 2375 1800 
Q 2250 2175 1875 2575 
z
" transform="scale(0.015625)"/>
      </defs>
      <use xlink:href="#SimSun-6e7f"/>
      <use xlink:href="#SimSun-6c89" x="100"/>
      <use xlink:href="#SimSun-79ef" x="200"/>
     </g>
    </g>
   </g>
  </g>
  <g id="axes_2">
   <g id="patch_8">
    <path d="M 237.84774 128.486136 
L 428.99976 128.486136 
L 428.99976 16.916115 
L 237.84774 16.916115 
z
" style="fill: #ffffff"/>
   </g>
   <g id="matplotlib.axis_3">
    <g id="xtick_16">
     <g id="line2d_33">
      <g>
       <use xlink:href="#mcac5afacc8" x="246.536468" y="128.486136" style="stroke: #000000; stroke-width: 0.8"/>
      </g>
     </g>
    </g>
    <g id="xtick_17">
     <g id="line2d_34">
      <g>
       <use xlink:href="#mcac5afacc8" x="296.186344" y="128.486136" style="stroke: #000000; stroke-width: 0.8"/>
      </g>
     </g>
    </g>
    <g id="xtick_18">
     <g id="line2d_35">
      <g>
       <use xlink:href="#mcac5afacc8" x="345.836219" y="128.486136" style="stroke: #000000; stroke-width: 0.8"/>
      </g>
     </g>
    </g>
    <g id="xtick_19">
     <g id="line2d_36">
      <g>
       <use xlink:href="#mcac5afacc8" x="395.486094" y="128.486136" style="stroke: #000000; stroke-width: 0.8"/>
      </g>
     </g>
    </g>
    <g id="xtick_20">
     <g id="line2d_37">
      <g>
       <use xlink:href="#m6b996ef9ec" x="258.948937" y="128.486136" style="stroke: #000000; stroke-width: 0.6"/>
      </g>
     </g>
    </g>
    <g id="xtick_21">
     <g id="line2d_38">
      <g>
       <use xlink:href="#m6b996ef9ec" x="271.361406" y="128.486136" style="stroke: #000000; stroke-width: 0.6"/>
      </g>
     </g>
    </g>
    <g id="xtick_22">
     <g id="line2d_39">
      <g>
       <use xlink:href="#m6b996ef9ec" x="283.773875" y="128.486136" style="stroke: #000000; stroke-width: 0.6"/>
      </g>
     </g>
    </g>
    <g id="xtick_23">
     <g id="line2d_40">
      <g>
       <use xlink:href="#m6b996ef9ec" x="308.598812" y="128.486136" style="stroke: #000000; stroke-width: 0.6"/>
      </g>
     </g>
    </g>
    <g id="xtick_24">
     <g id="line2d_41">
      <g>
       <use xlink:href="#m6b996ef9ec" x="321.011281" y="128.486136" style="stroke: #000000; stroke-width: 0.6"/>
      </g>
     </g>
    </g>
    <g id="xtick_25">
     <g id="line2d_42">
      <g>
       <use xlink:href="#m6b996ef9ec" x="333.42375" y="128.486136" style="stroke: #000000; stroke-width: 0.6"/>
      </g>
     </g>
    </g>
    <g id="xtick_26">
     <g id="line2d_43">
      <g>
       <use xlink:href="#m6b996ef9ec" x="358.248688" y="128.486136" style="stroke: #000000; stroke-width: 0.6"/>
      </g>
     </g>
    </g>
    <g id="xtick_27">
     <g id="line2d_44">
      <g>
       <use xlink:href="#m6b996ef9ec" x="370.661156" y="128.486136" style="stroke: #000000; stroke-width: 0.6"/>
      </g>
     </g>
    </g>
    <g id="xtick_28">
     <g id="line2d_45">
      <g>
       <use xlink:href="#m6b996ef9ec" x="383.073625" y="128.486136" style="stroke: #000000; stroke-width: 0.6"/>
      </g>
     </g>
    </g>
    <g id="xtick_29">
     <g id="line2d_46">
      <g>
       <use xlink:href="#m6b996ef9ec" x="407.898563" y="128.486136" style="stroke: #000000; stroke-width: 0.6"/>
      </g>
     </g>
    </g>
    <g id="xtick_30">
     <g id="line2d_47">
      <g>
       <use xlink:href="#m6b996ef9ec" x="420.311032" y="128.486136" style="stroke: #000000; stroke-width: 0.6"/>
      </g>
     </g>
    </g>
   </g>
   <g id="matplotlib.axis_4">
    <g id="ytick_14">
     <g id="line2d_48">
      <g>
       <use xlink:href="#mb4932ecef5" x="237.84774" y="123.414771" style="stroke: #000000; stroke-width: 0.8"/>
      </g>
     </g>
     <g id="text_9">
      <!-- $\mathdefault{0}$ -->
      <g transform="translate(229.59774 126.713052) scale(0.095 -0.095)">
       <use xlink:href="#TimesNewRomanPSMT-30" transform="translate(0 0.421875)"/>
      </g>
     </g>
    </g>
    <g id="ytick_15">
     <g id="line2d_49">
      <g>
       <use xlink:href="#mb4932ecef5" x="237.84774" y="98.377514" style="stroke: #000000; stroke-width: 0.8"/>
      </g>
     </g>
     <g id="text_10">
      <!-- $\mathdefault{1}$ -->
      <g transform="translate(229.59774 101.675795) scale(0.095 -0.095)">
       <use xlink:href="#TimesNewRomanPSMT-31" transform="translate(0 0.421875)"/>
      </g>
     </g>
    </g>
    <g id="ytick_16">
     <g id="line2d_50">
      <g>
       <use xlink:href="#mb4932ecef5" x="237.84774" y="73.340257" style="stroke: #000000; stroke-width: 0.8"/>
      </g>
     </g>
     <g id="text_11">
      <!-- $\mathdefault{2}$ -->
      <g transform="translate(229.59774 76.638539) scale(0.095 -0.095)">
       <defs>
        <path id="TimesNewRomanPSMT-32" d="M 2934 816 
L 2638 0 
L 138 0 
L 138 116 
Q 1241 1122 1691 1759 
Q 2141 2397 2141 2925 
Q 2141 3328 1894 3587 
Q 1647 3847 1303 3847 
Q 991 3847 742 3664 
Q 494 3481 375 3128 
L 259 3128 
Q 338 3706 661 4015 
Q 984 4325 1469 4325 
Q 1984 4325 2329 3994 
Q 2675 3663 2675 3213 
Q 2675 2891 2525 2569 
Q 2294 2063 1775 1497 
Q 997 647 803 472 
L 1909 472 
Q 2247 472 2383 497 
Q 2519 522 2628 598 
Q 2738 675 2819 816 
L 2934 816 
z
" transform="scale(0.015625)"/>
       </defs>
       <use xlink:href="#TimesNewRomanPSMT-32" transform="translate(0 0.421875)"/>
      </g>
     </g>
    </g>
    <g id="ytick_17">
     <g id="line2d_51">
      <g>
       <use xlink:href="#mb4932ecef5" x="237.84774" y="48.303" style="stroke: #000000; stroke-width: 0.8"/>
      </g>
     </g>
     <g id="text_12">
      <!-- $\mathdefault{3}$ -->
      <g transform="translate(229.59774 51.601282) scale(0.095 -0.095)">
       <defs>
        <path id="TimesNewRomanPSMT-33" d="M 325 3431 
Q 506 3859 782 4092 
Q 1059 4325 1472 4325 
Q 1981 4325 2253 3994 
Q 2459 3747 2459 3466 
Q 2459 3003 1878 2509 
Q 2269 2356 2469 2072 
Q 2669 1788 2669 1403 
Q 2669 853 2319 450 
Q 1863 -75 997 -75 
Q 569 -75 414 31 
Q 259 138 259 259 
Q 259 350 332 419 
Q 406 488 509 488 
Q 588 488 669 463 
Q 722 447 909 348 
Q 1097 250 1169 231 
Q 1284 197 1416 197 
Q 1734 197 1970 444 
Q 2206 691 2206 1028 
Q 2206 1275 2097 1509 
Q 2016 1684 1919 1775 
Q 1784 1900 1550 2001 
Q 1316 2103 1072 2103 
L 972 2103 
L 972 2197 
Q 1219 2228 1467 2375 
Q 1716 2522 1828 2728 
Q 1941 2934 1941 3181 
Q 1941 3503 1739 3701 
Q 1538 3900 1238 3900 
Q 753 3900 428 3381 
L 325 3431 
z
" transform="scale(0.015625)"/>
       </defs>
       <use xlink:href="#TimesNewRomanPSMT-33" transform="translate(0 0.421875)"/>
      </g>
     </g>
    </g>
    <g id="ytick_18">
     <g id="line2d_52">
      <g>
       <use xlink:href="#mb4932ecef5" x="237.84774" y="23.265743" style="stroke: #000000; stroke-width: 0.8"/>
      </g>
     </g>
     <g id="text_13">
      <!-- $\mathdefault{4}$ -->
      <g transform="translate(229.59774 26.564025) scale(0.095 -0.095)">
       <defs>
        <path id="TimesNewRomanPSMT-34" d="M 2978 1563 
L 2978 1119 
L 2409 1119 
L 2409 0 
L 1894 0 
L 1894 1119 
L 100 1119 
L 100 1519 
L 2066 4325 
L 2409 4325 
L 2409 1563 
L 2978 1563 
z
M 1894 1563 
L 1894 3666 
L 406 1563 
L 1894 1563 
z
" transform="scale(0.015625)"/>
       </defs>
       <use xlink:href="#TimesNewRomanPSMT-34" transform="translate(0 0.421875)"/>
      </g>
     </g>
    </g>
    <g id="ytick_19">
     <g id="line2d_53">
      <g>
       <use xlink:href="#md6401e08a4" x="237.84774" y="128.422223" style="stroke: #000000; stroke-width: 0.6"/>
      </g>
     </g>
    </g>
    <g id="ytick_20">
     <g id="line2d_54">
      <g>
       <use xlink:href="#md6401e08a4" x="237.84774" y="118.40732" style="stroke: #000000; stroke-width: 0.6"/>
      </g>
     </g>
    </g>
    <g id="ytick_21">
     <g id="line2d_55">
      <g>
       <use xlink:href="#md6401e08a4" x="237.84774" y="113.399868" style="stroke: #000000; stroke-width: 0.6"/>
      </g>
     </g>
    </g>
    <g id="ytick_22">
     <g id="line2d_56">
      <g>
       <use xlink:href="#md6401e08a4" x="237.84774" y="108.392417" style="stroke: #000000; stroke-width: 0.6"/>
      </g>
     </g>
    </g>
    <g id="ytick_23">
     <g id="line2d_57">
      <g>
       <use xlink:href="#md6401e08a4" x="237.84774" y="103.384966" style="stroke: #000000; stroke-width: 0.6"/>
      </g>
     </g>
    </g>
    <g id="ytick_24">
     <g id="line2d_58">
      <g>
       <use xlink:href="#md6401e08a4" x="237.84774" y="93.370063" style="stroke: #000000; stroke-width: 0.6"/>
      </g>
     </g>
    </g>
    <g id="ytick_25">
     <g id="line2d_59">
      <g>
       <use xlink:href="#md6401e08a4" x="237.84774" y="88.362611" style="stroke: #000000; stroke-width: 0.6"/>
      </g>
     </g>
    </g>
    <g id="ytick_26">
     <g id="line2d_60">
      <g>
       <use xlink:href="#md6401e08a4" x="237.84774" y="83.35516" style="stroke: #000000; stroke-width: 0.6"/>
      </g>
     </g>
    </g>
    <g id="ytick_27">
     <g id="line2d_61">
      <g>
       <use xlink:href="#md6401e08a4" x="237.84774" y="78.347709" style="stroke: #000000; stroke-width: 0.6"/>
      </g>
     </g>
    </g>
    <g id="ytick_28">
     <g id="line2d_62">
      <g>
       <use xlink:href="#md6401e08a4" x="237.84774" y="68.332806" style="stroke: #000000; stroke-width: 0.6"/>
      </g>
     </g>
    </g>
    <g id="ytick_29">
     <g id="line2d_63">
      <g>
       <use xlink:href="#md6401e08a4" x="237.84774" y="63.325354" style="stroke: #000000; stroke-width: 0.6"/>
      </g>
     </g>
    </g>
    <g id="ytick_30">
     <g id="line2d_64">
      <g>
       <use xlink:href="#md6401e08a4" x="237.84774" y="58.317903" style="stroke: #000000; stroke-width: 0.6"/>
      </g>
     </g>
    </g>
    <g id="ytick_31">
     <g id="line2d_65">
      <g>
       <use xlink:href="#md6401e08a4" x="237.84774" y="53.310452" style="stroke: #000000; stroke-width: 0.6"/>
      </g>
     </g>
    </g>
    <g id="ytick_32">
     <g id="line2d_66">
      <g>
       <use xlink:href="#md6401e08a4" x="237.84774" y="43.295549" style="stroke: #000000; stroke-width: 0.6"/>
      </g>
     </g>
    </g>
    <g id="ytick_33">
     <g id="line2d_67">
      <g>
       <use xlink:href="#md6401e08a4" x="237.84774" y="38.288098" style="stroke: #000000; stroke-width: 0.6"/>
      </g>
     </g>
    </g>
    <g id="ytick_34">
     <g id="line2d_68">
      <g>
       <use xlink:href="#md6401e08a4" x="237.84774" y="33.280646" style="stroke: #000000; stroke-width: 0.6"/>
      </g>
     </g>
    </g>
    <g id="ytick_35">
     <g id="line2d_69">
      <g>
       <use xlink:href="#md6401e08a4" x="237.84774" y="28.273195" style="stroke: #000000; stroke-width: 0.6"/>
      </g>
     </g>
    </g>
    <g id="ytick_36">
     <g id="line2d_70">
      <g>
       <use xlink:href="#md6401e08a4" x="237.84774" y="18.258292" style="stroke: #000000; stroke-width: 0.6"/>
      </g>
     </g>
    </g>
    <g id="text_14">
     <!-- $\times\mathdefault{10^{8}}\mathdefault{}$ -->
     <g transform="translate(237.84774 13.916115) scale(0.095 -0.095)">
      <defs>
       <path id="TimesNewRomanPSMT-38" d="M 1228 2134 
Q 725 2547 579 2797 
Q 434 3047 434 3316 
Q 434 3728 753 4026 
Q 1072 4325 1600 4325 
Q 2113 4325 2425 4047 
Q 2738 3769 2738 3413 
Q 2738 3175 2569 2928 
Q 2400 2681 1866 2347 
Q 2416 1922 2594 1678 
Q 2831 1359 2831 1006 
Q 2831 559 2490 242 
Q 2150 -75 1597 -75 
Q 994 -75 656 303 
Q 388 606 388 966 
Q 388 1247 577 1523 
Q 766 1800 1228 2134 
z
M 1719 2469 
Q 2094 2806 2194 3001 
Q 2294 3197 2294 3444 
Q 2294 3772 2109 3958 
Q 1925 4144 1606 4144 
Q 1288 4144 1088 3959 
Q 888 3775 888 3528 
Q 888 3366 970 3203 
Q 1053 3041 1206 2894 
L 1719 2469 
z
M 1375 2016 
Q 1116 1797 991 1539 
Q 866 1281 866 981 
Q 866 578 1086 336 
Q 1306 94 1647 94 
Q 1984 94 2187 284 
Q 2391 475 2391 747 
Q 2391 972 2272 1150 
Q 2050 1481 1375 2016 
z
" transform="scale(0.015625)"/>
      </defs>
      <use xlink:href="#STIXGeneral-Regular-d7" transform="translate(0 0.582813)"/>
      <use xlink:href="#TimesNewRomanPSMT-31" transform="translate(63.999985 0.582813)"/>
      <use xlink:href="#TimesNewRomanPSMT-30" transform="translate(113.999985 0.582813)"/>
      <use xlink:href="#TimesNewRomanPSMT-38" transform="translate(165.502797 60.695312) scale(0.7)"/>
     </g>
    </g>
   </g>
   <g id="line2d_71">
    <path d="M 246.536468 123.414771 
L 249.432711 123.413464 
L 249.84646 123.140394 
L 250.260209 114.520419 
L 251.087707 28.793179 
L 251.501456 22.162631 
L 251.915205 21.988168 
L 274.257649 21.988786 
L 274.671398 22.261857 
L 275.085146 30.881832 
L 275.912644 116.609071 
L 276.326393 123.23962 
L 276.740142 123.414083 
L 343.767474 123.414771 
L 420.311032 123.414771 
L 420.311032 123.414771 
" clip-path="url(#p8dc5db0dbb)" style="fill: none; stroke: #1f77b4; stroke-width: 1.5; stroke-linecap: square"/>
   </g>
   <g id="line2d_72">
    <path d="M 246.536468 123.414771 
L 249.432711 123.413602 
L 249.84646 123.17296 
L 250.260209 115.68749 
L 251.087707 42.752037 
L 251.501456 37.229094 
L 251.915205 37.085905 
L 271.361406 37.085348 
L 273.8439 28.316395 
L 274.671398 25.474864 
L 275.085146 32.537393 
L 275.912644 116.648405 
L 276.326393 123.240341 
L 276.740142 123.414085 
L 343.767474 123.414771 
L 420.311032 123.414771 
L 420.311032 123.414771 
" clip-path="url(#p8dc5db0dbb)" style="fill: none; stroke: #ff7f0e; stroke-width: 1.5; stroke-linecap: square"/>
   </g>
   <g id="patch_9">
    <path d="M 237.84774 128.486136 
L 237.84774 16.916115 
" style="fill: none; stroke: #000000; stroke-width: 0.8; stroke-linejoin: miter; stroke-linecap: square"/>
   </g>
   <g id="patch_10">
    <path d="M 428.99976 128.486136 
L 428.99976 16.916115 
" style="fill: none; stroke: #000000; stroke-width: 0.8; stroke-linejoin: miter; stroke-linecap: square"/>
   </g>
   <g id="patch_11">
    <path d="M 237.84774 128.486136 
L 428.99976 128.486136 
" style="fill: none; stroke: #000000; stroke-width: 0.8; stroke-linejoin: miter; stroke-linecap: square"/>
   </g>
   <g id="patch_12">
    <path d="M 237.84774 16.916115 
L 428.99976 16.916115 
" style="fill: none; stroke: #000000; stroke-width: 0.8; stroke-linejoin: miter; stroke-linecap: square"/>
   </g>
   <g id="text_15">
    <!-- (b) 3 km -->
    <g transform="translate(313.794375 10.916115) scale(0.114 -0.114)">
     <defs>
      <path id="TimesNewRomanPSMT-62" d="M 984 2369 
Q 1400 2947 1881 2947 
Q 2322 2947 2650 2570 
Q 2978 2194 2978 1541 
Q 2978 778 2472 313 
Q 2038 -88 1503 -88 
Q 1253 -88 995 3 
Q 738 94 469 275 
L 469 3241 
Q 469 3728 445 3840 
Q 422 3953 372 3993 
Q 322 4034 247 4034 
Q 159 4034 28 3984 
L -16 4094 
L 844 4444 
L 984 4444 
L 984 2369 
z
M 984 2169 
L 984 456 
Q 1144 300 1314 220 
Q 1484 141 1663 141 
Q 1947 141 2192 453 
Q 2438 766 2438 1363 
Q 2438 1913 2192 2208 
Q 1947 2503 1634 2503 
Q 1469 2503 1303 2419 
Q 1178 2356 984 2169 
z
" transform="scale(0.015625)"/>
     </defs>
     <use xlink:href="#TimesNewRomanPSMT-28"/>
     <use xlink:href="#TimesNewRomanPSMT-62" x="33.300781"/>
     <use xlink:href="#TimesNewRomanPSMT-29" x="83.300781"/>
     <use xlink:href="#TimesNewRomanPSMT-20" x="116.601562"/>
     <use xlink:href="#TimesNewRomanPSMT-33" x="141.601562"/>
     <use xlink:href="#TimesNewRomanPSMT-20" x="191.601562"/>
     <use xlink:href="#TimesNewRomanPSMT-6b" x="216.601562"/>
     <use xlink:href="#TimesNewRomanPSMT-6d" x="266.601562"/>
    </g>
   </g>
   <g id="legend_2">
    <g id="patch_13">
     <path d="M 374.39661 45.718782 
L 423.46031 45.718782 
Q 425.04301 45.718782 425.04301 44.136082 
L 425.04301 22.455565 
Q 425.04301 20.872865 423.46031 20.872865 
L 374.39661 20.872865 
Q 372.81391 20.872865 372.81391 22.455565 
L 372.81391 44.136082 
Q 372.81391 45.718782 374.39661 45.718782 
z
" style="fill: #ffffff; opacity: 0.8; stroke: #cccccc; stroke-linejoin: miter"/>
    </g>
    <g id="line2d_73">
     <path d="M 375.97931 26.901963 
L 383.89281 26.901963 
L 391.80631 26.901963 
" style="fill: none; stroke: #1f77b4; stroke-width: 1.5; stroke-linecap: square"/>
    </g>
    <g id="text_16">
     <!-- 无修正 -->
     <g transform="translate(398.13711 29.671688) scale(0.079135 -0.079135)">
      <use xlink:href="#SimSun-65e0"/>
      <use xlink:href="#SimSun-4fee" x="100"/>
      <use xlink:href="#SimSun-6b63" x="200"/>
     </g>
    </g>
    <g id="line2d_74">
     <path d="M 375.97931 38.09091 
L 383.89281 38.09091 
L 391.80631 38.09091 
" style="fill: none; stroke: #ff7f0e; stroke-width: 1.5; stroke-linecap: square"/>
    </g>
    <g id="text_17">
     <!-- 湿沉积 -->
     <g transform="translate(398.13711 40.860635) scale(0.079135 -0.079135)">
      <use xlink:href="#SimSun-6e7f"/>
      <use xlink:href="#SimSun-6c89" x="100"/>
      <use xlink:href="#SimSun-79ef" x="200"/>
     </g>
    </g>
   </g>
  </g>
  <g id="axes_3">
   <g id="patch_14">
    <path d="M 32.44524 260.242416 
L 223.59726 260.242416 
L 223.59726 148.672396 
L 32.44524 148.672396 
z
" style="fill: #ffffff"/>
   </g>
   <g id="matplotlib.axis_5">
    <g id="xtick_31">
     <g id="line2d_75">
      <g>
       <use xlink:href="#mcac5afacc8" x="41.133968" y="260.242416" style="stroke: #000000; stroke-width: 0.8"/>
      </g>
     </g>
     <g id="text_18">
      <!-- $\mathdefault{0}$ -->
      <g transform="translate(38.758968 270.338979) scale(0.095 -0.095)">
       <use xlink:href="#TimesNewRomanPSMT-30" transform="translate(0 0.421875)"/>
      </g>
     </g>
    </g>
    <g id="xtick_32">
     <g id="line2d_76">
      <g>
       <use xlink:href="#mcac5afacc8" x="90.783844" y="260.242416" style="stroke: #000000; stroke-width: 0.8"/>
      </g>
     </g>
     <g id="text_19">
      <!-- $\mathdefault{2}$ -->
      <g transform="translate(88.408844 270.338979) scale(0.095 -0.095)">
       <use xlink:href="#TimesNewRomanPSMT-32" transform="translate(0 0.421875)"/>
      </g>
     </g>
    </g>
    <g id="xtick_33">
     <g id="line2d_77">
      <g>
       <use xlink:href="#mcac5afacc8" x="140.433719" y="260.242416" style="stroke: #000000; stroke-width: 0.8"/>
      </g>
     </g>
     <g id="text_20">
      <!-- $\mathdefault{4}$ -->
      <g transform="translate(138.058719 270.338979) scale(0.095 -0.095)">
       <use xlink:href="#TimesNewRomanPSMT-34" transform="translate(0 0.421875)"/>
      </g>
     </g>
    </g>
    <g id="xtick_34">
     <g id="line2d_78">
      <g>
       <use xlink:href="#mcac5afacc8" x="190.083594" y="260.242416" style="stroke: #000000; stroke-width: 0.8"/>
      </g>
     </g>
     <g id="text_21">
      <!-- $\mathdefault{6}$ -->
      <g transform="translate(187.708594 270.338979) scale(0.095 -0.095)">
       <defs>
        <path id="TimesNewRomanPSMT-36" d="M 2869 4325 
L 2869 4209 
Q 2456 4169 2195 4045 
Q 1934 3922 1679 3669 
Q 1425 3416 1258 3105 
Q 1091 2794 978 2366 
Q 1428 2675 1881 2675 
Q 2316 2675 2634 2325 
Q 2953 1975 2953 1425 
Q 2953 894 2631 456 
Q 2244 -75 1606 -75 
Q 1172 -75 869 213 
Q 275 772 275 1663 
Q 275 2231 503 2743 
Q 731 3256 1154 3653 
Q 1578 4050 1965 4187 
Q 2353 4325 2688 4325 
L 2869 4325 
z
M 925 2138 
Q 869 1716 869 1456 
Q 869 1156 980 804 
Q 1091 453 1309 247 
Q 1469 100 1697 100 
Q 1969 100 2183 356 
Q 2397 613 2397 1088 
Q 2397 1622 2184 2012 
Q 1972 2403 1581 2403 
Q 1463 2403 1327 2353 
Q 1191 2303 925 2138 
z
" transform="scale(0.015625)"/>
       </defs>
       <use xlink:href="#TimesNewRomanPSMT-36" transform="translate(0 0.421875)"/>
      </g>
     </g>
    </g>
    <g id="xtick_35">
     <g id="line2d_79">
      <g>
       <use xlink:href="#m6b996ef9ec" x="53.546437" y="260.242416" style="stroke: #000000; stroke-width: 0.6"/>
      </g>
     </g>
    </g>
    <g id="xtick_36">
     <g id="line2d_80">
      <g>
       <use xlink:href="#m6b996ef9ec" x="65.958906" y="260.242416" style="stroke: #000000; stroke-width: 0.6"/>
      </g>
     </g>
    </g>
    <g id="xtick_37">
     <g id="line2d_81">
      <g>
       <use xlink:href="#m6b996ef9ec" x="78.371375" y="260.242416" style="stroke: #000000; stroke-width: 0.6"/>
      </g>
     </g>
    </g>
    <g id="xtick_38">
     <g id="line2d_82">
      <g>
       <use xlink:href="#m6b996ef9ec" x="103.196312" y="260.242416" style="stroke: #000000; stroke-width: 0.6"/>
      </g>
     </g>
    </g>
    <g id="xtick_39">
     <g id="line2d_83">
      <g>
       <use xlink:href="#m6b996ef9ec" x="115.608781" y="260.242416" style="stroke: #000000; stroke-width: 0.6"/>
      </g>
     </g>
    </g>
    <g id="xtick_40">
     <g id="line2d_84">
      <g>
       <use xlink:href="#m6b996ef9ec" x="128.02125" y="260.242416" style="stroke: #000000; stroke-width: 0.6"/>
      </g>
     </g>
    </g>
    <g id="xtick_41">
     <g id="line2d_85">
      <g>
       <use xlink:href="#m6b996ef9ec" x="152.846188" y="260.242416" style="stroke: #000000; stroke-width: 0.6"/>
      </g>
     </g>
    </g>
    <g id="xtick_42">
     <g id="line2d_86">
      <g>
       <use xlink:href="#m6b996ef9ec" x="165.258656" y="260.242416" style="stroke: #000000; stroke-width: 0.6"/>
      </g>
     </g>
    </g>
    <g id="xtick_43">
     <g id="line2d_87">
      <g>
       <use xlink:href="#m6b996ef9ec" x="177.671125" y="260.242416" style="stroke: #000000; stroke-width: 0.6"/>
      </g>
     </g>
    </g>
    <g id="xtick_44">
     <g id="line2d_88">
      <g>
       <use xlink:href="#m6b996ef9ec" x="202.496063" y="260.242416" style="stroke: #000000; stroke-width: 0.6"/>
      </g>
     </g>
    </g>
    <g id="xtick_45">
     <g id="line2d_89">
      <g>
       <use xlink:href="#m6b996ef9ec" x="214.908532" y="260.242416" style="stroke: #000000; stroke-width: 0.6"/>
      </g>
     </g>
    </g>
    <g id="text_22">
     <!-- Time after release / h -->
     <g transform="translate(87.834766 282.967651) scale(0.095 -0.095)">
      <defs>
       <path id="TimesNewRomanPSMT-65" d="M 681 1784 
Q 678 1147 991 784 
Q 1303 422 1725 422 
Q 2006 422 2214 576 
Q 2422 731 2563 1106 
L 2659 1044 
Q 2594 616 2278 264 
Q 1963 -88 1488 -88 
Q 972 -88 605 314 
Q 238 716 238 1394 
Q 238 2128 614 2539 
Q 991 2950 1559 2950 
Q 2041 2950 2350 2633 
Q 2659 2316 2659 1784 
L 681 1784 
z
M 681 1966 
L 2006 1966 
Q 1991 2241 1941 2353 
Q 1863 2528 1708 2628 
Q 1553 2728 1384 2728 
Q 1125 2728 920 2526 
Q 716 2325 681 1966 
z
" transform="scale(0.015625)"/>
       <path id="TimesNewRomanPSMT-66" d="M 1319 2638 
L 1319 756 
Q 1319 356 1406 250 
Q 1522 113 1716 113 
L 1975 113 
L 1975 0 
L 266 0 
L 266 113 
L 394 113 
Q 519 113 622 175 
Q 725 238 764 344 
Q 803 450 803 756 
L 803 2638 
L 247 2638 
L 247 2863 
L 803 2863 
L 803 3050 
Q 803 3478 940 3775 
Q 1078 4072 1361 4255 
Q 1644 4438 1997 4438 
Q 2325 4438 2600 4225 
Q 2781 4084 2781 3909 
Q 2781 3816 2700 3733 
Q 2619 3650 2525 3650 
Q 2453 3650 2373 3701 
Q 2294 3753 2178 3923 
Q 2063 4094 1966 4153 
Q 1869 4213 1750 4213 
Q 1606 4213 1506 4136 
Q 1406 4059 1362 3898 
Q 1319 3738 1319 3069 
L 1319 2863 
L 2056 2863 
L 2056 2638 
L 1319 2638 
z
" transform="scale(0.015625)"/>
       <path id="TimesNewRomanPSMT-6c" d="M 1184 4444 
L 1184 647 
Q 1184 378 1223 290 
Q 1263 203 1344 158 
Q 1425 113 1647 113 
L 1647 0 
L 244 0 
L 244 113 
Q 441 113 512 153 
Q 584 194 625 287 
Q 666 381 666 647 
L 666 3247 
Q 666 3731 644 3842 
Q 622 3953 573 3993 
Q 525 4034 450 4034 
Q 369 4034 244 3984 
L 191 4094 
L 1044 4444 
L 1184 4444 
z
" transform="scale(0.015625)"/>
       <path id="TimesNewRomanPSMT-73" d="M 2050 2947 
L 2050 1972 
L 1947 1972 
Q 1828 2431 1642 2597 
Q 1456 2763 1169 2763 
Q 950 2763 815 2647 
Q 681 2531 681 2391 
Q 681 2216 781 2091 
Q 878 1963 1175 1819 
L 1631 1597 
Q 2266 1288 2266 781 
Q 2266 391 1970 151 
Q 1675 -88 1309 -88 
Q 1047 -88 709 6 
Q 606 38 541 38 
Q 469 38 428 -44 
L 325 -44 
L 325 978 
L 428 978 
Q 516 541 762 319 
Q 1009 97 1316 97 
Q 1531 97 1667 223 
Q 1803 350 1803 528 
Q 1803 744 1651 891 
Q 1500 1038 1047 1263 
Q 594 1488 453 1669 
Q 313 1847 313 2119 
Q 313 2472 555 2709 
Q 797 2947 1181 2947 
Q 1350 2947 1591 2875 
Q 1750 2828 1803 2828 
Q 1853 2828 1881 2850 
Q 1909 2872 1947 2947 
L 2050 2947 
z
" transform="scale(0.015625)"/>
       <path id="TimesNewRomanPSMT-68" d="M 1041 4444 
L 1041 2350 
Q 1388 2731 1591 2839 
Q 1794 2947 1997 2947 
Q 2241 2947 2416 2812 
Q 2591 2678 2675 2391 
Q 2734 2191 2734 1659 
L 2734 647 
Q 2734 375 2778 275 
Q 2809 200 2884 156 
Q 2959 113 3159 113 
L 3159 0 
L 1753 0 
L 1753 113 
L 1819 113 
Q 2019 113 2097 173 
Q 2175 234 2206 353 
Q 2216 403 2216 647 
L 2216 1659 
Q 2216 2128 2167 2275 
Q 2119 2422 2012 2495 
Q 1906 2569 1756 2569 
Q 1603 2569 1437 2487 
Q 1272 2406 1041 2159 
L 1041 647 
Q 1041 353 1073 281 
Q 1106 209 1195 161 
Q 1284 113 1503 113 
L 1503 0 
L 84 0 
L 84 113 
Q 275 113 384 172 
Q 447 203 484 290 
Q 522 378 522 647 
L 522 3238 
Q 522 3728 498 3840 
Q 475 3953 426 3993 
Q 378 4034 297 4034 
Q 231 4034 84 3984 
L 41 4094 
L 897 4444 
L 1041 4444 
z
" transform="scale(0.015625)"/>
      </defs>
      <use xlink:href="#TimesNewRomanPSMT-54"/>
      <use xlink:href="#TimesNewRomanPSMT-69" x="57.583984"/>
      <use xlink:href="#TimesNewRomanPSMT-6d" x="85.367188"/>
      <use xlink:href="#TimesNewRomanPSMT-65" x="163.150391"/>
      <use xlink:href="#TimesNewRomanPSMT-20" x="207.535156"/>
      <use xlink:href="#TimesNewRomanPSMT-61" x="232.535156"/>
      <use xlink:href="#TimesNewRomanPSMT-66" x="276.919922"/>
      <use xlink:href="#TimesNewRomanPSMT-74" x="310.220703"/>
      <use xlink:href="#TimesNewRomanPSMT-65" x="338.003906"/>
      <use xlink:href="#TimesNewRomanPSMT-72" x="382.388672"/>
      <use xlink:href="#TimesNewRomanPSMT-20" x="415.689453"/>
      <use xlink:href="#TimesNewRomanPSMT-72" x="440.689453"/>
      <use xlink:href="#TimesNewRomanPSMT-65" x="473.990234"/>
      <use xlink:href="#TimesNewRomanPSMT-6c" x="518.375"/>
      <use xlink:href="#TimesNewRomanPSMT-65" x="546.158203"/>
      <use xlink:href="#TimesNewRomanPSMT-61" x="590.542969"/>
      <use xlink:href="#TimesNewRomanPSMT-73" x="634.927734"/>
      <use xlink:href="#TimesNewRomanPSMT-65" x="673.84375"/>
      <use xlink:href="#TimesNewRomanPSMT-20" x="718.228516"/>
      <use xlink:href="#TimesNewRomanPSMT-2f" x="743.228516"/>
      <use xlink:href="#TimesNewRomanPSMT-20" x="771.011719"/>
      <use xlink:href="#TimesNewRomanPSMT-68" x="796.011719"/>
     </g>
    </g>
   </g>
   <g id="matplotlib.axis_6">
    <g id="ytick_37">
     <g id="line2d_90">
      <g>
       <use xlink:href="#mb4932ecef5" x="32.44524" y="255.171052" style="stroke: #000000; stroke-width: 0.8"/>
      </g>
     </g>
     <g id="text_23">
      <!-- $\mathdefault{0.0}$ -->
      <g transform="translate(17.07024 258.469333) scale(0.095 -0.095)">
       <use xlink:href="#TimesNewRomanPSMT-30" transform="translate(0 0.421875)"/>
       <use xlink:href="#TimesNewRomanPSMT-2e" transform="translate(50 0.421875)"/>
       <use xlink:href="#TimesNewRomanPSMT-30" transform="translate(75 0.421875)"/>
      </g>
     </g>
    </g>
    <g id="ytick_38">
     <g id="line2d_91">
      <g>
       <use xlink:href="#mb4932ecef5" x="32.44524" y="220.745425" style="stroke: #000000; stroke-width: 0.8"/>
      </g>
     </g>
     <g id="text_24">
      <!-- $\mathdefault{0.5}$ -->
      <g transform="translate(17.07024 224.043706) scale(0.095 -0.095)">
       <use xlink:href="#TimesNewRomanPSMT-30" transform="translate(0 0.421875)"/>
       <use xlink:href="#TimesNewRomanPSMT-2e" transform="translate(50 0.421875)"/>
       <use xlink:href="#TimesNewRomanPSMT-35" transform="translate(75 0.421875)"/>
      </g>
     </g>
    </g>
    <g id="ytick_39">
     <g id="line2d_92">
      <g>
       <use xlink:href="#mb4932ecef5" x="32.44524" y="186.319798" style="stroke: #000000; stroke-width: 0.8"/>
      </g>
     </g>
     <g id="text_25">
      <!-- $\mathdefault{1.0}$ -->
      <g transform="translate(17.07024 189.618079) scale(0.095 -0.095)">
       <use xlink:href="#TimesNewRomanPSMT-31" transform="translate(0 0.421875)"/>
       <use xlink:href="#TimesNewRomanPSMT-2e" transform="translate(50 0.421875)"/>
       <use xlink:href="#TimesNewRomanPSMT-30" transform="translate(75 0.421875)"/>
      </g>
     </g>
    </g>
    <g id="ytick_40">
     <g id="line2d_93">
      <g>
       <use xlink:href="#mb4932ecef5" x="32.44524" y="151.894171" style="stroke: #000000; stroke-width: 0.8"/>
      </g>
     </g>
     <g id="text_26">
      <!-- $\mathdefault{1.5}$ -->
      <g transform="translate(17.07024 155.192452) scale(0.095 -0.095)">
       <use xlink:href="#TimesNewRomanPSMT-31" transform="translate(0 0.421875)"/>
       <use xlink:href="#TimesNewRomanPSMT-2e" transform="translate(50 0.421875)"/>
       <use xlink:href="#TimesNewRomanPSMT-35" transform="translate(75 0.421875)"/>
      </g>
     </g>
    </g>
    <g id="ytick_41">
     <g id="line2d_94">
      <g>
       <use xlink:href="#md6401e08a4" x="32.44524" y="248.285926" style="stroke: #000000; stroke-width: 0.6"/>
      </g>
     </g>
    </g>
    <g id="ytick_42">
     <g id="line2d_95">
      <g>
       <use xlink:href="#md6401e08a4" x="32.44524" y="241.400801" style="stroke: #000000; stroke-width: 0.6"/>
      </g>
     </g>
    </g>
    <g id="ytick_43">
     <g id="line2d_96">
      <g>
       <use xlink:href="#md6401e08a4" x="32.44524" y="234.515675" style="stroke: #000000; stroke-width: 0.6"/>
      </g>
     </g>
    </g>
    <g id="ytick_44">
     <g id="line2d_97">
      <g>
       <use xlink:href="#md6401e08a4" x="32.44524" y="227.63055" style="stroke: #000000; stroke-width: 0.6"/>
      </g>
     </g>
    </g>
    <g id="ytick_45">
     <g id="line2d_98">
      <g>
       <use xlink:href="#md6401e08a4" x="32.44524" y="213.860299" style="stroke: #000000; stroke-width: 0.6"/>
      </g>
     </g>
    </g>
    <g id="ytick_46">
     <g id="line2d_99">
      <g>
       <use xlink:href="#md6401e08a4" x="32.44524" y="206.975174" style="stroke: #000000; stroke-width: 0.6"/>
      </g>
     </g>
    </g>
    <g id="ytick_47">
     <g id="line2d_100">
      <g>
       <use xlink:href="#md6401e08a4" x="32.44524" y="200.090048" style="stroke: #000000; stroke-width: 0.6"/>
      </g>
     </g>
    </g>
    <g id="ytick_48">
     <g id="line2d_101">
      <g>
       <use xlink:href="#md6401e08a4" x="32.44524" y="193.204923" style="stroke: #000000; stroke-width: 0.6"/>
      </g>
     </g>
    </g>
    <g id="ytick_49">
     <g id="line2d_102">
      <g>
       <use xlink:href="#md6401e08a4" x="32.44524" y="179.434672" style="stroke: #000000; stroke-width: 0.6"/>
      </g>
     </g>
    </g>
    <g id="ytick_50">
     <g id="line2d_103">
      <g>
       <use xlink:href="#md6401e08a4" x="32.44524" y="172.549547" style="stroke: #000000; stroke-width: 0.6"/>
      </g>
     </g>
    </g>
    <g id="ytick_51">
     <g id="line2d_104">
      <g>
       <use xlink:href="#md6401e08a4" x="32.44524" y="165.664421" style="stroke: #000000; stroke-width: 0.6"/>
      </g>
     </g>
    </g>
    <g id="ytick_52">
     <g id="line2d_105">
      <g>
       <use xlink:href="#md6401e08a4" x="32.44524" y="158.779296" style="stroke: #000000; stroke-width: 0.6"/>
      </g>
     </g>
    </g>
    <g id="text_27">
     <!-- Tritium / ($\rm{Bq/m^{2}}$) -->
     <g transform="translate(10.98024 238.372406) rotate(-90) scale(0.095 -0.095)">
      <use xlink:href="#TimesNewRomanPSMT-54" transform="translate(0 0.684375)"/>
      <use xlink:href="#TimesNewRomanPSMT-72" transform="translate(61.083984 0.684375)"/>
      <use xlink:href="#TimesNewRomanPSMT-69" transform="translate(94.384766 0.684375)"/>
      <use xlink:href="#TimesNewRomanPSMT-74" transform="translate(122.167969 0.684375)"/>
      <use xlink:href="#TimesNewRomanPSMT-69" transform="translate(149.951172 0.684375)"/>
      <use xlink:href="#TimesNewRomanPSMT-75" transform="translate(177.734375 0.684375)"/>
      <use xlink:href="#TimesNewRomanPSMT-6d" transform="translate(227.734375 0.684375)"/>
      <use xlink:href="#TimesNewRomanPSMT-20" transform="translate(305.517578 0.684375)"/>
      <use xlink:href="#TimesNewRomanPSMT-2f" transform="translate(330.517578 0.684375)"/>
      <use xlink:href="#TimesNewRomanPSMT-20" transform="translate(358.300781 0.684375)"/>
      <use xlink:href="#TimesNewRomanPSMT-28" transform="translate(383.300781 0.684375)"/>
      <use xlink:href="#STIXGeneral-Regular-42" transform="translate(416.601562 0.684375)"/>
      <use xlink:href="#STIXGeneral-Regular-71" transform="translate(483.301559 0.684375)"/>
      <use xlink:href="#STIXGeneral-Regular-2f" transform="translate(533.301544 0.684375)"/>
      <use xlink:href="#STIXGeneral-Regular-6d" transform="translate(561.101532 0.684375)"/>
      <use xlink:href="#STIXGeneral-Regular-32" transform="translate(640.47652 36.684375) scale(0.7)"/>
      <use xlink:href="#TimesNewRomanPSMT-29" transform="translate(679.976509 0.684375)"/>
     </g>
    </g>
    <g id="text_28">
     <!-- $\times\mathdefault{10^{8}}\mathdefault{}$ -->
     <g transform="translate(32.44524 145.672396) scale(0.095 -0.095)">
      <use xlink:href="#STIXGeneral-Regular-d7" transform="translate(0 0.582813)"/>
      <use xlink:href="#TimesNewRomanPSMT-31" transform="translate(63.999985 0.582813)"/>
      <use xlink:href="#TimesNewRomanPSMT-30" transform="translate(113.999985 0.582813)"/>
      <use xlink:href="#TimesNewRomanPSMT-38" transform="translate(165.502797 60.695312) scale(0.7)"/>
     </g>
    </g>
   </g>
   <g id="line2d_106">
    <path d="M 41.133968 255.171052 
L 52.30519 255.127423 
L 52.718939 254.913684 
L 53.132688 253.999781 
L 53.546437 251.032619 
L 53.960186 243.716283 
L 54.373935 230.013012 
L 55.615182 172.130264 
L 56.028931 161.331193 
L 56.44268 156.213037 
L 56.856429 154.370603 
L 57.270178 153.866933 
L 58.097676 153.745921 
L 76.716379 153.74944 
L 77.130128 153.787389 
L 77.543877 154.001128 
L 77.957626 154.915031 
L 78.371375 157.882193 
L 78.785124 165.198529 
L 79.198873 178.9018 
L 80.440119 236.784548 
L 80.853868 247.583619 
L 81.267617 252.701775 
L 81.681366 254.544209 
L 82.095115 255.047879 
L 82.922613 255.168891 
L 106.506304 255.171052 
L 214.908532 255.171052 
L 214.908532 255.171052 
" clip-path="url(#p69fc809728)" style="fill: none; stroke: #1f77b4; stroke-width: 1.5; stroke-linecap: square"/>
   </g>
   <g id="line2d_107">
    <path d="M 41.133968 255.171052 
L 52.30519 255.142618 
L 52.718939 255.00582 
L 53.132688 254.430064 
L 53.546437 252.590024 
L 53.960186 248.12389 
L 54.373935 239.889758 
L 55.615182 206.164783 
L 56.028931 200.072066 
L 56.44268 197.229621 
L 56.856429 196.22241 
L 57.270178 195.951378 
L 58.511425 195.886406 
L 65.958906 195.88631 
L 68.4414 189.864432 
L 70.923893 183.230879 
L 73.406387 175.92352 
L 75.888881 167.873955 
L 77.543877 162.317735 
L 77.957626 161.727455 
L 78.371375 163.193285 
L 78.785124 169.060419 
L 79.198873 181.454872 
L 80.440119 237.098817 
L 80.853868 247.691776 
L 81.267617 252.731755 
L 81.681366 254.550813 
L 82.095115 255.049024 
L 82.922613 255.168907 
L 106.506304 255.171052 
L 214.908532 255.171052 
L 214.908532 255.171052 
" clip-path="url(#p69fc809728)" style="fill: none; stroke: #ff7f0e; stroke-width: 1.5; stroke-linecap: square"/>
   </g>
   <g id="patch_15">
    <path d="M 32.44524 260.242416 
L 32.44524 148.672396 
" style="fill: none; stroke: #000000; stroke-width: 0.8; stroke-linejoin: miter; stroke-linecap: square"/>
   </g>
   <g id="patch_16">
    <path d="M 223.59726 260.242416 
L 223.59726 148.672396 
" style="fill: none; stroke: #000000; stroke-width: 0.8; stroke-linejoin: miter; stroke-linecap: square"/>
   </g>
   <g id="patch_17">
    <path d="M 32.44524 260.242416 
L 223.59726 260.242416 
" style="fill: none; stroke: #000000; stroke-width: 0.8; stroke-linejoin: miter; stroke-linecap: square"/>
   </g>
   <g id="patch_18">
    <path d="M 32.44524 148.672396 
L 223.59726 148.672396 
" style="fill: none; stroke: #000000; stroke-width: 0.8; stroke-linejoin: miter; stroke-linecap: square"/>
   </g>
   <g id="text_29">
    <!-- (c) 10 km -->
    <g transform="translate(105.861609 142.672396) scale(0.114 -0.114)">
     <defs>
      <path id="TimesNewRomanPSMT-63" d="M 2631 1088 
Q 2516 522 2178 217 
Q 1841 -88 1431 -88 
Q 944 -88 581 321 
Q 219 731 219 1428 
Q 219 2103 620 2525 
Q 1022 2947 1584 2947 
Q 2006 2947 2278 2723 
Q 2550 2500 2550 2259 
Q 2550 2141 2473 2067 
Q 2397 1994 2259 1994 
Q 2075 1994 1981 2113 
Q 1928 2178 1911 2362 
Q 1894 2547 1784 2644 
Q 1675 2738 1481 2738 
Q 1169 2738 978 2506 
Q 725 2200 725 1697 
Q 725 1184 976 792 
Q 1228 400 1656 400 
Q 1963 400 2206 609 
Q 2378 753 2541 1131 
L 2631 1088 
z
" transform="scale(0.015625)"/>
     </defs>
     <use xlink:href="#TimesNewRomanPSMT-28"/>
     <use xlink:href="#TimesNewRomanPSMT-63" x="33.300781"/>
     <use xlink:href="#TimesNewRomanPSMT-29" x="77.685547"/>
     <use xlink:href="#TimesNewRomanPSMT-20" x="110.986328"/>
     <use xlink:href="#TimesNewRomanPSMT-31" x="135.986328"/>
     <use xlink:href="#TimesNewRomanPSMT-30" x="185.986328"/>
     <use xlink:href="#TimesNewRomanPSMT-20" x="235.986328"/>
     <use xlink:href="#TimesNewRomanPSMT-6b" x="260.986328"/>
     <use xlink:href="#TimesNewRomanPSMT-6d" x="310.986328"/>
    </g>
   </g>
   <g id="legend_3">
    <g id="patch_19">
     <path d="M 168.99411 177.475063 
L 218.05781 177.475063 
Q 219.64051 177.475063 219.64051 175.892363 
L 219.64051 154.211846 
Q 219.64051 152.629146 218.05781 152.629146 
L 168.99411 152.629146 
Q 167.41141 152.629146 167.41141 154.211846 
L 167.41141 175.892363 
Q 167.41141 177.475063 168.99411 177.475063 
z
" style="fill: #ffffff; opacity: 0.8; stroke: #cccccc; stroke-linejoin: miter"/>
    </g>
    <g id="line2d_108">
     <path d="M 170.57681 158.658243 
L 178.49031 158.658243 
L 186.40381 158.658243 
" style="fill: none; stroke: #1f77b4; stroke-width: 1.5; stroke-linecap: square"/>
    </g>
    <g id="text_30">
     <!-- 无修正 -->
     <g transform="translate(192.73461 161.427968) scale(0.079135 -0.079135)">
      <use xlink:href="#SimSun-65e0"/>
      <use xlink:href="#SimSun-4fee" x="100"/>
      <use xlink:href="#SimSun-6b63" x="200"/>
     </g>
    </g>
    <g id="line2d_109">
     <path d="M 170.57681 169.84719 
L 178.49031 169.84719 
L 186.40381 169.84719 
" style="fill: none; stroke: #ff7f0e; stroke-width: 1.5; stroke-linecap: square"/>
    </g>
    <g id="text_31">
     <!-- 湿沉积 -->
     <g transform="translate(192.73461 172.616915) scale(0.079135 -0.079135)">
      <use xlink:href="#SimSun-6e7f"/>
      <use xlink:href="#SimSun-6c89" x="100"/>
      <use xlink:href="#SimSun-79ef" x="200"/>
     </g>
    </g>
   </g>
  </g>
  <g id="axes_4">
   <g id="patch_20">
    <path d="M 237.84774 260.242416 
L 428.99976 260.242416 
L 428.99976 148.672396 
L 237.84774 148.672396 
z
" style="fill: #ffffff"/>
   </g>
   <g id="matplotlib.axis_7">
    <g id="xtick_46">
     <g id="line2d_110">
      <g>
       <use xlink:href="#mcac5afacc8" x="246.536468" y="260.242416" style="stroke: #000000; stroke-width: 0.8"/>
      </g>
     </g>
     <g id="text_32">
      <!-- $\mathdefault{0}$ -->
      <g transform="translate(244.161468 270.338979) scale(0.095 -0.095)">
       <use xlink:href="#TimesNewRomanPSMT-30" transform="translate(0 0.421875)"/>
      </g>
     </g>
    </g>
    <g id="xtick_47">
     <g id="line2d_111">
      <g>
       <use xlink:href="#mcac5afacc8" x="296.186344" y="260.242416" style="stroke: #000000; stroke-width: 0.8"/>
      </g>
     </g>
     <g id="text_33">
      <!-- $\mathdefault{2}$ -->
      <g transform="translate(293.811344 270.338979) scale(0.095 -0.095)">
       <use xlink:href="#TimesNewRomanPSMT-32" transform="translate(0 0.421875)"/>
      </g>
     </g>
    </g>
    <g id="xtick_48">
     <g id="line2d_112">
      <g>
       <use xlink:href="#mcac5afacc8" x="345.836219" y="260.242416" style="stroke: #000000; stroke-width: 0.8"/>
      </g>
     </g>
     <g id="text_34">
      <!-- $\mathdefault{4}$ -->
      <g transform="translate(343.461219 270.338979) scale(0.095 -0.095)">
       <use xlink:href="#TimesNewRomanPSMT-34" transform="translate(0 0.421875)"/>
      </g>
     </g>
    </g>
    <g id="xtick_49">
     <g id="line2d_113">
      <g>
       <use xlink:href="#mcac5afacc8" x="395.486094" y="260.242416" style="stroke: #000000; stroke-width: 0.8"/>
      </g>
     </g>
     <g id="text_35">
      <!-- $\mathdefault{6}$ -->
      <g transform="translate(393.111094 270.338979) scale(0.095 -0.095)">
       <use xlink:href="#TimesNewRomanPSMT-36" transform="translate(0 0.421875)"/>
      </g>
     </g>
    </g>
    <g id="xtick_50">
     <g id="line2d_114">
      <g>
       <use xlink:href="#m6b996ef9ec" x="258.948937" y="260.242416" style="stroke: #000000; stroke-width: 0.6"/>
      </g>
     </g>
    </g>
    <g id="xtick_51">
     <g id="line2d_115">
      <g>
       <use xlink:href="#m6b996ef9ec" x="271.361406" y="260.242416" style="stroke: #000000; stroke-width: 0.6"/>
      </g>
     </g>
    </g>
    <g id="xtick_52">
     <g id="line2d_116">
      <g>
       <use xlink:href="#m6b996ef9ec" x="283.773875" y="260.242416" style="stroke: #000000; stroke-width: 0.6"/>
      </g>
     </g>
    </g>
    <g id="xtick_53">
     <g id="line2d_117">
      <g>
       <use xlink:href="#m6b996ef9ec" x="308.598812" y="260.242416" style="stroke: #000000; stroke-width: 0.6"/>
      </g>
     </g>
    </g>
    <g id="xtick_54">
     <g id="line2d_118">
      <g>
       <use xlink:href="#m6b996ef9ec" x="321.011281" y="260.242416" style="stroke: #000000; stroke-width: 0.6"/>
      </g>
     </g>
    </g>
    <g id="xtick_55">
     <g id="line2d_119">
      <g>
       <use xlink:href="#m6b996ef9ec" x="333.42375" y="260.242416" style="stroke: #000000; stroke-width: 0.6"/>
      </g>
     </g>
    </g>
    <g id="xtick_56">
     <g id="line2d_120">
      <g>
       <use xlink:href="#m6b996ef9ec" x="358.248688" y="260.242416" style="stroke: #000000; stroke-width: 0.6"/>
      </g>
     </g>
    </g>
    <g id="xtick_57">
     <g id="line2d_121">
      <g>
       <use xlink:href="#m6b996ef9ec" x="370.661156" y="260.242416" style="stroke: #000000; stroke-width: 0.6"/>
      </g>
     </g>
    </g>
    <g id="xtick_58">
     <g id="line2d_122">
      <g>
       <use xlink:href="#m6b996ef9ec" x="383.073625" y="260.242416" style="stroke: #000000; stroke-width: 0.6"/>
      </g>
     </g>
    </g>
    <g id="xtick_59">
     <g id="line2d_123">
      <g>
       <use xlink:href="#m6b996ef9ec" x="407.898563" y="260.242416" style="stroke: #000000; stroke-width: 0.6"/>
      </g>
     </g>
    </g>
    <g id="xtick_60">
     <g id="line2d_124">
      <g>
       <use xlink:href="#m6b996ef9ec" x="420.311032" y="260.242416" style="stroke: #000000; stroke-width: 0.6"/>
      </g>
     </g>
    </g>
    <g id="text_36">
     <!-- Time after release / h -->
     <g transform="translate(293.237266 282.967651) scale(0.095 -0.095)">
      <use xlink:href="#TimesNewRomanPSMT-54"/>
      <use xlink:href="#TimesNewRomanPSMT-69" x="57.583984"/>
      <use xlink:href="#TimesNewRomanPSMT-6d" x="85.367188"/>
      <use xlink:href="#TimesNewRomanPSMT-65" x="163.150391"/>
      <use xlink:href="#TimesNewRomanPSMT-20" x="207.535156"/>
      <use xlink:href="#TimesNewRomanPSMT-61" x="232.535156"/>
      <use xlink:href="#TimesNewRomanPSMT-66" x="276.919922"/>
      <use xlink:href="#TimesNewRomanPSMT-74" x="310.220703"/>
      <use xlink:href="#TimesNewRomanPSMT-65" x="338.003906"/>
      <use xlink:href="#TimesNewRomanPSMT-72" x="382.388672"/>
      <use xlink:href="#TimesNewRomanPSMT-20" x="415.689453"/>
      <use xlink:href="#TimesNewRomanPSMT-72" x="440.689453"/>
      <use xlink:href="#TimesNewRomanPSMT-65" x="473.990234"/>
      <use xlink:href="#TimesNewRomanPSMT-6c" x="518.375"/>
      <use xlink:href="#TimesNewRomanPSMT-65" x="546.158203"/>
      <use xlink:href="#TimesNewRomanPSMT-61" x="590.542969"/>
      <use xlink:href="#TimesNewRomanPSMT-73" x="634.927734"/>
      <use xlink:href="#TimesNewRomanPSMT-65" x="673.84375"/>
      <use xlink:href="#TimesNewRomanPSMT-20" x="718.228516"/>
      <use xlink:href="#TimesNewRomanPSMT-2f" x="743.228516"/>
      <use xlink:href="#TimesNewRomanPSMT-20" x="771.011719"/>
      <use xlink:href="#TimesNewRomanPSMT-68" x="796.011719"/>
     </g>
    </g>
   </g>
   <g id="matplotlib.axis_8">
    <g id="ytick_53">
     <g id="line2d_125">
      <g>
       <use xlink:href="#mb4932ecef5" x="237.84774" y="255.171052" style="stroke: #000000; stroke-width: 0.8"/>
      </g>
     </g>
     <g id="text_37">
      <!-- $\mathdefault{0}$ -->
      <g transform="translate(229.59774 258.469333) scale(0.095 -0.095)">
       <use xlink:href="#TimesNewRomanPSMT-30" transform="translate(0 0.421875)"/>
      </g>
     </g>
    </g>
    <g id="ytick_54">
     <g id="line2d_126">
      <g>
       <use xlink:href="#mb4932ecef5" x="237.84774" y="225.628041" style="stroke: #000000; stroke-width: 0.8"/>
      </g>
     </g>
     <g id="text_38">
      <!-- $\mathdefault{2}$ -->
      <g transform="translate(229.59774 228.926323) scale(0.095 -0.095)">
       <use xlink:href="#TimesNewRomanPSMT-32" transform="translate(0 0.421875)"/>
      </g>
     </g>
    </g>
    <g id="ytick_55">
     <g id="line2d_127">
      <g>
       <use xlink:href="#mb4932ecef5" x="237.84774" y="196.085031" style="stroke: #000000; stroke-width: 0.8"/>
      </g>
     </g>
     <g id="text_39">
      <!-- $\mathdefault{4}$ -->
      <g transform="translate(229.59774 199.383312) scale(0.095 -0.095)">
       <use xlink:href="#TimesNewRomanPSMT-34" transform="translate(0 0.421875)"/>
      </g>
     </g>
    </g>
    <g id="ytick_56">
     <g id="line2d_128">
      <g>
       <use xlink:href="#mb4932ecef5" x="237.84774" y="166.542021" style="stroke: #000000; stroke-width: 0.8"/>
      </g>
     </g>
     <g id="text_40">
      <!-- $\mathdefault{6}$ -->
      <g transform="translate(229.59774 169.840302) scale(0.095 -0.095)">
       <use xlink:href="#TimesNewRomanPSMT-36" transform="translate(0 0.421875)"/>
      </g>
     </g>
    </g>
    <g id="ytick_57">
     <g id="line2d_129">
      <g>
       <use xlink:href="#md6401e08a4" x="237.84774" y="247.785299" style="stroke: #000000; stroke-width: 0.6"/>
      </g>
     </g>
    </g>
    <g id="ytick_58">
     <g id="line2d_130">
      <g>
       <use xlink:href="#md6401e08a4" x="237.84774" y="240.399547" style="stroke: #000000; stroke-width: 0.6"/>
      </g>
     </g>
    </g>
    <g id="ytick_59">
     <g id="line2d_131">
      <g>
       <use xlink:href="#md6401e08a4" x="237.84774" y="233.013794" style="stroke: #000000; stroke-width: 0.6"/>
      </g>
     </g>
    </g>
    <g id="ytick_60">
     <g id="line2d_132">
      <g>
       <use xlink:href="#md6401e08a4" x="237.84774" y="218.242289" style="stroke: #000000; stroke-width: 0.6"/>
      </g>
     </g>
    </g>
    <g id="ytick_61">
     <g id="line2d_133">
      <g>
       <use xlink:href="#md6401e08a4" x="237.84774" y="210.856536" style="stroke: #000000; stroke-width: 0.6"/>
      </g>
     </g>
    </g>
    <g id="ytick_62">
     <g id="line2d_134">
      <g>
       <use xlink:href="#md6401e08a4" x="237.84774" y="203.470784" style="stroke: #000000; stroke-width: 0.6"/>
      </g>
     </g>
    </g>
    <g id="ytick_63">
     <g id="line2d_135">
      <g>
       <use xlink:href="#md6401e08a4" x="237.84774" y="188.699279" style="stroke: #000000; stroke-width: 0.6"/>
      </g>
     </g>
    </g>
    <g id="ytick_64">
     <g id="line2d_136">
      <g>
       <use xlink:href="#md6401e08a4" x="237.84774" y="181.313526" style="stroke: #000000; stroke-width: 0.6"/>
      </g>
     </g>
    </g>
    <g id="ytick_65">
     <g id="line2d_137">
      <g>
       <use xlink:href="#md6401e08a4" x="237.84774" y="173.927774" style="stroke: #000000; stroke-width: 0.6"/>
      </g>
     </g>
    </g>
    <g id="ytick_66">
     <g id="line2d_138">
      <g>
       <use xlink:href="#md6401e08a4" x="237.84774" y="159.156268" style="stroke: #000000; stroke-width: 0.6"/>
      </g>
     </g>
    </g>
    <g id="ytick_67">
     <g id="line2d_139">
      <g>
       <use xlink:href="#md6401e08a4" x="237.84774" y="151.770516" style="stroke: #000000; stroke-width: 0.6"/>
      </g>
     </g>
    </g>
    <g id="text_41">
     <!-- $\times\mathdefault{10^{7}}\mathdefault{}$ -->
     <g transform="translate(237.84774 145.672396) scale(0.095 -0.095)">
      <defs>
       <path id="TimesNewRomanPSMT-37" d="M 644 4238 
L 2916 4238 
L 2916 4119 
L 1503 -88 
L 1153 -88 
L 2419 3728 
L 1253 3728 
Q 900 3728 750 3644 
Q 488 3500 328 3200 
L 238 3234 
L 644 4238 
z
" transform="scale(0.015625)"/>
      </defs>
      <use xlink:href="#STIXGeneral-Regular-d7" transform="translate(0 0.534375)"/>
      <use xlink:href="#TimesNewRomanPSMT-31" transform="translate(63.999985 0.534375)"/>
      <use xlink:href="#TimesNewRomanPSMT-30" transform="translate(113.999985 0.534375)"/>
      <use xlink:href="#TimesNewRomanPSMT-37" transform="translate(165.502797 60.646875) scale(0.7)"/>
     </g>
    </g>
   </g>
   <g id="line2d_140">
    <path d="M 246.536468 255.171052 
L 282.532628 255.109918 
L 283.360126 254.857161 
L 283.773875 254.518768 
L 284.187624 253.890538 
L 284.601373 252.794545 
L 285.015122 250.997776 
L 285.428871 248.229744 
L 285.842619 244.222505 
L 286.256368 238.77102 
L 287.083866 223.429632 
L 289.152611 176.349357 
L 289.980109 164.229167 
L 290.393858 160.356652 
L 290.807607 157.698264 
L 291.221356 155.983363 
L 291.635105 154.943792 
L 292.048854 154.351598 
L 292.462603 154.034592 
L 293.290101 153.799749 
L 294.945097 153.744785 
L 307.357565 153.804894 
L 308.185063 154.057651 
L 308.598812 154.396044 
L 309.012561 155.024273 
L 309.42631 156.120267 
L 309.840059 157.917035 
L 310.253808 160.685068 
L 310.667557 164.692307 
L 311.081306 170.143792 
L 311.908804 185.48518 
L 313.977549 232.565454 
L 314.805047 244.685645 
L 315.218796 248.55816 
L 315.632545 251.216548 
L 316.046294 252.931449 
L 316.460043 253.97102 
L 316.873792 254.563214 
L 317.287541 254.880219 
L 318.115038 255.115063 
L 319.770034 255.170027 
L 385.969868 255.171052 
L 420.311032 255.171052 
L 420.311032 255.171052 
" clip-path="url(#pf55d7deed3)" style="fill: none; stroke: #1f77b4; stroke-width: 1.5; stroke-linecap: square"/>
   </g>
   <g id="line2d_141">
    <path d="M 246.536468 255.171052 
L 282.946377 255.115886 
L 283.773875 254.918063 
L 284.187624 254.67363 
L 284.601373 254.246251 
L 285.015122 253.543775 
L 285.428871 252.458187 
L 285.842619 250.880668 
L 286.256368 248.724674 
L 287.083866 242.59823 
L 289.56636 219.767086 
L 290.393858 215.060377 
L 291.221356 212.054075 
L 292.048854 210.009383 
L 294.117599 205.975836 
L 296.600092 200.975296 
L 299.082586 195.470332 
L 301.56508 189.406201 
L 304.047574 182.726111 
L 306.530068 175.377032 
L 308.185063 170.370876 
L 309.012561 168.570164 
L 309.42631 168.265747 
L 309.840059 168.661923 
L 310.253808 170.042513 
L 310.667557 172.693453 
L 311.081306 176.842057 
L 311.908804 189.838623 
L 314.391298 239.914017 
L 315.218796 248.745114 
L 315.632545 251.319892 
L 316.046294 252.98578 
L 316.460043 253.998152 
L 316.873792 254.576069 
L 317.287541 254.885993 
L 318.115038 255.116052 
L 320.183783 255.170731 
L 420.311032 255.171052 
L 420.311032 255.171052 
" clip-path="url(#pf55d7deed3)" style="fill: none; stroke: #ff7f0e; stroke-width: 1.5; stroke-linecap: square"/>
   </g>
   <g id="patch_21">
    <path d="M 237.84774 260.242416 
L 237.84774 148.672396 
" style="fill: none; stroke: #000000; stroke-width: 0.8; stroke-linejoin: miter; stroke-linecap: square"/>
   </g>
   <g id="patch_22">
    <path d="M 428.99976 260.242416 
L 428.99976 148.672396 
" style="fill: none; stroke: #000000; stroke-width: 0.8; stroke-linejoin: miter; stroke-linecap: square"/>
   </g>
   <g id="patch_23">
    <path d="M 237.84774 260.242416 
L 428.99976 260.242416 
" style="fill: none; stroke: #000000; stroke-width: 0.8; stroke-linejoin: miter; stroke-linecap: square"/>
   </g>
   <g id="patch_24">
    <path d="M 237.84774 148.672396 
L 428.99976 148.672396 
" style="fill: none; stroke: #000000; stroke-width: 0.8; stroke-linejoin: miter; stroke-linecap: square"/>
   </g>
   <g id="text_42">
    <!-- (d) 30 km -->
    <g transform="translate(310.944375 142.672396) scale(0.114 -0.114)">
     <defs>
      <path id="TimesNewRomanPSMT-64" d="M 2222 322 
Q 2013 103 1813 7 
Q 1613 -88 1381 -88 
Q 913 -88 563 304 
Q 213 697 213 1313 
Q 213 1928 600 2439 
Q 988 2950 1597 2950 
Q 1975 2950 2222 2709 
L 2222 3238 
Q 2222 3728 2198 3840 
Q 2175 3953 2125 3993 
Q 2075 4034 2000 4034 
Q 1919 4034 1784 3984 
L 1744 4094 
L 2597 4444 
L 2738 4444 
L 2738 1134 
Q 2738 631 2761 520 
Q 2784 409 2836 365 
Q 2888 322 2956 322 
Q 3041 322 3181 375 
L 3216 266 
L 2366 -88 
L 2222 -88 
L 2222 322 
z
M 2222 541 
L 2222 2016 
Q 2203 2228 2109 2403 
Q 2016 2578 1861 2667 
Q 1706 2756 1559 2756 
Q 1284 2756 1069 2509 
Q 784 2184 784 1559 
Q 784 928 1059 592 
Q 1334 256 1672 256 
Q 1956 256 2222 541 
z
" transform="scale(0.015625)"/>
     </defs>
     <use xlink:href="#TimesNewRomanPSMT-28"/>
     <use xlink:href="#TimesNewRomanPSMT-64" x="33.300781"/>
     <use xlink:href="#TimesNewRomanPSMT-29" x="83.300781"/>
     <use xlink:href="#TimesNewRomanPSMT-20" x="116.601562"/>
     <use xlink:href="#TimesNewRomanPSMT-33" x="141.601562"/>
     <use xlink:href="#TimesNewRomanPSMT-30" x="191.601562"/>
     <use xlink:href="#TimesNewRomanPSMT-20" x="241.601562"/>
     <use xlink:href="#TimesNewRomanPSMT-6b" x="266.601562"/>
     <use xlink:href="#TimesNewRomanPSMT-6d" x="316.601562"/>
    </g>
   </g>
   <g id="legend_4">
    <g id="patch_25">
     <path d="M 374.39661 177.475063 
L 423.46031 177.475063 
Q 425.04301 177.475063 425.04301 175.892363 
L 425.04301 154.211846 
Q 425.04301 152.629146 423.46031 152.629146 
L 374.39661 152.629146 
Q 372.81391 152.629146 372.81391 154.211846 
L 372.81391 175.892363 
Q 372.81391 177.475063 374.39661 177.475063 
z
" style="fill: #ffffff; opacity: 0.8; stroke: #cccccc; stroke-linejoin: miter"/>
    </g>
    <g id="line2d_142">
     <path d="M 375.97931 158.658243 
L 383.89281 158.658243 
L 391.80631 158.658243 
" style="fill: none; stroke: #1f77b4; stroke-width: 1.5; stroke-linecap: square"/>
    </g>
    <g id="text_43">
     <!-- 无修正 -->
     <g transform="translate(398.13711 161.427968) scale(0.079135 -0.079135)">
      <use xlink:href="#SimSun-65e0"/>
      <use xlink:href="#SimSun-4fee" x="100"/>
      <use xlink:href="#SimSun-6b63" x="200"/>
     </g>
    </g>
    <g id="line2d_143">
     <path d="M 375.97931 169.84719 
L 383.89281 169.84719 
L 391.80631 169.84719 
" style="fill: none; stroke: #ff7f0e; stroke-width: 1.5; stroke-linecap: square"/>
    </g>
    <g id="text_44">
     <!-- 湿沉积 -->
     <g transform="translate(398.13711 172.616915) scale(0.079135 -0.079135)">
      <use xlink:href="#SimSun-6e7f"/>
      <use xlink:href="#SimSun-6c89" x="100"/>
      <use xlink:href="#SimSun-79ef" x="200"/>
     </g>
    </g>
   </g>
  </g>
 </g>
 <defs>
  <clipPath id="pc8fe6273fc">
   <rect x="32.44524" y="16.916115" width="191.15202" height="111.570021"/>
  </clipPath>
  <clipPath id="p8dc5db0dbb">
   <rect x="237.84774" y="16.916115" width="191.15202" height="111.570021"/>
  </clipPath>
  <clipPath id="p69fc809728">
   <rect x="32.44524" y="148.672396" width="191.15202" height="111.570021"/>
  </clipPath>
  <clipPath id="pf55d7deed3">
   <rect x="237.84774" y="148.672396" width="191.15202" height="111.570021"/>
  </clipPath>
 </defs>
</svg>
