<?xml version="1.0" encoding="utf-8" standalone="no"?>
<!DOCTYPE svg PUBLIC "-//W3C//DTD SVG 1.1//EN"
  "http://www.w3.org/Graphics/SVG/1.1/DTD/svg11.dtd">
<svg xmlns:xlink="http://www.w3.org/1999/xlink" width="324pt" height="216pt" viewBox="0 0 324 216" xmlns="http://www.w3.org/2000/svg" version="1.1">
 <metadata>
  <rdf:RDF xmlns:dc="http://purl.org/dc/elements/1.1/" xmlns:cc="http://creativecommons.org/ns#" xmlns:rdf="http://www.w3.org/1999/02/22-rdf-syntax-ns#">
   <cc:Work>
    <dc:type rdf:resource="http://purl.org/dc/dcmitype/StillImage"/>
    <dc:date>2024-05-06T08:57:03.646588</dc:date>
    <dc:format>image/svg+xml</dc:format>
    <dc:creator>
     <cc:Agent>
      <dc:title>Matplotlib v3.7.2, https://matplotlib.org/</dc:title>
     </cc:Agent>
    </dc:creator>
   </cc:Work>
  </rdf:RDF>
 </metadata>
 <defs>
  <style type="text/css">*{stroke-linejoin: round; stroke-linecap: butt}</style>
 </defs>
 <g id="figure_1">
  <g id="patch_1">
   <path d="M 0 216 
L 324 216 
L 324 0 
L 0 0 
z
" style="fill: #ffffff"/>
  </g>
  <g id="axes_1">
   <g id="patch_2">
    <path d="M 37.76524 188.242416 
L 320.99976 188.242416 
L 320.99976 3.00024 
L 37.76524 3.00024 
z
" style="fill: #ffffff"/>
   </g>
   <g id="matplotlib.axis_1">
    <g id="xtick_1">
     <g id="line2d_1">
      <defs>
       <path id="m2150c975c1" d="M 0 0 
L 0 -3.5 
" style="stroke: #000000; stroke-width: 0.8"/>
      </defs>
      <g>
       <use xlink:href="#m2150c975c1" x="50.639536" y="188.242416" style="stroke: #000000; stroke-width: 0.8"/>
      </g>
     </g>
     <g id="text_1">
      <!-- $\mathdefault{0}$ -->
      <g transform="translate(48.264536 198.338979) scale(0.095 -0.095)">
       <defs>
        <path id="TimesNewRomanPSMT-30" d="M 231 2094 
Q 231 2819 450 3342 
Q 669 3866 1031 4122 
Q 1313 4325 1613 4325 
Q 2100 4325 2488 3828 
Q 2972 3213 2972 2159 
Q 2972 1422 2759 906 
Q 2547 391 2217 158 
Q 1888 -75 1581 -75 
Q 975 -75 572 641 
Q 231 1244 231 2094 
z
M 844 2016 
Q 844 1141 1059 588 
Q 1238 122 1591 122 
Q 1759 122 1940 273 
Q 2122 425 2216 781 
Q 2359 1319 2359 2297 
Q 2359 3022 2209 3506 
Q 2097 3866 1919 4016 
Q 1791 4119 1609 4119 
Q 1397 4119 1231 3928 
Q 1006 3669 925 3112 
Q 844 2556 844 2016 
z
" transform="scale(0.015625)"/>
       </defs>
       <use xlink:href="#TimesNewRomanPSMT-30" transform="translate(0 0.421875)"/>
      </g>
     </g>
    </g>
    <g id="xtick_2">
     <g id="line2d_2">
      <g>
       <use xlink:href="#m2150c975c1" x="106.614738" y="188.242416" style="stroke: #000000; stroke-width: 0.8"/>
      </g>
     </g>
     <g id="text_2">
      <!-- $\mathdefault{20}$ -->
      <g transform="translate(101.864738 198.338979) scale(0.095 -0.095)">
       <defs>
        <path id="TimesNewRomanPSMT-32" d="M 2934 816 
L 2638 0 
L 138 0 
L 138 116 
Q 1241 1122 1691 1759 
Q 2141 2397 2141 2925 
Q 2141 3328 1894 3587 
Q 1647 3847 1303 3847 
Q 991 3847 742 3664 
Q 494 3481 375 3128 
L 259 3128 
Q 338 3706 661 4015 
Q 984 4325 1469 4325 
Q 1984 4325 2329 3994 
Q 2675 3663 2675 3213 
Q 2675 2891 2525 2569 
Q 2294 2063 1775 1497 
Q 997 647 803 472 
L 1909 472 
Q 2247 472 2383 497 
Q 2519 522 2628 598 
Q 2738 675 2819 816 
L 2934 816 
z
" transform="scale(0.015625)"/>
       </defs>
       <use xlink:href="#TimesNewRomanPSMT-32" transform="translate(0 0.421875)"/>
       <use xlink:href="#TimesNewRomanPSMT-30" transform="translate(50 0.421875)"/>
      </g>
     </g>
    </g>
    <g id="xtick_3">
     <g id="line2d_3">
      <g>
       <use xlink:href="#m2150c975c1" x="162.58994" y="188.242416" style="stroke: #000000; stroke-width: 0.8"/>
      </g>
     </g>
     <g id="text_3">
      <!-- $\mathdefault{40}$ -->
      <g transform="translate(157.83994 198.338979) scale(0.095 -0.095)">
       <defs>
        <path id="TimesNewRomanPSMT-34" d="M 2978 1563 
L 2978 1119 
L 2409 1119 
L 2409 0 
L 1894 0 
L 1894 1119 
L 100 1119 
L 100 1519 
L 2066 4325 
L 2409 4325 
L 2409 1563 
L 2978 1563 
z
M 1894 1563 
L 1894 3666 
L 406 1563 
L 1894 1563 
z
" transform="scale(0.015625)"/>
       </defs>
       <use xlink:href="#TimesNewRomanPSMT-34" transform="translate(0 0.421875)"/>
       <use xlink:href="#TimesNewRomanPSMT-30" transform="translate(50 0.421875)"/>
      </g>
     </g>
    </g>
    <g id="xtick_4">
     <g id="line2d_4">
      <g>
       <use xlink:href="#m2150c975c1" x="218.565141" y="188.242416" style="stroke: #000000; stroke-width: 0.8"/>
      </g>
     </g>
     <g id="text_4">
      <!-- $\mathdefault{60}$ -->
      <g transform="translate(213.815141 198.338979) scale(0.095 -0.095)">
       <defs>
        <path id="TimesNewRomanPSMT-36" d="M 2869 4325 
L 2869 4209 
Q 2456 4169 2195 4045 
Q 1934 3922 1679 3669 
Q 1425 3416 1258 3105 
Q 1091 2794 978 2366 
Q 1428 2675 1881 2675 
Q 2316 2675 2634 2325 
Q 2953 1975 2953 1425 
Q 2953 894 2631 456 
Q 2244 -75 1606 -75 
Q 1172 -75 869 213 
Q 275 772 275 1663 
Q 275 2231 503 2743 
Q 731 3256 1154 3653 
Q 1578 4050 1965 4187 
Q 2353 4325 2688 4325 
L 2869 4325 
z
M 925 2138 
Q 869 1716 869 1456 
Q 869 1156 980 804 
Q 1091 453 1309 247 
Q 1469 100 1697 100 
Q 1969 100 2183 356 
Q 2397 613 2397 1088 
Q 2397 1622 2184 2012 
Q 1972 2403 1581 2403 
Q 1463 2403 1327 2353 
Q 1191 2303 925 2138 
z
" transform="scale(0.015625)"/>
       </defs>
       <use xlink:href="#TimesNewRomanPSMT-36" transform="translate(0 0.421875)"/>
       <use xlink:href="#TimesNewRomanPSMT-30" transform="translate(50 0.421875)"/>
      </g>
     </g>
    </g>
    <g id="xtick_5">
     <g id="line2d_5">
      <g>
       <use xlink:href="#m2150c975c1" x="274.540343" y="188.242416" style="stroke: #000000; stroke-width: 0.8"/>
      </g>
     </g>
     <g id="text_5">
      <!-- $\mathdefault{80}$ -->
      <g transform="translate(269.790343 198.338979) scale(0.095 -0.095)">
       <defs>
        <path id="TimesNewRomanPSMT-38" d="M 1228 2134 
Q 725 2547 579 2797 
Q 434 3047 434 3316 
Q 434 3728 753 4026 
Q 1072 4325 1600 4325 
Q 2113 4325 2425 4047 
Q 2738 3769 2738 3413 
Q 2738 3175 2569 2928 
Q 2400 2681 1866 2347 
Q 2416 1922 2594 1678 
Q 2831 1359 2831 1006 
Q 2831 559 2490 242 
Q 2150 -75 1597 -75 
Q 994 -75 656 303 
Q 388 606 388 966 
Q 388 1247 577 1523 
Q 766 1800 1228 2134 
z
M 1719 2469 
Q 2094 2806 2194 3001 
Q 2294 3197 2294 3444 
Q 2294 3772 2109 3958 
Q 1925 4144 1606 4144 
Q 1288 4144 1088 3959 
Q 888 3775 888 3528 
Q 888 3366 970 3203 
Q 1053 3041 1206 2894 
L 1719 2469 
z
M 1375 2016 
Q 1116 1797 991 1539 
Q 866 1281 866 981 
Q 866 578 1086 336 
Q 1306 94 1647 94 
Q 1984 94 2187 284 
Q 2391 475 2391 747 
Q 2391 972 2272 1150 
Q 2050 1481 1375 2016 
z
" transform="scale(0.015625)"/>
       </defs>
       <use xlink:href="#TimesNewRomanPSMT-38" transform="translate(0 0.421875)"/>
       <use xlink:href="#TimesNewRomanPSMT-30" transform="translate(50 0.421875)"/>
      </g>
     </g>
    </g>
    <g id="xtick_6">
     <g id="line2d_6">
      <defs>
       <path id="mf696662126" d="M 0 0 
L 0 -2 
" style="stroke: #000000; stroke-width: 0.6"/>
      </defs>
      <g>
       <use xlink:href="#mf696662126" x="64.633337" y="188.242416" style="stroke: #000000; stroke-width: 0.6"/>
      </g>
     </g>
    </g>
    <g id="xtick_7">
     <g id="line2d_7">
      <g>
       <use xlink:href="#mf696662126" x="78.627137" y="188.242416" style="stroke: #000000; stroke-width: 0.6"/>
      </g>
     </g>
    </g>
    <g id="xtick_8">
     <g id="line2d_8">
      <g>
       <use xlink:href="#mf696662126" x="92.620938" y="188.242416" style="stroke: #000000; stroke-width: 0.6"/>
      </g>
     </g>
    </g>
    <g id="xtick_9">
     <g id="line2d_9">
      <g>
       <use xlink:href="#mf696662126" x="120.608538" y="188.242416" style="stroke: #000000; stroke-width: 0.6"/>
      </g>
     </g>
    </g>
    <g id="xtick_10">
     <g id="line2d_10">
      <g>
       <use xlink:href="#mf696662126" x="134.602339" y="188.242416" style="stroke: #000000; stroke-width: 0.6"/>
      </g>
     </g>
    </g>
    <g id="xtick_11">
     <g id="line2d_11">
      <g>
       <use xlink:href="#mf696662126" x="148.596139" y="188.242416" style="stroke: #000000; stroke-width: 0.6"/>
      </g>
     </g>
    </g>
    <g id="xtick_12">
     <g id="line2d_12">
      <g>
       <use xlink:href="#mf696662126" x="176.58374" y="188.242416" style="stroke: #000000; stroke-width: 0.6"/>
      </g>
     </g>
    </g>
    <g id="xtick_13">
     <g id="line2d_13">
      <g>
       <use xlink:href="#mf696662126" x="190.57754" y="188.242416" style="stroke: #000000; stroke-width: 0.6"/>
      </g>
     </g>
    </g>
    <g id="xtick_14">
     <g id="line2d_14">
      <g>
       <use xlink:href="#mf696662126" x="204.571341" y="188.242416" style="stroke: #000000; stroke-width: 0.6"/>
      </g>
     </g>
    </g>
    <g id="xtick_15">
     <g id="line2d_15">
      <g>
       <use xlink:href="#mf696662126" x="232.558942" y="188.242416" style="stroke: #000000; stroke-width: 0.6"/>
      </g>
     </g>
    </g>
    <g id="xtick_16">
     <g id="line2d_16">
      <g>
       <use xlink:href="#mf696662126" x="246.552742" y="188.242416" style="stroke: #000000; stroke-width: 0.6"/>
      </g>
     </g>
    </g>
    <g id="xtick_17">
     <g id="line2d_17">
      <g>
       <use xlink:href="#mf696662126" x="260.546542" y="188.242416" style="stroke: #000000; stroke-width: 0.6"/>
      </g>
     </g>
    </g>
    <g id="xtick_18">
     <g id="line2d_18">
      <g>
       <use xlink:href="#mf696662126" x="288.534143" y="188.242416" style="stroke: #000000; stroke-width: 0.6"/>
      </g>
     </g>
    </g>
    <g id="xtick_19">
     <g id="line2d_19">
      <g>
       <use xlink:href="#mf696662126" x="302.527943" y="188.242416" style="stroke: #000000; stroke-width: 0.6"/>
      </g>
     </g>
    </g>
    <g id="xtick_20">
     <g id="line2d_20">
      <g>
       <use xlink:href="#mf696662126" x="316.521744" y="188.242416" style="stroke: #000000; stroke-width: 0.6"/>
      </g>
     </g>
    </g>
    <g id="text_6">
     <!-- 时间 / d -->
     <g transform="translate(163.812891 210.967651) scale(0.095 -0.095)">
      <defs>
       <path id="SimSun-65f6" d="M 4500 3600 
Q 4500 4575 4475 5225 
L 5100 4900 
L 4850 4725 
L 4850 3600 
L 5225 3600 
L 5550 3925 
L 6025 3450 
L 4850 3450 
L 4850 100 
Q 4850 -375 4300 -575 
Q 4275 -200 3475 -25 
L 3475 100 
Q 4150 0 4325 25 
Q 4500 50 4500 325 
L 4500 3450 
L 3200 3450 
Q 2875 3450 2600 3375 
L 2375 3600 
L 4500 3600 
z
M 2875 2825 
Q 3525 2375 3637 2200 
Q 3750 2025 3750 1925 
Q 3750 1800 3637 1637 
Q 3525 1475 3475 1475 
Q 3400 1475 3325 1775 
Q 3200 2225 2800 2750 
L 2875 2825 
z
M 925 4150 
L 925 2650 
L 1950 2650 
L 1950 4150 
L 925 4150 
z
M 925 2500 
L 925 900 
L 1950 900 
L 1950 2500 
L 925 2500 
z
M 2300 2000 
Q 2300 800 2325 450 
L 1950 250 
L 1950 750 
L 925 750 
L 925 225 
L 550 25 
Q 575 825 575 2425 
Q 575 4025 550 4500 
L 950 4300 
L 1900 4300 
L 2100 4550 
L 2500 4225 
L 2300 4050 
L 2300 2000 
z
" transform="scale(0.015625)"/>
       <path id="SimSun-95f4" d="M 2150 525 
Q 2175 1325 2175 2112 
Q 2175 2900 2150 3675 
L 2525 3450 
L 3750 3450 
L 4000 3700 
L 4325 3375 
L 4125 3200 
Q 4125 1550 4150 775 
L 3800 575 
L 3800 975 
L 2500 975 
L 2500 700 
L 2150 525 
z
M 2500 3300 
L 2500 2325 
L 3800 2325 
L 3800 3300 
L 2500 3300 
z
M 2500 2175 
L 2500 1125 
L 3800 1125 
L 3800 2175 
L 2500 2175 
z
M 1275 5200 
Q 1850 4825 1950 4675 
Q 2050 4525 2050 4425 
Q 2050 4275 1950 4137 
Q 1850 4000 1825 4000 
Q 1750 4000 1675 4275 
Q 1550 4650 1200 5125 
L 1275 5200 
z
M 1125 425 
Q 1125 25 1150 -375 
L 750 -525 
Q 775 -150 775 1950 
Q 775 4050 750 4425 
L 1350 4125 
L 1125 3975 
L 1125 425 
z
M 4225 125 
Q 5025 0 5125 37 
Q 5225 75 5225 250 
L 5225 4450 
L 3225 4450 
Q 2900 4450 2625 4375 
L 2400 4600 
L 5175 4600 
L 5425 4850 
L 5775 4500 
L 5575 4350 
L 5575 225 
Q 5575 -100 5462 -250 
Q 5350 -400 5000 -550 
Q 4800 -125 4225 25 
L 4225 125 
z
" transform="scale(0.015625)"/>
       <path id="TimesNewRomanPSMT-20" transform="scale(0.015625)"/>
       <path id="TimesNewRomanPSMT-2f" d="M 1794 4444 
L 259 -88 
L 9 -88 
L 1544 4444 
L 1794 4444 
z
" transform="scale(0.015625)"/>
       <path id="TimesNewRomanPSMT-64" d="M 2222 322 
Q 2013 103 1813 7 
Q 1613 -88 1381 -88 
Q 913 -88 563 304 
Q 213 697 213 1313 
Q 213 1928 600 2439 
Q 988 2950 1597 2950 
Q 1975 2950 2222 2709 
L 2222 3238 
Q 2222 3728 2198 3840 
Q 2175 3953 2125 3993 
Q 2075 4034 2000 4034 
Q 1919 4034 1784 3984 
L 1744 4094 
L 2597 4444 
L 2738 4444 
L 2738 1134 
Q 2738 631 2761 520 
Q 2784 409 2836 365 
Q 2888 322 2956 322 
Q 3041 322 3181 375 
L 3216 266 
L 2366 -88 
L 2222 -88 
L 2222 322 
z
M 2222 541 
L 2222 2016 
Q 2203 2228 2109 2403 
Q 2016 2578 1861 2667 
Q 1706 2756 1559 2756 
Q 1284 2756 1069 2509 
Q 784 2184 784 1559 
Q 784 928 1059 592 
Q 1334 256 1672 256 
Q 1956 256 2222 541 
z
" transform="scale(0.015625)"/>
      </defs>
      <use xlink:href="#SimSun-65f6"/>
      <use xlink:href="#SimSun-95f4" x="100"/>
      <use xlink:href="#TimesNewRomanPSMT-20" x="200"/>
      <use xlink:href="#TimesNewRomanPSMT-2f" x="225"/>
      <use xlink:href="#TimesNewRomanPSMT-20" x="252.783203"/>
      <use xlink:href="#TimesNewRomanPSMT-64" x="277.783203"/>
     </g>
    </g>
   </g>
   <g id="matplotlib.axis_2">
    <g id="ytick_1">
     <g id="line2d_21">
      <defs>
       <path id="m8b483ec5e7" d="M 0 0 
L 3.5 0 
" style="stroke: #000000; stroke-width: 0.8"/>
      </defs>
      <g>
       <use xlink:href="#m8b483ec5e7" x="37.76524" y="168.964719" style="stroke: #000000; stroke-width: 0.8"/>
      </g>
     </g>
     <g id="text_7">
      <!-- $\mathdefault{10^{-4}}$ -->
      <g transform="translate(17.07024 173.173665) scale(0.095 -0.095)">
       <defs>
        <path id="TimesNewRomanPSMT-31" d="M 750 3822 
L 1781 4325 
L 1884 4325 
L 1884 747 
Q 1884 391 1914 303 
Q 1944 216 2037 169 
Q 2131 122 2419 116 
L 2419 0 
L 825 0 
L 825 116 
Q 1125 122 1212 167 
Q 1300 213 1334 289 
Q 1369 366 1369 747 
L 1369 3034 
Q 1369 3497 1338 3628 
Q 1316 3728 1258 3775 
Q 1200 3822 1119 3822 
Q 1003 3822 797 3725 
L 750 3822 
z
" transform="scale(0.015625)"/>
        <path id="TimesNewRomanPSMT-2212" d="M 3484 2000 
L 116 2000 
L 116 2256 
L 3484 2256 
L 3484 2000 
z
" transform="scale(0.015625)"/>
       </defs>
       <use xlink:href="#TimesNewRomanPSMT-31" transform="translate(0 0.582813)"/>
       <use xlink:href="#TimesNewRomanPSMT-30" transform="translate(50 0.582813)"/>
       <use xlink:href="#TimesNewRomanPSMT-2212" transform="translate(101.502813 60.695312) scale(0.7)"/>
       <use xlink:href="#TimesNewRomanPSMT-34" transform="translate(140.980352 60.695312) scale(0.7)"/>
      </g>
     </g>
    </g>
    <g id="ytick_2">
     <g id="line2d_22">
      <g>
       <use xlink:href="#m8b483ec5e7" x="37.76524" y="140.121322" style="stroke: #000000; stroke-width: 0.8"/>
      </g>
     </g>
     <g id="text_8">
      <!-- $\mathdefault{10^{-2}}$ -->
      <g transform="translate(17.07024 144.330268) scale(0.095 -0.095)">
       <use xlink:href="#TimesNewRomanPSMT-31" transform="translate(0 0.582813)"/>
       <use xlink:href="#TimesNewRomanPSMT-30" transform="translate(50 0.582813)"/>
       <use xlink:href="#TimesNewRomanPSMT-2212" transform="translate(101.502813 60.695312) scale(0.7)"/>
       <use xlink:href="#TimesNewRomanPSMT-32" transform="translate(140.980352 60.695312) scale(0.7)"/>
      </g>
     </g>
    </g>
    <g id="ytick_3">
     <g id="line2d_23">
      <g>
       <use xlink:href="#m8b483ec5e7" x="37.76524" y="111.277926" style="stroke: #000000; stroke-width: 0.8"/>
      </g>
     </g>
     <g id="text_9">
      <!-- $\mathdefault{10^{0}}$ -->
      <g transform="translate(20.87024 115.486871) scale(0.095 -0.095)">
       <use xlink:href="#TimesNewRomanPSMT-31" transform="translate(0 0.582813)"/>
       <use xlink:href="#TimesNewRomanPSMT-30" transform="translate(50 0.582813)"/>
       <use xlink:href="#TimesNewRomanPSMT-30" transform="translate(101.502813 60.695312) scale(0.7)"/>
      </g>
     </g>
    </g>
    <g id="ytick_4">
     <g id="line2d_24">
      <g>
       <use xlink:href="#m8b483ec5e7" x="37.76524" y="82.434529" style="stroke: #000000; stroke-width: 0.8"/>
      </g>
     </g>
     <g id="text_10">
      <!-- $\mathdefault{10^{2}}$ -->
      <g transform="translate(20.87024 86.643474) scale(0.095 -0.095)">
       <use xlink:href="#TimesNewRomanPSMT-31" transform="translate(0 0.582813)"/>
       <use xlink:href="#TimesNewRomanPSMT-30" transform="translate(50 0.582813)"/>
       <use xlink:href="#TimesNewRomanPSMT-32" transform="translate(101.502813 60.695312) scale(0.7)"/>
      </g>
     </g>
    </g>
    <g id="ytick_5">
     <g id="line2d_25">
      <g>
       <use xlink:href="#m8b483ec5e7" x="37.76524" y="53.591132" style="stroke: #000000; stroke-width: 0.8"/>
      </g>
     </g>
     <g id="text_11">
      <!-- $\mathdefault{10^{4}}$ -->
      <g transform="translate(20.87024 57.800077) scale(0.095 -0.095)">
       <use xlink:href="#TimesNewRomanPSMT-31" transform="translate(0 0.582813)"/>
       <use xlink:href="#TimesNewRomanPSMT-30" transform="translate(50 0.582813)"/>
       <use xlink:href="#TimesNewRomanPSMT-34" transform="translate(101.502813 60.695312) scale(0.7)"/>
      </g>
     </g>
    </g>
    <g id="ytick_6">
     <g id="line2d_26">
      <g>
       <use xlink:href="#m8b483ec5e7" x="37.76524" y="24.747735" style="stroke: #000000; stroke-width: 0.8"/>
      </g>
     </g>
     <g id="text_12">
      <!-- $\mathdefault{10^{6}}$ -->
      <g transform="translate(20.87024 28.956681) scale(0.095 -0.095)">
       <use xlink:href="#TimesNewRomanPSMT-31" transform="translate(0 0.582813)"/>
       <use xlink:href="#TimesNewRomanPSMT-30" transform="translate(50 0.582813)"/>
       <use xlink:href="#TimesNewRomanPSMT-36" transform="translate(101.502813 60.695312) scale(0.7)"/>
      </g>
     </g>
    </g>
    <g id="text_13">
     <!-- 氚浓度$\;/\;\mathrm{(Bq/m^{2})}$ -->
     <g transform="translate(10.98024 128.776328) rotate(-90) scale(0.095 -0.095)">
      <defs>
       <path id="SimSun-6c1a" d="M 1925 2375 
L 1700 2175 
Q 1700 1475 1600 962 
Q 1500 450 1175 62 
Q 850 -325 375 -625 
L 325 -550 
Q 675 -250 887 62 
Q 1100 375 1200 762 
Q 1300 1150 1325 1737 
Q 1350 2325 1350 2650 
L 1925 2375 
z
M 2400 -500 
Q 2425 -75 2425 425 
L 2425 1800 
Q 2425 2225 2400 2450 
L 3000 2175 
L 2750 2000 
L 2750 525 
Q 2750 -50 2775 -350 
L 2400 -500 
z
M 3525 -575 
Q 3550 -100 3550 475 
L 3550 1825 
Q 3550 2425 3525 2650 
L 4125 2375 
L 3875 2200 
L 3875 525 
Q 3875 0 3900 -400 
L 3525 -575 
z
M 2050 4825 
Q 1925 4625 1825 4450 
L 5025 4450 
L 5375 4800 
L 5875 4300 
L 1775 4300 
Q 1525 3850 1150 3400 
Q 775 2950 350 2625 
L 275 2700 
Q 625 3025 1050 3700 
Q 1475 4375 1725 5250 
L 2275 4925 
L 2050 4825 
z
M 1600 3800 
L 4500 3800 
L 4800 4100 
L 5250 3650 
L 2475 3650 
Q 2050 3650 1825 3575 
L 1600 3800 
z
M 5650 -75 
L 5850 850 
L 5950 850 
Q 5925 525 5937 100 
Q 5950 -325 6050 -500 
Q 6100 -600 6000 -600 
Q 5900 -600 5575 -500 
Q 5250 -400 4912 150 
Q 4575 700 4525 1350 
Q 4475 2000 4500 2950 
L 1975 2950 
Q 1650 2950 1375 2875 
L 1150 3100 
L 4450 3100 
L 4675 3350 
L 5075 3025 
L 4825 2875 
Q 4750 1250 5025 675 
Q 5300 100 5650 -75 
z
" transform="scale(0.015625)"/>
       <path id="SimSun-6d53" d="M 4900 3200 
L 5250 3875 
L 3750 3875 
Q 3700 3725 3650 3575 
Q 3925 2450 4300 1925 
Q 5050 2600 5250 2975 
L 5650 2525 
Q 5275 2450 4962 2225 
Q 4650 2000 4375 1800 
Q 5075 750 6100 350 
L 6100 250 
Q 5650 275 5500 -25 
Q 3900 1250 3575 3375 
Q 3325 2800 3075 2375 
L 3375 2225 
L 3225 2075 
L 3225 100 
L 4175 600 
L 4225 500 
Q 3350 -100 3100 -500 
L 2775 -125 
Q 2900 -50 2875 425 
L 2875 2000 
Q 2200 1175 1475 625 
L 1425 700 
Q 2850 2150 3400 3875 
L 2575 3875 
Q 2600 3475 2475 3337 
Q 2350 3200 2187 3225 
Q 2025 3250 2025 3325 
Q 2025 3400 2150 3550 
Q 2375 3800 2475 4300 
L 2575 4300 
L 2575 4025 
L 3425 4025 
Q 3500 4325 3550 4637 
Q 3600 4950 3625 5225 
L 4175 4950 
L 3975 4800 
Q 3875 4375 3775 4025 
L 5200 4025 
L 5450 4300 
L 5900 3800 
Q 5500 3800 4975 3150 
L 4900 3200 
z
M 1975 3900 
Q 1350 1400 1287 1087 
Q 1225 775 1225 325 
Q 1225 -125 1225 -287 
Q 1225 -450 1125 -450 
Q 1050 -450 887 -375 
Q 725 -300 725 -100 
Q 725 75 775 250 
Q 850 500 850 675 
Q 850 825 750 925 
Q 650 1025 275 1125 
L 275 1225 
Q 725 1175 812 1200 
Q 900 1225 1037 1450 
Q 1175 1675 1875 3925 
L 1975 3900 
z
M 300 3500 
Q 1125 3150 1137 2900 
Q 1150 2650 1050 2537 
Q 950 2425 925 2425 
Q 850 2425 775 2675 
Q 650 3000 250 3425 
L 300 3500 
z
M 875 4950 
Q 1550 4650 1625 4525 
Q 1700 4400 1700 4300 
Q 1700 4175 1600 4025 
Q 1500 3875 1450 3875 
Q 1350 3875 1275 4125 
Q 1150 4525 825 4875 
L 875 4950 
z
" transform="scale(0.015625)"/>
       <path id="SimSun-5ea6" d="M 2550 2025 
Q 2575 2525 2575 3175 
L 1925 3175 
L 1625 3125 
L 1425 3325 
L 2575 3325 
Q 2575 3700 2550 4150 
L 3100 3875 
L 2900 3750 
L 2900 3325 
L 4300 3325 
Q 4300 3750 4275 4125 
L 4850 3875 
L 4625 3725 
L 4625 3325 
L 5100 3325 
L 5425 3650 
L 5900 3175 
L 4625 3175 
Q 4625 2450 4650 2225 
L 4300 2075 
L 4300 2300 
L 2900 2300 
L 2900 2175 
L 2550 2025 
z
M 4875 1500 
Q 4300 775 3900 425 
Q 4700 -75 6025 -125 
L 6025 -225 
Q 5625 -300 5550 -550 
Q 4375 -325 3675 225 
Q 2475 -450 1075 -625 
L 1050 -525 
Q 2375 -275 3450 450 
Q 2975 925 2575 1625 
L 2325 1625 
L 2100 1575 
L 1900 1775 
L 4525 1775 
L 4750 2000 
L 5125 1625 
L 4875 1500 
z
M 2700 1625 
Q 3175 975 3650 625 
Q 4150 1100 4500 1625 
L 2700 1625 
z
M 2900 3175 
L 2900 2450 
L 4300 2450 
L 4300 3175 
L 2900 3175 
z
M 975 4650 
L 1400 4400 
L 3375 4400 
Q 3350 4550 3262 4725 
Q 3175 4900 2900 5225 
L 2975 5275 
Q 3550 5025 3637 4887 
Q 3725 4750 3725 4725 
Q 3725 4575 3525 4400 
L 5150 4400 
L 5500 4750 
L 6000 4250 
L 1375 4250 
Q 1400 2750 1287 1912 
Q 1175 1075 925 475 
Q 675 -125 300 -625 
L 225 -575 
Q 725 300 862 1250 
Q 1000 2200 1012 3187 
Q 1025 4175 975 4650 
z
" transform="scale(0.015625)"/>
       <path id="STIXGeneral-Regular-2f" d="M 1837 4326 
L 378 -90 
L -58 -90 
L 1408 4326 
L 1837 4326 
z
" transform="scale(0.015625)"/>
       <path id="STIXGeneral-Regular-28" d="M 1946 -1030 
L 1869 -1133 
Q 1126 -710 716 32 
Q 307 774 307 1613 
Q 307 3386 1888 4326 
L 1946 4224 
Q 1293 3667 1075 3126 
Q 858 2586 858 1632 
Q 858 685 1082 96 
Q 1306 -493 1946 -1030 
z
" transform="scale(0.015625)"/>
       <path id="STIXGeneral-Regular-42" d="M 2701 2234 
L 2701 2227 
Q 3181 2150 3482 1875 
Q 3795 1594 3795 1139 
Q 3795 608 3379 304 
Q 2963 0 2266 0 
L 109 0 
L 109 122 
Q 486 134 604 246 
Q 723 358 723 723 
L 723 3520 
Q 723 3891 614 3990 
Q 506 4090 109 4115 
L 109 4237 
L 1901 4237 
Q 2726 4237 3152 3958 
Q 3578 3680 3578 3168 
Q 3578 2733 3315 2502 
Q 3130 2342 2701 2234 
z
M 1376 2342 
L 1965 2342 
Q 2925 2342 2925 3136 
Q 2925 3546 2640 3773 
Q 2355 4000 1792 4000 
L 1530 4000 
Q 1376 4000 1376 3795 
L 1376 2342 
z
M 1376 2086 
L 1376 525 
Q 1376 365 1462 301 
Q 1549 237 1773 237 
Q 2208 237 2413 285 
Q 2618 333 2816 512 
Q 3059 723 3059 1146 
Q 3059 1632 2758 1830 
Q 2688 1882 2617 1917 
Q 2547 1952 2492 1974 
Q 2438 1997 2348 2016 
Q 2259 2035 2211 2044 
Q 2163 2054 2041 2060 
Q 1920 2067 1862 2070 
Q 1805 2074 1635 2080 
Q 1466 2086 1376 2086 
z
" transform="scale(0.015625)"/>
       <path id="STIXGeneral-Regular-71" d="M 3123 -1389 
L 1613 -1389 
L 1613 -1280 
Q 1952 -1254 2067 -1158 
Q 2182 -1062 2182 -794 
L 2182 410 
Q 1747 -64 1178 -64 
Q 730 -64 442 320 
Q 154 704 154 1312 
Q 154 2003 560 2473 
Q 966 2944 1562 2944 
Q 1920 2944 2304 2720 
L 2650 2925 
L 2720 2925 
L 2720 -902 
Q 2720 -1107 2797 -1180 
Q 2874 -1254 3123 -1280 
L 3123 -1389 
z
M 2182 813 
L 2182 2131 
Q 2182 2758 1587 2758 
Q 1178 2758 941 2432 
Q 704 2106 704 1542 
Q 704 1210 803 925 
Q 902 640 1062 499 
Q 1254 326 1542 326 
Q 1882 326 2106 531 
Q 2182 602 2182 813 
z
" transform="scale(0.015625)"/>
       <path id="STIXGeneral-Regular-6d" d="M 4960 0 
L 3565 0 
L 3565 96 
Q 3834 122 3907 208 
Q 3981 294 3981 576 
L 3981 1894 
Q 3981 2278 3869 2444 
Q 3757 2611 3488 2611 
Q 3264 2611 3107 2521 
Q 2950 2432 2803 2221 
L 2803 608 
Q 2803 301 2896 201 
Q 2989 102 3264 96 
L 3264 0 
L 1830 0 
L 1830 96 
Q 2112 115 2189 188 
Q 2266 262 2266 550 
L 2266 1901 
Q 2266 2611 1850 2611 
Q 1670 2611 1468 2531 
Q 1267 2451 1171 2336 
Q 1088 2240 1088 2227 
L 1088 448 
Q 1088 243 1177 176 
Q 1267 109 1523 96 
L 1523 0 
L 102 0 
L 102 96 
Q 371 102 460 195 
Q 550 288 550 563 
L 550 2150 
Q 550 2387 499 2480 
Q 448 2573 326 2573 
Q 230 2573 122 2547 
L 122 2656 
Q 557 2778 1011 2944 
L 1062 2925 
L 1062 2451 
L 1075 2451 
Q 1363 2752 1584 2848 
Q 1805 2944 2054 2944 
Q 2560 2944 2733 2406 
Q 3232 2944 3776 2944 
Q 4518 2944 4518 1792 
L 4518 493 
Q 4518 282 4582 202 
Q 4646 122 4794 109 
L 4960 96 
L 4960 0 
z
" transform="scale(0.015625)"/>
       <path id="STIXGeneral-Regular-32" d="M 3034 877 
L 2688 0 
L 186 0 
L 186 77 
L 1325 1286 
Q 1773 1754 1965 2144 
Q 2157 2534 2157 2950 
Q 2157 3379 1920 3616 
Q 1683 3853 1267 3853 
Q 922 3853 720 3673 
Q 518 3494 326 3021 
L 192 3053 
Q 301 3648 630 3987 
Q 960 4326 1523 4326 
Q 2054 4326 2380 4006 
Q 2707 3686 2707 3200 
Q 2707 2477 1888 1613 
L 832 486 
L 2330 486 
Q 2541 486 2665 569 
Q 2790 653 2944 915 
L 3034 877 
z
" transform="scale(0.015625)"/>
       <path id="STIXGeneral-Regular-29" d="M 186 4224 
L 262 4326 
Q 992 3891 1408 3148 
Q 1824 2406 1824 1581 
Q 1824 -166 243 -1133 
L 186 -1030 
Q 845 -486 1059 54 
Q 1274 595 1274 1562 
Q 1274 2534 1059 3120 
Q 845 3706 186 4224 
z
" transform="scale(0.015625)"/>
      </defs>
      <use xlink:href="#SimSun-6c1a" transform="translate(0 0.684375)"/>
      <use xlink:href="#SimSun-6d53" transform="translate(100 0.684375)"/>
      <use xlink:href="#SimSun-5ea6" transform="translate(200 0.684375)"/>
      <use xlink:href="#STIXGeneral-Regular-2f" transform="translate(320.055711 0.684375)"/>
      <use xlink:href="#STIXGeneral-Regular-28" transform="translate(367.91141 0.684375)"/>
      <use xlink:href="#STIXGeneral-Regular-42" transform="translate(401.211397 0.684375)"/>
      <use xlink:href="#STIXGeneral-Regular-71" transform="translate(467.911394 0.684375)"/>
      <use xlink:href="#STIXGeneral-Regular-2f" transform="translate(517.911379 0.684375)"/>
      <use xlink:href="#STIXGeneral-Regular-6d" transform="translate(545.711367 0.684375)"/>
      <use xlink:href="#STIXGeneral-Regular-32" transform="translate(625.086355 36.684375) scale(0.7)"/>
      <use xlink:href="#STIXGeneral-Regular-29" transform="translate(664.586344 0.684375)"/>
     </g>
    </g>
   </g>
   <g id="line2d_27">
    <path d="M 50.639536 11.420339 
L 51.455841 15.598469 
L 52.272146 20.989806 
L 53.205066 28.843059 
L 56.237057 56.912555 
L 56.703517 59.259167 
L 57.169977 60.52345 
L 57.636437 61.135768 
L 58.102897 61.38434 
L 58.685972 61.420922 
L 59.852122 61.377031 
L 63.583802 61.723952 
L 64.633337 61.778068 
L 64.866567 61.295057 
L 65.333027 59.410937 
L 66.849022 52.940287 
L 67.665327 50.141689 
L 68.248402 49.01273 
L 68.831477 48.347187 
L 69.531167 47.898043 
L 70.930547 47.215937 
L 71.746852 46.148081 
L 73.845922 43.231037 
L 74.312382 42.885722 
L 74.662227 42.829704 
L 75.012072 42.982071 
L 75.361917 43.375348 
L 75.828377 44.349961 
L 76.528067 46.492355 
L 77.344372 49.771223 
L 78.044062 53.396095 
L 78.627137 57.453653 
L 79.326827 62.121231 
L 79.793287 64.134219 
L 80.259747 65.225446 
L 80.609592 65.552145 
L 80.959437 65.588488 
L 82.008972 65.378216 
L 82.592047 65.770917 
L 83.524967 66.74673 
L 84.574502 68.097914 
L 85.274192 69.493804 
L 86.090497 71.59415 
L 86.906802 74.281126 
L 87.140032 74.871087 
L 87.256647 74.762679 
L 87.489877 74.056796 
L 88.306182 70.125081 
L 89.355717 65.550173 
L 90.055407 63.220239 
L 90.405252 62.882578 
L 90.638482 62.950877 
L 90.988328 63.435507 
L 91.454788 64.724157 
L 92.037863 67.2553 
L 93.320628 73.710371 
L 93.787088 74.731726 
L 94.370163 75.4398 
L 95.303083 76.112056 
L 95.652928 76.42484 
L 96.352618 77.550896 
L 98.218458 80.680043 
L 98.568303 80.927012 
L 99.384608 81.103127 
L 100.667373 81.161303 
L 101.367063 81.221578 
L 103.932593 82.162729 
L 104.515668 81.736212 
L 106.031663 80.294894 
L 106.731353 79.684985 
L 107.081198 80.183765 
L 108.247348 82.109345 
L 109.296883 83.382437 
L 109.413498 83.505317 
L 109.646728 83.20668 
L 110.463033 81.532067 
L 111.395953 79.10413 
L 112.095643 76.706393 
L 112.328873 76.033596 
L 112.445488 76.007653 
L 112.678718 76.266093 
L 113.378408 77.782212 
L 114.311328 79.530111 
L 115.011018 80.53164 
L 115.244248 79.743664 
L 117.576548 69.622286 
L 118.159623 67.576008 
L 118.626083 66.829433 
L 119.092543 66.476859 
L 119.675618 66.344415 
L 120.375308 66.439373 
L 120.841768 66.672012 
L 121.308228 67.270269 
L 122.007918 68.610344 
L 123.290683 71.68701 
L 123.873758 73.453904 
L 125.389753 78.336313 
L 126.905749 82.298737 
L 128.888204 86.731209 
L 129.004819 86.988198 
L 129.587894 86.634372 
L 132.386654 84.696012 
L 134.718954 82.297972 
L 136.351564 79.892221 
L 137.401099 78.557672 
L 137.634329 78.809902 
L 138.917094 81.092841 
L 140.316474 83.599698 
L 142.065699 82.19092 
L 143.115234 81.366689 
L 146.147224 81.930078 
L 148.479524 82.618502 
L 148.829369 82.603367 
L 151.628129 81.919053 
L 154.193659 80.185774 
L 155.942884 79.915782 
L 159.324719 79.313714 
L 160.607484 78.959441 
L 162.58994 78.315176 
L 163.98932 72.24523 
L 165.738545 65.183269 
L 165.971775 65.012409 
L 166.32162 65.08164 
L 166.78808 65.512543 
L 167.837615 66.958507 
L 168.42069 67.978857 
L 170.98622 74.735522 
L 171.336065 74.873244 
L 173.901595 74.992831 
L 177.28343 73.117318 
L 179.499115 72.453335 
L 180.665265 71.309864 
L 182.41449 69.60798 
L 182.997565 69.829945 
L 185.096635 71.015034 
L 187.07909 72.377901 
L 188.01201 72.822562 
L 190.57754 73.124466 
L 190.927385 72.710553 
L 192.21015 70.679797 
L 193.60953 68.343193 
L 193.959375 68.513777 
L 195.591985 69.910217 
L 196.291675 70.393752 
L 196.758135 70.206426 
L 200.139971 68.536239 
L 202.005811 67.859659 
L 202.938731 68.252275 
L 204.687956 68.929313 
L 207.370101 69.418426 
L 207.719946 69.144424 
L 209.002711 67.547495 
L 210.402091 65.883242 
L 210.751936 66.122735 
L 211.684856 67.254107 
L 212.967621 68.79124 
L 213.200851 68.737227 
L 213.783926 68.109019 
L 215.533151 65.766766 
L 216.232841 64.909162 
L 217.748836 63.275325 
L 218.798371 62.004939 
L 219.031601 62.35727 
L 219.498061 63.629248 
L 220.547596 66.560821 
L 221.247286 67.859563 
L 221.363901 68.037515 
L 221.480516 67.980052 
L 221.830361 67.243473 
L 223.462971 62.527453 
L 224.512506 59.601798 
L 225.095581 58.81449 
L 225.678656 58.389383 
L 226.494961 58.095925 
L 227.078036 58.054831 
L 227.427881 58.464129 
L 227.894341 59.536731 
L 228.710646 62.214163 
L 229.760181 65.644266 
L 229.993411 65.963051 
L 230.226641 66.006863 
L 230.693101 65.767962 
L 231.626021 64.940631 
L 234.074937 62.670166 
L 235.707547 61.427804 
L 236.057392 61.621729 
L 236.757082 62.332788 
L 238.156462 63.773912 
L 238.856152 64.171714 
L 240.605377 64.77099 
L 241.071837 64.871449 
L 241.421682 64.656257 
L 242.237987 63.764888 
L 244.103827 61.520241 
L 244.453672 61.581493 
L 244.920132 61.910293 
L 245.853052 62.928361 
L 247.019202 64.157467 
L 250.051192 66.292258 
L 252.150262 67.969561 
L 252.383492 67.872437 
L 252.849952 67.26098 
L 253.782872 65.546363 
L 254.715792 63.313619 
L 255.065637 62.441449 
L 255.298867 62.327857 
L 255.532097 62.492768 
L 255.998557 63.281818 
L 257.514552 66.227149 
L 257.981012 66.790686 
L 258.680702 67.167667 
L 260.779772 67.957773 
L 261.362847 67.587861 
L 262.995457 66.183051 
L 265.327757 64.142898 
L 266.610522 63.217874 
L 267.543442 62.984034 
L 269.176053 62.631827 
L 269.642513 62.026123 
L 270.575433 60.314707 
L 272.208043 57.148582 
L 272.674503 56.850261 
L 273.140963 56.872981 
L 273.607423 57.172806 
L 274.190498 57.893008 
L 277.339103 62.792411 
L 277.688948 63.004276 
L 278.155408 62.954605 
L 278.855098 62.589804 
L 280.487708 61.647716 
L 280.954168 61.765191 
L 281.537243 62.163025 
L 282.353548 63.010786 
L 283.053238 63.815738 
L 283.286468 63.733196 
L 283.636313 63.303503 
L 284.336003 61.992023 
L 286.201843 58.287454 
L 286.668303 57.973452 
L 287.134763 57.945328 
L 287.601223 58.142058 
L 288.184298 58.639817 
L 289.000603 59.432955 
L 289.583678 59.589515 
L 290.283368 59.480521 
L 291.216288 59.058097 
L 292.965513 58.184611 
L 294.947968 57.399442 
L 296.114118 57.276423 
L 297.746728 57.157337 
L 298.679648 56.709687 
L 302.061483 54.791523 
L 304.393784 53.971194 
L 306.259624 53.271447 
L 307.775619 52.336284 
L 308.125464 52.099058 
L 308.125464 52.099058 
" clip-path="url(#p8f32803799)" style="fill: none; stroke: #1f77b4; stroke-width: 1.5; stroke-linecap: square"/>
   </g>
   <g id="line2d_28">
    <path d="M 81.541773 217 
L 81.542512 125.721457 
L 81.892357 111.292804 
L 82.358817 103.392304 
L 82.941892 97.872685 
L 83.524967 94.299012 
L 84.224657 91.291179 
L 84.807732 89.597458 
L 85.507422 88.276153 
L 86.207112 87.435669 
L 86.906802 86.914647 
L 88.422797 85.976859 
L 89.239102 85.086004 
L 90.055407 83.924715 
L 91.921248 80.796183 
L 92.504323 80.309707 
L 93.204013 80.017896 
L 94.603393 79.751469 
L 97.285538 79.480884 
L 101.367063 79.383533 
L 106.381508 79.142986 
L 109.530113 78.871961 
L 111.512568 78.668431 
L 112.678718 78.340987 
L 114.311328 77.891297 
L 116.293783 77.371554 
L 117.343318 76.808041 
L 118.276238 76.099487 
L 121.541458 73.204898 
L 122.590993 72.645677 
L 123.757143 72.283245 
L 125.156523 72.09456 
L 127.138979 72.081282 
L 130.404199 72.34448 
L 134.252494 72.544471 
L 136.701409 72.466246 
L 139.616784 72.311209 
L 153.027509 72.617716 
L 163.28963 72.513009 
L 164.339165 72.300977 
L 165.15547 71.936069 
L 165.971775 71.301577 
L 167.604385 69.971402 
L 168.770535 69.306538 
L 169.82007 68.979781 
L 171.336065 68.768026 
L 177.400045 68.095376 
L 182.764335 67.215754 
L 185.91294 66.593061 
L 188.47847 66.344255 
L 193.259685 65.9431 
L 196.524905 65.282015 
L 199.556896 64.691311 
L 204.221496 63.754671 
L 210.168861 62.912011 
L 212.151316 62.52196 
L 214.600231 62.329169 
L 217.165761 62.090501 
L 218.331911 61.707765 
L 219.964521 61.077604 
L 221.363901 60.905269 
L 223.346356 60.681869 
L 224.745736 60.312811 
L 226.028501 59.672728 
L 228.244186 58.488864 
L 229.293721 58.310357 
L 231.859251 58.245295 
L 235.357702 57.999461 
L 239.555842 57.682147 
L 245.503207 57.369102 
L 248.185352 57.324206 
L 252.150262 57.479747 
L 256.115172 57.624136 
L 259.497007 57.801922 
L 265.094527 58.054419 
L 270.458818 57.978995 
L 272.674503 57.789266 
L 275.939723 57.367217 
L 278.388638 57.406879 
L 294.248278 58.121097 
L 303.810709 59.350608 
L 307.075929 60.10983 
L 308.125464 60.424446 
L 308.125464 60.424446 
" clip-path="url(#p8f32803799)" style="fill: none; stroke: #ff7f0e; stroke-width: 1.5; stroke-linecap: square"/>
   </g>
   <g id="line2d_29">
    <path d="M 50.639536 45.209813 
L 50.872766 35.620157 
L 51.222611 31.462605 
L 51.572456 29.53151 
L 52.038916 28.178797 
L 52.505376 27.480073 
L 53.088451 27.053838 
L 53.788141 26.847859 
L 55.187521 26.741067 
L 61.951192 26.663579 
L 71.397007 26.461226 
L 83.408352 26.098611 
L 116.060553 26.142669 
L 140.549704 26.363604 
L 162.006865 26.799826 
L 185.096635 27.48903 
L 206.320566 28.372384 
L 233.142017 29.756488 
L 257.281322 31.24451 
L 305.559934 34.296353 
L 308.125464 34.421971 
L 308.125464 34.421971 
" clip-path="url(#p8f32803799)" style="fill: none; stroke: #2ca02c; stroke-width: 1.5; stroke-linecap: square"/>
   </g>
   <g id="line2d_30">
    <path d="M 109.529811 217 
L 109.530113 179.822317 
L 109.879958 165.144986 
L 110.346418 156.653751 
L 110.929493 150.151591 
L 111.745798 143.692909 
L 112.795333 137.229445 
L 113.378408 134.955564 
L 114.078098 133.064248 
L 114.894403 131.455286 
L 115.477478 130.329253 
L 116.060553 128.669213 
L 116.876858 125.558675 
L 119.442388 115.034078 
L 120.375308 112.718389 
L 121.308228 110.9962 
L 122.124533 109.918784 
L 123.057453 109.077915 
L 124.106988 108.466857 
L 125.273138 108.070191 
L 127.022364 107.736767 
L 130.054354 107.420687 
L 133.319574 106.97798 
L 135.535259 106.462672 
L 137.284484 105.819632 
L 138.917094 105.21444 
L 140.782934 104.78911 
L 143.581694 104.086652 
L 148.246294 102.919498 
L 153.727199 101.595372 
L 162.706555 98.856331 
L 163.639475 98.41409 
L 164.45578 97.764738 
L 165.15547 96.924825 
L 167.48777 93.623141 
L 168.537305 92.777163 
L 169.470225 92.30569 
L 170.75299 91.921314 
L 180.54865 89.636576 
L 183.11418 88.727048 
L 185.563095 87.981273 
L 188.47847 87.350828 
L 193.14307 86.368594 
L 196.291675 85.474108 
L 200.606431 84.402048 
L 205.504261 83.179312 
L 210.751936 81.986022 
L 212.851006 81.515682 
L 215.766381 80.901404 
L 218.215296 80.121687 
L 220.197751 79.467342 
L 224.162661 78.573388 
L 225.911886 77.700471 
L 228.127571 76.662164 
L 229.410336 76.366248 
L 235.940777 75.262593 
L 238.506307 74.816282 
L 250.284422 73.304643 
L 268.243133 71.863804 
L 271.624968 71.391033 
L 276.406183 70.460803 
L 283.053238 69.869729 
L 286.085228 69.561188 
L 291.799363 68.784954 
L 299.029493 67.733883 
L 303.577479 66.906056 
L 308.125464 65.941565 
L 308.125464 65.941565 
" clip-path="url(#p8f32803799)" style="fill: none; stroke: #d62728; stroke-width: 1.5; stroke-linecap: square"/>
   </g>
   <g id="patch_3">
    <path d="M 37.76524 188.242416 
L 37.76524 3.00024 
" style="fill: none; stroke: #000000; stroke-width: 0.8; stroke-linejoin: miter; stroke-linecap: square"/>
   </g>
   <g id="patch_4">
    <path d="M 320.99976 188.242416 
L 320.99976 3.00024 
" style="fill: none; stroke: #000000; stroke-width: 0.8; stroke-linejoin: miter; stroke-linecap: square"/>
   </g>
   <g id="patch_5">
    <path d="M 37.76524 188.242416 
L 320.99976 188.242416 
" style="fill: none; stroke: #000000; stroke-width: 0.8; stroke-linejoin: miter; stroke-linecap: square"/>
   </g>
   <g id="patch_6">
    <path d="M 37.76524 3.00024 
L 320.99976 3.00024 
" style="fill: none; stroke: #000000; stroke-width: 0.8; stroke-linejoin: miter; stroke-linecap: square"/>
   </g>
   <g id="legend_1">
    <g id="patch_7">
     <path d="M 254.88494 184.285666 
L 315.46031 184.285666 
Q 317.04301 184.285666 317.04301 182.702966 
L 317.04301 138.708852 
Q 317.04301 137.126152 315.46031 137.126152 
L 254.88494 137.126152 
Q 253.30224 137.126152 253.30224 138.708852 
L 253.30224 182.702966 
Q 253.30224 184.285666 254.88494 184.285666 
z
" style="fill: #ffffff; opacity: 0.8; stroke: #cccccc; stroke-linejoin: miter"/>
    </g>
    <g id="line2d_31">
     <path d="M 256.46764 143.061277 
L 264.38114 143.061277 
L 272.29464 143.061277 
" style="fill: none; stroke: #1f77b4; stroke-width: 1.5; stroke-linecap: square"/>
    </g>
    <g id="text_14">
     <!-- Body HTO -->
     <g transform="translate(278.62544 145.831002) scale(0.079135 -0.079135)">
      <defs>
       <path id="TimesNewRomanPSMT-42" d="M 2956 2163 
Q 3397 2069 3616 1863 
Q 3919 1575 3919 1159 
Q 3919 844 3719 555 
Q 3519 266 3170 133 
Q 2822 0 2106 0 
L 106 0 
L 106 116 
L 266 116 
Q 531 116 647 284 
Q 719 394 719 750 
L 719 3488 
Q 719 3881 628 3984 
Q 506 4122 266 4122 
L 106 4122 
L 106 4238 
L 1938 4238 
Q 2450 4238 2759 4163 
Q 3228 4050 3475 3764 
Q 3722 3478 3722 3106 
Q 3722 2788 3528 2536 
Q 3334 2284 2956 2163 
z
M 1319 2331 
Q 1434 2309 1582 2298 
Q 1731 2288 1909 2288 
Q 2366 2288 2595 2386 
Q 2825 2484 2947 2687 
Q 3069 2891 3069 3131 
Q 3069 3503 2766 3765 
Q 2463 4028 1881 4028 
Q 1569 4028 1319 3959 
L 1319 2331 
z
M 1319 306 
Q 1681 222 2034 222 
Q 2600 222 2897 476 
Q 3194 731 3194 1106 
Q 3194 1353 3059 1581 
Q 2925 1809 2622 1940 
Q 2319 2072 1872 2072 
Q 1678 2072 1540 2065 
Q 1403 2059 1319 2044 
L 1319 306 
z
" transform="scale(0.015625)"/>
       <path id="TimesNewRomanPSMT-6f" d="M 1600 2947 
Q 2250 2947 2644 2453 
Q 2978 2031 2978 1484 
Q 2978 1100 2793 706 
Q 2609 313 2286 112 
Q 1963 -88 1566 -88 
Q 919 -88 538 428 
Q 216 863 216 1403 
Q 216 1797 411 2186 
Q 606 2575 925 2761 
Q 1244 2947 1600 2947 
z
M 1503 2744 
Q 1338 2744 1170 2645 
Q 1003 2547 900 2300 
Q 797 2053 797 1666 
Q 797 1041 1045 587 
Q 1294 134 1700 134 
Q 2003 134 2200 384 
Q 2397 634 2397 1244 
Q 2397 2006 2069 2444 
Q 1847 2744 1503 2744 
z
" transform="scale(0.015625)"/>
       <path id="TimesNewRomanPSMT-79" d="M 38 2863 
L 1372 2863 
L 1372 2747 
L 1306 2747 
Q 1166 2747 1095 2686 
Q 1025 2625 1025 2534 
Q 1025 2413 1128 2197 
L 1825 753 
L 2466 2334 
Q 2519 2463 2519 2588 
Q 2519 2644 2497 2672 
Q 2472 2706 2419 2726 
Q 2366 2747 2231 2747 
L 2231 2863 
L 3163 2863 
L 3163 2747 
Q 3047 2734 2984 2696 
Q 2922 2659 2847 2556 
Q 2819 2513 2741 2316 
L 1575 -541 
Q 1406 -956 1132 -1168 
Q 859 -1381 606 -1381 
Q 422 -1381 303 -1275 
Q 184 -1169 184 -1031 
Q 184 -900 270 -820 
Q 356 -741 506 -741 
Q 609 -741 788 -809 
Q 913 -856 944 -856 
Q 1038 -856 1148 -759 
Q 1259 -663 1372 -384 
L 1575 113 
L 547 2272 
Q 500 2369 397 2513 
Q 319 2622 269 2659 
Q 197 2709 38 2747 
L 38 2863 
z
" transform="scale(0.015625)"/>
       <path id="TimesNewRomanPSMT-48" d="M 1316 2272 
L 3284 2272 
L 3284 3484 
Q 3284 3809 3244 3913 
Q 3213 3991 3113 4047 
Q 2978 4122 2828 4122 
L 2678 4122 
L 2678 4238 
L 4491 4238 
L 4491 4122 
L 4341 4122 
Q 4191 4122 4056 4050 
Q 3956 4000 3920 3898 
Q 3884 3797 3884 3484 
L 3884 750 
Q 3884 428 3925 325 
Q 3956 247 4053 191 
Q 4191 116 4341 116 
L 4491 116 
L 4491 0 
L 2678 0 
L 2678 116 
L 2828 116 
Q 3088 116 3206 269 
Q 3284 369 3284 750 
L 3284 2041 
L 1316 2041 
L 1316 750 
Q 1316 428 1356 325 
Q 1388 247 1488 191 
Q 1622 116 1772 116 
L 1925 116 
L 1925 0 
L 109 0 
L 109 116 
L 259 116 
Q 522 116 641 269 
Q 716 369 716 750 
L 716 3484 
Q 716 3809 675 3913 
Q 644 3991 547 4047 
Q 409 4122 259 4122 
L 109 4122 
L 109 4238 
L 1925 4238 
L 1925 4122 
L 1772 4122 
Q 1622 4122 1488 4050 
Q 1391 4000 1353 3898 
Q 1316 3797 1316 3484 
L 1316 2272 
z
" transform="scale(0.015625)"/>
       <path id="TimesNewRomanPSMT-54" d="M 3703 4238 
L 3750 3244 
L 3631 3244 
Q 3597 3506 3538 3619 
Q 3441 3800 3280 3886 
Q 3119 3972 2856 3972 
L 2259 3972 
L 2259 734 
Q 2259 344 2344 247 
Q 2463 116 2709 116 
L 2856 116 
L 2856 0 
L 1059 0 
L 1059 116 
L 1209 116 
Q 1478 116 1591 278 
Q 1659 378 1659 734 
L 1659 3972 
L 1150 3972 
Q 853 3972 728 3928 
Q 566 3869 450 3700 
Q 334 3531 313 3244 
L 194 3244 
L 244 4238 
L 3703 4238 
z
" transform="scale(0.015625)"/>
       <path id="TimesNewRomanPSMT-4f" d="M 2341 4334 
Q 3166 4334 3770 3707 
Q 4375 3081 4375 2144 
Q 4375 1178 3765 540 
Q 3156 -97 2291 -97 
Q 1416 -97 820 525 
Q 225 1147 225 2134 
Q 225 3144 913 3781 
Q 1509 4334 2341 4334 
z
M 2281 4106 
Q 1713 4106 1369 3684 
Q 941 3159 941 2147 
Q 941 1109 1384 550 
Q 1725 125 2284 125 
Q 2881 125 3270 590 
Q 3659 1056 3659 2059 
Q 3659 3147 3231 3681 
Q 2888 4106 2281 4106 
z
" transform="scale(0.015625)"/>
      </defs>
      <use xlink:href="#TimesNewRomanPSMT-42"/>
      <use xlink:href="#TimesNewRomanPSMT-6f" x="66.699219"/>
      <use xlink:href="#TimesNewRomanPSMT-64" x="116.699219"/>
      <use xlink:href="#TimesNewRomanPSMT-79" x="166.699219"/>
      <use xlink:href="#TimesNewRomanPSMT-20" x="216.699219"/>
      <use xlink:href="#TimesNewRomanPSMT-48" x="241.699219"/>
      <use xlink:href="#TimesNewRomanPSMT-54" x="313.916016"/>
      <use xlink:href="#TimesNewRomanPSMT-4f" x="373.25"/>
     </g>
    </g>
    <g id="line2d_32">
     <path d="M 256.46764 154.265062 
L 264.38114 154.265062 
L 272.29464 154.265062 
" style="fill: none; stroke: #ff7f0e; stroke-width: 1.5; stroke-linecap: square"/>
    </g>
    <g id="text_15">
     <!-- Body OBT -->
     <g transform="translate(278.62544 157.034787) scale(0.079135 -0.079135)">
      <use xlink:href="#TimesNewRomanPSMT-42"/>
      <use xlink:href="#TimesNewRomanPSMT-6f" x="66.699219"/>
      <use xlink:href="#TimesNewRomanPSMT-64" x="116.699219"/>
      <use xlink:href="#TimesNewRomanPSMT-79" x="166.699219"/>
      <use xlink:href="#TimesNewRomanPSMT-20" x="216.699219"/>
      <use xlink:href="#TimesNewRomanPSMT-4f" x="241.699219"/>
      <use xlink:href="#TimesNewRomanPSMT-42" x="313.916016"/>
      <use xlink:href="#TimesNewRomanPSMT-54" x="380.615234"/>
     </g>
    </g>
    <g id="line2d_33">
     <path d="M 256.46764 165.468847 
L 264.38114 165.468847 
L 272.29464 165.468847 
" style="fill: none; stroke: #2ca02c; stroke-width: 1.5; stroke-linecap: square"/>
    </g>
    <g id="text_16">
     <!-- Root HTO -->
     <g transform="translate(278.62544 168.238572) scale(0.079135 -0.079135)">
      <defs>
       <path id="TimesNewRomanPSMT-52" d="M 4325 0 
L 3194 0 
L 1759 1981 
Q 1600 1975 1500 1975 
Q 1459 1975 1412 1976 
Q 1366 1978 1316 1981 
L 1316 750 
Q 1316 350 1403 253 
Q 1522 116 1759 116 
L 1925 116 
L 1925 0 
L 109 0 
L 109 116 
L 269 116 
Q 538 116 653 291 
Q 719 388 719 750 
L 719 3488 
Q 719 3888 631 3984 
Q 509 4122 269 4122 
L 109 4122 
L 109 4238 
L 1653 4238 
Q 2328 4238 2648 4139 
Q 2969 4041 3192 3777 
Q 3416 3513 3416 3147 
Q 3416 2756 3161 2468 
Q 2906 2181 2372 2063 
L 3247 847 
Q 3547 428 3762 290 
Q 3978 153 4325 116 
L 4325 0 
z
M 1316 2178 
Q 1375 2178 1419 2176 
Q 1463 2175 1491 2175 
Q 2097 2175 2405 2437 
Q 2713 2700 2713 3106 
Q 2713 3503 2464 3751 
Q 2216 4000 1806 4000 
Q 1625 4000 1316 3941 
L 1316 2178 
z
" transform="scale(0.015625)"/>
       <path id="TimesNewRomanPSMT-74" d="M 1031 3803 
L 1031 2863 
L 1700 2863 
L 1700 2644 
L 1031 2644 
L 1031 788 
Q 1031 509 1111 412 
Q 1191 316 1316 316 
Q 1419 316 1516 380 
Q 1613 444 1666 569 
L 1788 569 
Q 1678 263 1478 108 
Q 1278 -47 1066 -47 
Q 922 -47 784 33 
Q 647 113 581 261 
Q 516 409 516 719 
L 516 2644 
L 63 2644 
L 63 2747 
Q 234 2816 414 2980 
Q 594 3144 734 3369 
Q 806 3488 934 3803 
L 1031 3803 
z
" transform="scale(0.015625)"/>
      </defs>
      <use xlink:href="#TimesNewRomanPSMT-52"/>
      <use xlink:href="#TimesNewRomanPSMT-6f" x="66.699219"/>
      <use xlink:href="#TimesNewRomanPSMT-6f" x="116.699219"/>
      <use xlink:href="#TimesNewRomanPSMT-74" x="166.699219"/>
      <use xlink:href="#TimesNewRomanPSMT-20" x="194.482422"/>
      <use xlink:href="#TimesNewRomanPSMT-48" x="219.482422"/>
      <use xlink:href="#TimesNewRomanPSMT-54" x="291.699219"/>
      <use xlink:href="#TimesNewRomanPSMT-4f" x="351.033203"/>
     </g>
    </g>
    <g id="line2d_34">
     <path d="M 256.46764 176.657794 
L 264.38114 176.657794 
L 272.29464 176.657794 
" style="fill: none; stroke: #d62728; stroke-width: 1.5; stroke-linecap: square"/>
    </g>
    <g id="text_17">
     <!-- Root OBT -->
     <g transform="translate(278.62544 179.427519) scale(0.079135 -0.079135)">
      <use xlink:href="#TimesNewRomanPSMT-52"/>
      <use xlink:href="#TimesNewRomanPSMT-6f" x="66.699219"/>
      <use xlink:href="#TimesNewRomanPSMT-6f" x="116.699219"/>
      <use xlink:href="#TimesNewRomanPSMT-74" x="166.699219"/>
      <use xlink:href="#TimesNewRomanPSMT-20" x="194.482422"/>
      <use xlink:href="#TimesNewRomanPSMT-4f" x="219.482422"/>
      <use xlink:href="#TimesNewRomanPSMT-42" x="291.699219"/>
      <use xlink:href="#TimesNewRomanPSMT-54" x="358.398438"/>
     </g>
    </g>
   </g>
  </g>
 </g>
 <defs>
  <clipPath id="p8f32803799">
   <rect x="37.76524" y="3.00024" width="283.23452" height="185.242176"/>
  </clipPath>
 </defs>
</svg>
