<?xml version="1.0" encoding="utf-8" standalone="no"?>
<!DOCTYPE svg PUBLIC "-//W3C//DTD SVG 1.1//EN"
  "http://www.w3.org/Graphics/SVG/1.1/DTD/svg11.dtd">
<svg xmlns:xlink="http://www.w3.org/1999/xlink" width="324pt" height="216pt" viewBox="0 0 324 216" xmlns="http://www.w3.org/2000/svg" version="1.1">
 <metadata>
  <rdf:RDF xmlns:dc="http://purl.org/dc/elements/1.1/" xmlns:cc="http://creativecommons.org/ns#" xmlns:rdf="http://www.w3.org/1999/02/22-rdf-syntax-ns#">
   <cc:Work>
    <dc:type rdf:resource="http://purl.org/dc/dcmitype/StillImage"/>
    <dc:date>2024-05-06T09:23:40.752157</dc:date>
    <dc:format>image/svg+xml</dc:format>
    <dc:creator>
     <cc:Agent>
      <dc:title>Matplotlib v3.7.2, https://matplotlib.org/</dc:title>
     </cc:Agent>
    </dc:creator>
   </cc:Work>
  </rdf:RDF>
 </metadata>
 <defs>
  <style type="text/css">*{stroke-linejoin: round; stroke-linecap: butt}</style>
 </defs>
 <g id="figure_1">
  <g id="patch_1">
   <path d="M 0 216 
L 324 216 
L 324 0 
L 0 0 
z
" style="fill: #ffffff"/>
  </g>
  <g id="axes_1">
   <g id="patch_2">
    <path d="M 37.76524 188.242416 
L 320.99976 188.242416 
L 320.99976 3.00024 
L 37.76524 3.00024 
z
" style="fill: #ffffff"/>
   </g>
   <g id="matplotlib.axis_1">
    <g id="xtick_1">
     <g id="line2d_1">
      <defs>
       <path id="m4da109141a" d="M 0 0 
L 0 -3.5 
" style="stroke: #000000; stroke-width: 0.8"/>
      </defs>
      <g>
       <use xlink:href="#m4da109141a" x="50.639536" y="188.242416" style="stroke: #000000; stroke-width: 0.8"/>
      </g>
     </g>
     <g id="text_1">
      <!-- $\mathdefault{0}$ -->
      <g transform="translate(48.264536 198.338979) scale(0.095 -0.095)">
       <defs>
        <path id="TimesNewRomanPSMT-30" d="M 231 2094 
Q 231 2819 450 3342 
Q 669 3866 1031 4122 
Q 1313 4325 1613 4325 
Q 2100 4325 2488 3828 
Q 2972 3213 2972 2159 
Q 2972 1422 2759 906 
Q 2547 391 2217 158 
Q 1888 -75 1581 -75 
Q 975 -75 572 641 
Q 231 1244 231 2094 
z
M 844 2016 
Q 844 1141 1059 588 
Q 1238 122 1591 122 
Q 1759 122 1940 273 
Q 2122 425 2216 781 
Q 2359 1319 2359 2297 
Q 2359 3022 2209 3506 
Q 2097 3866 1919 4016 
Q 1791 4119 1609 4119 
Q 1397 4119 1231 3928 
Q 1006 3669 925 3112 
Q 844 2556 844 2016 
z
" transform="scale(0.015625)"/>
       </defs>
       <use xlink:href="#TimesNewRomanPSMT-30" transform="translate(0 0.421875)"/>
      </g>
     </g>
    </g>
    <g id="xtick_2">
     <g id="line2d_2">
      <g>
       <use xlink:href="#m4da109141a" x="106.614738" y="188.242416" style="stroke: #000000; stroke-width: 0.8"/>
      </g>
     </g>
     <g id="text_2">
      <!-- $\mathdefault{20}$ -->
      <g transform="translate(101.864738 198.338979) scale(0.095 -0.095)">
       <defs>
        <path id="TimesNewRomanPSMT-32" d="M 2934 816 
L 2638 0 
L 138 0 
L 138 116 
Q 1241 1122 1691 1759 
Q 2141 2397 2141 2925 
Q 2141 3328 1894 3587 
Q 1647 3847 1303 3847 
Q 991 3847 742 3664 
Q 494 3481 375 3128 
L 259 3128 
Q 338 3706 661 4015 
Q 984 4325 1469 4325 
Q 1984 4325 2329 3994 
Q 2675 3663 2675 3213 
Q 2675 2891 2525 2569 
Q 2294 2063 1775 1497 
Q 997 647 803 472 
L 1909 472 
Q 2247 472 2383 497 
Q 2519 522 2628 598 
Q 2738 675 2819 816 
L 2934 816 
z
" transform="scale(0.015625)"/>
       </defs>
       <use xlink:href="#TimesNewRomanPSMT-32" transform="translate(0 0.421875)"/>
       <use xlink:href="#TimesNewRomanPSMT-30" transform="translate(50 0.421875)"/>
      </g>
     </g>
    </g>
    <g id="xtick_3">
     <g id="line2d_3">
      <g>
       <use xlink:href="#m4da109141a" x="162.58994" y="188.242416" style="stroke: #000000; stroke-width: 0.8"/>
      </g>
     </g>
     <g id="text_3">
      <!-- $\mathdefault{40}$ -->
      <g transform="translate(157.83994 198.338979) scale(0.095 -0.095)">
       <defs>
        <path id="TimesNewRomanPSMT-34" d="M 2978 1563 
L 2978 1119 
L 2409 1119 
L 2409 0 
L 1894 0 
L 1894 1119 
L 100 1119 
L 100 1519 
L 2066 4325 
L 2409 4325 
L 2409 1563 
L 2978 1563 
z
M 1894 1563 
L 1894 3666 
L 406 1563 
L 1894 1563 
z
" transform="scale(0.015625)"/>
       </defs>
       <use xlink:href="#TimesNewRomanPSMT-34" transform="translate(0 0.421875)"/>
       <use xlink:href="#TimesNewRomanPSMT-30" transform="translate(50 0.421875)"/>
      </g>
     </g>
    </g>
    <g id="xtick_4">
     <g id="line2d_4">
      <g>
       <use xlink:href="#m4da109141a" x="218.565141" y="188.242416" style="stroke: #000000; stroke-width: 0.8"/>
      </g>
     </g>
     <g id="text_4">
      <!-- $\mathdefault{60}$ -->
      <g transform="translate(213.815141 198.338979) scale(0.095 -0.095)">
       <defs>
        <path id="TimesNewRomanPSMT-36" d="M 2869 4325 
L 2869 4209 
Q 2456 4169 2195 4045 
Q 1934 3922 1679 3669 
Q 1425 3416 1258 3105 
Q 1091 2794 978 2366 
Q 1428 2675 1881 2675 
Q 2316 2675 2634 2325 
Q 2953 1975 2953 1425 
Q 2953 894 2631 456 
Q 2244 -75 1606 -75 
Q 1172 -75 869 213 
Q 275 772 275 1663 
Q 275 2231 503 2743 
Q 731 3256 1154 3653 
Q 1578 4050 1965 4187 
Q 2353 4325 2688 4325 
L 2869 4325 
z
M 925 2138 
Q 869 1716 869 1456 
Q 869 1156 980 804 
Q 1091 453 1309 247 
Q 1469 100 1697 100 
Q 1969 100 2183 356 
Q 2397 613 2397 1088 
Q 2397 1622 2184 2012 
Q 1972 2403 1581 2403 
Q 1463 2403 1327 2353 
Q 1191 2303 925 2138 
z
" transform="scale(0.015625)"/>
       </defs>
       <use xlink:href="#TimesNewRomanPSMT-36" transform="translate(0 0.421875)"/>
       <use xlink:href="#TimesNewRomanPSMT-30" transform="translate(50 0.421875)"/>
      </g>
     </g>
    </g>
    <g id="xtick_5">
     <g id="line2d_5">
      <g>
       <use xlink:href="#m4da109141a" x="274.540343" y="188.242416" style="stroke: #000000; stroke-width: 0.8"/>
      </g>
     </g>
     <g id="text_5">
      <!-- $\mathdefault{80}$ -->
      <g transform="translate(269.790343 198.338979) scale(0.095 -0.095)">
       <defs>
        <path id="TimesNewRomanPSMT-38" d="M 1228 2134 
Q 725 2547 579 2797 
Q 434 3047 434 3316 
Q 434 3728 753 4026 
Q 1072 4325 1600 4325 
Q 2113 4325 2425 4047 
Q 2738 3769 2738 3413 
Q 2738 3175 2569 2928 
Q 2400 2681 1866 2347 
Q 2416 1922 2594 1678 
Q 2831 1359 2831 1006 
Q 2831 559 2490 242 
Q 2150 -75 1597 -75 
Q 994 -75 656 303 
Q 388 606 388 966 
Q 388 1247 577 1523 
Q 766 1800 1228 2134 
z
M 1719 2469 
Q 2094 2806 2194 3001 
Q 2294 3197 2294 3444 
Q 2294 3772 2109 3958 
Q 1925 4144 1606 4144 
Q 1288 4144 1088 3959 
Q 888 3775 888 3528 
Q 888 3366 970 3203 
Q 1053 3041 1206 2894 
L 1719 2469 
z
M 1375 2016 
Q 1116 1797 991 1539 
Q 866 1281 866 981 
Q 866 578 1086 336 
Q 1306 94 1647 94 
Q 1984 94 2187 284 
Q 2391 475 2391 747 
Q 2391 972 2272 1150 
Q 2050 1481 1375 2016 
z
" transform="scale(0.015625)"/>
       </defs>
       <use xlink:href="#TimesNewRomanPSMT-38" transform="translate(0 0.421875)"/>
       <use xlink:href="#TimesNewRomanPSMT-30" transform="translate(50 0.421875)"/>
      </g>
     </g>
    </g>
    <g id="xtick_6">
     <g id="line2d_6">
      <defs>
       <path id="mc17aa559db" d="M 0 0 
L 0 -2 
" style="stroke: #000000; stroke-width: 0.6"/>
      </defs>
      <g>
       <use xlink:href="#mc17aa559db" x="64.633337" y="188.242416" style="stroke: #000000; stroke-width: 0.6"/>
      </g>
     </g>
    </g>
    <g id="xtick_7">
     <g id="line2d_7">
      <g>
       <use xlink:href="#mc17aa559db" x="78.627137" y="188.242416" style="stroke: #000000; stroke-width: 0.6"/>
      </g>
     </g>
    </g>
    <g id="xtick_8">
     <g id="line2d_8">
      <g>
       <use xlink:href="#mc17aa559db" x="92.620938" y="188.242416" style="stroke: #000000; stroke-width: 0.6"/>
      </g>
     </g>
    </g>
    <g id="xtick_9">
     <g id="line2d_9">
      <g>
       <use xlink:href="#mc17aa559db" x="120.608538" y="188.242416" style="stroke: #000000; stroke-width: 0.6"/>
      </g>
     </g>
    </g>
    <g id="xtick_10">
     <g id="line2d_10">
      <g>
       <use xlink:href="#mc17aa559db" x="134.602339" y="188.242416" style="stroke: #000000; stroke-width: 0.6"/>
      </g>
     </g>
    </g>
    <g id="xtick_11">
     <g id="line2d_11">
      <g>
       <use xlink:href="#mc17aa559db" x="148.596139" y="188.242416" style="stroke: #000000; stroke-width: 0.6"/>
      </g>
     </g>
    </g>
    <g id="xtick_12">
     <g id="line2d_12">
      <g>
       <use xlink:href="#mc17aa559db" x="176.58374" y="188.242416" style="stroke: #000000; stroke-width: 0.6"/>
      </g>
     </g>
    </g>
    <g id="xtick_13">
     <g id="line2d_13">
      <g>
       <use xlink:href="#mc17aa559db" x="190.57754" y="188.242416" style="stroke: #000000; stroke-width: 0.6"/>
      </g>
     </g>
    </g>
    <g id="xtick_14">
     <g id="line2d_14">
      <g>
       <use xlink:href="#mc17aa559db" x="204.571341" y="188.242416" style="stroke: #000000; stroke-width: 0.6"/>
      </g>
     </g>
    </g>
    <g id="xtick_15">
     <g id="line2d_15">
      <g>
       <use xlink:href="#mc17aa559db" x="232.558942" y="188.242416" style="stroke: #000000; stroke-width: 0.6"/>
      </g>
     </g>
    </g>
    <g id="xtick_16">
     <g id="line2d_16">
      <g>
       <use xlink:href="#mc17aa559db" x="246.552742" y="188.242416" style="stroke: #000000; stroke-width: 0.6"/>
      </g>
     </g>
    </g>
    <g id="xtick_17">
     <g id="line2d_17">
      <g>
       <use xlink:href="#mc17aa559db" x="260.546542" y="188.242416" style="stroke: #000000; stroke-width: 0.6"/>
      </g>
     </g>
    </g>
    <g id="xtick_18">
     <g id="line2d_18">
      <g>
       <use xlink:href="#mc17aa559db" x="288.534143" y="188.242416" style="stroke: #000000; stroke-width: 0.6"/>
      </g>
     </g>
    </g>
    <g id="xtick_19">
     <g id="line2d_19">
      <g>
       <use xlink:href="#mc17aa559db" x="302.527943" y="188.242416" style="stroke: #000000; stroke-width: 0.6"/>
      </g>
     </g>
    </g>
    <g id="xtick_20">
     <g id="line2d_20">
      <g>
       <use xlink:href="#mc17aa559db" x="316.521744" y="188.242416" style="stroke: #000000; stroke-width: 0.6"/>
      </g>
     </g>
    </g>
    <g id="text_6">
     <!-- 时间 / d -->
     <g transform="translate(163.812891 210.967651) scale(0.095 -0.095)">
      <defs>
       <path id="SimSun-65f6" d="M 4500 3600 
Q 4500 4575 4475 5225 
L 5100 4900 
L 4850 4725 
L 4850 3600 
L 5225 3600 
L 5550 3925 
L 6025 3450 
L 4850 3450 
L 4850 100 
Q 4850 -375 4300 -575 
Q 4275 -200 3475 -25 
L 3475 100 
Q 4150 0 4325 25 
Q 4500 50 4500 325 
L 4500 3450 
L 3200 3450 
Q 2875 3450 2600 3375 
L 2375 3600 
L 4500 3600 
z
M 2875 2825 
Q 3525 2375 3637 2200 
Q 3750 2025 3750 1925 
Q 3750 1800 3637 1637 
Q 3525 1475 3475 1475 
Q 3400 1475 3325 1775 
Q 3200 2225 2800 2750 
L 2875 2825 
z
M 925 4150 
L 925 2650 
L 1950 2650 
L 1950 4150 
L 925 4150 
z
M 925 2500 
L 925 900 
L 1950 900 
L 1950 2500 
L 925 2500 
z
M 2300 2000 
Q 2300 800 2325 450 
L 1950 250 
L 1950 750 
L 925 750 
L 925 225 
L 550 25 
Q 575 825 575 2425 
Q 575 4025 550 4500 
L 950 4300 
L 1900 4300 
L 2100 4550 
L 2500 4225 
L 2300 4050 
L 2300 2000 
z
" transform="scale(0.015625)"/>
       <path id="SimSun-95f4" d="M 2150 525 
Q 2175 1325 2175 2112 
Q 2175 2900 2150 3675 
L 2525 3450 
L 3750 3450 
L 4000 3700 
L 4325 3375 
L 4125 3200 
Q 4125 1550 4150 775 
L 3800 575 
L 3800 975 
L 2500 975 
L 2500 700 
L 2150 525 
z
M 2500 3300 
L 2500 2325 
L 3800 2325 
L 3800 3300 
L 2500 3300 
z
M 2500 2175 
L 2500 1125 
L 3800 1125 
L 3800 2175 
L 2500 2175 
z
M 1275 5200 
Q 1850 4825 1950 4675 
Q 2050 4525 2050 4425 
Q 2050 4275 1950 4137 
Q 1850 4000 1825 4000 
Q 1750 4000 1675 4275 
Q 1550 4650 1200 5125 
L 1275 5200 
z
M 1125 425 
Q 1125 25 1150 -375 
L 750 -525 
Q 775 -150 775 1950 
Q 775 4050 750 4425 
L 1350 4125 
L 1125 3975 
L 1125 425 
z
M 4225 125 
Q 5025 0 5125 37 
Q 5225 75 5225 250 
L 5225 4450 
L 3225 4450 
Q 2900 4450 2625 4375 
L 2400 4600 
L 5175 4600 
L 5425 4850 
L 5775 4500 
L 5575 4350 
L 5575 225 
Q 5575 -100 5462 -250 
Q 5350 -400 5000 -550 
Q 4800 -125 4225 25 
L 4225 125 
z
" transform="scale(0.015625)"/>
       <path id="TimesNewRomanPSMT-20" transform="scale(0.015625)"/>
       <path id="TimesNewRomanPSMT-2f" d="M 1794 4444 
L 259 -88 
L 9 -88 
L 1544 4444 
L 1794 4444 
z
" transform="scale(0.015625)"/>
       <path id="TimesNewRomanPSMT-64" d="M 2222 322 
Q 2013 103 1813 7 
Q 1613 -88 1381 -88 
Q 913 -88 563 304 
Q 213 697 213 1313 
Q 213 1928 600 2439 
Q 988 2950 1597 2950 
Q 1975 2950 2222 2709 
L 2222 3238 
Q 2222 3728 2198 3840 
Q 2175 3953 2125 3993 
Q 2075 4034 2000 4034 
Q 1919 4034 1784 3984 
L 1744 4094 
L 2597 4444 
L 2738 4444 
L 2738 1134 
Q 2738 631 2761 520 
Q 2784 409 2836 365 
Q 2888 322 2956 322 
Q 3041 322 3181 375 
L 3216 266 
L 2366 -88 
L 2222 -88 
L 2222 322 
z
M 2222 541 
L 2222 2016 
Q 2203 2228 2109 2403 
Q 2016 2578 1861 2667 
Q 1706 2756 1559 2756 
Q 1284 2756 1069 2509 
Q 784 2184 784 1559 
Q 784 928 1059 592 
Q 1334 256 1672 256 
Q 1956 256 2222 541 
z
" transform="scale(0.015625)"/>
      </defs>
      <use xlink:href="#SimSun-65f6"/>
      <use xlink:href="#SimSun-95f4" x="100"/>
      <use xlink:href="#TimesNewRomanPSMT-20" x="200"/>
      <use xlink:href="#TimesNewRomanPSMT-2f" x="225"/>
      <use xlink:href="#TimesNewRomanPSMT-20" x="252.783203"/>
      <use xlink:href="#TimesNewRomanPSMT-64" x="277.783203"/>
     </g>
    </g>
   </g>
   <g id="matplotlib.axis_2">
    <g id="ytick_1">
     <g id="line2d_21">
      <defs>
       <path id="mcbe29d5813" d="M 0 0 
L 3.5 0 
" style="stroke: #000000; stroke-width: 0.8"/>
      </defs>
      <g>
       <use xlink:href="#mcbe29d5813" x="37.76524" y="167.982669" style="stroke: #000000; stroke-width: 0.8"/>
      </g>
     </g>
     <g id="text_7">
      <!-- $\mathdefault{10^{-3}}$ -->
      <g transform="translate(17.07024 172.191614) scale(0.095 -0.095)">
       <defs>
        <path id="TimesNewRomanPSMT-31" d="M 750 3822 
L 1781 4325 
L 1884 4325 
L 1884 747 
Q 1884 391 1914 303 
Q 1944 216 2037 169 
Q 2131 122 2419 116 
L 2419 0 
L 825 0 
L 825 116 
Q 1125 122 1212 167 
Q 1300 213 1334 289 
Q 1369 366 1369 747 
L 1369 3034 
Q 1369 3497 1338 3628 
Q 1316 3728 1258 3775 
Q 1200 3822 1119 3822 
Q 1003 3822 797 3725 
L 750 3822 
z
" transform="scale(0.015625)"/>
        <path id="TimesNewRomanPSMT-2212" d="M 3484 2000 
L 116 2000 
L 116 2256 
L 3484 2256 
L 3484 2000 
z
" transform="scale(0.015625)"/>
        <path id="TimesNewRomanPSMT-33" d="M 325 3431 
Q 506 3859 782 4092 
Q 1059 4325 1472 4325 
Q 1981 4325 2253 3994 
Q 2459 3747 2459 3466 
Q 2459 3003 1878 2509 
Q 2269 2356 2469 2072 
Q 2669 1788 2669 1403 
Q 2669 853 2319 450 
Q 1863 -75 997 -75 
Q 569 -75 414 31 
Q 259 138 259 259 
Q 259 350 332 419 
Q 406 488 509 488 
Q 588 488 669 463 
Q 722 447 909 348 
Q 1097 250 1169 231 
Q 1284 197 1416 197 
Q 1734 197 1970 444 
Q 2206 691 2206 1028 
Q 2206 1275 2097 1509 
Q 2016 1684 1919 1775 
Q 1784 1900 1550 2001 
Q 1316 2103 1072 2103 
L 972 2103 
L 972 2197 
Q 1219 2228 1467 2375 
Q 1716 2522 1828 2728 
Q 1941 2934 1941 3181 
Q 1941 3503 1739 3701 
Q 1538 3900 1238 3900 
Q 753 3900 428 3381 
L 325 3431 
z
" transform="scale(0.015625)"/>
       </defs>
       <use xlink:href="#TimesNewRomanPSMT-31" transform="translate(0 0.582813)"/>
       <use xlink:href="#TimesNewRomanPSMT-30" transform="translate(50 0.582813)"/>
       <use xlink:href="#TimesNewRomanPSMT-2212" transform="translate(101.502813 60.695312) scale(0.7)"/>
       <use xlink:href="#TimesNewRomanPSMT-33" transform="translate(140.980352 60.695312) scale(0.7)"/>
      </g>
     </g>
    </g>
    <g id="ytick_2">
     <g id="line2d_22">
      <g>
       <use xlink:href="#mcbe29d5813" x="37.76524" y="140.393026" style="stroke: #000000; stroke-width: 0.8"/>
      </g>
     </g>
     <g id="text_8">
      <!-- $\mathdefault{10^{-1}}$ -->
      <g transform="translate(17.07024 144.601971) scale(0.095 -0.095)">
       <use xlink:href="#TimesNewRomanPSMT-31" transform="translate(0 0.582813)"/>
       <use xlink:href="#TimesNewRomanPSMT-30" transform="translate(50 0.582813)"/>
       <use xlink:href="#TimesNewRomanPSMT-2212" transform="translate(101.502813 60.695312) scale(0.7)"/>
       <use xlink:href="#TimesNewRomanPSMT-31" transform="translate(140.980352 60.695312) scale(0.7)"/>
      </g>
     </g>
    </g>
    <g id="ytick_3">
     <g id="line2d_23">
      <g>
       <use xlink:href="#mcbe29d5813" x="37.76524" y="112.803383" style="stroke: #000000; stroke-width: 0.8"/>
      </g>
     </g>
     <g id="text_9">
      <!-- $\mathdefault{10^{1}}$ -->
      <g transform="translate(20.87024 117.012329) scale(0.095 -0.095)">
       <use xlink:href="#TimesNewRomanPSMT-31" transform="translate(0 0.582813)"/>
       <use xlink:href="#TimesNewRomanPSMT-30" transform="translate(50 0.582813)"/>
       <use xlink:href="#TimesNewRomanPSMT-31" transform="translate(101.502813 60.695312) scale(0.7)"/>
      </g>
     </g>
    </g>
    <g id="ytick_4">
     <g id="line2d_24">
      <g>
       <use xlink:href="#mcbe29d5813" x="37.76524" y="85.213741" style="stroke: #000000; stroke-width: 0.8"/>
      </g>
     </g>
     <g id="text_10">
      <!-- $\mathdefault{10^{3}}$ -->
      <g transform="translate(20.87024 89.422686) scale(0.095 -0.095)">
       <use xlink:href="#TimesNewRomanPSMT-31" transform="translate(0 0.582813)"/>
       <use xlink:href="#TimesNewRomanPSMT-30" transform="translate(50 0.582813)"/>
       <use xlink:href="#TimesNewRomanPSMT-33" transform="translate(101.502813 60.695312) scale(0.7)"/>
      </g>
     </g>
    </g>
    <g id="ytick_5">
     <g id="line2d_25">
      <g>
       <use xlink:href="#mcbe29d5813" x="37.76524" y="57.624098" style="stroke: #000000; stroke-width: 0.8"/>
      </g>
     </g>
     <g id="text_11">
      <!-- $\mathdefault{10^{5}}$ -->
      <g transform="translate(20.87024 61.785543) scale(0.095 -0.095)">
       <defs>
        <path id="TimesNewRomanPSMT-35" d="M 2778 4238 
L 2534 3706 
L 1259 3706 
L 981 3138 
Q 1809 3016 2294 2522 
Q 2709 2097 2709 1522 
Q 2709 1188 2573 903 
Q 2438 619 2231 419 
Q 2025 219 1772 97 
Q 1413 -75 1034 -75 
Q 653 -75 479 54 
Q 306 184 306 341 
Q 306 428 378 495 
Q 450 563 559 563 
Q 641 563 702 538 
Q 763 513 909 409 
Q 1144 247 1384 247 
Q 1750 247 2026 523 
Q 2303 800 2303 1197 
Q 2303 1581 2056 1914 
Q 1809 2247 1375 2428 
Q 1034 2569 447 2591 
L 1259 4238 
L 2778 4238 
z
" transform="scale(0.015625)"/>
       </defs>
       <use xlink:href="#TimesNewRomanPSMT-31" transform="translate(0 0.534375)"/>
       <use xlink:href="#TimesNewRomanPSMT-30" transform="translate(50 0.534375)"/>
       <use xlink:href="#TimesNewRomanPSMT-35" transform="translate(101.502813 60.646875) scale(0.7)"/>
      </g>
     </g>
    </g>
    <g id="ytick_6">
     <g id="line2d_26">
      <g>
       <use xlink:href="#mcbe29d5813" x="37.76524" y="30.034455" style="stroke: #000000; stroke-width: 0.8"/>
      </g>
     </g>
     <g id="text_12">
      <!-- $\mathdefault{10^{7}}$ -->
      <g transform="translate(20.87024 34.1959) scale(0.095 -0.095)">
       <defs>
        <path id="TimesNewRomanPSMT-37" d="M 644 4238 
L 2916 4238 
L 2916 4119 
L 1503 -88 
L 1153 -88 
L 2419 3728 
L 1253 3728 
Q 900 3728 750 3644 
Q 488 3500 328 3200 
L 238 3234 
L 644 4238 
z
" transform="scale(0.015625)"/>
       </defs>
       <use xlink:href="#TimesNewRomanPSMT-31" transform="translate(0 0.534375)"/>
       <use xlink:href="#TimesNewRomanPSMT-30" transform="translate(50 0.534375)"/>
       <use xlink:href="#TimesNewRomanPSMT-37" transform="translate(101.502813 60.646875) scale(0.7)"/>
      </g>
     </g>
    </g>
    <g id="text_13">
     <!-- 氚浓度$\;/\;\mathrm{(Bq/m^{2})}$ -->
     <g transform="translate(10.98024 128.776328) rotate(-90) scale(0.095 -0.095)">
      <defs>
       <path id="SimSun-6c1a" d="M 1925 2375 
L 1700 2175 
Q 1700 1475 1600 962 
Q 1500 450 1175 62 
Q 850 -325 375 -625 
L 325 -550 
Q 675 -250 887 62 
Q 1100 375 1200 762 
Q 1300 1150 1325 1737 
Q 1350 2325 1350 2650 
L 1925 2375 
z
M 2400 -500 
Q 2425 -75 2425 425 
L 2425 1800 
Q 2425 2225 2400 2450 
L 3000 2175 
L 2750 2000 
L 2750 525 
Q 2750 -50 2775 -350 
L 2400 -500 
z
M 3525 -575 
Q 3550 -100 3550 475 
L 3550 1825 
Q 3550 2425 3525 2650 
L 4125 2375 
L 3875 2200 
L 3875 525 
Q 3875 0 3900 -400 
L 3525 -575 
z
M 2050 4825 
Q 1925 4625 1825 4450 
L 5025 4450 
L 5375 4800 
L 5875 4300 
L 1775 4300 
Q 1525 3850 1150 3400 
Q 775 2950 350 2625 
L 275 2700 
Q 625 3025 1050 3700 
Q 1475 4375 1725 5250 
L 2275 4925 
L 2050 4825 
z
M 1600 3800 
L 4500 3800 
L 4800 4100 
L 5250 3650 
L 2475 3650 
Q 2050 3650 1825 3575 
L 1600 3800 
z
M 5650 -75 
L 5850 850 
L 5950 850 
Q 5925 525 5937 100 
Q 5950 -325 6050 -500 
Q 6100 -600 6000 -600 
Q 5900 -600 5575 -500 
Q 5250 -400 4912 150 
Q 4575 700 4525 1350 
Q 4475 2000 4500 2950 
L 1975 2950 
Q 1650 2950 1375 2875 
L 1150 3100 
L 4450 3100 
L 4675 3350 
L 5075 3025 
L 4825 2875 
Q 4750 1250 5025 675 
Q 5300 100 5650 -75 
z
" transform="scale(0.015625)"/>
       <path id="SimSun-6d53" d="M 4900 3200 
L 5250 3875 
L 3750 3875 
Q 3700 3725 3650 3575 
Q 3925 2450 4300 1925 
Q 5050 2600 5250 2975 
L 5650 2525 
Q 5275 2450 4962 2225 
Q 4650 2000 4375 1800 
Q 5075 750 6100 350 
L 6100 250 
Q 5650 275 5500 -25 
Q 3900 1250 3575 3375 
Q 3325 2800 3075 2375 
L 3375 2225 
L 3225 2075 
L 3225 100 
L 4175 600 
L 4225 500 
Q 3350 -100 3100 -500 
L 2775 -125 
Q 2900 -50 2875 425 
L 2875 2000 
Q 2200 1175 1475 625 
L 1425 700 
Q 2850 2150 3400 3875 
L 2575 3875 
Q 2600 3475 2475 3337 
Q 2350 3200 2187 3225 
Q 2025 3250 2025 3325 
Q 2025 3400 2150 3550 
Q 2375 3800 2475 4300 
L 2575 4300 
L 2575 4025 
L 3425 4025 
Q 3500 4325 3550 4637 
Q 3600 4950 3625 5225 
L 4175 4950 
L 3975 4800 
Q 3875 4375 3775 4025 
L 5200 4025 
L 5450 4300 
L 5900 3800 
Q 5500 3800 4975 3150 
L 4900 3200 
z
M 1975 3900 
Q 1350 1400 1287 1087 
Q 1225 775 1225 325 
Q 1225 -125 1225 -287 
Q 1225 -450 1125 -450 
Q 1050 -450 887 -375 
Q 725 -300 725 -100 
Q 725 75 775 250 
Q 850 500 850 675 
Q 850 825 750 925 
Q 650 1025 275 1125 
L 275 1225 
Q 725 1175 812 1200 
Q 900 1225 1037 1450 
Q 1175 1675 1875 3925 
L 1975 3900 
z
M 300 3500 
Q 1125 3150 1137 2900 
Q 1150 2650 1050 2537 
Q 950 2425 925 2425 
Q 850 2425 775 2675 
Q 650 3000 250 3425 
L 300 3500 
z
M 875 4950 
Q 1550 4650 1625 4525 
Q 1700 4400 1700 4300 
Q 1700 4175 1600 4025 
Q 1500 3875 1450 3875 
Q 1350 3875 1275 4125 
Q 1150 4525 825 4875 
L 875 4950 
z
" transform="scale(0.015625)"/>
       <path id="SimSun-5ea6" d="M 2550 2025 
Q 2575 2525 2575 3175 
L 1925 3175 
L 1625 3125 
L 1425 3325 
L 2575 3325 
Q 2575 3700 2550 4150 
L 3100 3875 
L 2900 3750 
L 2900 3325 
L 4300 3325 
Q 4300 3750 4275 4125 
L 4850 3875 
L 4625 3725 
L 4625 3325 
L 5100 3325 
L 5425 3650 
L 5900 3175 
L 4625 3175 
Q 4625 2450 4650 2225 
L 4300 2075 
L 4300 2300 
L 2900 2300 
L 2900 2175 
L 2550 2025 
z
M 4875 1500 
Q 4300 775 3900 425 
Q 4700 -75 6025 -125 
L 6025 -225 
Q 5625 -300 5550 -550 
Q 4375 -325 3675 225 
Q 2475 -450 1075 -625 
L 1050 -525 
Q 2375 -275 3450 450 
Q 2975 925 2575 1625 
L 2325 1625 
L 2100 1575 
L 1900 1775 
L 4525 1775 
L 4750 2000 
L 5125 1625 
L 4875 1500 
z
M 2700 1625 
Q 3175 975 3650 625 
Q 4150 1100 4500 1625 
L 2700 1625 
z
M 2900 3175 
L 2900 2450 
L 4300 2450 
L 4300 3175 
L 2900 3175 
z
M 975 4650 
L 1400 4400 
L 3375 4400 
Q 3350 4550 3262 4725 
Q 3175 4900 2900 5225 
L 2975 5275 
Q 3550 5025 3637 4887 
Q 3725 4750 3725 4725 
Q 3725 4575 3525 4400 
L 5150 4400 
L 5500 4750 
L 6000 4250 
L 1375 4250 
Q 1400 2750 1287 1912 
Q 1175 1075 925 475 
Q 675 -125 300 -625 
L 225 -575 
Q 725 300 862 1250 
Q 1000 2200 1012 3187 
Q 1025 4175 975 4650 
z
" transform="scale(0.015625)"/>
       <path id="STIXGeneral-Regular-2f" d="M 1837 4326 
L 378 -90 
L -58 -90 
L 1408 4326 
L 1837 4326 
z
" transform="scale(0.015625)"/>
       <path id="STIXGeneral-Regular-28" d="M 1946 -1030 
L 1869 -1133 
Q 1126 -710 716 32 
Q 307 774 307 1613 
Q 307 3386 1888 4326 
L 1946 4224 
Q 1293 3667 1075 3126 
Q 858 2586 858 1632 
Q 858 685 1082 96 
Q 1306 -493 1946 -1030 
z
" transform="scale(0.015625)"/>
       <path id="STIXGeneral-Regular-42" d="M 2701 2234 
L 2701 2227 
Q 3181 2150 3482 1875 
Q 3795 1594 3795 1139 
Q 3795 608 3379 304 
Q 2963 0 2266 0 
L 109 0 
L 109 122 
Q 486 134 604 246 
Q 723 358 723 723 
L 723 3520 
Q 723 3891 614 3990 
Q 506 4090 109 4115 
L 109 4237 
L 1901 4237 
Q 2726 4237 3152 3958 
Q 3578 3680 3578 3168 
Q 3578 2733 3315 2502 
Q 3130 2342 2701 2234 
z
M 1376 2342 
L 1965 2342 
Q 2925 2342 2925 3136 
Q 2925 3546 2640 3773 
Q 2355 4000 1792 4000 
L 1530 4000 
Q 1376 4000 1376 3795 
L 1376 2342 
z
M 1376 2086 
L 1376 525 
Q 1376 365 1462 301 
Q 1549 237 1773 237 
Q 2208 237 2413 285 
Q 2618 333 2816 512 
Q 3059 723 3059 1146 
Q 3059 1632 2758 1830 
Q 2688 1882 2617 1917 
Q 2547 1952 2492 1974 
Q 2438 1997 2348 2016 
Q 2259 2035 2211 2044 
Q 2163 2054 2041 2060 
Q 1920 2067 1862 2070 
Q 1805 2074 1635 2080 
Q 1466 2086 1376 2086 
z
" transform="scale(0.015625)"/>
       <path id="STIXGeneral-Regular-71" d="M 3123 -1389 
L 1613 -1389 
L 1613 -1280 
Q 1952 -1254 2067 -1158 
Q 2182 -1062 2182 -794 
L 2182 410 
Q 1747 -64 1178 -64 
Q 730 -64 442 320 
Q 154 704 154 1312 
Q 154 2003 560 2473 
Q 966 2944 1562 2944 
Q 1920 2944 2304 2720 
L 2650 2925 
L 2720 2925 
L 2720 -902 
Q 2720 -1107 2797 -1180 
Q 2874 -1254 3123 -1280 
L 3123 -1389 
z
M 2182 813 
L 2182 2131 
Q 2182 2758 1587 2758 
Q 1178 2758 941 2432 
Q 704 2106 704 1542 
Q 704 1210 803 925 
Q 902 640 1062 499 
Q 1254 326 1542 326 
Q 1882 326 2106 531 
Q 2182 602 2182 813 
z
" transform="scale(0.015625)"/>
       <path id="STIXGeneral-Regular-6d" d="M 4960 0 
L 3565 0 
L 3565 96 
Q 3834 122 3907 208 
Q 3981 294 3981 576 
L 3981 1894 
Q 3981 2278 3869 2444 
Q 3757 2611 3488 2611 
Q 3264 2611 3107 2521 
Q 2950 2432 2803 2221 
L 2803 608 
Q 2803 301 2896 201 
Q 2989 102 3264 96 
L 3264 0 
L 1830 0 
L 1830 96 
Q 2112 115 2189 188 
Q 2266 262 2266 550 
L 2266 1901 
Q 2266 2611 1850 2611 
Q 1670 2611 1468 2531 
Q 1267 2451 1171 2336 
Q 1088 2240 1088 2227 
L 1088 448 
Q 1088 243 1177 176 
Q 1267 109 1523 96 
L 1523 0 
L 102 0 
L 102 96 
Q 371 102 460 195 
Q 550 288 550 563 
L 550 2150 
Q 550 2387 499 2480 
Q 448 2573 326 2573 
Q 230 2573 122 2547 
L 122 2656 
Q 557 2778 1011 2944 
L 1062 2925 
L 1062 2451 
L 1075 2451 
Q 1363 2752 1584 2848 
Q 1805 2944 2054 2944 
Q 2560 2944 2733 2406 
Q 3232 2944 3776 2944 
Q 4518 2944 4518 1792 
L 4518 493 
Q 4518 282 4582 202 
Q 4646 122 4794 109 
L 4960 96 
L 4960 0 
z
" transform="scale(0.015625)"/>
       <path id="STIXGeneral-Regular-32" d="M 3034 877 
L 2688 0 
L 186 0 
L 186 77 
L 1325 1286 
Q 1773 1754 1965 2144 
Q 2157 2534 2157 2950 
Q 2157 3379 1920 3616 
Q 1683 3853 1267 3853 
Q 922 3853 720 3673 
Q 518 3494 326 3021 
L 192 3053 
Q 301 3648 630 3987 
Q 960 4326 1523 4326 
Q 2054 4326 2380 4006 
Q 2707 3686 2707 3200 
Q 2707 2477 1888 1613 
L 832 486 
L 2330 486 
Q 2541 486 2665 569 
Q 2790 653 2944 915 
L 3034 877 
z
" transform="scale(0.015625)"/>
       <path id="STIXGeneral-Regular-29" d="M 186 4224 
L 262 4326 
Q 992 3891 1408 3148 
Q 1824 2406 1824 1581 
Q 1824 -166 243 -1133 
L 186 -1030 
Q 845 -486 1059 54 
Q 1274 595 1274 1562 
Q 1274 2534 1059 3120 
Q 845 3706 186 4224 
z
" transform="scale(0.015625)"/>
      </defs>
      <use xlink:href="#SimSun-6c1a" transform="translate(0 0.684375)"/>
      <use xlink:href="#SimSun-6d53" transform="translate(100 0.684375)"/>
      <use xlink:href="#SimSun-5ea6" transform="translate(200 0.684375)"/>
      <use xlink:href="#STIXGeneral-Regular-2f" transform="translate(320.055711 0.684375)"/>
      <use xlink:href="#STIXGeneral-Regular-28" transform="translate(367.91141 0.684375)"/>
      <use xlink:href="#STIXGeneral-Regular-42" transform="translate(401.211397 0.684375)"/>
      <use xlink:href="#STIXGeneral-Regular-71" transform="translate(467.911394 0.684375)"/>
      <use xlink:href="#STIXGeneral-Regular-2f" transform="translate(517.911379 0.684375)"/>
      <use xlink:href="#STIXGeneral-Regular-6d" transform="translate(545.711367 0.684375)"/>
      <use xlink:href="#STIXGeneral-Regular-32" transform="translate(625.086355 36.684375) scale(0.7)"/>
      <use xlink:href="#STIXGeneral-Regular-29" transform="translate(664.586344 0.684375)"/>
     </g>
    </g>
   </g>
   <g id="line2d_27">
    <path d="M 50.639536 11.420339 
L 51.572456 22.122612 
L 53.904756 51.09625 
L 55.187521 61.155084 
L 56.120442 66.933536 
L 56.470287 68.278713 
L 56.820132 68.875201 
L 57.286592 69.196453 
L 57.753052 69.212636 
L 58.452742 68.941468 
L 59.385662 68.509608 
L 62.184422 68.379501 
L 64.633337 68.469449 
L 64.866567 67.153518 
L 65.916102 60.068161 
L 66.965637 54.732916 
L 67.665327 51.877309 
L 68.131787 50.953911 
L 68.598247 50.461623 
L 69.181322 50.181356 
L 69.764397 50.143045 
L 70.464087 50.190823 
L 70.813932 49.830491 
L 71.397007 48.765888 
L 73.496077 44.544734 
L 74.079152 43.823708 
L 74.428997 43.656895 
L 74.778842 43.717712 
L 75.128687 44.01709 
L 75.595147 44.804414 
L 76.294837 46.676577 
L 76.994527 49.082258 
L 77.577602 51.767921 
L 78.044062 54.77247 
L 78.393907 58.112481 
L 79.093597 66.655299 
L 79.443442 67.908744 
L 79.676672 68.077534 
L 80.026517 67.908339 
L 80.842822 67.027441 
L 81.542512 66.344635 
L 81.775742 66.439993 
L 82.242202 66.956271 
L 84.224657 69.879208 
L 84.691117 70.913346 
L 85.507422 73.416046 
L 86.323727 76.654793 
L 86.906802 79.808354 
L 87.023417 80.595582 
L 87.140032 80.333164 
L 87.606492 76.522518 
L 88.422797 70.649948 
L 89.355717 65.625469 
L 89.938792 63.102269 
L 90.172022 62.823335 
L 90.405252 62.983051 
L 90.638482 63.508155 
L 90.988328 64.877106 
L 91.571403 68.374874 
L 92.504323 75.81838 
L 92.854168 78.147662 
L 93.204013 79.061604 
L 93.787088 79.794282 
L 95.886158 82.010582 
L 97.402153 84.495525 
L 98.335073 85.708039 
L 99.267993 85.936031 
L 100.550758 86.046059 
L 101.367063 86.124705 
L 103.815978 86.849076 
L 104.515668 86.290497 
L 106.031663 84.806139 
L 106.614738 84.141246 
L 106.964583 84.68416 
L 107.897503 86.135853 
L 108.947038 87.331271 
L 109.413498 87.766428 
L 109.996573 86.657061 
L 110.929493 84.426843 
L 111.745798 81.846212 
L 112.328873 79.870365 
L 112.678718 80.578155 
L 113.495023 82.327234 
L 114.427943 83.76145 
L 115.011018 84.472633 
L 118.043008 68.342904 
L 118.509468 67.393309 
L 119.092543 66.807223 
L 119.792233 66.482062 
L 120.608538 66.365299 
L 120.841768 66.587757 
L 121.308228 67.537434 
L 122.124533 69.939844 
L 123.523913 74.761857 
L 125.273138 81.502852 
L 126.555904 85.559584 
L 128.071899 88.891074 
L 129.004819 90.755062 
L 131.920194 89.036753 
L 134.602339 86.476125 
L 135.768489 83.743832 
L 137.051254 81.340065 
L 137.401099 80.770348 
L 137.867559 81.695863 
L 139.616784 85.823224 
L 140.199859 87.352529 
L 141.599239 86.296415 
L 143.115234 85.113505 
L 146.263839 85.598357 
L 148.596139 86.272084 
L 150.695209 85.829991 
L 151.628129 85.543663 
L 154.310274 84.032719 
L 159.091489 83.295401 
L 160.840714 82.858157 
L 162.58994 82.341731 
L 164.805625 72.682901 
L 165.62193 69.158551 
L 165.85516 69.080904 
L 166.205005 69.301562 
L 167.137925 70.380269 
L 168.304075 71.823519 
L 170.98622 79.243852 
L 171.45268 79.264586 
L 174.01821 79.047035 
L 176.933585 77.737738 
L 179.499115 76.996743 
L 181.364955 75.180021 
L 182.297875 74.291257 
L 182.997565 74.561609 
L 185.21325 75.633877 
L 186.84586 76.703698 
L 188.01201 77.238954 
L 190.57754 77.535416 
L 191.393845 75.958264 
L 193.026455 72.445318 
L 193.492915 71.567234 
L 193.84276 71.821008 
L 194.892295 73.071608 
L 196.291675 74.848997 
L 197.224596 74.452518 
L 201.539351 72.641132 
L 201.889196 72.565908 
L 203.405191 73.303318 
L 204.804571 73.815604 
L 207.486716 74.045491 
L 208.536251 72.82782 
L 210.285476 70.663992 
L 210.635321 70.97906 
L 212.967621 73.634467 
L 213.200851 73.473359 
L 214.483616 71.945809 
L 218.215296 67.025749 
L 218.681756 66.300607 
L 218.914986 66.760349 
L 220.547596 71.630214 
L 221.363901 72.983088 
L 221.597131 72.460956 
L 223.462971 66.434468 
L 224.512506 63.172807 
L 224.978966 62.62106 
L 225.562041 62.289497 
L 226.494961 62.075175 
L 226.961421 62.025435 
L 227.194651 62.307052 
L 227.544496 63.210704 
L 228.360801 66.301374 
L 229.410336 70.031289 
L 229.876796 71.224182 
L 230.110026 71.18239 
L 230.809716 70.657616 
L 232.209096 69.302297 
L 233.258632 68.303638 
L 234.774627 66.901614 
L 235.474317 66.22506 
L 235.707547 66.350398 
L 236.290622 67.092527 
L 237.456772 68.561799 
L 238.273077 69.294066 
L 239.205997 69.632672 
L 241.071837 70.116248 
L 241.538297 69.656264 
L 242.937677 67.843886 
L 243.987212 66.546758 
L 244.337057 66.74312 
L 245.036747 67.528164 
L 246.669357 69.398144 
L 247.485662 69.773871 
L 249.118272 70.547431 
L 250.051192 71.201935 
L 252.150262 72.671129 
L 252.383492 72.452898 
L 253.083182 71.287979 
L 254.016102 69.310307 
L 254.832407 67.024077 
L 255.065637 66.482232 
L 255.182252 66.489701 
L 255.415482 66.815325 
L 255.998557 68.329686 
L 256.814862 70.25559 
L 257.631167 71.596959 
L 257.981012 71.913539 
L 259.263777 72.324005 
L 260.663157 72.717964 
L 261.362847 72.23616 
L 263.112072 70.751582 
L 264.278222 69.800425 
L 266.377292 68.29802 
L 267.193597 68.250332 
L 268.942823 68.217279 
L 269.176053 67.873043 
L 269.875743 66.125572 
L 272.091428 60.319167 
L 272.441273 60.074966 
L 272.791118 60.124979 
L 273.140963 60.424997 
L 273.607423 61.17026 
L 274.190498 62.613876 
L 275.240033 65.560538 
L 276.056338 66.957289 
L 277.339103 68.625397 
L 277.572333 68.702748 
L 278.038793 68.519276 
L 280.487708 67.074805 
L 281.070783 67.310548 
L 282.120318 68.038987 
L 283.053238 68.669784 
L 283.403083 68.222097 
L 284.219388 66.589324 
L 286.201843 62.536564 
L 286.551688 62.51629 
L 286.901533 62.730514 
L 287.484608 63.438981 
L 288.417528 65.047165 
L 288.767373 65.543868 
L 289.117218 65.697081 
L 289.583678 65.62655 
L 290.283368 65.257682 
L 292.732283 63.765683 
L 294.714738 63.057897 
L 295.764273 63.060206 
L 297.396883 63.157201 
L 298.096573 62.755069 
L 299.146108 61.849868 
L 300.545488 60.64491 
L 301.711638 60.072081 
L 303.694094 59.383859 
L 305.793164 58.652335 
L 306.609469 58.01972 
L 308.008849 56.604012 
L 308.125464 56.477821 
L 308.125464 56.477821 
" clip-path="url(#pcb27902542)" style="fill: none; stroke: #1f77b4; stroke-width: 1.5; stroke-linecap: square"/>
   </g>
   <g id="line2d_28">
    <path d="M 81.541727 217 
L 81.542512 124.110907 
L 81.892357 110.399907 
L 82.358817 103.047311 
L 82.941892 98.02809 
L 83.524967 94.827769 
L 84.224657 92.150178 
L 84.807732 90.676629 
L 85.390807 89.753458 
L 86.090497 89.093721 
L 86.790187 88.754473 
L 87.839722 88.384311 
L 88.422797 87.853018 
L 89.122487 86.83701 
L 89.938792 85.218288 
L 91.104943 82.624331 
L 91.688018 81.939126 
L 92.271093 81.614296 
L 93.087398 81.478153 
L 95.652928 81.401569 
L 99.267993 81.511441 
L 105.798433 81.704899 
L 111.862413 81.481436 
L 116.060553 80.599344 
L 116.876858 80.120222 
L 117.693163 79.380679 
L 118.392853 78.480588 
L 120.608538 75.479293 
L 121.541458 74.544968 
L 122.357763 74.046477 
L 123.290683 73.740373 
L 124.573448 73.585427 
L 126.439289 73.621569 
L 129.937739 73.965078 
L 134.718954 74.37 
L 136.818024 74.368221 
L 139.500169 74.309341 
L 156.176114 75.147816 
L 164.105935 75.24896 
L 165.038855 74.971132 
L 165.738545 74.542829 
L 167.48777 73.383572 
L 168.770535 72.772454 
L 169.936685 72.503881 
L 171.68591 72.36932 
L 177.0502 71.981014 
L 182.764335 71.304439 
L 186.3794 70.765188 
L 189.528005 70.580367 
L 192.44338 70.393313 
L 193.84276 70.036052 
L 195.591985 69.646394 
L 206.087336 68.09748 
L 209.585786 67.681612 
L 212.617776 67.193444 
L 217.748836 66.706339 
L 218.798371 66.24423 
L 219.614676 65.953537 
L 220.897441 65.776855 
L 223.346356 65.50341 
L 224.512506 65.145624 
L 225.678656 64.511755 
L 228.127571 63.101353 
L 229.177106 62.955347 
L 241.305067 62.546232 
L 244.103827 62.426655 
L 246.552742 62.333827 
L 250.984112 62.458093 
L 264.861297 63.077251 
L 270.458818 63.029601 
L 272.208043 62.796629 
L 275.006803 62.263117 
L 277.105873 62.272038 
L 294.481508 63.142444 
L 303.577479 64.277831 
L 306.842699 64.990475 
L 308.125464 65.372829 
L 308.125464 65.372829 
" clip-path="url(#pcb27902542)" style="fill: none; stroke: #ff7f0e; stroke-width: 1.5; stroke-linecap: square"/>
   </g>
   <g id="line2d_29">
    <path d="M 50.639536 43.610579 
L 50.872766 35.093375 
L 51.222611 31.968317 
L 51.572456 30.827854 
L 51.922301 30.337639 
L 52.388761 30.073249 
L 53.205066 29.939533 
L 55.653982 29.878524 
L 69.414552 29.652636 
L 73.612692 29.414904 
L 78.277292 29.004803 
L 94.136933 28.964769 
L 130.754044 29.091139 
L 152.211204 29.40503 
L 176.35051 29.995647 
L 196.991365 30.726924 
L 217.282376 31.652233 
L 243.170907 33.045458 
L 279.321558 35.302065 
L 308.125464 37.119248 
L 308.125464 37.119248 
" clip-path="url(#pcb27902542)" style="fill: none; stroke: #2ca02c; stroke-width: 1.5; stroke-linecap: square"/>
   </g>
   <g id="line2d_30">
    <path d="M 109.529798 217 
L 109.530113 179.822317 
L 109.879958 165.697419 
L 110.346418 157.515769 
L 110.929493 151.218181 
L 111.745798 144.886153 
L 112.678718 139.129106 
L 113.261793 136.911403 
L 113.961483 135.052431 
L 114.894403 133.25691 
L 115.360863 132.363415 
L 115.827323 130.986776 
L 116.527013 128.062901 
L 117.576548 122.495915 
L 118.626083 116.94041 
L 119.442388 113.921743 
L 120.375308 111.410398 
L 121.191613 109.771188 
L 121.891303 108.822615 
L 122.707608 108.119464 
L 123.640528 107.641276 
L 124.806678 107.321973 
L 126.555904 107.102269 
L 131.220504 106.82793 
L 134.718954 106.49117 
L 136.468179 106.129653 
L 140.083244 105.219446 
L 143.465079 104.692088 
L 151.045054 103.411397 
L 154.893349 102.645894 
L 162.939785 100.74915 
L 163.872705 100.338057 
L 164.68901 99.715063 
L 165.3887 98.850217 
L 166.671465 97.045483 
L 167.604385 96.149183 
L 168.65392 95.426401 
L 169.703455 95.003451 
L 171.21945 94.670396 
L 177.74989 93.447603 
L 181.598185 92.497972 
L 185.796325 91.303904 
L 189.17816 90.672793 
L 192.67661 89.977377 
L 196.87475 88.77959 
L 201.655966 87.683828 
L 204.804571 86.998345 
L 211.101781 85.709472 
L 213.550696 85.268991 
L 215.999611 84.755707 
L 218.215296 84.071507 
L 219.964521 83.498639 
L 224.046046 82.597007 
L 225.562041 81.751456 
L 227.777726 80.596402 
L 228.943876 80.308007 
L 231.626021 79.995211 
L 234.891242 79.479988 
L 238.273077 78.920678 
L 251.100727 77.532929 
L 255.532097 77.154725 
L 257.981012 76.953471 
L 267.426827 76.315983 
L 271.041893 75.878616 
L 272.674503 75.411912 
L 274.423728 74.968774 
L 276.522798 74.732452 
L 286.784918 73.813237 
L 289.467063 73.496347 
L 294.714738 72.902356 
L 302.178098 71.828796 
L 307.775619 70.692533 
L 308.125464 70.602076 
L 308.125464 70.602076 
" clip-path="url(#pcb27902542)" style="fill: none; stroke: #d62728; stroke-width: 1.5; stroke-linecap: square"/>
   </g>
   <g id="patch_3">
    <path d="M 37.76524 188.242416 
L 37.76524 3.00024 
" style="fill: none; stroke: #000000; stroke-width: 0.8; stroke-linejoin: miter; stroke-linecap: square"/>
   </g>
   <g id="patch_4">
    <path d="M 320.99976 188.242416 
L 320.99976 3.00024 
" style="fill: none; stroke: #000000; stroke-width: 0.8; stroke-linejoin: miter; stroke-linecap: square"/>
   </g>
   <g id="patch_5">
    <path d="M 37.76524 188.242416 
L 320.99976 188.242416 
" style="fill: none; stroke: #000000; stroke-width: 0.8; stroke-linejoin: miter; stroke-linecap: square"/>
   </g>
   <g id="patch_6">
    <path d="M 37.76524 3.00024 
L 320.99976 3.00024 
" style="fill: none; stroke: #000000; stroke-width: 0.8; stroke-linejoin: miter; stroke-linecap: square"/>
   </g>
   <g id="legend_1">
    <g id="patch_7">
     <path d="M 254.88494 184.285666 
L 315.46031 184.285666 
Q 317.04301 184.285666 317.04301 182.702966 
L 317.04301 138.708852 
Q 317.04301 137.126152 315.46031 137.126152 
L 254.88494 137.126152 
Q 253.30224 137.126152 253.30224 138.708852 
L 253.30224 182.702966 
Q 253.30224 184.285666 254.88494 184.285666 
z
" style="fill: #ffffff; opacity: 0.8; stroke: #cccccc; stroke-linejoin: miter"/>
    </g>
    <g id="line2d_31">
     <path d="M 256.46764 143.061277 
L 264.38114 143.061277 
L 272.29464 143.061277 
" style="fill: none; stroke: #1f77b4; stroke-width: 1.5; stroke-linecap: square"/>
    </g>
    <g id="text_14">
     <!-- Body HTO -->
     <g transform="translate(278.62544 145.831002) scale(0.079135 -0.079135)">
      <defs>
       <path id="TimesNewRomanPSMT-42" d="M 2956 2163 
Q 3397 2069 3616 1863 
Q 3919 1575 3919 1159 
Q 3919 844 3719 555 
Q 3519 266 3170 133 
Q 2822 0 2106 0 
L 106 0 
L 106 116 
L 266 116 
Q 531 116 647 284 
Q 719 394 719 750 
L 719 3488 
Q 719 3881 628 3984 
Q 506 4122 266 4122 
L 106 4122 
L 106 4238 
L 1938 4238 
Q 2450 4238 2759 4163 
Q 3228 4050 3475 3764 
Q 3722 3478 3722 3106 
Q 3722 2788 3528 2536 
Q 3334 2284 2956 2163 
z
M 1319 2331 
Q 1434 2309 1582 2298 
Q 1731 2288 1909 2288 
Q 2366 2288 2595 2386 
Q 2825 2484 2947 2687 
Q 3069 2891 3069 3131 
Q 3069 3503 2766 3765 
Q 2463 4028 1881 4028 
Q 1569 4028 1319 3959 
L 1319 2331 
z
M 1319 306 
Q 1681 222 2034 222 
Q 2600 222 2897 476 
Q 3194 731 3194 1106 
Q 3194 1353 3059 1581 
Q 2925 1809 2622 1940 
Q 2319 2072 1872 2072 
Q 1678 2072 1540 2065 
Q 1403 2059 1319 2044 
L 1319 306 
z
" transform="scale(0.015625)"/>
       <path id="TimesNewRomanPSMT-6f" d="M 1600 2947 
Q 2250 2947 2644 2453 
Q 2978 2031 2978 1484 
Q 2978 1100 2793 706 
Q 2609 313 2286 112 
Q 1963 -88 1566 -88 
Q 919 -88 538 428 
Q 216 863 216 1403 
Q 216 1797 411 2186 
Q 606 2575 925 2761 
Q 1244 2947 1600 2947 
z
M 1503 2744 
Q 1338 2744 1170 2645 
Q 1003 2547 900 2300 
Q 797 2053 797 1666 
Q 797 1041 1045 587 
Q 1294 134 1700 134 
Q 2003 134 2200 384 
Q 2397 634 2397 1244 
Q 2397 2006 2069 2444 
Q 1847 2744 1503 2744 
z
" transform="scale(0.015625)"/>
       <path id="TimesNewRomanPSMT-79" d="M 38 2863 
L 1372 2863 
L 1372 2747 
L 1306 2747 
Q 1166 2747 1095 2686 
Q 1025 2625 1025 2534 
Q 1025 2413 1128 2197 
L 1825 753 
L 2466 2334 
Q 2519 2463 2519 2588 
Q 2519 2644 2497 2672 
Q 2472 2706 2419 2726 
Q 2366 2747 2231 2747 
L 2231 2863 
L 3163 2863 
L 3163 2747 
Q 3047 2734 2984 2696 
Q 2922 2659 2847 2556 
Q 2819 2513 2741 2316 
L 1575 -541 
Q 1406 -956 1132 -1168 
Q 859 -1381 606 -1381 
Q 422 -1381 303 -1275 
Q 184 -1169 184 -1031 
Q 184 -900 270 -820 
Q 356 -741 506 -741 
Q 609 -741 788 -809 
Q 913 -856 944 -856 
Q 1038 -856 1148 -759 
Q 1259 -663 1372 -384 
L 1575 113 
L 547 2272 
Q 500 2369 397 2513 
Q 319 2622 269 2659 
Q 197 2709 38 2747 
L 38 2863 
z
" transform="scale(0.015625)"/>
       <path id="TimesNewRomanPSMT-48" d="M 1316 2272 
L 3284 2272 
L 3284 3484 
Q 3284 3809 3244 3913 
Q 3213 3991 3113 4047 
Q 2978 4122 2828 4122 
L 2678 4122 
L 2678 4238 
L 4491 4238 
L 4491 4122 
L 4341 4122 
Q 4191 4122 4056 4050 
Q 3956 4000 3920 3898 
Q 3884 3797 3884 3484 
L 3884 750 
Q 3884 428 3925 325 
Q 3956 247 4053 191 
Q 4191 116 4341 116 
L 4491 116 
L 4491 0 
L 2678 0 
L 2678 116 
L 2828 116 
Q 3088 116 3206 269 
Q 3284 369 3284 750 
L 3284 2041 
L 1316 2041 
L 1316 750 
Q 1316 428 1356 325 
Q 1388 247 1488 191 
Q 1622 116 1772 116 
L 1925 116 
L 1925 0 
L 109 0 
L 109 116 
L 259 116 
Q 522 116 641 269 
Q 716 369 716 750 
L 716 3484 
Q 716 3809 675 3913 
Q 644 3991 547 4047 
Q 409 4122 259 4122 
L 109 4122 
L 109 4238 
L 1925 4238 
L 1925 4122 
L 1772 4122 
Q 1622 4122 1488 4050 
Q 1391 4000 1353 3898 
Q 1316 3797 1316 3484 
L 1316 2272 
z
" transform="scale(0.015625)"/>
       <path id="TimesNewRomanPSMT-54" d="M 3703 4238 
L 3750 3244 
L 3631 3244 
Q 3597 3506 3538 3619 
Q 3441 3800 3280 3886 
Q 3119 3972 2856 3972 
L 2259 3972 
L 2259 734 
Q 2259 344 2344 247 
Q 2463 116 2709 116 
L 2856 116 
L 2856 0 
L 1059 0 
L 1059 116 
L 1209 116 
Q 1478 116 1591 278 
Q 1659 378 1659 734 
L 1659 3972 
L 1150 3972 
Q 853 3972 728 3928 
Q 566 3869 450 3700 
Q 334 3531 313 3244 
L 194 3244 
L 244 4238 
L 3703 4238 
z
" transform="scale(0.015625)"/>
       <path id="TimesNewRomanPSMT-4f" d="M 2341 4334 
Q 3166 4334 3770 3707 
Q 4375 3081 4375 2144 
Q 4375 1178 3765 540 
Q 3156 -97 2291 -97 
Q 1416 -97 820 525 
Q 225 1147 225 2134 
Q 225 3144 913 3781 
Q 1509 4334 2341 4334 
z
M 2281 4106 
Q 1713 4106 1369 3684 
Q 941 3159 941 2147 
Q 941 1109 1384 550 
Q 1725 125 2284 125 
Q 2881 125 3270 590 
Q 3659 1056 3659 2059 
Q 3659 3147 3231 3681 
Q 2888 4106 2281 4106 
z
" transform="scale(0.015625)"/>
      </defs>
      <use xlink:href="#TimesNewRomanPSMT-42"/>
      <use xlink:href="#TimesNewRomanPSMT-6f" x="66.699219"/>
      <use xlink:href="#TimesNewRomanPSMT-64" x="116.699219"/>
      <use xlink:href="#TimesNewRomanPSMT-79" x="166.699219"/>
      <use xlink:href="#TimesNewRomanPSMT-20" x="216.699219"/>
      <use xlink:href="#TimesNewRomanPSMT-48" x="241.699219"/>
      <use xlink:href="#TimesNewRomanPSMT-54" x="313.916016"/>
      <use xlink:href="#TimesNewRomanPSMT-4f" x="373.25"/>
     </g>
    </g>
    <g id="line2d_32">
     <path d="M 256.46764 154.265062 
L 264.38114 154.265062 
L 272.29464 154.265062 
" style="fill: none; stroke: #ff7f0e; stroke-width: 1.5; stroke-linecap: square"/>
    </g>
    <g id="text_15">
     <!-- Body OBT -->
     <g transform="translate(278.62544 157.034787) scale(0.079135 -0.079135)">
      <use xlink:href="#TimesNewRomanPSMT-42"/>
      <use xlink:href="#TimesNewRomanPSMT-6f" x="66.699219"/>
      <use xlink:href="#TimesNewRomanPSMT-64" x="116.699219"/>
      <use xlink:href="#TimesNewRomanPSMT-79" x="166.699219"/>
      <use xlink:href="#TimesNewRomanPSMT-20" x="216.699219"/>
      <use xlink:href="#TimesNewRomanPSMT-4f" x="241.699219"/>
      <use xlink:href="#TimesNewRomanPSMT-42" x="313.916016"/>
      <use xlink:href="#TimesNewRomanPSMT-54" x="380.615234"/>
     </g>
    </g>
    <g id="line2d_33">
     <path d="M 256.46764 165.468847 
L 264.38114 165.468847 
L 272.29464 165.468847 
" style="fill: none; stroke: #2ca02c; stroke-width: 1.5; stroke-linecap: square"/>
    </g>
    <g id="text_16">
     <!-- Root HTO -->
     <g transform="translate(278.62544 168.238572) scale(0.079135 -0.079135)">
      <defs>
       <path id="TimesNewRomanPSMT-52" d="M 4325 0 
L 3194 0 
L 1759 1981 
Q 1600 1975 1500 1975 
Q 1459 1975 1412 1976 
Q 1366 1978 1316 1981 
L 1316 750 
Q 1316 350 1403 253 
Q 1522 116 1759 116 
L 1925 116 
L 1925 0 
L 109 0 
L 109 116 
L 269 116 
Q 538 116 653 291 
Q 719 388 719 750 
L 719 3488 
Q 719 3888 631 3984 
Q 509 4122 269 4122 
L 109 4122 
L 109 4238 
L 1653 4238 
Q 2328 4238 2648 4139 
Q 2969 4041 3192 3777 
Q 3416 3513 3416 3147 
Q 3416 2756 3161 2468 
Q 2906 2181 2372 2063 
L 3247 847 
Q 3547 428 3762 290 
Q 3978 153 4325 116 
L 4325 0 
z
M 1316 2178 
Q 1375 2178 1419 2176 
Q 1463 2175 1491 2175 
Q 2097 2175 2405 2437 
Q 2713 2700 2713 3106 
Q 2713 3503 2464 3751 
Q 2216 4000 1806 4000 
Q 1625 4000 1316 3941 
L 1316 2178 
z
" transform="scale(0.015625)"/>
       <path id="TimesNewRomanPSMT-74" d="M 1031 3803 
L 1031 2863 
L 1700 2863 
L 1700 2644 
L 1031 2644 
L 1031 788 
Q 1031 509 1111 412 
Q 1191 316 1316 316 
Q 1419 316 1516 380 
Q 1613 444 1666 569 
L 1788 569 
Q 1678 263 1478 108 
Q 1278 -47 1066 -47 
Q 922 -47 784 33 
Q 647 113 581 261 
Q 516 409 516 719 
L 516 2644 
L 63 2644 
L 63 2747 
Q 234 2816 414 2980 
Q 594 3144 734 3369 
Q 806 3488 934 3803 
L 1031 3803 
z
" transform="scale(0.015625)"/>
      </defs>
      <use xlink:href="#TimesNewRomanPSMT-52"/>
      <use xlink:href="#TimesNewRomanPSMT-6f" x="66.699219"/>
      <use xlink:href="#TimesNewRomanPSMT-6f" x="116.699219"/>
      <use xlink:href="#TimesNewRomanPSMT-74" x="166.699219"/>
      <use xlink:href="#TimesNewRomanPSMT-20" x="194.482422"/>
      <use xlink:href="#TimesNewRomanPSMT-48" x="219.482422"/>
      <use xlink:href="#TimesNewRomanPSMT-54" x="291.699219"/>
      <use xlink:href="#TimesNewRomanPSMT-4f" x="351.033203"/>
     </g>
    </g>
    <g id="line2d_34">
     <path d="M 256.46764 176.657794 
L 264.38114 176.657794 
L 272.29464 176.657794 
" style="fill: none; stroke: #d62728; stroke-width: 1.5; stroke-linecap: square"/>
    </g>
    <g id="text_17">
     <!-- Root OBT -->
     <g transform="translate(278.62544 179.427519) scale(0.079135 -0.079135)">
      <use xlink:href="#TimesNewRomanPSMT-52"/>
      <use xlink:href="#TimesNewRomanPSMT-6f" x="66.699219"/>
      <use xlink:href="#TimesNewRomanPSMT-6f" x="116.699219"/>
      <use xlink:href="#TimesNewRomanPSMT-74" x="166.699219"/>
      <use xlink:href="#TimesNewRomanPSMT-20" x="194.482422"/>
      <use xlink:href="#TimesNewRomanPSMT-4f" x="219.482422"/>
      <use xlink:href="#TimesNewRomanPSMT-42" x="291.699219"/>
      <use xlink:href="#TimesNewRomanPSMT-54" x="358.398438"/>
     </g>
    </g>
   </g>
  </g>
 </g>
 <defs>
  <clipPath id="pcb27902542">
   <rect x="37.76524" y="3.00024" width="283.23452" height="185.242176"/>
  </clipPath>
 </defs>
</svg>
